M48
; DRILL file {KiCad 5.1.8} date Mon Dec 14 16:47:22 2020
; FORMAT={-:-/ absolute / metric / decimal}
; #@! TF.CreationDate,2020-12-14T16:47:22+01:00
; #@! TF.GenerationSoftware,Kicad,Pcbnew,5.1.8
; #@! TF.FileFunction,Plated,1,2,PTH
FMAT,2
METRIC
T1C1.000
T2C1.200
T3C2.200
T4C2.700
%
G90
G05
T1
X318.34Y-46.485
X318.34Y-49.025
X318.34Y-51.565
X318.34Y-54.105
X318.34Y-56.645
X318.34Y-59.185
X318.34Y-61.725
X318.34Y-64.265
X318.34Y-66.805
X318.34Y-69.345
X318.34Y-71.885
X318.34Y-74.425
X318.34Y-76.965
X318.34Y-79.505
X318.34Y-82.045
X318.34Y-84.585
X318.34Y-87.125
X318.34Y-89.665
X318.34Y-92.205
X318.34Y-94.745
X318.34Y-97.285
X318.34Y-99.825
X318.34Y-102.365
X318.34Y-104.905
X318.34Y-107.445
X318.34Y-109.985
X318.34Y-112.525
X318.34Y-115.065
X318.34Y-117.605
X318.34Y-120.145
X318.34Y-122.685
X318.34Y-125.225
X323.42Y-46.485
X323.42Y-49.025
X323.42Y-51.565
X323.42Y-54.105
X323.42Y-56.645
X323.42Y-59.185
X323.42Y-61.725
X323.42Y-64.265
X323.42Y-66.805
X323.42Y-69.345
X323.42Y-71.885
X323.42Y-74.425
X323.42Y-76.965
X323.42Y-79.505
X323.42Y-82.045
X323.42Y-84.585
X323.42Y-87.125
X323.42Y-89.665
X323.42Y-92.205
X323.42Y-94.745
X323.42Y-97.285
X323.42Y-99.825
X323.42Y-102.365
X323.42Y-104.905
X323.42Y-107.445
X323.42Y-109.985
X323.42Y-112.525
X323.42Y-115.065
X323.42Y-117.605
X323.42Y-120.145
X323.42Y-122.685
X323.42Y-125.225
X308.18Y-46.485
X308.18Y-49.025
X308.18Y-51.565
X308.18Y-54.105
X308.18Y-56.645
X308.18Y-59.185
X308.18Y-61.725
X308.18Y-64.265
X308.18Y-66.805
X308.18Y-69.345
X308.18Y-71.885
X308.18Y-74.425
X308.18Y-76.965
X308.18Y-79.505
X308.18Y-82.045
X308.18Y-84.585
X308.18Y-87.125
X308.18Y-89.665
X308.18Y-92.205
X308.18Y-94.745
X308.18Y-97.285
X308.18Y-99.825
X308.18Y-102.365
X308.18Y-104.905
X308.18Y-107.445
X308.18Y-109.985
X308.18Y-112.525
X308.18Y-115.065
X308.18Y-117.605
X308.18Y-120.145
X308.18Y-122.685
X308.18Y-125.225
X313.26Y-46.485
X313.26Y-49.025
X313.26Y-51.565
X313.26Y-54.105
X313.26Y-56.645
X313.26Y-59.185
X313.26Y-61.725
X313.26Y-64.265
X313.26Y-66.805
X313.26Y-69.345
X313.26Y-71.885
X313.26Y-74.425
X313.26Y-76.965
X313.26Y-79.505
X313.26Y-82.045
X313.26Y-84.585
X313.26Y-87.125
X313.26Y-89.665
X313.26Y-92.205
X313.26Y-94.745
X313.26Y-97.285
X313.26Y-99.825
X313.26Y-102.365
X313.26Y-104.905
X313.26Y-107.445
X313.26Y-109.985
X313.26Y-112.525
X313.26Y-115.065
X313.26Y-117.605
X313.26Y-120.145
X313.26Y-122.685
X313.26Y-125.225
X237.06Y-46.485
X237.06Y-49.025
X237.06Y-51.565
X237.06Y-54.105
X237.06Y-56.645
X237.06Y-59.185
X237.06Y-61.725
X237.06Y-64.265
X237.06Y-66.805
X237.06Y-69.345
X237.06Y-71.885
X237.06Y-74.425
X237.06Y-76.965
X237.06Y-79.505
X237.06Y-82.045
X237.06Y-84.585
X237.06Y-87.125
X237.06Y-89.665
X237.06Y-92.205
X237.06Y-94.745
X237.06Y-97.285
X237.06Y-99.825
X237.06Y-102.365
X237.06Y-104.905
X237.06Y-107.445
X237.06Y-109.985
X237.06Y-112.525
X237.06Y-115.065
X237.06Y-117.605
X237.06Y-120.145
X237.06Y-122.685
X237.06Y-125.225
X242.14Y-46.485
X242.14Y-49.025
X242.14Y-51.565
X242.14Y-54.105
X242.14Y-56.645
X242.14Y-59.185
X242.14Y-61.725
X242.14Y-64.265
X242.14Y-66.805
X242.14Y-69.345
X242.14Y-71.885
X242.14Y-74.425
X242.14Y-76.965
X242.14Y-79.505
X242.14Y-82.045
X242.14Y-84.585
X242.14Y-87.125
X242.14Y-89.665
X242.14Y-92.205
X242.14Y-94.745
X242.14Y-97.285
X242.14Y-99.825
X242.14Y-102.365
X242.14Y-104.905
X242.14Y-107.445
X242.14Y-109.985
X242.14Y-112.525
X242.14Y-115.065
X242.14Y-117.605
X242.14Y-120.145
X242.14Y-122.685
X242.14Y-125.225
X247.22Y-46.485
X247.22Y-49.025
X247.22Y-51.565
X247.22Y-54.105
X247.22Y-56.645
X247.22Y-59.185
X247.22Y-61.725
X247.22Y-64.265
X247.22Y-66.805
X247.22Y-69.345
X247.22Y-71.885
X247.22Y-74.425
X247.22Y-76.965
X247.22Y-79.505
X247.22Y-82.045
X247.22Y-84.585
X247.22Y-87.125
X247.22Y-89.665
X247.22Y-92.205
X247.22Y-94.745
X247.22Y-97.285
X247.22Y-99.825
X247.22Y-102.365
X247.22Y-104.905
X247.22Y-107.445
X247.22Y-109.985
X247.22Y-112.525
X247.22Y-115.065
X247.22Y-117.605
X247.22Y-120.145
X247.22Y-122.685
X247.22Y-125.225
X252.3Y-46.485
X252.3Y-49.025
X252.3Y-51.565
X252.3Y-54.105
X252.3Y-56.645
X252.3Y-59.185
X252.3Y-61.725
X252.3Y-64.265
X252.3Y-66.805
X252.3Y-69.345
X252.3Y-71.885
X252.3Y-74.425
X252.3Y-76.965
X252.3Y-79.505
X252.3Y-82.045
X252.3Y-84.585
X252.3Y-87.125
X252.3Y-89.665
X252.3Y-92.205
X252.3Y-94.745
X252.3Y-97.285
X252.3Y-99.825
X252.3Y-102.365
X252.3Y-104.905
X252.3Y-107.445
X252.3Y-109.985
X252.3Y-112.525
X252.3Y-115.065
X252.3Y-117.605
X252.3Y-120.145
X252.3Y-122.685
X252.3Y-125.225
X23.7Y-46.485
X23.7Y-49.025
X23.7Y-51.565
X23.7Y-54.105
X23.7Y-56.645
X23.7Y-59.185
X23.7Y-61.725
X23.7Y-64.265
X23.7Y-66.805
X23.7Y-69.345
X23.7Y-71.885
X23.7Y-74.425
X23.7Y-76.965
X23.7Y-79.505
X23.7Y-82.045
X23.7Y-84.585
X23.7Y-87.125
X23.7Y-89.665
X23.7Y-92.205
X23.7Y-94.745
X23.7Y-97.285
X23.7Y-99.825
X23.7Y-102.365
X23.7Y-104.905
X23.7Y-107.445
X23.7Y-109.985
X23.7Y-112.525
X23.7Y-115.065
X23.7Y-117.605
X23.7Y-120.145
X23.7Y-122.685
X23.7Y-125.225
X28.78Y-46.485
X28.78Y-49.025
X28.78Y-51.565
X28.78Y-54.105
X28.78Y-56.645
X28.78Y-59.185
X28.78Y-61.725
X28.78Y-64.265
X28.78Y-66.805
X28.78Y-69.345
X28.78Y-71.885
X28.78Y-74.425
X28.78Y-76.965
X28.78Y-79.505
X28.78Y-82.045
X28.78Y-84.585
X28.78Y-87.125
X28.78Y-89.665
X28.78Y-92.205
X28.78Y-94.745
X28.78Y-97.285
X28.78Y-99.825
X28.78Y-102.365
X28.78Y-104.905
X28.78Y-107.445
X28.78Y-109.985
X28.78Y-112.525
X28.78Y-115.065
X28.78Y-117.605
X28.78Y-120.145
X28.78Y-122.685
X28.78Y-125.225
X176.1Y-46.485
X176.1Y-49.025
X176.1Y-51.565
X176.1Y-54.105
X176.1Y-56.645
X176.1Y-59.185
X176.1Y-61.725
X176.1Y-64.265
X176.1Y-66.805
X176.1Y-69.345
X176.1Y-71.885
X176.1Y-74.425
X176.1Y-76.965
X176.1Y-79.505
X176.1Y-82.045
X176.1Y-84.585
X176.1Y-87.125
X176.1Y-89.665
X176.1Y-92.205
X176.1Y-94.745
X176.1Y-97.285
X176.1Y-99.825
X176.1Y-102.365
X176.1Y-104.905
X176.1Y-107.445
X176.1Y-109.985
X176.1Y-112.525
X176.1Y-115.065
X176.1Y-117.605
X176.1Y-120.145
X176.1Y-122.685
X176.1Y-125.225
X181.18Y-46.485
X181.18Y-49.025
X181.18Y-51.565
X181.18Y-54.105
X181.18Y-56.645
X181.18Y-59.185
X181.18Y-61.725
X181.18Y-64.265
X181.18Y-66.805
X181.18Y-69.345
X181.18Y-71.885
X181.18Y-74.425
X181.18Y-76.965
X181.18Y-79.505
X181.18Y-82.045
X181.18Y-84.585
X181.18Y-87.125
X181.18Y-89.665
X181.18Y-92.205
X181.18Y-94.745
X181.18Y-97.285
X181.18Y-99.825
X181.18Y-102.365
X181.18Y-104.905
X181.18Y-107.445
X181.18Y-109.985
X181.18Y-112.525
X181.18Y-115.065
X181.18Y-117.605
X181.18Y-120.145
X181.18Y-122.685
X181.18Y-125.225
X165.94Y-46.485
X165.94Y-49.025
X165.94Y-51.565
X165.94Y-54.105
X165.94Y-56.645
X165.94Y-59.185
X165.94Y-61.725
X165.94Y-64.265
X165.94Y-66.805
X165.94Y-69.345
X165.94Y-71.885
X165.94Y-74.425
X165.94Y-76.965
X165.94Y-79.505
X165.94Y-82.045
X165.94Y-84.585
X165.94Y-87.125
X165.94Y-89.665
X165.94Y-92.205
X165.94Y-94.745
X165.94Y-97.285
X165.94Y-99.825
X165.94Y-102.365
X165.94Y-104.905
X165.94Y-107.445
X165.94Y-109.985
X165.94Y-112.525
X165.94Y-115.065
X165.94Y-117.605
X165.94Y-120.145
X165.94Y-122.685
X165.94Y-125.225
X171.02Y-46.485
X171.02Y-49.025
X171.02Y-51.565
X171.02Y-54.105
X171.02Y-56.645
X171.02Y-59.185
X171.02Y-61.725
X171.02Y-64.265
X171.02Y-66.805
X171.02Y-69.345
X171.02Y-71.885
X171.02Y-74.425
X171.02Y-76.965
X171.02Y-79.505
X171.02Y-82.045
X171.02Y-84.585
X171.02Y-87.125
X171.02Y-89.665
X171.02Y-92.205
X171.02Y-94.745
X171.02Y-97.285
X171.02Y-99.825
X171.02Y-102.365
X171.02Y-104.905
X171.02Y-107.445
X171.02Y-109.985
X171.02Y-112.525
X171.02Y-115.065
X171.02Y-117.605
X171.02Y-120.145
X171.02Y-122.685
X171.02Y-125.225
X104.98Y-46.485
X104.98Y-49.025
X104.98Y-51.565
X104.98Y-54.105
X104.98Y-56.645
X104.98Y-59.185
X104.98Y-61.725
X104.98Y-64.265
X104.98Y-66.805
X104.98Y-69.345
X104.98Y-71.885
X104.98Y-74.425
X104.98Y-76.965
X104.98Y-79.505
X104.98Y-82.045
X104.98Y-84.585
X104.98Y-87.125
X104.98Y-89.665
X104.98Y-92.205
X104.98Y-94.745
X104.98Y-97.285
X104.98Y-99.825
X104.98Y-102.365
X104.98Y-104.905
X104.98Y-107.445
X104.98Y-109.985
X104.98Y-112.525
X104.98Y-115.065
X104.98Y-117.605
X104.98Y-120.145
X104.98Y-122.685
X104.98Y-125.225
X110.06Y-46.485
X110.06Y-49.025
X110.06Y-51.565
X110.06Y-54.105
X110.06Y-56.645
X110.06Y-59.185
X110.06Y-61.725
X110.06Y-64.265
X110.06Y-66.805
X110.06Y-69.345
X110.06Y-71.885
X110.06Y-74.425
X110.06Y-76.965
X110.06Y-79.505
X110.06Y-82.045
X110.06Y-84.585
X110.06Y-87.125
X110.06Y-89.665
X110.06Y-92.205
X110.06Y-94.745
X110.06Y-97.285
X110.06Y-99.825
X110.06Y-102.365
X110.06Y-104.905
X110.06Y-107.445
X110.06Y-109.985
X110.06Y-112.525
X110.06Y-115.065
X110.06Y-117.605
X110.06Y-120.145
X110.06Y-122.685
X110.06Y-125.225
X379.3Y-46.485
X379.3Y-49.025
X379.3Y-51.565
X379.3Y-54.105
X379.3Y-56.645
X379.3Y-59.185
X379.3Y-61.725
X379.3Y-64.265
X379.3Y-66.805
X379.3Y-69.345
X379.3Y-71.885
X379.3Y-74.425
X379.3Y-76.965
X379.3Y-79.505
X379.3Y-82.045
X379.3Y-84.585
X379.3Y-87.125
X379.3Y-89.665
X379.3Y-92.205
X379.3Y-94.745
X379.3Y-97.285
X379.3Y-99.825
X379.3Y-102.365
X379.3Y-104.905
X379.3Y-107.445
X379.3Y-109.985
X379.3Y-112.525
X379.3Y-115.065
X379.3Y-117.605
X379.3Y-120.145
X379.3Y-122.685
X379.3Y-125.225
X384.38Y-46.485
X384.38Y-49.025
X384.38Y-51.565
X384.38Y-54.105
X384.38Y-56.645
X384.38Y-59.185
X384.38Y-61.725
X384.38Y-64.265
X384.38Y-66.805
X384.38Y-69.345
X384.38Y-71.885
X384.38Y-74.425
X384.38Y-76.965
X384.38Y-79.505
X384.38Y-82.045
X384.38Y-84.585
X384.38Y-87.125
X384.38Y-89.665
X384.38Y-92.205
X384.38Y-94.745
X384.38Y-97.285
X384.38Y-99.825
X384.38Y-102.365
X384.38Y-104.905
X384.38Y-107.445
X384.38Y-109.985
X384.38Y-112.525
X384.38Y-115.065
X384.38Y-117.605
X384.38Y-120.145
X384.38Y-122.685
X384.38Y-125.225
X389.46Y-46.485
X389.46Y-49.025
X389.46Y-51.565
X389.46Y-54.105
X389.46Y-56.645
X389.46Y-59.185
X389.46Y-61.725
X389.46Y-64.265
X389.46Y-66.805
X389.46Y-69.345
X389.46Y-71.885
X389.46Y-74.425
X389.46Y-76.965
X389.46Y-79.505
X389.46Y-82.045
X389.46Y-84.585
X389.46Y-87.125
X389.46Y-89.665
X389.46Y-92.205
X389.46Y-94.745
X389.46Y-97.285
X389.46Y-99.825
X389.46Y-102.365
X389.46Y-104.905
X389.46Y-107.445
X389.46Y-109.985
X389.46Y-112.525
X389.46Y-115.065
X389.46Y-117.605
X389.46Y-120.145
X389.46Y-122.685
X389.46Y-125.225
X394.54Y-46.485
X394.54Y-49.025
X394.54Y-51.565
X394.54Y-54.105
X394.54Y-56.645
X394.54Y-59.185
X394.54Y-61.725
X394.54Y-64.265
X394.54Y-66.805
X394.54Y-69.345
X394.54Y-71.885
X394.54Y-74.425
X394.54Y-76.965
X394.54Y-79.505
X394.54Y-82.045
X394.54Y-84.585
X394.54Y-87.125
X394.54Y-89.665
X394.54Y-92.205
X394.54Y-94.745
X394.54Y-97.285
X394.54Y-99.825
X394.54Y-102.365
X394.54Y-104.905
X394.54Y-107.445
X394.54Y-109.985
X394.54Y-112.525
X394.54Y-115.065
X394.54Y-117.605
X394.54Y-120.145
X394.54Y-122.685
X394.54Y-125.225
X33.86Y-46.485
X33.86Y-49.025
X33.86Y-51.565
X33.86Y-54.105
X33.86Y-56.645
X33.86Y-59.185
X33.86Y-61.725
X33.86Y-64.265
X33.86Y-66.805
X33.86Y-69.345
X33.86Y-71.885
X33.86Y-74.425
X33.86Y-76.965
X33.86Y-79.505
X33.86Y-82.045
X33.86Y-84.585
X33.86Y-87.125
X33.86Y-89.665
X33.86Y-92.205
X33.86Y-94.745
X33.86Y-97.285
X33.86Y-99.825
X33.86Y-102.365
X33.86Y-104.905
X33.86Y-107.445
X33.86Y-109.985
X33.86Y-112.525
X33.86Y-115.065
X33.86Y-117.605
X33.86Y-120.145
X33.86Y-122.685
X33.86Y-125.225
X38.94Y-46.485
X38.94Y-49.025
X38.94Y-51.565
X38.94Y-54.105
X38.94Y-56.645
X38.94Y-59.185
X38.94Y-61.725
X38.94Y-64.265
X38.94Y-66.805
X38.94Y-69.345
X38.94Y-71.885
X38.94Y-74.425
X38.94Y-76.965
X38.94Y-79.505
X38.94Y-82.045
X38.94Y-84.585
X38.94Y-87.125
X38.94Y-89.665
X38.94Y-92.205
X38.94Y-94.745
X38.94Y-97.285
X38.94Y-99.825
X38.94Y-102.365
X38.94Y-104.905
X38.94Y-107.445
X38.94Y-109.985
X38.94Y-112.525
X38.94Y-115.065
X38.94Y-117.605
X38.94Y-120.145
X38.94Y-122.685
X38.94Y-125.225
X94.82Y-46.485
X94.82Y-49.025
X94.82Y-51.565
X94.82Y-54.105
X94.82Y-56.645
X94.82Y-59.185
X94.82Y-61.725
X94.82Y-64.265
X94.82Y-66.805
X94.82Y-69.345
X94.82Y-71.885
X94.82Y-74.425
X94.82Y-76.965
X94.82Y-79.505
X94.82Y-82.045
X94.82Y-84.585
X94.82Y-87.125
X94.82Y-89.665
X94.82Y-92.205
X94.82Y-94.745
X94.82Y-97.285
X94.82Y-99.825
X94.82Y-102.365
X94.82Y-104.905
X94.82Y-107.445
X94.82Y-109.985
X94.82Y-112.525
X94.82Y-115.065
X94.82Y-117.605
X94.82Y-120.145
X94.82Y-122.685
X94.82Y-125.225
X99.9Y-46.485
X99.9Y-49.025
X99.9Y-51.565
X99.9Y-54.105
X99.9Y-56.645
X99.9Y-59.185
X99.9Y-61.725
X99.9Y-64.265
X99.9Y-66.805
X99.9Y-69.345
X99.9Y-71.885
X99.9Y-74.425
X99.9Y-76.965
X99.9Y-79.505
X99.9Y-82.045
X99.9Y-84.585
X99.9Y-87.125
X99.9Y-89.665
X99.9Y-92.205
X99.9Y-94.745
X99.9Y-97.285
X99.9Y-99.825
X99.9Y-102.365
X99.9Y-104.905
X99.9Y-107.445
X99.9Y-109.985
X99.9Y-112.525
X99.9Y-115.065
X99.9Y-117.605
X99.9Y-120.145
X99.9Y-122.685
X99.9Y-125.225
T2
X413.12Y-45.185
X413.12Y-55.345
X423.28Y-45.185
X423.28Y-55.345
X400.12Y-45.185
X400.12Y-55.345
X410.28Y-45.185
X410.28Y-55.345
X426.12Y-45.185
X426.12Y-55.345
X436.28Y-45.185
X436.28Y-55.345
X345.98Y-52.555
X345.98Y-62.715
X356.14Y-52.555
X356.14Y-62.715
T3
X418.2Y-48.985
X405.2Y-48.985
X431.2Y-48.985
X351.06Y-56.355
T4
X86.9Y-147.105
X330.74Y-147.105
X25.94Y-147.105
X412.02Y-147.105
X310.42Y-147.105
X46.26Y-24.605
X25.94Y-24.605
X229.14Y-147.105
X66.58Y-147.105
X127.54Y-147.105
X147.86Y-147.105
X168.18Y-24.605
X66.58Y-24.605
X107.22Y-24.605
X249.46Y-147.105
X432.34Y-147.105
X188.5Y-147.105
X412.02Y-24.605
X391.7Y-147.105
X310.42Y-24.605
X290.1Y-147.105
X290.1Y-24.605
X371.38Y-24.605
X269.78Y-147.105
X188.5Y-24.605
X351.06Y-147.105
X208.82Y-24.605
X127.54Y-24.605
X46.26Y-147.105
X107.22Y-147.105
X249.46Y-24.605
X86.9Y-24.605
X391.7Y-24.605
X330.74Y-24.605
X147.86Y-24.605
X229.14Y-24.605
X168.18Y-147.105
X351.06Y-24.605
X432.34Y-24.605
X208.82Y-147.105
X269.78Y-24.605
X371.38Y-147.105
T0
M30
