G04 #@! TF.GenerationSoftware,KiCad,Pcbnew,5.1.8*
G04 #@! TF.CreationDate,2020-12-14T16:47:20+01:00*
G04 #@! TF.ProjectId,main,6d61696e-2e6b-4696-9361-645f70636258,v1.0.0*
G04 #@! TF.SameCoordinates,Original*
G04 #@! TF.FileFunction,Soldermask,Top*
G04 #@! TF.FilePolarity,Negative*
%FSLAX46Y46*%
G04 Gerber Fmt 4.6, Leading zero omitted, Abs format (unit mm)*
G04 Created by KiCad (PCBNEW 5.1.8) date 2020-12-14 16:47:20*
%MOMM*%
%LPD*%
G01*
G04 APERTURE LIST*
%ADD10C,4.200000*%
%ADD11C,2.000000*%
%ADD12C,4.700000*%
%ADD13C,2.850000*%
%ADD14C,1.550000*%
G04 APERTURE END LIST*
D10*
X351060000Y-56355000D03*
D11*
X356140000Y-52555000D03*
X356140000Y-62715000D03*
X345980000Y-62715000D03*
X345980000Y-52555000D03*
X413120000Y-45185000D03*
X413120000Y-55345000D03*
X423280000Y-55345000D03*
X423280000Y-45185000D03*
D10*
X418200000Y-48985000D03*
D11*
X400120000Y-45185000D03*
X400120000Y-55345000D03*
X410280000Y-55345000D03*
X410280000Y-45185000D03*
D10*
X405200000Y-48985000D03*
D11*
X426120000Y-45185000D03*
X426120000Y-55345000D03*
X436280000Y-55345000D03*
X436280000Y-45185000D03*
D10*
X431200000Y-48985000D03*
D12*
X432340000Y-147105000D03*
X432340000Y-24605000D03*
X412020000Y-147105000D03*
X412020000Y-24605000D03*
X391700000Y-147105000D03*
X391700000Y-24605000D03*
X371380000Y-147105000D03*
X371380000Y-24605000D03*
X351060000Y-147105000D03*
X351060000Y-24605000D03*
X330740000Y-147105000D03*
X330740000Y-24605000D03*
X310420000Y-147105000D03*
X310420000Y-24605000D03*
X290100000Y-147105000D03*
X290100000Y-24605000D03*
X269780000Y-147105000D03*
X269780000Y-24605000D03*
X249460000Y-147105000D03*
X249460000Y-24605000D03*
X229140000Y-147105000D03*
X229140000Y-24605000D03*
X208820000Y-147105000D03*
X208820000Y-24605000D03*
X188500000Y-147105000D03*
X188500000Y-24605000D03*
X168180000Y-147105000D03*
X168180000Y-24605000D03*
X147860000Y-147105000D03*
X147860000Y-24605000D03*
X127540000Y-147105000D03*
X127540000Y-24605000D03*
X107220000Y-147105000D03*
X107220000Y-24605000D03*
X86900000Y-147105000D03*
X86900000Y-24605000D03*
X66580000Y-147105000D03*
X66580000Y-24605000D03*
X46260000Y-147105000D03*
X46260000Y-24605000D03*
X25940000Y-147105000D03*
X25940000Y-24605000D03*
D13*
X36100000Y-130855000D03*
X36100000Y-40855000D03*
D14*
X38940000Y-125225000D03*
X38940000Y-122685000D03*
X38940000Y-120145000D03*
X38940000Y-117605000D03*
X38940000Y-115065000D03*
X38940000Y-112525000D03*
X38940000Y-109985000D03*
X38940000Y-107445000D03*
X38940000Y-104905000D03*
X38940000Y-102365000D03*
X38940000Y-99825000D03*
X38940000Y-97285000D03*
X38940000Y-94745000D03*
X38940000Y-92205000D03*
X38940000Y-89665000D03*
X38940000Y-87125000D03*
X38940000Y-84585000D03*
X38940000Y-82045000D03*
X38940000Y-79505000D03*
X38940000Y-76965000D03*
X38940000Y-74425000D03*
X38940000Y-71885000D03*
X38940000Y-69345000D03*
X38940000Y-66805000D03*
X38940000Y-64265000D03*
X38940000Y-61725000D03*
X38940000Y-59185000D03*
X38940000Y-56645000D03*
X38940000Y-54105000D03*
X38940000Y-51565000D03*
X38940000Y-49025000D03*
X38940000Y-46485000D03*
X33860000Y-125225000D03*
X33860000Y-122685000D03*
X33860000Y-120145000D03*
X33860000Y-117605000D03*
X33860000Y-115065000D03*
X33860000Y-112525000D03*
X33860000Y-109985000D03*
X33860000Y-107445000D03*
X33860000Y-104905000D03*
X33860000Y-102365000D03*
X33860000Y-99825000D03*
X33860000Y-97285000D03*
X33860000Y-94745000D03*
X33860000Y-92205000D03*
X33860000Y-89665000D03*
X33860000Y-87125000D03*
X33860000Y-84585000D03*
X33860000Y-82045000D03*
X33860000Y-79505000D03*
X33860000Y-76965000D03*
X33860000Y-74425000D03*
X33860000Y-71885000D03*
X33860000Y-69345000D03*
X33860000Y-66805000D03*
X33860000Y-64265000D03*
X33860000Y-61725000D03*
X33860000Y-59185000D03*
X33860000Y-56645000D03*
X33860000Y-54105000D03*
X33860000Y-51565000D03*
X33860000Y-49025000D03*
G36*
G01*
X33085000Y-47010001D02*
X33085000Y-45959999D01*
G75*
G02*
X33334999Y-45710000I249999J0D01*
G01*
X34385001Y-45710000D01*
G75*
G02*
X34635000Y-45959999I0J-249999D01*
G01*
X34635000Y-47010001D01*
G75*
G02*
X34385001Y-47260000I-249999J0D01*
G01*
X33334999Y-47260000D01*
G75*
G02*
X33085000Y-47010001I0J249999D01*
G01*
G37*
D13*
X391700000Y-130855000D03*
X391700000Y-40855000D03*
D14*
X394540000Y-125225000D03*
X394540000Y-122685000D03*
X394540000Y-120145000D03*
X394540000Y-117605000D03*
X394540000Y-115065000D03*
X394540000Y-112525000D03*
X394540000Y-109985000D03*
X394540000Y-107445000D03*
X394540000Y-104905000D03*
X394540000Y-102365000D03*
X394540000Y-99825000D03*
X394540000Y-97285000D03*
X394540000Y-94745000D03*
X394540000Y-92205000D03*
X394540000Y-89665000D03*
X394540000Y-87125000D03*
X394540000Y-84585000D03*
X394540000Y-82045000D03*
X394540000Y-79505000D03*
X394540000Y-76965000D03*
X394540000Y-74425000D03*
X394540000Y-71885000D03*
X394540000Y-69345000D03*
X394540000Y-66805000D03*
X394540000Y-64265000D03*
X394540000Y-61725000D03*
X394540000Y-59185000D03*
X394540000Y-56645000D03*
X394540000Y-54105000D03*
X394540000Y-51565000D03*
X394540000Y-49025000D03*
X394540000Y-46485000D03*
X389460000Y-125225000D03*
X389460000Y-122685000D03*
X389460000Y-120145000D03*
X389460000Y-117605000D03*
X389460000Y-115065000D03*
X389460000Y-112525000D03*
X389460000Y-109985000D03*
X389460000Y-107445000D03*
X389460000Y-104905000D03*
X389460000Y-102365000D03*
X389460000Y-99825000D03*
X389460000Y-97285000D03*
X389460000Y-94745000D03*
X389460000Y-92205000D03*
X389460000Y-89665000D03*
X389460000Y-87125000D03*
X389460000Y-84585000D03*
X389460000Y-82045000D03*
X389460000Y-79505000D03*
X389460000Y-76965000D03*
X389460000Y-74425000D03*
X389460000Y-71885000D03*
X389460000Y-69345000D03*
X389460000Y-66805000D03*
X389460000Y-64265000D03*
X389460000Y-61725000D03*
X389460000Y-59185000D03*
X389460000Y-56645000D03*
X389460000Y-54105000D03*
X389460000Y-51565000D03*
X389460000Y-49025000D03*
G36*
G01*
X388685000Y-47010001D02*
X388685000Y-45959999D01*
G75*
G02*
X388934999Y-45710000I249999J0D01*
G01*
X389985001Y-45710000D01*
G75*
G02*
X390235000Y-45959999I0J-249999D01*
G01*
X390235000Y-47010001D01*
G75*
G02*
X389985001Y-47260000I-249999J0D01*
G01*
X388934999Y-47260000D01*
G75*
G02*
X388685000Y-47010001I0J249999D01*
G01*
G37*
D13*
X320580000Y-130855000D03*
X320580000Y-40855000D03*
D14*
X323420000Y-125225000D03*
X323420000Y-122685000D03*
X323420000Y-120145000D03*
X323420000Y-117605000D03*
X323420000Y-115065000D03*
X323420000Y-112525000D03*
X323420000Y-109985000D03*
X323420000Y-107445000D03*
X323420000Y-104905000D03*
X323420000Y-102365000D03*
X323420000Y-99825000D03*
X323420000Y-97285000D03*
X323420000Y-94745000D03*
X323420000Y-92205000D03*
X323420000Y-89665000D03*
X323420000Y-87125000D03*
X323420000Y-84585000D03*
X323420000Y-82045000D03*
X323420000Y-79505000D03*
X323420000Y-76965000D03*
X323420000Y-74425000D03*
X323420000Y-71885000D03*
X323420000Y-69345000D03*
X323420000Y-66805000D03*
X323420000Y-64265000D03*
X323420000Y-61725000D03*
X323420000Y-59185000D03*
X323420000Y-56645000D03*
X323420000Y-54105000D03*
X323420000Y-51565000D03*
X323420000Y-49025000D03*
X323420000Y-46485000D03*
X318340000Y-125225000D03*
X318340000Y-122685000D03*
X318340000Y-120145000D03*
X318340000Y-117605000D03*
X318340000Y-115065000D03*
X318340000Y-112525000D03*
X318340000Y-109985000D03*
X318340000Y-107445000D03*
X318340000Y-104905000D03*
X318340000Y-102365000D03*
X318340000Y-99825000D03*
X318340000Y-97285000D03*
X318340000Y-94745000D03*
X318340000Y-92205000D03*
X318340000Y-89665000D03*
X318340000Y-87125000D03*
X318340000Y-84585000D03*
X318340000Y-82045000D03*
X318340000Y-79505000D03*
X318340000Y-76965000D03*
X318340000Y-74425000D03*
X318340000Y-71885000D03*
X318340000Y-69345000D03*
X318340000Y-66805000D03*
X318340000Y-64265000D03*
X318340000Y-61725000D03*
X318340000Y-59185000D03*
X318340000Y-56645000D03*
X318340000Y-54105000D03*
X318340000Y-51565000D03*
X318340000Y-49025000D03*
G36*
G01*
X317565000Y-47010001D02*
X317565000Y-45959999D01*
G75*
G02*
X317814999Y-45710000I249999J0D01*
G01*
X318865001Y-45710000D01*
G75*
G02*
X319115000Y-45959999I0J-249999D01*
G01*
X319115000Y-47010001D01*
G75*
G02*
X318865001Y-47260000I-249999J0D01*
G01*
X317814999Y-47260000D01*
G75*
G02*
X317565000Y-47010001I0J249999D01*
G01*
G37*
D13*
X249460000Y-130855000D03*
X249460000Y-40855000D03*
D14*
X252300000Y-125225000D03*
X252300000Y-122685000D03*
X252300000Y-120145000D03*
X252300000Y-117605000D03*
X252300000Y-115065000D03*
X252300000Y-112525000D03*
X252300000Y-109985000D03*
X252300000Y-107445000D03*
X252300000Y-104905000D03*
X252300000Y-102365000D03*
X252300000Y-99825000D03*
X252300000Y-97285000D03*
X252300000Y-94745000D03*
X252300000Y-92205000D03*
X252300000Y-89665000D03*
X252300000Y-87125000D03*
X252300000Y-84585000D03*
X252300000Y-82045000D03*
X252300000Y-79505000D03*
X252300000Y-76965000D03*
X252300000Y-74425000D03*
X252300000Y-71885000D03*
X252300000Y-69345000D03*
X252300000Y-66805000D03*
X252300000Y-64265000D03*
X252300000Y-61725000D03*
X252300000Y-59185000D03*
X252300000Y-56645000D03*
X252300000Y-54105000D03*
X252300000Y-51565000D03*
X252300000Y-49025000D03*
X252300000Y-46485000D03*
X247220000Y-125225000D03*
X247220000Y-122685000D03*
X247220000Y-120145000D03*
X247220000Y-117605000D03*
X247220000Y-115065000D03*
X247220000Y-112525000D03*
X247220000Y-109985000D03*
X247220000Y-107445000D03*
X247220000Y-104905000D03*
X247220000Y-102365000D03*
X247220000Y-99825000D03*
X247220000Y-97285000D03*
X247220000Y-94745000D03*
X247220000Y-92205000D03*
X247220000Y-89665000D03*
X247220000Y-87125000D03*
X247220000Y-84585000D03*
X247220000Y-82045000D03*
X247220000Y-79505000D03*
X247220000Y-76965000D03*
X247220000Y-74425000D03*
X247220000Y-71885000D03*
X247220000Y-69345000D03*
X247220000Y-66805000D03*
X247220000Y-64265000D03*
X247220000Y-61725000D03*
X247220000Y-59185000D03*
X247220000Y-56645000D03*
X247220000Y-54105000D03*
X247220000Y-51565000D03*
X247220000Y-49025000D03*
G36*
G01*
X246445000Y-47010001D02*
X246445000Y-45959999D01*
G75*
G02*
X246694999Y-45710000I249999J0D01*
G01*
X247745001Y-45710000D01*
G75*
G02*
X247995000Y-45959999I0J-249999D01*
G01*
X247995000Y-47010001D01*
G75*
G02*
X247745001Y-47260000I-249999J0D01*
G01*
X246694999Y-47260000D01*
G75*
G02*
X246445000Y-47010001I0J249999D01*
G01*
G37*
D13*
X178340000Y-130855000D03*
X178340000Y-40855000D03*
D14*
X181180000Y-125225000D03*
X181180000Y-122685000D03*
X181180000Y-120145000D03*
X181180000Y-117605000D03*
X181180000Y-115065000D03*
X181180000Y-112525000D03*
X181180000Y-109985000D03*
X181180000Y-107445000D03*
X181180000Y-104905000D03*
X181180000Y-102365000D03*
X181180000Y-99825000D03*
X181180000Y-97285000D03*
X181180000Y-94745000D03*
X181180000Y-92205000D03*
X181180000Y-89665000D03*
X181180000Y-87125000D03*
X181180000Y-84585000D03*
X181180000Y-82045000D03*
X181180000Y-79505000D03*
X181180000Y-76965000D03*
X181180000Y-74425000D03*
X181180000Y-71885000D03*
X181180000Y-69345000D03*
X181180000Y-66805000D03*
X181180000Y-64265000D03*
X181180000Y-61725000D03*
X181180000Y-59185000D03*
X181180000Y-56645000D03*
X181180000Y-54105000D03*
X181180000Y-51565000D03*
X181180000Y-49025000D03*
X181180000Y-46485000D03*
X176100000Y-125225000D03*
X176100000Y-122685000D03*
X176100000Y-120145000D03*
X176100000Y-117605000D03*
X176100000Y-115065000D03*
X176100000Y-112525000D03*
X176100000Y-109985000D03*
X176100000Y-107445000D03*
X176100000Y-104905000D03*
X176100000Y-102365000D03*
X176100000Y-99825000D03*
X176100000Y-97285000D03*
X176100000Y-94745000D03*
X176100000Y-92205000D03*
X176100000Y-89665000D03*
X176100000Y-87125000D03*
X176100000Y-84585000D03*
X176100000Y-82045000D03*
X176100000Y-79505000D03*
X176100000Y-76965000D03*
X176100000Y-74425000D03*
X176100000Y-71885000D03*
X176100000Y-69345000D03*
X176100000Y-66805000D03*
X176100000Y-64265000D03*
X176100000Y-61725000D03*
X176100000Y-59185000D03*
X176100000Y-56645000D03*
X176100000Y-54105000D03*
X176100000Y-51565000D03*
X176100000Y-49025000D03*
G36*
G01*
X175325000Y-47010001D02*
X175325000Y-45959999D01*
G75*
G02*
X175574999Y-45710000I249999J0D01*
G01*
X176625001Y-45710000D01*
G75*
G02*
X176875000Y-45959999I0J-249999D01*
G01*
X176875000Y-47010001D01*
G75*
G02*
X176625001Y-47260000I-249999J0D01*
G01*
X175574999Y-47260000D01*
G75*
G02*
X175325000Y-47010001I0J249999D01*
G01*
G37*
D13*
X107220000Y-130855000D03*
X107220000Y-40855000D03*
D14*
X110060000Y-125225000D03*
X110060000Y-122685000D03*
X110060000Y-120145000D03*
X110060000Y-117605000D03*
X110060000Y-115065000D03*
X110060000Y-112525000D03*
X110060000Y-109985000D03*
X110060000Y-107445000D03*
X110060000Y-104905000D03*
X110060000Y-102365000D03*
X110060000Y-99825000D03*
X110060000Y-97285000D03*
X110060000Y-94745000D03*
X110060000Y-92205000D03*
X110060000Y-89665000D03*
X110060000Y-87125000D03*
X110060000Y-84585000D03*
X110060000Y-82045000D03*
X110060000Y-79505000D03*
X110060000Y-76965000D03*
X110060000Y-74425000D03*
X110060000Y-71885000D03*
X110060000Y-69345000D03*
X110060000Y-66805000D03*
X110060000Y-64265000D03*
X110060000Y-61725000D03*
X110060000Y-59185000D03*
X110060000Y-56645000D03*
X110060000Y-54105000D03*
X110060000Y-51565000D03*
X110060000Y-49025000D03*
X110060000Y-46485000D03*
X104980000Y-125225000D03*
X104980000Y-122685000D03*
X104980000Y-120145000D03*
X104980000Y-117605000D03*
X104980000Y-115065000D03*
X104980000Y-112525000D03*
X104980000Y-109985000D03*
X104980000Y-107445000D03*
X104980000Y-104905000D03*
X104980000Y-102365000D03*
X104980000Y-99825000D03*
X104980000Y-97285000D03*
X104980000Y-94745000D03*
X104980000Y-92205000D03*
X104980000Y-89665000D03*
X104980000Y-87125000D03*
X104980000Y-84585000D03*
X104980000Y-82045000D03*
X104980000Y-79505000D03*
X104980000Y-76965000D03*
X104980000Y-74425000D03*
X104980000Y-71885000D03*
X104980000Y-69345000D03*
X104980000Y-66805000D03*
X104980000Y-64265000D03*
X104980000Y-61725000D03*
X104980000Y-59185000D03*
X104980000Y-56645000D03*
X104980000Y-54105000D03*
X104980000Y-51565000D03*
X104980000Y-49025000D03*
G36*
G01*
X104205000Y-47010001D02*
X104205000Y-45959999D01*
G75*
G02*
X104454999Y-45710000I249999J0D01*
G01*
X105505001Y-45710000D01*
G75*
G02*
X105755000Y-45959999I0J-249999D01*
G01*
X105755000Y-47010001D01*
G75*
G02*
X105505001Y-47260000I-249999J0D01*
G01*
X104454999Y-47260000D01*
G75*
G02*
X104205000Y-47010001I0J249999D01*
G01*
G37*
D13*
X381540000Y-130855000D03*
X381540000Y-40855000D03*
D14*
X384380000Y-125225000D03*
X384380000Y-122685000D03*
X384380000Y-120145000D03*
X384380000Y-117605000D03*
X384380000Y-115065000D03*
X384380000Y-112525000D03*
X384380000Y-109985000D03*
X384380000Y-107445000D03*
X384380000Y-104905000D03*
X384380000Y-102365000D03*
X384380000Y-99825000D03*
X384380000Y-97285000D03*
X384380000Y-94745000D03*
X384380000Y-92205000D03*
X384380000Y-89665000D03*
X384380000Y-87125000D03*
X384380000Y-84585000D03*
X384380000Y-82045000D03*
X384380000Y-79505000D03*
X384380000Y-76965000D03*
X384380000Y-74425000D03*
X384380000Y-71885000D03*
X384380000Y-69345000D03*
X384380000Y-66805000D03*
X384380000Y-64265000D03*
X384380000Y-61725000D03*
X384380000Y-59185000D03*
X384380000Y-56645000D03*
X384380000Y-54105000D03*
X384380000Y-51565000D03*
X384380000Y-49025000D03*
X384380000Y-46485000D03*
X379300000Y-125225000D03*
X379300000Y-122685000D03*
X379300000Y-120145000D03*
X379300000Y-117605000D03*
X379300000Y-115065000D03*
X379300000Y-112525000D03*
X379300000Y-109985000D03*
X379300000Y-107445000D03*
X379300000Y-104905000D03*
X379300000Y-102365000D03*
X379300000Y-99825000D03*
X379300000Y-97285000D03*
X379300000Y-94745000D03*
X379300000Y-92205000D03*
X379300000Y-89665000D03*
X379300000Y-87125000D03*
X379300000Y-84585000D03*
X379300000Y-82045000D03*
X379300000Y-79505000D03*
X379300000Y-76965000D03*
X379300000Y-74425000D03*
X379300000Y-71885000D03*
X379300000Y-69345000D03*
X379300000Y-66805000D03*
X379300000Y-64265000D03*
X379300000Y-61725000D03*
X379300000Y-59185000D03*
X379300000Y-56645000D03*
X379300000Y-54105000D03*
X379300000Y-51565000D03*
X379300000Y-49025000D03*
G36*
G01*
X378525000Y-47010001D02*
X378525000Y-45959999D01*
G75*
G02*
X378774999Y-45710000I249999J0D01*
G01*
X379825001Y-45710000D01*
G75*
G02*
X380075000Y-45959999I0J-249999D01*
G01*
X380075000Y-47010001D01*
G75*
G02*
X379825001Y-47260000I-249999J0D01*
G01*
X378774999Y-47260000D01*
G75*
G02*
X378525000Y-47010001I0J249999D01*
G01*
G37*
D13*
X310420000Y-130855000D03*
X310420000Y-40855000D03*
D14*
X313260000Y-125225000D03*
X313260000Y-122685000D03*
X313260000Y-120145000D03*
X313260000Y-117605000D03*
X313260000Y-115065000D03*
X313260000Y-112525000D03*
X313260000Y-109985000D03*
X313260000Y-107445000D03*
X313260000Y-104905000D03*
X313260000Y-102365000D03*
X313260000Y-99825000D03*
X313260000Y-97285000D03*
X313260000Y-94745000D03*
X313260000Y-92205000D03*
X313260000Y-89665000D03*
X313260000Y-87125000D03*
X313260000Y-84585000D03*
X313260000Y-82045000D03*
X313260000Y-79505000D03*
X313260000Y-76965000D03*
X313260000Y-74425000D03*
X313260000Y-71885000D03*
X313260000Y-69345000D03*
X313260000Y-66805000D03*
X313260000Y-64265000D03*
X313260000Y-61725000D03*
X313260000Y-59185000D03*
X313260000Y-56645000D03*
X313260000Y-54105000D03*
X313260000Y-51565000D03*
X313260000Y-49025000D03*
X313260000Y-46485000D03*
X308180000Y-125225000D03*
X308180000Y-122685000D03*
X308180000Y-120145000D03*
X308180000Y-117605000D03*
X308180000Y-115065000D03*
X308180000Y-112525000D03*
X308180000Y-109985000D03*
X308180000Y-107445000D03*
X308180000Y-104905000D03*
X308180000Y-102365000D03*
X308180000Y-99825000D03*
X308180000Y-97285000D03*
X308180000Y-94745000D03*
X308180000Y-92205000D03*
X308180000Y-89665000D03*
X308180000Y-87125000D03*
X308180000Y-84585000D03*
X308180000Y-82045000D03*
X308180000Y-79505000D03*
X308180000Y-76965000D03*
X308180000Y-74425000D03*
X308180000Y-71885000D03*
X308180000Y-69345000D03*
X308180000Y-66805000D03*
X308180000Y-64265000D03*
X308180000Y-61725000D03*
X308180000Y-59185000D03*
X308180000Y-56645000D03*
X308180000Y-54105000D03*
X308180000Y-51565000D03*
X308180000Y-49025000D03*
G36*
G01*
X307405000Y-47010001D02*
X307405000Y-45959999D01*
G75*
G02*
X307654999Y-45710000I249999J0D01*
G01*
X308705001Y-45710000D01*
G75*
G02*
X308955000Y-45959999I0J-249999D01*
G01*
X308955000Y-47010001D01*
G75*
G02*
X308705001Y-47260000I-249999J0D01*
G01*
X307654999Y-47260000D01*
G75*
G02*
X307405000Y-47010001I0J249999D01*
G01*
G37*
D13*
X239300000Y-130855000D03*
X239300000Y-40855000D03*
D14*
X242140000Y-125225000D03*
X242140000Y-122685000D03*
X242140000Y-120145000D03*
X242140000Y-117605000D03*
X242140000Y-115065000D03*
X242140000Y-112525000D03*
X242140000Y-109985000D03*
X242140000Y-107445000D03*
X242140000Y-104905000D03*
X242140000Y-102365000D03*
X242140000Y-99825000D03*
X242140000Y-97285000D03*
X242140000Y-94745000D03*
X242140000Y-92205000D03*
X242140000Y-89665000D03*
X242140000Y-87125000D03*
X242140000Y-84585000D03*
X242140000Y-82045000D03*
X242140000Y-79505000D03*
X242140000Y-76965000D03*
X242140000Y-74425000D03*
X242140000Y-71885000D03*
X242140000Y-69345000D03*
X242140000Y-66805000D03*
X242140000Y-64265000D03*
X242140000Y-61725000D03*
X242140000Y-59185000D03*
X242140000Y-56645000D03*
X242140000Y-54105000D03*
X242140000Y-51565000D03*
X242140000Y-49025000D03*
X242140000Y-46485000D03*
X237060000Y-125225000D03*
X237060000Y-122685000D03*
X237060000Y-120145000D03*
X237060000Y-117605000D03*
X237060000Y-115065000D03*
X237060000Y-112525000D03*
X237060000Y-109985000D03*
X237060000Y-107445000D03*
X237060000Y-104905000D03*
X237060000Y-102365000D03*
X237060000Y-99825000D03*
X237060000Y-97285000D03*
X237060000Y-94745000D03*
X237060000Y-92205000D03*
X237060000Y-89665000D03*
X237060000Y-87125000D03*
X237060000Y-84585000D03*
X237060000Y-82045000D03*
X237060000Y-79505000D03*
X237060000Y-76965000D03*
X237060000Y-74425000D03*
X237060000Y-71885000D03*
X237060000Y-69345000D03*
X237060000Y-66805000D03*
X237060000Y-64265000D03*
X237060000Y-61725000D03*
X237060000Y-59185000D03*
X237060000Y-56645000D03*
X237060000Y-54105000D03*
X237060000Y-51565000D03*
X237060000Y-49025000D03*
G36*
G01*
X236285000Y-47010001D02*
X236285000Y-45959999D01*
G75*
G02*
X236534999Y-45710000I249999J0D01*
G01*
X237585001Y-45710000D01*
G75*
G02*
X237835000Y-45959999I0J-249999D01*
G01*
X237835000Y-47010001D01*
G75*
G02*
X237585001Y-47260000I-249999J0D01*
G01*
X236534999Y-47260000D01*
G75*
G02*
X236285000Y-47010001I0J249999D01*
G01*
G37*
D13*
X168180000Y-130855000D03*
X168180000Y-40855000D03*
D14*
X171020000Y-125225000D03*
X171020000Y-122685000D03*
X171020000Y-120145000D03*
X171020000Y-117605000D03*
X171020000Y-115065000D03*
X171020000Y-112525000D03*
X171020000Y-109985000D03*
X171020000Y-107445000D03*
X171020000Y-104905000D03*
X171020000Y-102365000D03*
X171020000Y-99825000D03*
X171020000Y-97285000D03*
X171020000Y-94745000D03*
X171020000Y-92205000D03*
X171020000Y-89665000D03*
X171020000Y-87125000D03*
X171020000Y-84585000D03*
X171020000Y-82045000D03*
X171020000Y-79505000D03*
X171020000Y-76965000D03*
X171020000Y-74425000D03*
X171020000Y-71885000D03*
X171020000Y-69345000D03*
X171020000Y-66805000D03*
X171020000Y-64265000D03*
X171020000Y-61725000D03*
X171020000Y-59185000D03*
X171020000Y-56645000D03*
X171020000Y-54105000D03*
X171020000Y-51565000D03*
X171020000Y-49025000D03*
X171020000Y-46485000D03*
X165940000Y-125225000D03*
X165940000Y-122685000D03*
X165940000Y-120145000D03*
X165940000Y-117605000D03*
X165940000Y-115065000D03*
X165940000Y-112525000D03*
X165940000Y-109985000D03*
X165940000Y-107445000D03*
X165940000Y-104905000D03*
X165940000Y-102365000D03*
X165940000Y-99825000D03*
X165940000Y-97285000D03*
X165940000Y-94745000D03*
X165940000Y-92205000D03*
X165940000Y-89665000D03*
X165940000Y-87125000D03*
X165940000Y-84585000D03*
X165940000Y-82045000D03*
X165940000Y-79505000D03*
X165940000Y-76965000D03*
X165940000Y-74425000D03*
X165940000Y-71885000D03*
X165940000Y-69345000D03*
X165940000Y-66805000D03*
X165940000Y-64265000D03*
X165940000Y-61725000D03*
X165940000Y-59185000D03*
X165940000Y-56645000D03*
X165940000Y-54105000D03*
X165940000Y-51565000D03*
X165940000Y-49025000D03*
G36*
G01*
X165165000Y-47010001D02*
X165165000Y-45959999D01*
G75*
G02*
X165414999Y-45710000I249999J0D01*
G01*
X166465001Y-45710000D01*
G75*
G02*
X166715000Y-45959999I0J-249999D01*
G01*
X166715000Y-47010001D01*
G75*
G02*
X166465001Y-47260000I-249999J0D01*
G01*
X165414999Y-47260000D01*
G75*
G02*
X165165000Y-47010001I0J249999D01*
G01*
G37*
G36*
G01*
X94045000Y-47010001D02*
X94045000Y-45959999D01*
G75*
G02*
X94294999Y-45710000I249999J0D01*
G01*
X95345001Y-45710000D01*
G75*
G02*
X95595000Y-45959999I0J-249999D01*
G01*
X95595000Y-47010001D01*
G75*
G02*
X95345001Y-47260000I-249999J0D01*
G01*
X94294999Y-47260000D01*
G75*
G02*
X94045000Y-47010001I0J249999D01*
G01*
G37*
X94820000Y-49025000D03*
X94820000Y-51565000D03*
X94820000Y-54105000D03*
X94820000Y-56645000D03*
X94820000Y-59185000D03*
X94820000Y-61725000D03*
X94820000Y-64265000D03*
X94820000Y-66805000D03*
X94820000Y-69345000D03*
X94820000Y-71885000D03*
X94820000Y-74425000D03*
X94820000Y-76965000D03*
X94820000Y-79505000D03*
X94820000Y-82045000D03*
X94820000Y-84585000D03*
X94820000Y-87125000D03*
X94820000Y-89665000D03*
X94820000Y-92205000D03*
X94820000Y-94745000D03*
X94820000Y-97285000D03*
X94820000Y-99825000D03*
X94820000Y-102365000D03*
X94820000Y-104905000D03*
X94820000Y-107445000D03*
X94820000Y-109985000D03*
X94820000Y-112525000D03*
X94820000Y-115065000D03*
X94820000Y-117605000D03*
X94820000Y-120145000D03*
X94820000Y-122685000D03*
X94820000Y-125225000D03*
X99900000Y-46485000D03*
X99900000Y-49025000D03*
X99900000Y-51565000D03*
X99900000Y-54105000D03*
X99900000Y-56645000D03*
X99900000Y-59185000D03*
X99900000Y-61725000D03*
X99900000Y-64265000D03*
X99900000Y-66805000D03*
X99900000Y-69345000D03*
X99900000Y-71885000D03*
X99900000Y-74425000D03*
X99900000Y-76965000D03*
X99900000Y-79505000D03*
X99900000Y-82045000D03*
X99900000Y-84585000D03*
X99900000Y-87125000D03*
X99900000Y-89665000D03*
X99900000Y-92205000D03*
X99900000Y-94745000D03*
X99900000Y-97285000D03*
X99900000Y-99825000D03*
X99900000Y-102365000D03*
X99900000Y-104905000D03*
X99900000Y-107445000D03*
X99900000Y-109985000D03*
X99900000Y-112525000D03*
X99900000Y-115065000D03*
X99900000Y-117605000D03*
X99900000Y-120145000D03*
X99900000Y-122685000D03*
X99900000Y-125225000D03*
D13*
X97060000Y-40855000D03*
X97060000Y-130855000D03*
G36*
G01*
X22925000Y-47010001D02*
X22925000Y-45959999D01*
G75*
G02*
X23174999Y-45710000I249999J0D01*
G01*
X24225001Y-45710000D01*
G75*
G02*
X24475000Y-45959999I0J-249999D01*
G01*
X24475000Y-47010001D01*
G75*
G02*
X24225001Y-47260000I-249999J0D01*
G01*
X23174999Y-47260000D01*
G75*
G02*
X22925000Y-47010001I0J249999D01*
G01*
G37*
D14*
X23700000Y-49025000D03*
X23700000Y-51565000D03*
X23700000Y-54105000D03*
X23700000Y-56645000D03*
X23700000Y-59185000D03*
X23700000Y-61725000D03*
X23700000Y-64265000D03*
X23700000Y-66805000D03*
X23700000Y-69345000D03*
X23700000Y-71885000D03*
X23700000Y-74425000D03*
X23700000Y-76965000D03*
X23700000Y-79505000D03*
X23700000Y-82045000D03*
X23700000Y-84585000D03*
X23700000Y-87125000D03*
X23700000Y-89665000D03*
X23700000Y-92205000D03*
X23700000Y-94745000D03*
X23700000Y-97285000D03*
X23700000Y-99825000D03*
X23700000Y-102365000D03*
X23700000Y-104905000D03*
X23700000Y-107445000D03*
X23700000Y-109985000D03*
X23700000Y-112525000D03*
X23700000Y-115065000D03*
X23700000Y-117605000D03*
X23700000Y-120145000D03*
X23700000Y-122685000D03*
X23700000Y-125225000D03*
X28780000Y-46485000D03*
X28780000Y-49025000D03*
X28780000Y-51565000D03*
X28780000Y-54105000D03*
X28780000Y-56645000D03*
X28780000Y-59185000D03*
X28780000Y-61725000D03*
X28780000Y-64265000D03*
X28780000Y-66805000D03*
X28780000Y-69345000D03*
X28780000Y-71885000D03*
X28780000Y-74425000D03*
X28780000Y-76965000D03*
X28780000Y-79505000D03*
X28780000Y-82045000D03*
X28780000Y-84585000D03*
X28780000Y-87125000D03*
X28780000Y-89665000D03*
X28780000Y-92205000D03*
X28780000Y-94745000D03*
X28780000Y-97285000D03*
X28780000Y-99825000D03*
X28780000Y-102365000D03*
X28780000Y-104905000D03*
X28780000Y-107445000D03*
X28780000Y-109985000D03*
X28780000Y-112525000D03*
X28780000Y-115065000D03*
X28780000Y-117605000D03*
X28780000Y-120145000D03*
X28780000Y-122685000D03*
X28780000Y-125225000D03*
D13*
X25940000Y-40855000D03*
X25940000Y-130855000D03*
M02*
