G04 #@! TF.GenerationSoftware,KiCad,Pcbnew,5.1.8*
G04 #@! TF.CreationDate,2020-12-14T16:47:20+01:00*
G04 #@! TF.ProjectId,main,6d61696e-2e6b-4696-9361-645f70636258,v1.0.0*
G04 #@! TF.SameCoordinates,Original*
G04 #@! TF.FileFunction,Other,Fab,Top*
%FSLAX46Y46*%
G04 Gerber Fmt 4.6, Leading zero omitted, Abs format (unit mm)*
G04 Created by KiCad (PCBNEW 5.1.8) date 2020-12-14 16:47:20*
%MOMM*%
%LPD*%
G01*
G04 APERTURE LIST*
%ADD10C,0.100000*%
%ADD11C,0.150000*%
G04 APERTURE END LIST*
D10*
X32150000Y-43355000D02*
X37650000Y-43355000D01*
X37650000Y-43355000D02*
X37650000Y-44355000D01*
X37650000Y-44355000D02*
X40650000Y-44355000D01*
X40650000Y-44355000D02*
X40650000Y-127355000D01*
X40650000Y-127355000D02*
X37650000Y-127355000D01*
X37650000Y-127355000D02*
X37650000Y-128355000D01*
X37650000Y-128355000D02*
X32150000Y-128355000D01*
X32150000Y-128355000D02*
X32150000Y-43355000D01*
X31100000Y-38355000D02*
X41700000Y-38355000D01*
X41700000Y-38355000D02*
X41700000Y-133355000D01*
X41700000Y-133355000D02*
X31100000Y-133355000D01*
X31100000Y-133355000D02*
X31100000Y-38355000D01*
X31100000Y-45985000D02*
X31800000Y-46485000D01*
X31800000Y-46485000D02*
X31100000Y-46985000D01*
X387750000Y-43355000D02*
X393250000Y-43355000D01*
X393250000Y-43355000D02*
X393250000Y-44355000D01*
X393250000Y-44355000D02*
X396250000Y-44355000D01*
X396250000Y-44355000D02*
X396250000Y-127355000D01*
X396250000Y-127355000D02*
X393250000Y-127355000D01*
X393250000Y-127355000D02*
X393250000Y-128355000D01*
X393250000Y-128355000D02*
X387750000Y-128355000D01*
X387750000Y-128355000D02*
X387750000Y-43355000D01*
X386700000Y-38355000D02*
X397300000Y-38355000D01*
X397300000Y-38355000D02*
X397300000Y-133355000D01*
X397300000Y-133355000D02*
X386700000Y-133355000D01*
X386700000Y-133355000D02*
X386700000Y-38355000D01*
X386700000Y-45985000D02*
X387400000Y-46485000D01*
X387400000Y-46485000D02*
X386700000Y-46985000D01*
X316630000Y-43355000D02*
X322130000Y-43355000D01*
X322130000Y-43355000D02*
X322130000Y-44355000D01*
X322130000Y-44355000D02*
X325130000Y-44355000D01*
X325130000Y-44355000D02*
X325130000Y-127355000D01*
X325130000Y-127355000D02*
X322130000Y-127355000D01*
X322130000Y-127355000D02*
X322130000Y-128355000D01*
X322130000Y-128355000D02*
X316630000Y-128355000D01*
X316630000Y-128355000D02*
X316630000Y-43355000D01*
X315580000Y-38355000D02*
X326180000Y-38355000D01*
X326180000Y-38355000D02*
X326180000Y-133355000D01*
X326180000Y-133355000D02*
X315580000Y-133355000D01*
X315580000Y-133355000D02*
X315580000Y-38355000D01*
X315580000Y-45985000D02*
X316280000Y-46485000D01*
X316280000Y-46485000D02*
X315580000Y-46985000D01*
X245510000Y-43355000D02*
X251010000Y-43355000D01*
X251010000Y-43355000D02*
X251010000Y-44355000D01*
X251010000Y-44355000D02*
X254010000Y-44355000D01*
X254010000Y-44355000D02*
X254010000Y-127355000D01*
X254010000Y-127355000D02*
X251010000Y-127355000D01*
X251010000Y-127355000D02*
X251010000Y-128355000D01*
X251010000Y-128355000D02*
X245510000Y-128355000D01*
X245510000Y-128355000D02*
X245510000Y-43355000D01*
X244460000Y-38355000D02*
X255060000Y-38355000D01*
X255060000Y-38355000D02*
X255060000Y-133355000D01*
X255060000Y-133355000D02*
X244460000Y-133355000D01*
X244460000Y-133355000D02*
X244460000Y-38355000D01*
X244460000Y-45985000D02*
X245160000Y-46485000D01*
X245160000Y-46485000D02*
X244460000Y-46985000D01*
X174390000Y-43355000D02*
X179890000Y-43355000D01*
X179890000Y-43355000D02*
X179890000Y-44355000D01*
X179890000Y-44355000D02*
X182890000Y-44355000D01*
X182890000Y-44355000D02*
X182890000Y-127355000D01*
X182890000Y-127355000D02*
X179890000Y-127355000D01*
X179890000Y-127355000D02*
X179890000Y-128355000D01*
X179890000Y-128355000D02*
X174390000Y-128355000D01*
X174390000Y-128355000D02*
X174390000Y-43355000D01*
X173340000Y-38355000D02*
X183940000Y-38355000D01*
X183940000Y-38355000D02*
X183940000Y-133355000D01*
X183940000Y-133355000D02*
X173340000Y-133355000D01*
X173340000Y-133355000D02*
X173340000Y-38355000D01*
X173340000Y-45985000D02*
X174040000Y-46485000D01*
X174040000Y-46485000D02*
X173340000Y-46985000D01*
X103270000Y-43355000D02*
X108770000Y-43355000D01*
X108770000Y-43355000D02*
X108770000Y-44355000D01*
X108770000Y-44355000D02*
X111770000Y-44355000D01*
X111770000Y-44355000D02*
X111770000Y-127355000D01*
X111770000Y-127355000D02*
X108770000Y-127355000D01*
X108770000Y-127355000D02*
X108770000Y-128355000D01*
X108770000Y-128355000D02*
X103270000Y-128355000D01*
X103270000Y-128355000D02*
X103270000Y-43355000D01*
X102220000Y-38355000D02*
X112820000Y-38355000D01*
X112820000Y-38355000D02*
X112820000Y-133355000D01*
X112820000Y-133355000D02*
X102220000Y-133355000D01*
X102220000Y-133355000D02*
X102220000Y-38355000D01*
X102220000Y-45985000D02*
X102920000Y-46485000D01*
X102920000Y-46485000D02*
X102220000Y-46985000D01*
X377590000Y-43355000D02*
X383090000Y-43355000D01*
X383090000Y-43355000D02*
X383090000Y-44355000D01*
X383090000Y-44355000D02*
X386090000Y-44355000D01*
X386090000Y-44355000D02*
X386090000Y-127355000D01*
X386090000Y-127355000D02*
X383090000Y-127355000D01*
X383090000Y-127355000D02*
X383090000Y-128355000D01*
X383090000Y-128355000D02*
X377590000Y-128355000D01*
X377590000Y-128355000D02*
X377590000Y-43355000D01*
X376540000Y-38355000D02*
X387140000Y-38355000D01*
X387140000Y-38355000D02*
X387140000Y-133355000D01*
X387140000Y-133355000D02*
X376540000Y-133355000D01*
X376540000Y-133355000D02*
X376540000Y-38355000D01*
X376540000Y-45985000D02*
X377240000Y-46485000D01*
X377240000Y-46485000D02*
X376540000Y-46985000D01*
X306470000Y-43355000D02*
X311970000Y-43355000D01*
X311970000Y-43355000D02*
X311970000Y-44355000D01*
X311970000Y-44355000D02*
X314970000Y-44355000D01*
X314970000Y-44355000D02*
X314970000Y-127355000D01*
X314970000Y-127355000D02*
X311970000Y-127355000D01*
X311970000Y-127355000D02*
X311970000Y-128355000D01*
X311970000Y-128355000D02*
X306470000Y-128355000D01*
X306470000Y-128355000D02*
X306470000Y-43355000D01*
X305420000Y-38355000D02*
X316020000Y-38355000D01*
X316020000Y-38355000D02*
X316020000Y-133355000D01*
X316020000Y-133355000D02*
X305420000Y-133355000D01*
X305420000Y-133355000D02*
X305420000Y-38355000D01*
X305420000Y-45985000D02*
X306120000Y-46485000D01*
X306120000Y-46485000D02*
X305420000Y-46985000D01*
X235350000Y-43355000D02*
X240850000Y-43355000D01*
X240850000Y-43355000D02*
X240850000Y-44355000D01*
X240850000Y-44355000D02*
X243850000Y-44355000D01*
X243850000Y-44355000D02*
X243850000Y-127355000D01*
X243850000Y-127355000D02*
X240850000Y-127355000D01*
X240850000Y-127355000D02*
X240850000Y-128355000D01*
X240850000Y-128355000D02*
X235350000Y-128355000D01*
X235350000Y-128355000D02*
X235350000Y-43355000D01*
X234300000Y-38355000D02*
X244900000Y-38355000D01*
X244900000Y-38355000D02*
X244900000Y-133355000D01*
X244900000Y-133355000D02*
X234300000Y-133355000D01*
X234300000Y-133355000D02*
X234300000Y-38355000D01*
X234300000Y-45985000D02*
X235000000Y-46485000D01*
X235000000Y-46485000D02*
X234300000Y-46985000D01*
X164230000Y-43355000D02*
X169730000Y-43355000D01*
X169730000Y-43355000D02*
X169730000Y-44355000D01*
X169730000Y-44355000D02*
X172730000Y-44355000D01*
X172730000Y-44355000D02*
X172730000Y-127355000D01*
X172730000Y-127355000D02*
X169730000Y-127355000D01*
X169730000Y-127355000D02*
X169730000Y-128355000D01*
X169730000Y-128355000D02*
X164230000Y-128355000D01*
X164230000Y-128355000D02*
X164230000Y-43355000D01*
X163180000Y-38355000D02*
X173780000Y-38355000D01*
X173780000Y-38355000D02*
X173780000Y-133355000D01*
X173780000Y-133355000D02*
X163180000Y-133355000D01*
X163180000Y-133355000D02*
X163180000Y-38355000D01*
X163180000Y-45985000D02*
X163880000Y-46485000D01*
X163880000Y-46485000D02*
X163180000Y-46985000D01*
X92760000Y-46485000D02*
X92060000Y-46985000D01*
X92060000Y-45985000D02*
X92760000Y-46485000D01*
X92060000Y-133355000D02*
X92060000Y-38355000D01*
X102660000Y-133355000D02*
X92060000Y-133355000D01*
X102660000Y-38355000D02*
X102660000Y-133355000D01*
X92060000Y-38355000D02*
X102660000Y-38355000D01*
X93110000Y-128355000D02*
X93110000Y-43355000D01*
X98610000Y-128355000D02*
X93110000Y-128355000D01*
X98610000Y-127355000D02*
X98610000Y-128355000D01*
X101610000Y-127355000D02*
X98610000Y-127355000D01*
X101610000Y-44355000D02*
X101610000Y-127355000D01*
X98610000Y-44355000D02*
X101610000Y-44355000D01*
X98610000Y-43355000D02*
X98610000Y-44355000D01*
X93110000Y-43355000D02*
X98610000Y-43355000D01*
X21640000Y-46485000D02*
X20940000Y-46985000D01*
X20940000Y-45985000D02*
X21640000Y-46485000D01*
X20940000Y-133355000D02*
X20940000Y-38355000D01*
X31540000Y-133355000D02*
X20940000Y-133355000D01*
X31540000Y-38355000D02*
X31540000Y-133355000D01*
X20940000Y-38355000D02*
X31540000Y-38355000D01*
X21990000Y-128355000D02*
X21990000Y-43355000D01*
X27490000Y-128355000D02*
X21990000Y-128355000D01*
X27490000Y-127355000D02*
X27490000Y-128355000D01*
X30490000Y-127355000D02*
X27490000Y-127355000D01*
X30490000Y-44355000D02*
X30490000Y-127355000D01*
X27490000Y-44355000D02*
X30490000Y-44355000D01*
X27490000Y-43355000D02*
X27490000Y-44355000D01*
X21990000Y-43355000D02*
X27490000Y-43355000D01*
D11*
X427554285Y-150907380D02*
X427554285Y-149907380D01*
X427887619Y-150621666D01*
X428220952Y-149907380D01*
X428220952Y-150907380D01*
X428840000Y-150907380D02*
X428744761Y-150859761D01*
X428697142Y-150812142D01*
X428649523Y-150716904D01*
X428649523Y-150431190D01*
X428697142Y-150335952D01*
X428744761Y-150288333D01*
X428840000Y-150240714D01*
X428982857Y-150240714D01*
X429078095Y-150288333D01*
X429125714Y-150335952D01*
X429173333Y-150431190D01*
X429173333Y-150716904D01*
X429125714Y-150812142D01*
X429078095Y-150859761D01*
X428982857Y-150907380D01*
X428840000Y-150907380D01*
X430030476Y-150240714D02*
X430030476Y-150907380D01*
X429601904Y-150240714D02*
X429601904Y-150764523D01*
X429649523Y-150859761D01*
X429744761Y-150907380D01*
X429887619Y-150907380D01*
X429982857Y-150859761D01*
X430030476Y-150812142D01*
X430506666Y-150240714D02*
X430506666Y-150907380D01*
X430506666Y-150335952D02*
X430554285Y-150288333D01*
X430649523Y-150240714D01*
X430792380Y-150240714D01*
X430887619Y-150288333D01*
X430935238Y-150383571D01*
X430935238Y-150907380D01*
X431268571Y-150240714D02*
X431649523Y-150240714D01*
X431411428Y-149907380D02*
X431411428Y-150764523D01*
X431459047Y-150859761D01*
X431554285Y-150907380D01*
X431649523Y-150907380D01*
X431982857Y-150907380D02*
X431982857Y-150240714D01*
X431982857Y-149907380D02*
X431935238Y-149955000D01*
X431982857Y-150002619D01*
X432030476Y-149955000D01*
X431982857Y-149907380D01*
X431982857Y-150002619D01*
X432459047Y-150240714D02*
X432459047Y-150907380D01*
X432459047Y-150335952D02*
X432506666Y-150288333D01*
X432601904Y-150240714D01*
X432744761Y-150240714D01*
X432840000Y-150288333D01*
X432887619Y-150383571D01*
X432887619Y-150907380D01*
X433792380Y-150240714D02*
X433792380Y-151050238D01*
X433744761Y-151145476D01*
X433697142Y-151193095D01*
X433601904Y-151240714D01*
X433459047Y-151240714D01*
X433363809Y-151193095D01*
X433792380Y-150859761D02*
X433697142Y-150907380D01*
X433506666Y-150907380D01*
X433411428Y-150859761D01*
X433363809Y-150812142D01*
X433316190Y-150716904D01*
X433316190Y-150431190D01*
X433363809Y-150335952D01*
X433411428Y-150288333D01*
X433506666Y-150240714D01*
X433697142Y-150240714D01*
X433792380Y-150288333D01*
X434268571Y-150907380D02*
X434268571Y-149907380D01*
X434268571Y-150383571D02*
X434840000Y-150383571D01*
X434840000Y-150907380D02*
X434840000Y-149907380D01*
X435459047Y-150907380D02*
X435363809Y-150859761D01*
X435316190Y-150812142D01*
X435268571Y-150716904D01*
X435268571Y-150431190D01*
X435316190Y-150335952D01*
X435363809Y-150288333D01*
X435459047Y-150240714D01*
X435601904Y-150240714D01*
X435697142Y-150288333D01*
X435744761Y-150335952D01*
X435792380Y-150431190D01*
X435792380Y-150716904D01*
X435744761Y-150812142D01*
X435697142Y-150859761D01*
X435601904Y-150907380D01*
X435459047Y-150907380D01*
X436363809Y-150907380D02*
X436268571Y-150859761D01*
X436220952Y-150764523D01*
X436220952Y-149907380D01*
X437125714Y-150859761D02*
X437030476Y-150907380D01*
X436840000Y-150907380D01*
X436744761Y-150859761D01*
X436697142Y-150764523D01*
X436697142Y-150383571D01*
X436744761Y-150288333D01*
X436840000Y-150240714D01*
X437030476Y-150240714D01*
X437125714Y-150288333D01*
X437173333Y-150383571D01*
X437173333Y-150478809D01*
X436697142Y-150574047D01*
X431401904Y-147557380D02*
X431401904Y-146557380D01*
X431401904Y-147033571D02*
X431973333Y-147033571D01*
X431973333Y-147557380D02*
X431973333Y-146557380D01*
X432878095Y-146890714D02*
X432878095Y-147557380D01*
X432640000Y-146509761D02*
X432401904Y-147224047D01*
X433020952Y-147224047D01*
X433354285Y-146652619D02*
X433401904Y-146605000D01*
X433497142Y-146557380D01*
X433735238Y-146557380D01*
X433830476Y-146605000D01*
X433878095Y-146652619D01*
X433925714Y-146747857D01*
X433925714Y-146843095D01*
X433878095Y-146985952D01*
X433306666Y-147557380D01*
X433925714Y-147557380D01*
X427554285Y-28407380D02*
X427554285Y-27407380D01*
X427887619Y-28121666D01*
X428220952Y-27407380D01*
X428220952Y-28407380D01*
X428840000Y-28407380D02*
X428744761Y-28359761D01*
X428697142Y-28312142D01*
X428649523Y-28216904D01*
X428649523Y-27931190D01*
X428697142Y-27835952D01*
X428744761Y-27788333D01*
X428840000Y-27740714D01*
X428982857Y-27740714D01*
X429078095Y-27788333D01*
X429125714Y-27835952D01*
X429173333Y-27931190D01*
X429173333Y-28216904D01*
X429125714Y-28312142D01*
X429078095Y-28359761D01*
X428982857Y-28407380D01*
X428840000Y-28407380D01*
X430030476Y-27740714D02*
X430030476Y-28407380D01*
X429601904Y-27740714D02*
X429601904Y-28264523D01*
X429649523Y-28359761D01*
X429744761Y-28407380D01*
X429887619Y-28407380D01*
X429982857Y-28359761D01*
X430030476Y-28312142D01*
X430506666Y-27740714D02*
X430506666Y-28407380D01*
X430506666Y-27835952D02*
X430554285Y-27788333D01*
X430649523Y-27740714D01*
X430792380Y-27740714D01*
X430887619Y-27788333D01*
X430935238Y-27883571D01*
X430935238Y-28407380D01*
X431268571Y-27740714D02*
X431649523Y-27740714D01*
X431411428Y-27407380D02*
X431411428Y-28264523D01*
X431459047Y-28359761D01*
X431554285Y-28407380D01*
X431649523Y-28407380D01*
X431982857Y-28407380D02*
X431982857Y-27740714D01*
X431982857Y-27407380D02*
X431935238Y-27455000D01*
X431982857Y-27502619D01*
X432030476Y-27455000D01*
X431982857Y-27407380D01*
X431982857Y-27502619D01*
X432459047Y-27740714D02*
X432459047Y-28407380D01*
X432459047Y-27835952D02*
X432506666Y-27788333D01*
X432601904Y-27740714D01*
X432744761Y-27740714D01*
X432840000Y-27788333D01*
X432887619Y-27883571D01*
X432887619Y-28407380D01*
X433792380Y-27740714D02*
X433792380Y-28550238D01*
X433744761Y-28645476D01*
X433697142Y-28693095D01*
X433601904Y-28740714D01*
X433459047Y-28740714D01*
X433363809Y-28693095D01*
X433792380Y-28359761D02*
X433697142Y-28407380D01*
X433506666Y-28407380D01*
X433411428Y-28359761D01*
X433363809Y-28312142D01*
X433316190Y-28216904D01*
X433316190Y-27931190D01*
X433363809Y-27835952D01*
X433411428Y-27788333D01*
X433506666Y-27740714D01*
X433697142Y-27740714D01*
X433792380Y-27788333D01*
X434268571Y-28407380D02*
X434268571Y-27407380D01*
X434268571Y-27883571D02*
X434840000Y-27883571D01*
X434840000Y-28407380D02*
X434840000Y-27407380D01*
X435459047Y-28407380D02*
X435363809Y-28359761D01*
X435316190Y-28312142D01*
X435268571Y-28216904D01*
X435268571Y-27931190D01*
X435316190Y-27835952D01*
X435363809Y-27788333D01*
X435459047Y-27740714D01*
X435601904Y-27740714D01*
X435697142Y-27788333D01*
X435744761Y-27835952D01*
X435792380Y-27931190D01*
X435792380Y-28216904D01*
X435744761Y-28312142D01*
X435697142Y-28359761D01*
X435601904Y-28407380D01*
X435459047Y-28407380D01*
X436363809Y-28407380D02*
X436268571Y-28359761D01*
X436220952Y-28264523D01*
X436220952Y-27407380D01*
X437125714Y-28359761D02*
X437030476Y-28407380D01*
X436840000Y-28407380D01*
X436744761Y-28359761D01*
X436697142Y-28264523D01*
X436697142Y-27883571D01*
X436744761Y-27788333D01*
X436840000Y-27740714D01*
X437030476Y-27740714D01*
X437125714Y-27788333D01*
X437173333Y-27883571D01*
X437173333Y-27978809D01*
X436697142Y-28074047D01*
X431401904Y-25057380D02*
X431401904Y-24057380D01*
X431401904Y-24533571D02*
X431973333Y-24533571D01*
X431973333Y-25057380D02*
X431973333Y-24057380D01*
X432878095Y-24390714D02*
X432878095Y-25057380D01*
X432640000Y-24009761D02*
X432401904Y-24724047D01*
X433020952Y-24724047D01*
X433925714Y-25057380D02*
X433354285Y-25057380D01*
X433640000Y-25057380D02*
X433640000Y-24057380D01*
X433544761Y-24200238D01*
X433449523Y-24295476D01*
X433354285Y-24343095D01*
X407234285Y-150907380D02*
X407234285Y-149907380D01*
X407567619Y-150621666D01*
X407900952Y-149907380D01*
X407900952Y-150907380D01*
X408520000Y-150907380D02*
X408424761Y-150859761D01*
X408377142Y-150812142D01*
X408329523Y-150716904D01*
X408329523Y-150431190D01*
X408377142Y-150335952D01*
X408424761Y-150288333D01*
X408520000Y-150240714D01*
X408662857Y-150240714D01*
X408758095Y-150288333D01*
X408805714Y-150335952D01*
X408853333Y-150431190D01*
X408853333Y-150716904D01*
X408805714Y-150812142D01*
X408758095Y-150859761D01*
X408662857Y-150907380D01*
X408520000Y-150907380D01*
X409710476Y-150240714D02*
X409710476Y-150907380D01*
X409281904Y-150240714D02*
X409281904Y-150764523D01*
X409329523Y-150859761D01*
X409424761Y-150907380D01*
X409567619Y-150907380D01*
X409662857Y-150859761D01*
X409710476Y-150812142D01*
X410186666Y-150240714D02*
X410186666Y-150907380D01*
X410186666Y-150335952D02*
X410234285Y-150288333D01*
X410329523Y-150240714D01*
X410472380Y-150240714D01*
X410567619Y-150288333D01*
X410615238Y-150383571D01*
X410615238Y-150907380D01*
X410948571Y-150240714D02*
X411329523Y-150240714D01*
X411091428Y-149907380D02*
X411091428Y-150764523D01*
X411139047Y-150859761D01*
X411234285Y-150907380D01*
X411329523Y-150907380D01*
X411662857Y-150907380D02*
X411662857Y-150240714D01*
X411662857Y-149907380D02*
X411615238Y-149955000D01*
X411662857Y-150002619D01*
X411710476Y-149955000D01*
X411662857Y-149907380D01*
X411662857Y-150002619D01*
X412139047Y-150240714D02*
X412139047Y-150907380D01*
X412139047Y-150335952D02*
X412186666Y-150288333D01*
X412281904Y-150240714D01*
X412424761Y-150240714D01*
X412520000Y-150288333D01*
X412567619Y-150383571D01*
X412567619Y-150907380D01*
X413472380Y-150240714D02*
X413472380Y-151050238D01*
X413424761Y-151145476D01*
X413377142Y-151193095D01*
X413281904Y-151240714D01*
X413139047Y-151240714D01*
X413043809Y-151193095D01*
X413472380Y-150859761D02*
X413377142Y-150907380D01*
X413186666Y-150907380D01*
X413091428Y-150859761D01*
X413043809Y-150812142D01*
X412996190Y-150716904D01*
X412996190Y-150431190D01*
X413043809Y-150335952D01*
X413091428Y-150288333D01*
X413186666Y-150240714D01*
X413377142Y-150240714D01*
X413472380Y-150288333D01*
X413948571Y-150907380D02*
X413948571Y-149907380D01*
X413948571Y-150383571D02*
X414520000Y-150383571D01*
X414520000Y-150907380D02*
X414520000Y-149907380D01*
X415139047Y-150907380D02*
X415043809Y-150859761D01*
X414996190Y-150812142D01*
X414948571Y-150716904D01*
X414948571Y-150431190D01*
X414996190Y-150335952D01*
X415043809Y-150288333D01*
X415139047Y-150240714D01*
X415281904Y-150240714D01*
X415377142Y-150288333D01*
X415424761Y-150335952D01*
X415472380Y-150431190D01*
X415472380Y-150716904D01*
X415424761Y-150812142D01*
X415377142Y-150859761D01*
X415281904Y-150907380D01*
X415139047Y-150907380D01*
X416043809Y-150907380D02*
X415948571Y-150859761D01*
X415900952Y-150764523D01*
X415900952Y-149907380D01*
X416805714Y-150859761D02*
X416710476Y-150907380D01*
X416520000Y-150907380D01*
X416424761Y-150859761D01*
X416377142Y-150764523D01*
X416377142Y-150383571D01*
X416424761Y-150288333D01*
X416520000Y-150240714D01*
X416710476Y-150240714D01*
X416805714Y-150288333D01*
X416853333Y-150383571D01*
X416853333Y-150478809D01*
X416377142Y-150574047D01*
X411081904Y-147557380D02*
X411081904Y-146557380D01*
X411081904Y-147033571D02*
X411653333Y-147033571D01*
X411653333Y-147557380D02*
X411653333Y-146557380D01*
X412558095Y-146890714D02*
X412558095Y-147557380D01*
X412320000Y-146509761D02*
X412081904Y-147224047D01*
X412700952Y-147224047D01*
X413272380Y-146557380D02*
X413367619Y-146557380D01*
X413462857Y-146605000D01*
X413510476Y-146652619D01*
X413558095Y-146747857D01*
X413605714Y-146938333D01*
X413605714Y-147176428D01*
X413558095Y-147366904D01*
X413510476Y-147462142D01*
X413462857Y-147509761D01*
X413367619Y-147557380D01*
X413272380Y-147557380D01*
X413177142Y-147509761D01*
X413129523Y-147462142D01*
X413081904Y-147366904D01*
X413034285Y-147176428D01*
X413034285Y-146938333D01*
X413081904Y-146747857D01*
X413129523Y-146652619D01*
X413177142Y-146605000D01*
X413272380Y-146557380D01*
X407234285Y-28407380D02*
X407234285Y-27407380D01*
X407567619Y-28121666D01*
X407900952Y-27407380D01*
X407900952Y-28407380D01*
X408520000Y-28407380D02*
X408424761Y-28359761D01*
X408377142Y-28312142D01*
X408329523Y-28216904D01*
X408329523Y-27931190D01*
X408377142Y-27835952D01*
X408424761Y-27788333D01*
X408520000Y-27740714D01*
X408662857Y-27740714D01*
X408758095Y-27788333D01*
X408805714Y-27835952D01*
X408853333Y-27931190D01*
X408853333Y-28216904D01*
X408805714Y-28312142D01*
X408758095Y-28359761D01*
X408662857Y-28407380D01*
X408520000Y-28407380D01*
X409710476Y-27740714D02*
X409710476Y-28407380D01*
X409281904Y-27740714D02*
X409281904Y-28264523D01*
X409329523Y-28359761D01*
X409424761Y-28407380D01*
X409567619Y-28407380D01*
X409662857Y-28359761D01*
X409710476Y-28312142D01*
X410186666Y-27740714D02*
X410186666Y-28407380D01*
X410186666Y-27835952D02*
X410234285Y-27788333D01*
X410329523Y-27740714D01*
X410472380Y-27740714D01*
X410567619Y-27788333D01*
X410615238Y-27883571D01*
X410615238Y-28407380D01*
X410948571Y-27740714D02*
X411329523Y-27740714D01*
X411091428Y-27407380D02*
X411091428Y-28264523D01*
X411139047Y-28359761D01*
X411234285Y-28407380D01*
X411329523Y-28407380D01*
X411662857Y-28407380D02*
X411662857Y-27740714D01*
X411662857Y-27407380D02*
X411615238Y-27455000D01*
X411662857Y-27502619D01*
X411710476Y-27455000D01*
X411662857Y-27407380D01*
X411662857Y-27502619D01*
X412139047Y-27740714D02*
X412139047Y-28407380D01*
X412139047Y-27835952D02*
X412186666Y-27788333D01*
X412281904Y-27740714D01*
X412424761Y-27740714D01*
X412520000Y-27788333D01*
X412567619Y-27883571D01*
X412567619Y-28407380D01*
X413472380Y-27740714D02*
X413472380Y-28550238D01*
X413424761Y-28645476D01*
X413377142Y-28693095D01*
X413281904Y-28740714D01*
X413139047Y-28740714D01*
X413043809Y-28693095D01*
X413472380Y-28359761D02*
X413377142Y-28407380D01*
X413186666Y-28407380D01*
X413091428Y-28359761D01*
X413043809Y-28312142D01*
X412996190Y-28216904D01*
X412996190Y-27931190D01*
X413043809Y-27835952D01*
X413091428Y-27788333D01*
X413186666Y-27740714D01*
X413377142Y-27740714D01*
X413472380Y-27788333D01*
X413948571Y-28407380D02*
X413948571Y-27407380D01*
X413948571Y-27883571D02*
X414520000Y-27883571D01*
X414520000Y-28407380D02*
X414520000Y-27407380D01*
X415139047Y-28407380D02*
X415043809Y-28359761D01*
X414996190Y-28312142D01*
X414948571Y-28216904D01*
X414948571Y-27931190D01*
X414996190Y-27835952D01*
X415043809Y-27788333D01*
X415139047Y-27740714D01*
X415281904Y-27740714D01*
X415377142Y-27788333D01*
X415424761Y-27835952D01*
X415472380Y-27931190D01*
X415472380Y-28216904D01*
X415424761Y-28312142D01*
X415377142Y-28359761D01*
X415281904Y-28407380D01*
X415139047Y-28407380D01*
X416043809Y-28407380D02*
X415948571Y-28359761D01*
X415900952Y-28264523D01*
X415900952Y-27407380D01*
X416805714Y-28359761D02*
X416710476Y-28407380D01*
X416520000Y-28407380D01*
X416424761Y-28359761D01*
X416377142Y-28264523D01*
X416377142Y-27883571D01*
X416424761Y-27788333D01*
X416520000Y-27740714D01*
X416710476Y-27740714D01*
X416805714Y-27788333D01*
X416853333Y-27883571D01*
X416853333Y-27978809D01*
X416377142Y-28074047D01*
X411081904Y-25057380D02*
X411081904Y-24057380D01*
X411081904Y-24533571D02*
X411653333Y-24533571D01*
X411653333Y-25057380D02*
X411653333Y-24057380D01*
X412034285Y-24057380D02*
X412653333Y-24057380D01*
X412320000Y-24438333D01*
X412462857Y-24438333D01*
X412558095Y-24485952D01*
X412605714Y-24533571D01*
X412653333Y-24628809D01*
X412653333Y-24866904D01*
X412605714Y-24962142D01*
X412558095Y-25009761D01*
X412462857Y-25057380D01*
X412177142Y-25057380D01*
X412081904Y-25009761D01*
X412034285Y-24962142D01*
X413129523Y-25057380D02*
X413320000Y-25057380D01*
X413415238Y-25009761D01*
X413462857Y-24962142D01*
X413558095Y-24819285D01*
X413605714Y-24628809D01*
X413605714Y-24247857D01*
X413558095Y-24152619D01*
X413510476Y-24105000D01*
X413415238Y-24057380D01*
X413224761Y-24057380D01*
X413129523Y-24105000D01*
X413081904Y-24152619D01*
X413034285Y-24247857D01*
X413034285Y-24485952D01*
X413081904Y-24581190D01*
X413129523Y-24628809D01*
X413224761Y-24676428D01*
X413415238Y-24676428D01*
X413510476Y-24628809D01*
X413558095Y-24581190D01*
X413605714Y-24485952D01*
X386914285Y-150907380D02*
X386914285Y-149907380D01*
X387247619Y-150621666D01*
X387580952Y-149907380D01*
X387580952Y-150907380D01*
X388200000Y-150907380D02*
X388104761Y-150859761D01*
X388057142Y-150812142D01*
X388009523Y-150716904D01*
X388009523Y-150431190D01*
X388057142Y-150335952D01*
X388104761Y-150288333D01*
X388200000Y-150240714D01*
X388342857Y-150240714D01*
X388438095Y-150288333D01*
X388485714Y-150335952D01*
X388533333Y-150431190D01*
X388533333Y-150716904D01*
X388485714Y-150812142D01*
X388438095Y-150859761D01*
X388342857Y-150907380D01*
X388200000Y-150907380D01*
X389390476Y-150240714D02*
X389390476Y-150907380D01*
X388961904Y-150240714D02*
X388961904Y-150764523D01*
X389009523Y-150859761D01*
X389104761Y-150907380D01*
X389247619Y-150907380D01*
X389342857Y-150859761D01*
X389390476Y-150812142D01*
X389866666Y-150240714D02*
X389866666Y-150907380D01*
X389866666Y-150335952D02*
X389914285Y-150288333D01*
X390009523Y-150240714D01*
X390152380Y-150240714D01*
X390247619Y-150288333D01*
X390295238Y-150383571D01*
X390295238Y-150907380D01*
X390628571Y-150240714D02*
X391009523Y-150240714D01*
X390771428Y-149907380D02*
X390771428Y-150764523D01*
X390819047Y-150859761D01*
X390914285Y-150907380D01*
X391009523Y-150907380D01*
X391342857Y-150907380D02*
X391342857Y-150240714D01*
X391342857Y-149907380D02*
X391295238Y-149955000D01*
X391342857Y-150002619D01*
X391390476Y-149955000D01*
X391342857Y-149907380D01*
X391342857Y-150002619D01*
X391819047Y-150240714D02*
X391819047Y-150907380D01*
X391819047Y-150335952D02*
X391866666Y-150288333D01*
X391961904Y-150240714D01*
X392104761Y-150240714D01*
X392200000Y-150288333D01*
X392247619Y-150383571D01*
X392247619Y-150907380D01*
X393152380Y-150240714D02*
X393152380Y-151050238D01*
X393104761Y-151145476D01*
X393057142Y-151193095D01*
X392961904Y-151240714D01*
X392819047Y-151240714D01*
X392723809Y-151193095D01*
X393152380Y-150859761D02*
X393057142Y-150907380D01*
X392866666Y-150907380D01*
X392771428Y-150859761D01*
X392723809Y-150812142D01*
X392676190Y-150716904D01*
X392676190Y-150431190D01*
X392723809Y-150335952D01*
X392771428Y-150288333D01*
X392866666Y-150240714D01*
X393057142Y-150240714D01*
X393152380Y-150288333D01*
X393628571Y-150907380D02*
X393628571Y-149907380D01*
X393628571Y-150383571D02*
X394200000Y-150383571D01*
X394200000Y-150907380D02*
X394200000Y-149907380D01*
X394819047Y-150907380D02*
X394723809Y-150859761D01*
X394676190Y-150812142D01*
X394628571Y-150716904D01*
X394628571Y-150431190D01*
X394676190Y-150335952D01*
X394723809Y-150288333D01*
X394819047Y-150240714D01*
X394961904Y-150240714D01*
X395057142Y-150288333D01*
X395104761Y-150335952D01*
X395152380Y-150431190D01*
X395152380Y-150716904D01*
X395104761Y-150812142D01*
X395057142Y-150859761D01*
X394961904Y-150907380D01*
X394819047Y-150907380D01*
X395723809Y-150907380D02*
X395628571Y-150859761D01*
X395580952Y-150764523D01*
X395580952Y-149907380D01*
X396485714Y-150859761D02*
X396390476Y-150907380D01*
X396200000Y-150907380D01*
X396104761Y-150859761D01*
X396057142Y-150764523D01*
X396057142Y-150383571D01*
X396104761Y-150288333D01*
X396200000Y-150240714D01*
X396390476Y-150240714D01*
X396485714Y-150288333D01*
X396533333Y-150383571D01*
X396533333Y-150478809D01*
X396057142Y-150574047D01*
X390761904Y-147557380D02*
X390761904Y-146557380D01*
X390761904Y-147033571D02*
X391333333Y-147033571D01*
X391333333Y-147557380D02*
X391333333Y-146557380D01*
X391714285Y-146557380D02*
X392333333Y-146557380D01*
X392000000Y-146938333D01*
X392142857Y-146938333D01*
X392238095Y-146985952D01*
X392285714Y-147033571D01*
X392333333Y-147128809D01*
X392333333Y-147366904D01*
X392285714Y-147462142D01*
X392238095Y-147509761D01*
X392142857Y-147557380D01*
X391857142Y-147557380D01*
X391761904Y-147509761D01*
X391714285Y-147462142D01*
X392904761Y-146985952D02*
X392809523Y-146938333D01*
X392761904Y-146890714D01*
X392714285Y-146795476D01*
X392714285Y-146747857D01*
X392761904Y-146652619D01*
X392809523Y-146605000D01*
X392904761Y-146557380D01*
X393095238Y-146557380D01*
X393190476Y-146605000D01*
X393238095Y-146652619D01*
X393285714Y-146747857D01*
X393285714Y-146795476D01*
X393238095Y-146890714D01*
X393190476Y-146938333D01*
X393095238Y-146985952D01*
X392904761Y-146985952D01*
X392809523Y-147033571D01*
X392761904Y-147081190D01*
X392714285Y-147176428D01*
X392714285Y-147366904D01*
X392761904Y-147462142D01*
X392809523Y-147509761D01*
X392904761Y-147557380D01*
X393095238Y-147557380D01*
X393190476Y-147509761D01*
X393238095Y-147462142D01*
X393285714Y-147366904D01*
X393285714Y-147176428D01*
X393238095Y-147081190D01*
X393190476Y-147033571D01*
X393095238Y-146985952D01*
X386914285Y-28407380D02*
X386914285Y-27407380D01*
X387247619Y-28121666D01*
X387580952Y-27407380D01*
X387580952Y-28407380D01*
X388200000Y-28407380D02*
X388104761Y-28359761D01*
X388057142Y-28312142D01*
X388009523Y-28216904D01*
X388009523Y-27931190D01*
X388057142Y-27835952D01*
X388104761Y-27788333D01*
X388200000Y-27740714D01*
X388342857Y-27740714D01*
X388438095Y-27788333D01*
X388485714Y-27835952D01*
X388533333Y-27931190D01*
X388533333Y-28216904D01*
X388485714Y-28312142D01*
X388438095Y-28359761D01*
X388342857Y-28407380D01*
X388200000Y-28407380D01*
X389390476Y-27740714D02*
X389390476Y-28407380D01*
X388961904Y-27740714D02*
X388961904Y-28264523D01*
X389009523Y-28359761D01*
X389104761Y-28407380D01*
X389247619Y-28407380D01*
X389342857Y-28359761D01*
X389390476Y-28312142D01*
X389866666Y-27740714D02*
X389866666Y-28407380D01*
X389866666Y-27835952D02*
X389914285Y-27788333D01*
X390009523Y-27740714D01*
X390152380Y-27740714D01*
X390247619Y-27788333D01*
X390295238Y-27883571D01*
X390295238Y-28407380D01*
X390628571Y-27740714D02*
X391009523Y-27740714D01*
X390771428Y-27407380D02*
X390771428Y-28264523D01*
X390819047Y-28359761D01*
X390914285Y-28407380D01*
X391009523Y-28407380D01*
X391342857Y-28407380D02*
X391342857Y-27740714D01*
X391342857Y-27407380D02*
X391295238Y-27455000D01*
X391342857Y-27502619D01*
X391390476Y-27455000D01*
X391342857Y-27407380D01*
X391342857Y-27502619D01*
X391819047Y-27740714D02*
X391819047Y-28407380D01*
X391819047Y-27835952D02*
X391866666Y-27788333D01*
X391961904Y-27740714D01*
X392104761Y-27740714D01*
X392200000Y-27788333D01*
X392247619Y-27883571D01*
X392247619Y-28407380D01*
X393152380Y-27740714D02*
X393152380Y-28550238D01*
X393104761Y-28645476D01*
X393057142Y-28693095D01*
X392961904Y-28740714D01*
X392819047Y-28740714D01*
X392723809Y-28693095D01*
X393152380Y-28359761D02*
X393057142Y-28407380D01*
X392866666Y-28407380D01*
X392771428Y-28359761D01*
X392723809Y-28312142D01*
X392676190Y-28216904D01*
X392676190Y-27931190D01*
X392723809Y-27835952D01*
X392771428Y-27788333D01*
X392866666Y-27740714D01*
X393057142Y-27740714D01*
X393152380Y-27788333D01*
X393628571Y-28407380D02*
X393628571Y-27407380D01*
X393628571Y-27883571D02*
X394200000Y-27883571D01*
X394200000Y-28407380D02*
X394200000Y-27407380D01*
X394819047Y-28407380D02*
X394723809Y-28359761D01*
X394676190Y-28312142D01*
X394628571Y-28216904D01*
X394628571Y-27931190D01*
X394676190Y-27835952D01*
X394723809Y-27788333D01*
X394819047Y-27740714D01*
X394961904Y-27740714D01*
X395057142Y-27788333D01*
X395104761Y-27835952D01*
X395152380Y-27931190D01*
X395152380Y-28216904D01*
X395104761Y-28312142D01*
X395057142Y-28359761D01*
X394961904Y-28407380D01*
X394819047Y-28407380D01*
X395723809Y-28407380D02*
X395628571Y-28359761D01*
X395580952Y-28264523D01*
X395580952Y-27407380D01*
X396485714Y-28359761D02*
X396390476Y-28407380D01*
X396200000Y-28407380D01*
X396104761Y-28359761D01*
X396057142Y-28264523D01*
X396057142Y-27883571D01*
X396104761Y-27788333D01*
X396200000Y-27740714D01*
X396390476Y-27740714D01*
X396485714Y-27788333D01*
X396533333Y-27883571D01*
X396533333Y-27978809D01*
X396057142Y-28074047D01*
X390761904Y-25057380D02*
X390761904Y-24057380D01*
X390761904Y-24533571D02*
X391333333Y-24533571D01*
X391333333Y-25057380D02*
X391333333Y-24057380D01*
X391714285Y-24057380D02*
X392333333Y-24057380D01*
X392000000Y-24438333D01*
X392142857Y-24438333D01*
X392238095Y-24485952D01*
X392285714Y-24533571D01*
X392333333Y-24628809D01*
X392333333Y-24866904D01*
X392285714Y-24962142D01*
X392238095Y-25009761D01*
X392142857Y-25057380D01*
X391857142Y-25057380D01*
X391761904Y-25009761D01*
X391714285Y-24962142D01*
X392666666Y-24057380D02*
X393333333Y-24057380D01*
X392904761Y-25057380D01*
X366594285Y-150907380D02*
X366594285Y-149907380D01*
X366927619Y-150621666D01*
X367260952Y-149907380D01*
X367260952Y-150907380D01*
X367880000Y-150907380D02*
X367784761Y-150859761D01*
X367737142Y-150812142D01*
X367689523Y-150716904D01*
X367689523Y-150431190D01*
X367737142Y-150335952D01*
X367784761Y-150288333D01*
X367880000Y-150240714D01*
X368022857Y-150240714D01*
X368118095Y-150288333D01*
X368165714Y-150335952D01*
X368213333Y-150431190D01*
X368213333Y-150716904D01*
X368165714Y-150812142D01*
X368118095Y-150859761D01*
X368022857Y-150907380D01*
X367880000Y-150907380D01*
X369070476Y-150240714D02*
X369070476Y-150907380D01*
X368641904Y-150240714D02*
X368641904Y-150764523D01*
X368689523Y-150859761D01*
X368784761Y-150907380D01*
X368927619Y-150907380D01*
X369022857Y-150859761D01*
X369070476Y-150812142D01*
X369546666Y-150240714D02*
X369546666Y-150907380D01*
X369546666Y-150335952D02*
X369594285Y-150288333D01*
X369689523Y-150240714D01*
X369832380Y-150240714D01*
X369927619Y-150288333D01*
X369975238Y-150383571D01*
X369975238Y-150907380D01*
X370308571Y-150240714D02*
X370689523Y-150240714D01*
X370451428Y-149907380D02*
X370451428Y-150764523D01*
X370499047Y-150859761D01*
X370594285Y-150907380D01*
X370689523Y-150907380D01*
X371022857Y-150907380D02*
X371022857Y-150240714D01*
X371022857Y-149907380D02*
X370975238Y-149955000D01*
X371022857Y-150002619D01*
X371070476Y-149955000D01*
X371022857Y-149907380D01*
X371022857Y-150002619D01*
X371499047Y-150240714D02*
X371499047Y-150907380D01*
X371499047Y-150335952D02*
X371546666Y-150288333D01*
X371641904Y-150240714D01*
X371784761Y-150240714D01*
X371880000Y-150288333D01*
X371927619Y-150383571D01*
X371927619Y-150907380D01*
X372832380Y-150240714D02*
X372832380Y-151050238D01*
X372784761Y-151145476D01*
X372737142Y-151193095D01*
X372641904Y-151240714D01*
X372499047Y-151240714D01*
X372403809Y-151193095D01*
X372832380Y-150859761D02*
X372737142Y-150907380D01*
X372546666Y-150907380D01*
X372451428Y-150859761D01*
X372403809Y-150812142D01*
X372356190Y-150716904D01*
X372356190Y-150431190D01*
X372403809Y-150335952D01*
X372451428Y-150288333D01*
X372546666Y-150240714D01*
X372737142Y-150240714D01*
X372832380Y-150288333D01*
X373308571Y-150907380D02*
X373308571Y-149907380D01*
X373308571Y-150383571D02*
X373880000Y-150383571D01*
X373880000Y-150907380D02*
X373880000Y-149907380D01*
X374499047Y-150907380D02*
X374403809Y-150859761D01*
X374356190Y-150812142D01*
X374308571Y-150716904D01*
X374308571Y-150431190D01*
X374356190Y-150335952D01*
X374403809Y-150288333D01*
X374499047Y-150240714D01*
X374641904Y-150240714D01*
X374737142Y-150288333D01*
X374784761Y-150335952D01*
X374832380Y-150431190D01*
X374832380Y-150716904D01*
X374784761Y-150812142D01*
X374737142Y-150859761D01*
X374641904Y-150907380D01*
X374499047Y-150907380D01*
X375403809Y-150907380D02*
X375308571Y-150859761D01*
X375260952Y-150764523D01*
X375260952Y-149907380D01*
X376165714Y-150859761D02*
X376070476Y-150907380D01*
X375880000Y-150907380D01*
X375784761Y-150859761D01*
X375737142Y-150764523D01*
X375737142Y-150383571D01*
X375784761Y-150288333D01*
X375880000Y-150240714D01*
X376070476Y-150240714D01*
X376165714Y-150288333D01*
X376213333Y-150383571D01*
X376213333Y-150478809D01*
X375737142Y-150574047D01*
X370441904Y-147557380D02*
X370441904Y-146557380D01*
X370441904Y-147033571D02*
X371013333Y-147033571D01*
X371013333Y-147557380D02*
X371013333Y-146557380D01*
X371394285Y-146557380D02*
X372013333Y-146557380D01*
X371680000Y-146938333D01*
X371822857Y-146938333D01*
X371918095Y-146985952D01*
X371965714Y-147033571D01*
X372013333Y-147128809D01*
X372013333Y-147366904D01*
X371965714Y-147462142D01*
X371918095Y-147509761D01*
X371822857Y-147557380D01*
X371537142Y-147557380D01*
X371441904Y-147509761D01*
X371394285Y-147462142D01*
X372870476Y-146557380D02*
X372680000Y-146557380D01*
X372584761Y-146605000D01*
X372537142Y-146652619D01*
X372441904Y-146795476D01*
X372394285Y-146985952D01*
X372394285Y-147366904D01*
X372441904Y-147462142D01*
X372489523Y-147509761D01*
X372584761Y-147557380D01*
X372775238Y-147557380D01*
X372870476Y-147509761D01*
X372918095Y-147462142D01*
X372965714Y-147366904D01*
X372965714Y-147128809D01*
X372918095Y-147033571D01*
X372870476Y-146985952D01*
X372775238Y-146938333D01*
X372584761Y-146938333D01*
X372489523Y-146985952D01*
X372441904Y-147033571D01*
X372394285Y-147128809D01*
X366594285Y-28407380D02*
X366594285Y-27407380D01*
X366927619Y-28121666D01*
X367260952Y-27407380D01*
X367260952Y-28407380D01*
X367880000Y-28407380D02*
X367784761Y-28359761D01*
X367737142Y-28312142D01*
X367689523Y-28216904D01*
X367689523Y-27931190D01*
X367737142Y-27835952D01*
X367784761Y-27788333D01*
X367880000Y-27740714D01*
X368022857Y-27740714D01*
X368118095Y-27788333D01*
X368165714Y-27835952D01*
X368213333Y-27931190D01*
X368213333Y-28216904D01*
X368165714Y-28312142D01*
X368118095Y-28359761D01*
X368022857Y-28407380D01*
X367880000Y-28407380D01*
X369070476Y-27740714D02*
X369070476Y-28407380D01*
X368641904Y-27740714D02*
X368641904Y-28264523D01*
X368689523Y-28359761D01*
X368784761Y-28407380D01*
X368927619Y-28407380D01*
X369022857Y-28359761D01*
X369070476Y-28312142D01*
X369546666Y-27740714D02*
X369546666Y-28407380D01*
X369546666Y-27835952D02*
X369594285Y-27788333D01*
X369689523Y-27740714D01*
X369832380Y-27740714D01*
X369927619Y-27788333D01*
X369975238Y-27883571D01*
X369975238Y-28407380D01*
X370308571Y-27740714D02*
X370689523Y-27740714D01*
X370451428Y-27407380D02*
X370451428Y-28264523D01*
X370499047Y-28359761D01*
X370594285Y-28407380D01*
X370689523Y-28407380D01*
X371022857Y-28407380D02*
X371022857Y-27740714D01*
X371022857Y-27407380D02*
X370975238Y-27455000D01*
X371022857Y-27502619D01*
X371070476Y-27455000D01*
X371022857Y-27407380D01*
X371022857Y-27502619D01*
X371499047Y-27740714D02*
X371499047Y-28407380D01*
X371499047Y-27835952D02*
X371546666Y-27788333D01*
X371641904Y-27740714D01*
X371784761Y-27740714D01*
X371880000Y-27788333D01*
X371927619Y-27883571D01*
X371927619Y-28407380D01*
X372832380Y-27740714D02*
X372832380Y-28550238D01*
X372784761Y-28645476D01*
X372737142Y-28693095D01*
X372641904Y-28740714D01*
X372499047Y-28740714D01*
X372403809Y-28693095D01*
X372832380Y-28359761D02*
X372737142Y-28407380D01*
X372546666Y-28407380D01*
X372451428Y-28359761D01*
X372403809Y-28312142D01*
X372356190Y-28216904D01*
X372356190Y-27931190D01*
X372403809Y-27835952D01*
X372451428Y-27788333D01*
X372546666Y-27740714D01*
X372737142Y-27740714D01*
X372832380Y-27788333D01*
X373308571Y-28407380D02*
X373308571Y-27407380D01*
X373308571Y-27883571D02*
X373880000Y-27883571D01*
X373880000Y-28407380D02*
X373880000Y-27407380D01*
X374499047Y-28407380D02*
X374403809Y-28359761D01*
X374356190Y-28312142D01*
X374308571Y-28216904D01*
X374308571Y-27931190D01*
X374356190Y-27835952D01*
X374403809Y-27788333D01*
X374499047Y-27740714D01*
X374641904Y-27740714D01*
X374737142Y-27788333D01*
X374784761Y-27835952D01*
X374832380Y-27931190D01*
X374832380Y-28216904D01*
X374784761Y-28312142D01*
X374737142Y-28359761D01*
X374641904Y-28407380D01*
X374499047Y-28407380D01*
X375403809Y-28407380D02*
X375308571Y-28359761D01*
X375260952Y-28264523D01*
X375260952Y-27407380D01*
X376165714Y-28359761D02*
X376070476Y-28407380D01*
X375880000Y-28407380D01*
X375784761Y-28359761D01*
X375737142Y-28264523D01*
X375737142Y-27883571D01*
X375784761Y-27788333D01*
X375880000Y-27740714D01*
X376070476Y-27740714D01*
X376165714Y-27788333D01*
X376213333Y-27883571D01*
X376213333Y-27978809D01*
X375737142Y-28074047D01*
X370441904Y-25057380D02*
X370441904Y-24057380D01*
X370441904Y-24533571D02*
X371013333Y-24533571D01*
X371013333Y-25057380D02*
X371013333Y-24057380D01*
X371394285Y-24057380D02*
X372013333Y-24057380D01*
X371680000Y-24438333D01*
X371822857Y-24438333D01*
X371918095Y-24485952D01*
X371965714Y-24533571D01*
X372013333Y-24628809D01*
X372013333Y-24866904D01*
X371965714Y-24962142D01*
X371918095Y-25009761D01*
X371822857Y-25057380D01*
X371537142Y-25057380D01*
X371441904Y-25009761D01*
X371394285Y-24962142D01*
X372918095Y-24057380D02*
X372441904Y-24057380D01*
X372394285Y-24533571D01*
X372441904Y-24485952D01*
X372537142Y-24438333D01*
X372775238Y-24438333D01*
X372870476Y-24485952D01*
X372918095Y-24533571D01*
X372965714Y-24628809D01*
X372965714Y-24866904D01*
X372918095Y-24962142D01*
X372870476Y-25009761D01*
X372775238Y-25057380D01*
X372537142Y-25057380D01*
X372441904Y-25009761D01*
X372394285Y-24962142D01*
X346274285Y-150907380D02*
X346274285Y-149907380D01*
X346607619Y-150621666D01*
X346940952Y-149907380D01*
X346940952Y-150907380D01*
X347560000Y-150907380D02*
X347464761Y-150859761D01*
X347417142Y-150812142D01*
X347369523Y-150716904D01*
X347369523Y-150431190D01*
X347417142Y-150335952D01*
X347464761Y-150288333D01*
X347560000Y-150240714D01*
X347702857Y-150240714D01*
X347798095Y-150288333D01*
X347845714Y-150335952D01*
X347893333Y-150431190D01*
X347893333Y-150716904D01*
X347845714Y-150812142D01*
X347798095Y-150859761D01*
X347702857Y-150907380D01*
X347560000Y-150907380D01*
X348750476Y-150240714D02*
X348750476Y-150907380D01*
X348321904Y-150240714D02*
X348321904Y-150764523D01*
X348369523Y-150859761D01*
X348464761Y-150907380D01*
X348607619Y-150907380D01*
X348702857Y-150859761D01*
X348750476Y-150812142D01*
X349226666Y-150240714D02*
X349226666Y-150907380D01*
X349226666Y-150335952D02*
X349274285Y-150288333D01*
X349369523Y-150240714D01*
X349512380Y-150240714D01*
X349607619Y-150288333D01*
X349655238Y-150383571D01*
X349655238Y-150907380D01*
X349988571Y-150240714D02*
X350369523Y-150240714D01*
X350131428Y-149907380D02*
X350131428Y-150764523D01*
X350179047Y-150859761D01*
X350274285Y-150907380D01*
X350369523Y-150907380D01*
X350702857Y-150907380D02*
X350702857Y-150240714D01*
X350702857Y-149907380D02*
X350655238Y-149955000D01*
X350702857Y-150002619D01*
X350750476Y-149955000D01*
X350702857Y-149907380D01*
X350702857Y-150002619D01*
X351179047Y-150240714D02*
X351179047Y-150907380D01*
X351179047Y-150335952D02*
X351226666Y-150288333D01*
X351321904Y-150240714D01*
X351464761Y-150240714D01*
X351560000Y-150288333D01*
X351607619Y-150383571D01*
X351607619Y-150907380D01*
X352512380Y-150240714D02*
X352512380Y-151050238D01*
X352464761Y-151145476D01*
X352417142Y-151193095D01*
X352321904Y-151240714D01*
X352179047Y-151240714D01*
X352083809Y-151193095D01*
X352512380Y-150859761D02*
X352417142Y-150907380D01*
X352226666Y-150907380D01*
X352131428Y-150859761D01*
X352083809Y-150812142D01*
X352036190Y-150716904D01*
X352036190Y-150431190D01*
X352083809Y-150335952D01*
X352131428Y-150288333D01*
X352226666Y-150240714D01*
X352417142Y-150240714D01*
X352512380Y-150288333D01*
X352988571Y-150907380D02*
X352988571Y-149907380D01*
X352988571Y-150383571D02*
X353560000Y-150383571D01*
X353560000Y-150907380D02*
X353560000Y-149907380D01*
X354179047Y-150907380D02*
X354083809Y-150859761D01*
X354036190Y-150812142D01*
X353988571Y-150716904D01*
X353988571Y-150431190D01*
X354036190Y-150335952D01*
X354083809Y-150288333D01*
X354179047Y-150240714D01*
X354321904Y-150240714D01*
X354417142Y-150288333D01*
X354464761Y-150335952D01*
X354512380Y-150431190D01*
X354512380Y-150716904D01*
X354464761Y-150812142D01*
X354417142Y-150859761D01*
X354321904Y-150907380D01*
X354179047Y-150907380D01*
X355083809Y-150907380D02*
X354988571Y-150859761D01*
X354940952Y-150764523D01*
X354940952Y-149907380D01*
X355845714Y-150859761D02*
X355750476Y-150907380D01*
X355560000Y-150907380D01*
X355464761Y-150859761D01*
X355417142Y-150764523D01*
X355417142Y-150383571D01*
X355464761Y-150288333D01*
X355560000Y-150240714D01*
X355750476Y-150240714D01*
X355845714Y-150288333D01*
X355893333Y-150383571D01*
X355893333Y-150478809D01*
X355417142Y-150574047D01*
X350121904Y-147557380D02*
X350121904Y-146557380D01*
X350121904Y-147033571D02*
X350693333Y-147033571D01*
X350693333Y-147557380D02*
X350693333Y-146557380D01*
X351074285Y-146557380D02*
X351693333Y-146557380D01*
X351360000Y-146938333D01*
X351502857Y-146938333D01*
X351598095Y-146985952D01*
X351645714Y-147033571D01*
X351693333Y-147128809D01*
X351693333Y-147366904D01*
X351645714Y-147462142D01*
X351598095Y-147509761D01*
X351502857Y-147557380D01*
X351217142Y-147557380D01*
X351121904Y-147509761D01*
X351074285Y-147462142D01*
X352550476Y-146890714D02*
X352550476Y-147557380D01*
X352312380Y-146509761D02*
X352074285Y-147224047D01*
X352693333Y-147224047D01*
X346274285Y-28407380D02*
X346274285Y-27407380D01*
X346607619Y-28121666D01*
X346940952Y-27407380D01*
X346940952Y-28407380D01*
X347560000Y-28407380D02*
X347464761Y-28359761D01*
X347417142Y-28312142D01*
X347369523Y-28216904D01*
X347369523Y-27931190D01*
X347417142Y-27835952D01*
X347464761Y-27788333D01*
X347560000Y-27740714D01*
X347702857Y-27740714D01*
X347798095Y-27788333D01*
X347845714Y-27835952D01*
X347893333Y-27931190D01*
X347893333Y-28216904D01*
X347845714Y-28312142D01*
X347798095Y-28359761D01*
X347702857Y-28407380D01*
X347560000Y-28407380D01*
X348750476Y-27740714D02*
X348750476Y-28407380D01*
X348321904Y-27740714D02*
X348321904Y-28264523D01*
X348369523Y-28359761D01*
X348464761Y-28407380D01*
X348607619Y-28407380D01*
X348702857Y-28359761D01*
X348750476Y-28312142D01*
X349226666Y-27740714D02*
X349226666Y-28407380D01*
X349226666Y-27835952D02*
X349274285Y-27788333D01*
X349369523Y-27740714D01*
X349512380Y-27740714D01*
X349607619Y-27788333D01*
X349655238Y-27883571D01*
X349655238Y-28407380D01*
X349988571Y-27740714D02*
X350369523Y-27740714D01*
X350131428Y-27407380D02*
X350131428Y-28264523D01*
X350179047Y-28359761D01*
X350274285Y-28407380D01*
X350369523Y-28407380D01*
X350702857Y-28407380D02*
X350702857Y-27740714D01*
X350702857Y-27407380D02*
X350655238Y-27455000D01*
X350702857Y-27502619D01*
X350750476Y-27455000D01*
X350702857Y-27407380D01*
X350702857Y-27502619D01*
X351179047Y-27740714D02*
X351179047Y-28407380D01*
X351179047Y-27835952D02*
X351226666Y-27788333D01*
X351321904Y-27740714D01*
X351464761Y-27740714D01*
X351560000Y-27788333D01*
X351607619Y-27883571D01*
X351607619Y-28407380D01*
X352512380Y-27740714D02*
X352512380Y-28550238D01*
X352464761Y-28645476D01*
X352417142Y-28693095D01*
X352321904Y-28740714D01*
X352179047Y-28740714D01*
X352083809Y-28693095D01*
X352512380Y-28359761D02*
X352417142Y-28407380D01*
X352226666Y-28407380D01*
X352131428Y-28359761D01*
X352083809Y-28312142D01*
X352036190Y-28216904D01*
X352036190Y-27931190D01*
X352083809Y-27835952D01*
X352131428Y-27788333D01*
X352226666Y-27740714D01*
X352417142Y-27740714D01*
X352512380Y-27788333D01*
X352988571Y-28407380D02*
X352988571Y-27407380D01*
X352988571Y-27883571D02*
X353560000Y-27883571D01*
X353560000Y-28407380D02*
X353560000Y-27407380D01*
X354179047Y-28407380D02*
X354083809Y-28359761D01*
X354036190Y-28312142D01*
X353988571Y-28216904D01*
X353988571Y-27931190D01*
X354036190Y-27835952D01*
X354083809Y-27788333D01*
X354179047Y-27740714D01*
X354321904Y-27740714D01*
X354417142Y-27788333D01*
X354464761Y-27835952D01*
X354512380Y-27931190D01*
X354512380Y-28216904D01*
X354464761Y-28312142D01*
X354417142Y-28359761D01*
X354321904Y-28407380D01*
X354179047Y-28407380D01*
X355083809Y-28407380D02*
X354988571Y-28359761D01*
X354940952Y-28264523D01*
X354940952Y-27407380D01*
X355845714Y-28359761D02*
X355750476Y-28407380D01*
X355560000Y-28407380D01*
X355464761Y-28359761D01*
X355417142Y-28264523D01*
X355417142Y-27883571D01*
X355464761Y-27788333D01*
X355560000Y-27740714D01*
X355750476Y-27740714D01*
X355845714Y-27788333D01*
X355893333Y-27883571D01*
X355893333Y-27978809D01*
X355417142Y-28074047D01*
X350121904Y-25057380D02*
X350121904Y-24057380D01*
X350121904Y-24533571D02*
X350693333Y-24533571D01*
X350693333Y-25057380D02*
X350693333Y-24057380D01*
X351074285Y-24057380D02*
X351693333Y-24057380D01*
X351360000Y-24438333D01*
X351502857Y-24438333D01*
X351598095Y-24485952D01*
X351645714Y-24533571D01*
X351693333Y-24628809D01*
X351693333Y-24866904D01*
X351645714Y-24962142D01*
X351598095Y-25009761D01*
X351502857Y-25057380D01*
X351217142Y-25057380D01*
X351121904Y-25009761D01*
X351074285Y-24962142D01*
X352026666Y-24057380D02*
X352645714Y-24057380D01*
X352312380Y-24438333D01*
X352455238Y-24438333D01*
X352550476Y-24485952D01*
X352598095Y-24533571D01*
X352645714Y-24628809D01*
X352645714Y-24866904D01*
X352598095Y-24962142D01*
X352550476Y-25009761D01*
X352455238Y-25057380D01*
X352169523Y-25057380D01*
X352074285Y-25009761D01*
X352026666Y-24962142D01*
X325954285Y-150907380D02*
X325954285Y-149907380D01*
X326287619Y-150621666D01*
X326620952Y-149907380D01*
X326620952Y-150907380D01*
X327240000Y-150907380D02*
X327144761Y-150859761D01*
X327097142Y-150812142D01*
X327049523Y-150716904D01*
X327049523Y-150431190D01*
X327097142Y-150335952D01*
X327144761Y-150288333D01*
X327240000Y-150240714D01*
X327382857Y-150240714D01*
X327478095Y-150288333D01*
X327525714Y-150335952D01*
X327573333Y-150431190D01*
X327573333Y-150716904D01*
X327525714Y-150812142D01*
X327478095Y-150859761D01*
X327382857Y-150907380D01*
X327240000Y-150907380D01*
X328430476Y-150240714D02*
X328430476Y-150907380D01*
X328001904Y-150240714D02*
X328001904Y-150764523D01*
X328049523Y-150859761D01*
X328144761Y-150907380D01*
X328287619Y-150907380D01*
X328382857Y-150859761D01*
X328430476Y-150812142D01*
X328906666Y-150240714D02*
X328906666Y-150907380D01*
X328906666Y-150335952D02*
X328954285Y-150288333D01*
X329049523Y-150240714D01*
X329192380Y-150240714D01*
X329287619Y-150288333D01*
X329335238Y-150383571D01*
X329335238Y-150907380D01*
X329668571Y-150240714D02*
X330049523Y-150240714D01*
X329811428Y-149907380D02*
X329811428Y-150764523D01*
X329859047Y-150859761D01*
X329954285Y-150907380D01*
X330049523Y-150907380D01*
X330382857Y-150907380D02*
X330382857Y-150240714D01*
X330382857Y-149907380D02*
X330335238Y-149955000D01*
X330382857Y-150002619D01*
X330430476Y-149955000D01*
X330382857Y-149907380D01*
X330382857Y-150002619D01*
X330859047Y-150240714D02*
X330859047Y-150907380D01*
X330859047Y-150335952D02*
X330906666Y-150288333D01*
X331001904Y-150240714D01*
X331144761Y-150240714D01*
X331240000Y-150288333D01*
X331287619Y-150383571D01*
X331287619Y-150907380D01*
X332192380Y-150240714D02*
X332192380Y-151050238D01*
X332144761Y-151145476D01*
X332097142Y-151193095D01*
X332001904Y-151240714D01*
X331859047Y-151240714D01*
X331763809Y-151193095D01*
X332192380Y-150859761D02*
X332097142Y-150907380D01*
X331906666Y-150907380D01*
X331811428Y-150859761D01*
X331763809Y-150812142D01*
X331716190Y-150716904D01*
X331716190Y-150431190D01*
X331763809Y-150335952D01*
X331811428Y-150288333D01*
X331906666Y-150240714D01*
X332097142Y-150240714D01*
X332192380Y-150288333D01*
X332668571Y-150907380D02*
X332668571Y-149907380D01*
X332668571Y-150383571D02*
X333240000Y-150383571D01*
X333240000Y-150907380D02*
X333240000Y-149907380D01*
X333859047Y-150907380D02*
X333763809Y-150859761D01*
X333716190Y-150812142D01*
X333668571Y-150716904D01*
X333668571Y-150431190D01*
X333716190Y-150335952D01*
X333763809Y-150288333D01*
X333859047Y-150240714D01*
X334001904Y-150240714D01*
X334097142Y-150288333D01*
X334144761Y-150335952D01*
X334192380Y-150431190D01*
X334192380Y-150716904D01*
X334144761Y-150812142D01*
X334097142Y-150859761D01*
X334001904Y-150907380D01*
X333859047Y-150907380D01*
X334763809Y-150907380D02*
X334668571Y-150859761D01*
X334620952Y-150764523D01*
X334620952Y-149907380D01*
X335525714Y-150859761D02*
X335430476Y-150907380D01*
X335240000Y-150907380D01*
X335144761Y-150859761D01*
X335097142Y-150764523D01*
X335097142Y-150383571D01*
X335144761Y-150288333D01*
X335240000Y-150240714D01*
X335430476Y-150240714D01*
X335525714Y-150288333D01*
X335573333Y-150383571D01*
X335573333Y-150478809D01*
X335097142Y-150574047D01*
X329801904Y-147557380D02*
X329801904Y-146557380D01*
X329801904Y-147033571D02*
X330373333Y-147033571D01*
X330373333Y-147557380D02*
X330373333Y-146557380D01*
X330754285Y-146557380D02*
X331373333Y-146557380D01*
X331040000Y-146938333D01*
X331182857Y-146938333D01*
X331278095Y-146985952D01*
X331325714Y-147033571D01*
X331373333Y-147128809D01*
X331373333Y-147366904D01*
X331325714Y-147462142D01*
X331278095Y-147509761D01*
X331182857Y-147557380D01*
X330897142Y-147557380D01*
X330801904Y-147509761D01*
X330754285Y-147462142D01*
X331754285Y-146652619D02*
X331801904Y-146605000D01*
X331897142Y-146557380D01*
X332135238Y-146557380D01*
X332230476Y-146605000D01*
X332278095Y-146652619D01*
X332325714Y-146747857D01*
X332325714Y-146843095D01*
X332278095Y-146985952D01*
X331706666Y-147557380D01*
X332325714Y-147557380D01*
X325954285Y-28407380D02*
X325954285Y-27407380D01*
X326287619Y-28121666D01*
X326620952Y-27407380D01*
X326620952Y-28407380D01*
X327240000Y-28407380D02*
X327144761Y-28359761D01*
X327097142Y-28312142D01*
X327049523Y-28216904D01*
X327049523Y-27931190D01*
X327097142Y-27835952D01*
X327144761Y-27788333D01*
X327240000Y-27740714D01*
X327382857Y-27740714D01*
X327478095Y-27788333D01*
X327525714Y-27835952D01*
X327573333Y-27931190D01*
X327573333Y-28216904D01*
X327525714Y-28312142D01*
X327478095Y-28359761D01*
X327382857Y-28407380D01*
X327240000Y-28407380D01*
X328430476Y-27740714D02*
X328430476Y-28407380D01*
X328001904Y-27740714D02*
X328001904Y-28264523D01*
X328049523Y-28359761D01*
X328144761Y-28407380D01*
X328287619Y-28407380D01*
X328382857Y-28359761D01*
X328430476Y-28312142D01*
X328906666Y-27740714D02*
X328906666Y-28407380D01*
X328906666Y-27835952D02*
X328954285Y-27788333D01*
X329049523Y-27740714D01*
X329192380Y-27740714D01*
X329287619Y-27788333D01*
X329335238Y-27883571D01*
X329335238Y-28407380D01*
X329668571Y-27740714D02*
X330049523Y-27740714D01*
X329811428Y-27407380D02*
X329811428Y-28264523D01*
X329859047Y-28359761D01*
X329954285Y-28407380D01*
X330049523Y-28407380D01*
X330382857Y-28407380D02*
X330382857Y-27740714D01*
X330382857Y-27407380D02*
X330335238Y-27455000D01*
X330382857Y-27502619D01*
X330430476Y-27455000D01*
X330382857Y-27407380D01*
X330382857Y-27502619D01*
X330859047Y-27740714D02*
X330859047Y-28407380D01*
X330859047Y-27835952D02*
X330906666Y-27788333D01*
X331001904Y-27740714D01*
X331144761Y-27740714D01*
X331240000Y-27788333D01*
X331287619Y-27883571D01*
X331287619Y-28407380D01*
X332192380Y-27740714D02*
X332192380Y-28550238D01*
X332144761Y-28645476D01*
X332097142Y-28693095D01*
X332001904Y-28740714D01*
X331859047Y-28740714D01*
X331763809Y-28693095D01*
X332192380Y-28359761D02*
X332097142Y-28407380D01*
X331906666Y-28407380D01*
X331811428Y-28359761D01*
X331763809Y-28312142D01*
X331716190Y-28216904D01*
X331716190Y-27931190D01*
X331763809Y-27835952D01*
X331811428Y-27788333D01*
X331906666Y-27740714D01*
X332097142Y-27740714D01*
X332192380Y-27788333D01*
X332668571Y-28407380D02*
X332668571Y-27407380D01*
X332668571Y-27883571D02*
X333240000Y-27883571D01*
X333240000Y-28407380D02*
X333240000Y-27407380D01*
X333859047Y-28407380D02*
X333763809Y-28359761D01*
X333716190Y-28312142D01*
X333668571Y-28216904D01*
X333668571Y-27931190D01*
X333716190Y-27835952D01*
X333763809Y-27788333D01*
X333859047Y-27740714D01*
X334001904Y-27740714D01*
X334097142Y-27788333D01*
X334144761Y-27835952D01*
X334192380Y-27931190D01*
X334192380Y-28216904D01*
X334144761Y-28312142D01*
X334097142Y-28359761D01*
X334001904Y-28407380D01*
X333859047Y-28407380D01*
X334763809Y-28407380D02*
X334668571Y-28359761D01*
X334620952Y-28264523D01*
X334620952Y-27407380D01*
X335525714Y-28359761D02*
X335430476Y-28407380D01*
X335240000Y-28407380D01*
X335144761Y-28359761D01*
X335097142Y-28264523D01*
X335097142Y-27883571D01*
X335144761Y-27788333D01*
X335240000Y-27740714D01*
X335430476Y-27740714D01*
X335525714Y-27788333D01*
X335573333Y-27883571D01*
X335573333Y-27978809D01*
X335097142Y-28074047D01*
X329801904Y-25057380D02*
X329801904Y-24057380D01*
X329801904Y-24533571D02*
X330373333Y-24533571D01*
X330373333Y-25057380D02*
X330373333Y-24057380D01*
X330754285Y-24057380D02*
X331373333Y-24057380D01*
X331040000Y-24438333D01*
X331182857Y-24438333D01*
X331278095Y-24485952D01*
X331325714Y-24533571D01*
X331373333Y-24628809D01*
X331373333Y-24866904D01*
X331325714Y-24962142D01*
X331278095Y-25009761D01*
X331182857Y-25057380D01*
X330897142Y-25057380D01*
X330801904Y-25009761D01*
X330754285Y-24962142D01*
X332325714Y-25057380D02*
X331754285Y-25057380D01*
X332040000Y-25057380D02*
X332040000Y-24057380D01*
X331944761Y-24200238D01*
X331849523Y-24295476D01*
X331754285Y-24343095D01*
X305634285Y-150907380D02*
X305634285Y-149907380D01*
X305967619Y-150621666D01*
X306300952Y-149907380D01*
X306300952Y-150907380D01*
X306920000Y-150907380D02*
X306824761Y-150859761D01*
X306777142Y-150812142D01*
X306729523Y-150716904D01*
X306729523Y-150431190D01*
X306777142Y-150335952D01*
X306824761Y-150288333D01*
X306920000Y-150240714D01*
X307062857Y-150240714D01*
X307158095Y-150288333D01*
X307205714Y-150335952D01*
X307253333Y-150431190D01*
X307253333Y-150716904D01*
X307205714Y-150812142D01*
X307158095Y-150859761D01*
X307062857Y-150907380D01*
X306920000Y-150907380D01*
X308110476Y-150240714D02*
X308110476Y-150907380D01*
X307681904Y-150240714D02*
X307681904Y-150764523D01*
X307729523Y-150859761D01*
X307824761Y-150907380D01*
X307967619Y-150907380D01*
X308062857Y-150859761D01*
X308110476Y-150812142D01*
X308586666Y-150240714D02*
X308586666Y-150907380D01*
X308586666Y-150335952D02*
X308634285Y-150288333D01*
X308729523Y-150240714D01*
X308872380Y-150240714D01*
X308967619Y-150288333D01*
X309015238Y-150383571D01*
X309015238Y-150907380D01*
X309348571Y-150240714D02*
X309729523Y-150240714D01*
X309491428Y-149907380D02*
X309491428Y-150764523D01*
X309539047Y-150859761D01*
X309634285Y-150907380D01*
X309729523Y-150907380D01*
X310062857Y-150907380D02*
X310062857Y-150240714D01*
X310062857Y-149907380D02*
X310015238Y-149955000D01*
X310062857Y-150002619D01*
X310110476Y-149955000D01*
X310062857Y-149907380D01*
X310062857Y-150002619D01*
X310539047Y-150240714D02*
X310539047Y-150907380D01*
X310539047Y-150335952D02*
X310586666Y-150288333D01*
X310681904Y-150240714D01*
X310824761Y-150240714D01*
X310920000Y-150288333D01*
X310967619Y-150383571D01*
X310967619Y-150907380D01*
X311872380Y-150240714D02*
X311872380Y-151050238D01*
X311824761Y-151145476D01*
X311777142Y-151193095D01*
X311681904Y-151240714D01*
X311539047Y-151240714D01*
X311443809Y-151193095D01*
X311872380Y-150859761D02*
X311777142Y-150907380D01*
X311586666Y-150907380D01*
X311491428Y-150859761D01*
X311443809Y-150812142D01*
X311396190Y-150716904D01*
X311396190Y-150431190D01*
X311443809Y-150335952D01*
X311491428Y-150288333D01*
X311586666Y-150240714D01*
X311777142Y-150240714D01*
X311872380Y-150288333D01*
X312348571Y-150907380D02*
X312348571Y-149907380D01*
X312348571Y-150383571D02*
X312920000Y-150383571D01*
X312920000Y-150907380D02*
X312920000Y-149907380D01*
X313539047Y-150907380D02*
X313443809Y-150859761D01*
X313396190Y-150812142D01*
X313348571Y-150716904D01*
X313348571Y-150431190D01*
X313396190Y-150335952D01*
X313443809Y-150288333D01*
X313539047Y-150240714D01*
X313681904Y-150240714D01*
X313777142Y-150288333D01*
X313824761Y-150335952D01*
X313872380Y-150431190D01*
X313872380Y-150716904D01*
X313824761Y-150812142D01*
X313777142Y-150859761D01*
X313681904Y-150907380D01*
X313539047Y-150907380D01*
X314443809Y-150907380D02*
X314348571Y-150859761D01*
X314300952Y-150764523D01*
X314300952Y-149907380D01*
X315205714Y-150859761D02*
X315110476Y-150907380D01*
X314920000Y-150907380D01*
X314824761Y-150859761D01*
X314777142Y-150764523D01*
X314777142Y-150383571D01*
X314824761Y-150288333D01*
X314920000Y-150240714D01*
X315110476Y-150240714D01*
X315205714Y-150288333D01*
X315253333Y-150383571D01*
X315253333Y-150478809D01*
X314777142Y-150574047D01*
X309481904Y-147557380D02*
X309481904Y-146557380D01*
X309481904Y-147033571D02*
X310053333Y-147033571D01*
X310053333Y-147557380D02*
X310053333Y-146557380D01*
X310434285Y-146557380D02*
X311053333Y-146557380D01*
X310720000Y-146938333D01*
X310862857Y-146938333D01*
X310958095Y-146985952D01*
X311005714Y-147033571D01*
X311053333Y-147128809D01*
X311053333Y-147366904D01*
X311005714Y-147462142D01*
X310958095Y-147509761D01*
X310862857Y-147557380D01*
X310577142Y-147557380D01*
X310481904Y-147509761D01*
X310434285Y-147462142D01*
X311672380Y-146557380D02*
X311767619Y-146557380D01*
X311862857Y-146605000D01*
X311910476Y-146652619D01*
X311958095Y-146747857D01*
X312005714Y-146938333D01*
X312005714Y-147176428D01*
X311958095Y-147366904D01*
X311910476Y-147462142D01*
X311862857Y-147509761D01*
X311767619Y-147557380D01*
X311672380Y-147557380D01*
X311577142Y-147509761D01*
X311529523Y-147462142D01*
X311481904Y-147366904D01*
X311434285Y-147176428D01*
X311434285Y-146938333D01*
X311481904Y-146747857D01*
X311529523Y-146652619D01*
X311577142Y-146605000D01*
X311672380Y-146557380D01*
X305634285Y-28407380D02*
X305634285Y-27407380D01*
X305967619Y-28121666D01*
X306300952Y-27407380D01*
X306300952Y-28407380D01*
X306920000Y-28407380D02*
X306824761Y-28359761D01*
X306777142Y-28312142D01*
X306729523Y-28216904D01*
X306729523Y-27931190D01*
X306777142Y-27835952D01*
X306824761Y-27788333D01*
X306920000Y-27740714D01*
X307062857Y-27740714D01*
X307158095Y-27788333D01*
X307205714Y-27835952D01*
X307253333Y-27931190D01*
X307253333Y-28216904D01*
X307205714Y-28312142D01*
X307158095Y-28359761D01*
X307062857Y-28407380D01*
X306920000Y-28407380D01*
X308110476Y-27740714D02*
X308110476Y-28407380D01*
X307681904Y-27740714D02*
X307681904Y-28264523D01*
X307729523Y-28359761D01*
X307824761Y-28407380D01*
X307967619Y-28407380D01*
X308062857Y-28359761D01*
X308110476Y-28312142D01*
X308586666Y-27740714D02*
X308586666Y-28407380D01*
X308586666Y-27835952D02*
X308634285Y-27788333D01*
X308729523Y-27740714D01*
X308872380Y-27740714D01*
X308967619Y-27788333D01*
X309015238Y-27883571D01*
X309015238Y-28407380D01*
X309348571Y-27740714D02*
X309729523Y-27740714D01*
X309491428Y-27407380D02*
X309491428Y-28264523D01*
X309539047Y-28359761D01*
X309634285Y-28407380D01*
X309729523Y-28407380D01*
X310062857Y-28407380D02*
X310062857Y-27740714D01*
X310062857Y-27407380D02*
X310015238Y-27455000D01*
X310062857Y-27502619D01*
X310110476Y-27455000D01*
X310062857Y-27407380D01*
X310062857Y-27502619D01*
X310539047Y-27740714D02*
X310539047Y-28407380D01*
X310539047Y-27835952D02*
X310586666Y-27788333D01*
X310681904Y-27740714D01*
X310824761Y-27740714D01*
X310920000Y-27788333D01*
X310967619Y-27883571D01*
X310967619Y-28407380D01*
X311872380Y-27740714D02*
X311872380Y-28550238D01*
X311824761Y-28645476D01*
X311777142Y-28693095D01*
X311681904Y-28740714D01*
X311539047Y-28740714D01*
X311443809Y-28693095D01*
X311872380Y-28359761D02*
X311777142Y-28407380D01*
X311586666Y-28407380D01*
X311491428Y-28359761D01*
X311443809Y-28312142D01*
X311396190Y-28216904D01*
X311396190Y-27931190D01*
X311443809Y-27835952D01*
X311491428Y-27788333D01*
X311586666Y-27740714D01*
X311777142Y-27740714D01*
X311872380Y-27788333D01*
X312348571Y-28407380D02*
X312348571Y-27407380D01*
X312348571Y-27883571D02*
X312920000Y-27883571D01*
X312920000Y-28407380D02*
X312920000Y-27407380D01*
X313539047Y-28407380D02*
X313443809Y-28359761D01*
X313396190Y-28312142D01*
X313348571Y-28216904D01*
X313348571Y-27931190D01*
X313396190Y-27835952D01*
X313443809Y-27788333D01*
X313539047Y-27740714D01*
X313681904Y-27740714D01*
X313777142Y-27788333D01*
X313824761Y-27835952D01*
X313872380Y-27931190D01*
X313872380Y-28216904D01*
X313824761Y-28312142D01*
X313777142Y-28359761D01*
X313681904Y-28407380D01*
X313539047Y-28407380D01*
X314443809Y-28407380D02*
X314348571Y-28359761D01*
X314300952Y-28264523D01*
X314300952Y-27407380D01*
X315205714Y-28359761D02*
X315110476Y-28407380D01*
X314920000Y-28407380D01*
X314824761Y-28359761D01*
X314777142Y-28264523D01*
X314777142Y-27883571D01*
X314824761Y-27788333D01*
X314920000Y-27740714D01*
X315110476Y-27740714D01*
X315205714Y-27788333D01*
X315253333Y-27883571D01*
X315253333Y-27978809D01*
X314777142Y-28074047D01*
X309481904Y-25057380D02*
X309481904Y-24057380D01*
X309481904Y-24533571D02*
X310053333Y-24533571D01*
X310053333Y-25057380D02*
X310053333Y-24057380D01*
X310481904Y-24152619D02*
X310529523Y-24105000D01*
X310624761Y-24057380D01*
X310862857Y-24057380D01*
X310958095Y-24105000D01*
X311005714Y-24152619D01*
X311053333Y-24247857D01*
X311053333Y-24343095D01*
X311005714Y-24485952D01*
X310434285Y-25057380D01*
X311053333Y-25057380D01*
X311529523Y-25057380D02*
X311720000Y-25057380D01*
X311815238Y-25009761D01*
X311862857Y-24962142D01*
X311958095Y-24819285D01*
X312005714Y-24628809D01*
X312005714Y-24247857D01*
X311958095Y-24152619D01*
X311910476Y-24105000D01*
X311815238Y-24057380D01*
X311624761Y-24057380D01*
X311529523Y-24105000D01*
X311481904Y-24152619D01*
X311434285Y-24247857D01*
X311434285Y-24485952D01*
X311481904Y-24581190D01*
X311529523Y-24628809D01*
X311624761Y-24676428D01*
X311815238Y-24676428D01*
X311910476Y-24628809D01*
X311958095Y-24581190D01*
X312005714Y-24485952D01*
X285314285Y-150907380D02*
X285314285Y-149907380D01*
X285647619Y-150621666D01*
X285980952Y-149907380D01*
X285980952Y-150907380D01*
X286600000Y-150907380D02*
X286504761Y-150859761D01*
X286457142Y-150812142D01*
X286409523Y-150716904D01*
X286409523Y-150431190D01*
X286457142Y-150335952D01*
X286504761Y-150288333D01*
X286600000Y-150240714D01*
X286742857Y-150240714D01*
X286838095Y-150288333D01*
X286885714Y-150335952D01*
X286933333Y-150431190D01*
X286933333Y-150716904D01*
X286885714Y-150812142D01*
X286838095Y-150859761D01*
X286742857Y-150907380D01*
X286600000Y-150907380D01*
X287790476Y-150240714D02*
X287790476Y-150907380D01*
X287361904Y-150240714D02*
X287361904Y-150764523D01*
X287409523Y-150859761D01*
X287504761Y-150907380D01*
X287647619Y-150907380D01*
X287742857Y-150859761D01*
X287790476Y-150812142D01*
X288266666Y-150240714D02*
X288266666Y-150907380D01*
X288266666Y-150335952D02*
X288314285Y-150288333D01*
X288409523Y-150240714D01*
X288552380Y-150240714D01*
X288647619Y-150288333D01*
X288695238Y-150383571D01*
X288695238Y-150907380D01*
X289028571Y-150240714D02*
X289409523Y-150240714D01*
X289171428Y-149907380D02*
X289171428Y-150764523D01*
X289219047Y-150859761D01*
X289314285Y-150907380D01*
X289409523Y-150907380D01*
X289742857Y-150907380D02*
X289742857Y-150240714D01*
X289742857Y-149907380D02*
X289695238Y-149955000D01*
X289742857Y-150002619D01*
X289790476Y-149955000D01*
X289742857Y-149907380D01*
X289742857Y-150002619D01*
X290219047Y-150240714D02*
X290219047Y-150907380D01*
X290219047Y-150335952D02*
X290266666Y-150288333D01*
X290361904Y-150240714D01*
X290504761Y-150240714D01*
X290600000Y-150288333D01*
X290647619Y-150383571D01*
X290647619Y-150907380D01*
X291552380Y-150240714D02*
X291552380Y-151050238D01*
X291504761Y-151145476D01*
X291457142Y-151193095D01*
X291361904Y-151240714D01*
X291219047Y-151240714D01*
X291123809Y-151193095D01*
X291552380Y-150859761D02*
X291457142Y-150907380D01*
X291266666Y-150907380D01*
X291171428Y-150859761D01*
X291123809Y-150812142D01*
X291076190Y-150716904D01*
X291076190Y-150431190D01*
X291123809Y-150335952D01*
X291171428Y-150288333D01*
X291266666Y-150240714D01*
X291457142Y-150240714D01*
X291552380Y-150288333D01*
X292028571Y-150907380D02*
X292028571Y-149907380D01*
X292028571Y-150383571D02*
X292600000Y-150383571D01*
X292600000Y-150907380D02*
X292600000Y-149907380D01*
X293219047Y-150907380D02*
X293123809Y-150859761D01*
X293076190Y-150812142D01*
X293028571Y-150716904D01*
X293028571Y-150431190D01*
X293076190Y-150335952D01*
X293123809Y-150288333D01*
X293219047Y-150240714D01*
X293361904Y-150240714D01*
X293457142Y-150288333D01*
X293504761Y-150335952D01*
X293552380Y-150431190D01*
X293552380Y-150716904D01*
X293504761Y-150812142D01*
X293457142Y-150859761D01*
X293361904Y-150907380D01*
X293219047Y-150907380D01*
X294123809Y-150907380D02*
X294028571Y-150859761D01*
X293980952Y-150764523D01*
X293980952Y-149907380D01*
X294885714Y-150859761D02*
X294790476Y-150907380D01*
X294600000Y-150907380D01*
X294504761Y-150859761D01*
X294457142Y-150764523D01*
X294457142Y-150383571D01*
X294504761Y-150288333D01*
X294600000Y-150240714D01*
X294790476Y-150240714D01*
X294885714Y-150288333D01*
X294933333Y-150383571D01*
X294933333Y-150478809D01*
X294457142Y-150574047D01*
X289161904Y-147557380D02*
X289161904Y-146557380D01*
X289161904Y-147033571D02*
X289733333Y-147033571D01*
X289733333Y-147557380D02*
X289733333Y-146557380D01*
X290161904Y-146652619D02*
X290209523Y-146605000D01*
X290304761Y-146557380D01*
X290542857Y-146557380D01*
X290638095Y-146605000D01*
X290685714Y-146652619D01*
X290733333Y-146747857D01*
X290733333Y-146843095D01*
X290685714Y-146985952D01*
X290114285Y-147557380D01*
X290733333Y-147557380D01*
X291304761Y-146985952D02*
X291209523Y-146938333D01*
X291161904Y-146890714D01*
X291114285Y-146795476D01*
X291114285Y-146747857D01*
X291161904Y-146652619D01*
X291209523Y-146605000D01*
X291304761Y-146557380D01*
X291495238Y-146557380D01*
X291590476Y-146605000D01*
X291638095Y-146652619D01*
X291685714Y-146747857D01*
X291685714Y-146795476D01*
X291638095Y-146890714D01*
X291590476Y-146938333D01*
X291495238Y-146985952D01*
X291304761Y-146985952D01*
X291209523Y-147033571D01*
X291161904Y-147081190D01*
X291114285Y-147176428D01*
X291114285Y-147366904D01*
X291161904Y-147462142D01*
X291209523Y-147509761D01*
X291304761Y-147557380D01*
X291495238Y-147557380D01*
X291590476Y-147509761D01*
X291638095Y-147462142D01*
X291685714Y-147366904D01*
X291685714Y-147176428D01*
X291638095Y-147081190D01*
X291590476Y-147033571D01*
X291495238Y-146985952D01*
X285314285Y-28407380D02*
X285314285Y-27407380D01*
X285647619Y-28121666D01*
X285980952Y-27407380D01*
X285980952Y-28407380D01*
X286600000Y-28407380D02*
X286504761Y-28359761D01*
X286457142Y-28312142D01*
X286409523Y-28216904D01*
X286409523Y-27931190D01*
X286457142Y-27835952D01*
X286504761Y-27788333D01*
X286600000Y-27740714D01*
X286742857Y-27740714D01*
X286838095Y-27788333D01*
X286885714Y-27835952D01*
X286933333Y-27931190D01*
X286933333Y-28216904D01*
X286885714Y-28312142D01*
X286838095Y-28359761D01*
X286742857Y-28407380D01*
X286600000Y-28407380D01*
X287790476Y-27740714D02*
X287790476Y-28407380D01*
X287361904Y-27740714D02*
X287361904Y-28264523D01*
X287409523Y-28359761D01*
X287504761Y-28407380D01*
X287647619Y-28407380D01*
X287742857Y-28359761D01*
X287790476Y-28312142D01*
X288266666Y-27740714D02*
X288266666Y-28407380D01*
X288266666Y-27835952D02*
X288314285Y-27788333D01*
X288409523Y-27740714D01*
X288552380Y-27740714D01*
X288647619Y-27788333D01*
X288695238Y-27883571D01*
X288695238Y-28407380D01*
X289028571Y-27740714D02*
X289409523Y-27740714D01*
X289171428Y-27407380D02*
X289171428Y-28264523D01*
X289219047Y-28359761D01*
X289314285Y-28407380D01*
X289409523Y-28407380D01*
X289742857Y-28407380D02*
X289742857Y-27740714D01*
X289742857Y-27407380D02*
X289695238Y-27455000D01*
X289742857Y-27502619D01*
X289790476Y-27455000D01*
X289742857Y-27407380D01*
X289742857Y-27502619D01*
X290219047Y-27740714D02*
X290219047Y-28407380D01*
X290219047Y-27835952D02*
X290266666Y-27788333D01*
X290361904Y-27740714D01*
X290504761Y-27740714D01*
X290600000Y-27788333D01*
X290647619Y-27883571D01*
X290647619Y-28407380D01*
X291552380Y-27740714D02*
X291552380Y-28550238D01*
X291504761Y-28645476D01*
X291457142Y-28693095D01*
X291361904Y-28740714D01*
X291219047Y-28740714D01*
X291123809Y-28693095D01*
X291552380Y-28359761D02*
X291457142Y-28407380D01*
X291266666Y-28407380D01*
X291171428Y-28359761D01*
X291123809Y-28312142D01*
X291076190Y-28216904D01*
X291076190Y-27931190D01*
X291123809Y-27835952D01*
X291171428Y-27788333D01*
X291266666Y-27740714D01*
X291457142Y-27740714D01*
X291552380Y-27788333D01*
X292028571Y-28407380D02*
X292028571Y-27407380D01*
X292028571Y-27883571D02*
X292600000Y-27883571D01*
X292600000Y-28407380D02*
X292600000Y-27407380D01*
X293219047Y-28407380D02*
X293123809Y-28359761D01*
X293076190Y-28312142D01*
X293028571Y-28216904D01*
X293028571Y-27931190D01*
X293076190Y-27835952D01*
X293123809Y-27788333D01*
X293219047Y-27740714D01*
X293361904Y-27740714D01*
X293457142Y-27788333D01*
X293504761Y-27835952D01*
X293552380Y-27931190D01*
X293552380Y-28216904D01*
X293504761Y-28312142D01*
X293457142Y-28359761D01*
X293361904Y-28407380D01*
X293219047Y-28407380D01*
X294123809Y-28407380D02*
X294028571Y-28359761D01*
X293980952Y-28264523D01*
X293980952Y-27407380D01*
X294885714Y-28359761D02*
X294790476Y-28407380D01*
X294600000Y-28407380D01*
X294504761Y-28359761D01*
X294457142Y-28264523D01*
X294457142Y-27883571D01*
X294504761Y-27788333D01*
X294600000Y-27740714D01*
X294790476Y-27740714D01*
X294885714Y-27788333D01*
X294933333Y-27883571D01*
X294933333Y-27978809D01*
X294457142Y-28074047D01*
X289161904Y-25057380D02*
X289161904Y-24057380D01*
X289161904Y-24533571D02*
X289733333Y-24533571D01*
X289733333Y-25057380D02*
X289733333Y-24057380D01*
X290161904Y-24152619D02*
X290209523Y-24105000D01*
X290304761Y-24057380D01*
X290542857Y-24057380D01*
X290638095Y-24105000D01*
X290685714Y-24152619D01*
X290733333Y-24247857D01*
X290733333Y-24343095D01*
X290685714Y-24485952D01*
X290114285Y-25057380D01*
X290733333Y-25057380D01*
X291066666Y-24057380D02*
X291733333Y-24057380D01*
X291304761Y-25057380D01*
X264994285Y-150907380D02*
X264994285Y-149907380D01*
X265327619Y-150621666D01*
X265660952Y-149907380D01*
X265660952Y-150907380D01*
X266280000Y-150907380D02*
X266184761Y-150859761D01*
X266137142Y-150812142D01*
X266089523Y-150716904D01*
X266089523Y-150431190D01*
X266137142Y-150335952D01*
X266184761Y-150288333D01*
X266280000Y-150240714D01*
X266422857Y-150240714D01*
X266518095Y-150288333D01*
X266565714Y-150335952D01*
X266613333Y-150431190D01*
X266613333Y-150716904D01*
X266565714Y-150812142D01*
X266518095Y-150859761D01*
X266422857Y-150907380D01*
X266280000Y-150907380D01*
X267470476Y-150240714D02*
X267470476Y-150907380D01*
X267041904Y-150240714D02*
X267041904Y-150764523D01*
X267089523Y-150859761D01*
X267184761Y-150907380D01*
X267327619Y-150907380D01*
X267422857Y-150859761D01*
X267470476Y-150812142D01*
X267946666Y-150240714D02*
X267946666Y-150907380D01*
X267946666Y-150335952D02*
X267994285Y-150288333D01*
X268089523Y-150240714D01*
X268232380Y-150240714D01*
X268327619Y-150288333D01*
X268375238Y-150383571D01*
X268375238Y-150907380D01*
X268708571Y-150240714D02*
X269089523Y-150240714D01*
X268851428Y-149907380D02*
X268851428Y-150764523D01*
X268899047Y-150859761D01*
X268994285Y-150907380D01*
X269089523Y-150907380D01*
X269422857Y-150907380D02*
X269422857Y-150240714D01*
X269422857Y-149907380D02*
X269375238Y-149955000D01*
X269422857Y-150002619D01*
X269470476Y-149955000D01*
X269422857Y-149907380D01*
X269422857Y-150002619D01*
X269899047Y-150240714D02*
X269899047Y-150907380D01*
X269899047Y-150335952D02*
X269946666Y-150288333D01*
X270041904Y-150240714D01*
X270184761Y-150240714D01*
X270280000Y-150288333D01*
X270327619Y-150383571D01*
X270327619Y-150907380D01*
X271232380Y-150240714D02*
X271232380Y-151050238D01*
X271184761Y-151145476D01*
X271137142Y-151193095D01*
X271041904Y-151240714D01*
X270899047Y-151240714D01*
X270803809Y-151193095D01*
X271232380Y-150859761D02*
X271137142Y-150907380D01*
X270946666Y-150907380D01*
X270851428Y-150859761D01*
X270803809Y-150812142D01*
X270756190Y-150716904D01*
X270756190Y-150431190D01*
X270803809Y-150335952D01*
X270851428Y-150288333D01*
X270946666Y-150240714D01*
X271137142Y-150240714D01*
X271232380Y-150288333D01*
X271708571Y-150907380D02*
X271708571Y-149907380D01*
X271708571Y-150383571D02*
X272280000Y-150383571D01*
X272280000Y-150907380D02*
X272280000Y-149907380D01*
X272899047Y-150907380D02*
X272803809Y-150859761D01*
X272756190Y-150812142D01*
X272708571Y-150716904D01*
X272708571Y-150431190D01*
X272756190Y-150335952D01*
X272803809Y-150288333D01*
X272899047Y-150240714D01*
X273041904Y-150240714D01*
X273137142Y-150288333D01*
X273184761Y-150335952D01*
X273232380Y-150431190D01*
X273232380Y-150716904D01*
X273184761Y-150812142D01*
X273137142Y-150859761D01*
X273041904Y-150907380D01*
X272899047Y-150907380D01*
X273803809Y-150907380D02*
X273708571Y-150859761D01*
X273660952Y-150764523D01*
X273660952Y-149907380D01*
X274565714Y-150859761D02*
X274470476Y-150907380D01*
X274280000Y-150907380D01*
X274184761Y-150859761D01*
X274137142Y-150764523D01*
X274137142Y-150383571D01*
X274184761Y-150288333D01*
X274280000Y-150240714D01*
X274470476Y-150240714D01*
X274565714Y-150288333D01*
X274613333Y-150383571D01*
X274613333Y-150478809D01*
X274137142Y-150574047D01*
X268841904Y-147557380D02*
X268841904Y-146557380D01*
X268841904Y-147033571D02*
X269413333Y-147033571D01*
X269413333Y-147557380D02*
X269413333Y-146557380D01*
X269841904Y-146652619D02*
X269889523Y-146605000D01*
X269984761Y-146557380D01*
X270222857Y-146557380D01*
X270318095Y-146605000D01*
X270365714Y-146652619D01*
X270413333Y-146747857D01*
X270413333Y-146843095D01*
X270365714Y-146985952D01*
X269794285Y-147557380D01*
X270413333Y-147557380D01*
X271270476Y-146557380D02*
X271080000Y-146557380D01*
X270984761Y-146605000D01*
X270937142Y-146652619D01*
X270841904Y-146795476D01*
X270794285Y-146985952D01*
X270794285Y-147366904D01*
X270841904Y-147462142D01*
X270889523Y-147509761D01*
X270984761Y-147557380D01*
X271175238Y-147557380D01*
X271270476Y-147509761D01*
X271318095Y-147462142D01*
X271365714Y-147366904D01*
X271365714Y-147128809D01*
X271318095Y-147033571D01*
X271270476Y-146985952D01*
X271175238Y-146938333D01*
X270984761Y-146938333D01*
X270889523Y-146985952D01*
X270841904Y-147033571D01*
X270794285Y-147128809D01*
X264994285Y-28407380D02*
X264994285Y-27407380D01*
X265327619Y-28121666D01*
X265660952Y-27407380D01*
X265660952Y-28407380D01*
X266280000Y-28407380D02*
X266184761Y-28359761D01*
X266137142Y-28312142D01*
X266089523Y-28216904D01*
X266089523Y-27931190D01*
X266137142Y-27835952D01*
X266184761Y-27788333D01*
X266280000Y-27740714D01*
X266422857Y-27740714D01*
X266518095Y-27788333D01*
X266565714Y-27835952D01*
X266613333Y-27931190D01*
X266613333Y-28216904D01*
X266565714Y-28312142D01*
X266518095Y-28359761D01*
X266422857Y-28407380D01*
X266280000Y-28407380D01*
X267470476Y-27740714D02*
X267470476Y-28407380D01*
X267041904Y-27740714D02*
X267041904Y-28264523D01*
X267089523Y-28359761D01*
X267184761Y-28407380D01*
X267327619Y-28407380D01*
X267422857Y-28359761D01*
X267470476Y-28312142D01*
X267946666Y-27740714D02*
X267946666Y-28407380D01*
X267946666Y-27835952D02*
X267994285Y-27788333D01*
X268089523Y-27740714D01*
X268232380Y-27740714D01*
X268327619Y-27788333D01*
X268375238Y-27883571D01*
X268375238Y-28407380D01*
X268708571Y-27740714D02*
X269089523Y-27740714D01*
X268851428Y-27407380D02*
X268851428Y-28264523D01*
X268899047Y-28359761D01*
X268994285Y-28407380D01*
X269089523Y-28407380D01*
X269422857Y-28407380D02*
X269422857Y-27740714D01*
X269422857Y-27407380D02*
X269375238Y-27455000D01*
X269422857Y-27502619D01*
X269470476Y-27455000D01*
X269422857Y-27407380D01*
X269422857Y-27502619D01*
X269899047Y-27740714D02*
X269899047Y-28407380D01*
X269899047Y-27835952D02*
X269946666Y-27788333D01*
X270041904Y-27740714D01*
X270184761Y-27740714D01*
X270280000Y-27788333D01*
X270327619Y-27883571D01*
X270327619Y-28407380D01*
X271232380Y-27740714D02*
X271232380Y-28550238D01*
X271184761Y-28645476D01*
X271137142Y-28693095D01*
X271041904Y-28740714D01*
X270899047Y-28740714D01*
X270803809Y-28693095D01*
X271232380Y-28359761D02*
X271137142Y-28407380D01*
X270946666Y-28407380D01*
X270851428Y-28359761D01*
X270803809Y-28312142D01*
X270756190Y-28216904D01*
X270756190Y-27931190D01*
X270803809Y-27835952D01*
X270851428Y-27788333D01*
X270946666Y-27740714D01*
X271137142Y-27740714D01*
X271232380Y-27788333D01*
X271708571Y-28407380D02*
X271708571Y-27407380D01*
X271708571Y-27883571D02*
X272280000Y-27883571D01*
X272280000Y-28407380D02*
X272280000Y-27407380D01*
X272899047Y-28407380D02*
X272803809Y-28359761D01*
X272756190Y-28312142D01*
X272708571Y-28216904D01*
X272708571Y-27931190D01*
X272756190Y-27835952D01*
X272803809Y-27788333D01*
X272899047Y-27740714D01*
X273041904Y-27740714D01*
X273137142Y-27788333D01*
X273184761Y-27835952D01*
X273232380Y-27931190D01*
X273232380Y-28216904D01*
X273184761Y-28312142D01*
X273137142Y-28359761D01*
X273041904Y-28407380D01*
X272899047Y-28407380D01*
X273803809Y-28407380D02*
X273708571Y-28359761D01*
X273660952Y-28264523D01*
X273660952Y-27407380D01*
X274565714Y-28359761D02*
X274470476Y-28407380D01*
X274280000Y-28407380D01*
X274184761Y-28359761D01*
X274137142Y-28264523D01*
X274137142Y-27883571D01*
X274184761Y-27788333D01*
X274280000Y-27740714D01*
X274470476Y-27740714D01*
X274565714Y-27788333D01*
X274613333Y-27883571D01*
X274613333Y-27978809D01*
X274137142Y-28074047D01*
X268841904Y-25057380D02*
X268841904Y-24057380D01*
X268841904Y-24533571D02*
X269413333Y-24533571D01*
X269413333Y-25057380D02*
X269413333Y-24057380D01*
X269841904Y-24152619D02*
X269889523Y-24105000D01*
X269984761Y-24057380D01*
X270222857Y-24057380D01*
X270318095Y-24105000D01*
X270365714Y-24152619D01*
X270413333Y-24247857D01*
X270413333Y-24343095D01*
X270365714Y-24485952D01*
X269794285Y-25057380D01*
X270413333Y-25057380D01*
X271318095Y-24057380D02*
X270841904Y-24057380D01*
X270794285Y-24533571D01*
X270841904Y-24485952D01*
X270937142Y-24438333D01*
X271175238Y-24438333D01*
X271270476Y-24485952D01*
X271318095Y-24533571D01*
X271365714Y-24628809D01*
X271365714Y-24866904D01*
X271318095Y-24962142D01*
X271270476Y-25009761D01*
X271175238Y-25057380D01*
X270937142Y-25057380D01*
X270841904Y-25009761D01*
X270794285Y-24962142D01*
X244674285Y-150907380D02*
X244674285Y-149907380D01*
X245007619Y-150621666D01*
X245340952Y-149907380D01*
X245340952Y-150907380D01*
X245960000Y-150907380D02*
X245864761Y-150859761D01*
X245817142Y-150812142D01*
X245769523Y-150716904D01*
X245769523Y-150431190D01*
X245817142Y-150335952D01*
X245864761Y-150288333D01*
X245960000Y-150240714D01*
X246102857Y-150240714D01*
X246198095Y-150288333D01*
X246245714Y-150335952D01*
X246293333Y-150431190D01*
X246293333Y-150716904D01*
X246245714Y-150812142D01*
X246198095Y-150859761D01*
X246102857Y-150907380D01*
X245960000Y-150907380D01*
X247150476Y-150240714D02*
X247150476Y-150907380D01*
X246721904Y-150240714D02*
X246721904Y-150764523D01*
X246769523Y-150859761D01*
X246864761Y-150907380D01*
X247007619Y-150907380D01*
X247102857Y-150859761D01*
X247150476Y-150812142D01*
X247626666Y-150240714D02*
X247626666Y-150907380D01*
X247626666Y-150335952D02*
X247674285Y-150288333D01*
X247769523Y-150240714D01*
X247912380Y-150240714D01*
X248007619Y-150288333D01*
X248055238Y-150383571D01*
X248055238Y-150907380D01*
X248388571Y-150240714D02*
X248769523Y-150240714D01*
X248531428Y-149907380D02*
X248531428Y-150764523D01*
X248579047Y-150859761D01*
X248674285Y-150907380D01*
X248769523Y-150907380D01*
X249102857Y-150907380D02*
X249102857Y-150240714D01*
X249102857Y-149907380D02*
X249055238Y-149955000D01*
X249102857Y-150002619D01*
X249150476Y-149955000D01*
X249102857Y-149907380D01*
X249102857Y-150002619D01*
X249579047Y-150240714D02*
X249579047Y-150907380D01*
X249579047Y-150335952D02*
X249626666Y-150288333D01*
X249721904Y-150240714D01*
X249864761Y-150240714D01*
X249960000Y-150288333D01*
X250007619Y-150383571D01*
X250007619Y-150907380D01*
X250912380Y-150240714D02*
X250912380Y-151050238D01*
X250864761Y-151145476D01*
X250817142Y-151193095D01*
X250721904Y-151240714D01*
X250579047Y-151240714D01*
X250483809Y-151193095D01*
X250912380Y-150859761D02*
X250817142Y-150907380D01*
X250626666Y-150907380D01*
X250531428Y-150859761D01*
X250483809Y-150812142D01*
X250436190Y-150716904D01*
X250436190Y-150431190D01*
X250483809Y-150335952D01*
X250531428Y-150288333D01*
X250626666Y-150240714D01*
X250817142Y-150240714D01*
X250912380Y-150288333D01*
X251388571Y-150907380D02*
X251388571Y-149907380D01*
X251388571Y-150383571D02*
X251960000Y-150383571D01*
X251960000Y-150907380D02*
X251960000Y-149907380D01*
X252579047Y-150907380D02*
X252483809Y-150859761D01*
X252436190Y-150812142D01*
X252388571Y-150716904D01*
X252388571Y-150431190D01*
X252436190Y-150335952D01*
X252483809Y-150288333D01*
X252579047Y-150240714D01*
X252721904Y-150240714D01*
X252817142Y-150288333D01*
X252864761Y-150335952D01*
X252912380Y-150431190D01*
X252912380Y-150716904D01*
X252864761Y-150812142D01*
X252817142Y-150859761D01*
X252721904Y-150907380D01*
X252579047Y-150907380D01*
X253483809Y-150907380D02*
X253388571Y-150859761D01*
X253340952Y-150764523D01*
X253340952Y-149907380D01*
X254245714Y-150859761D02*
X254150476Y-150907380D01*
X253960000Y-150907380D01*
X253864761Y-150859761D01*
X253817142Y-150764523D01*
X253817142Y-150383571D01*
X253864761Y-150288333D01*
X253960000Y-150240714D01*
X254150476Y-150240714D01*
X254245714Y-150288333D01*
X254293333Y-150383571D01*
X254293333Y-150478809D01*
X253817142Y-150574047D01*
X248521904Y-147557380D02*
X248521904Y-146557380D01*
X248521904Y-147033571D02*
X249093333Y-147033571D01*
X249093333Y-147557380D02*
X249093333Y-146557380D01*
X249521904Y-146652619D02*
X249569523Y-146605000D01*
X249664761Y-146557380D01*
X249902857Y-146557380D01*
X249998095Y-146605000D01*
X250045714Y-146652619D01*
X250093333Y-146747857D01*
X250093333Y-146843095D01*
X250045714Y-146985952D01*
X249474285Y-147557380D01*
X250093333Y-147557380D01*
X250950476Y-146890714D02*
X250950476Y-147557380D01*
X250712380Y-146509761D02*
X250474285Y-147224047D01*
X251093333Y-147224047D01*
X244674285Y-28407380D02*
X244674285Y-27407380D01*
X245007619Y-28121666D01*
X245340952Y-27407380D01*
X245340952Y-28407380D01*
X245960000Y-28407380D02*
X245864761Y-28359761D01*
X245817142Y-28312142D01*
X245769523Y-28216904D01*
X245769523Y-27931190D01*
X245817142Y-27835952D01*
X245864761Y-27788333D01*
X245960000Y-27740714D01*
X246102857Y-27740714D01*
X246198095Y-27788333D01*
X246245714Y-27835952D01*
X246293333Y-27931190D01*
X246293333Y-28216904D01*
X246245714Y-28312142D01*
X246198095Y-28359761D01*
X246102857Y-28407380D01*
X245960000Y-28407380D01*
X247150476Y-27740714D02*
X247150476Y-28407380D01*
X246721904Y-27740714D02*
X246721904Y-28264523D01*
X246769523Y-28359761D01*
X246864761Y-28407380D01*
X247007619Y-28407380D01*
X247102857Y-28359761D01*
X247150476Y-28312142D01*
X247626666Y-27740714D02*
X247626666Y-28407380D01*
X247626666Y-27835952D02*
X247674285Y-27788333D01*
X247769523Y-27740714D01*
X247912380Y-27740714D01*
X248007619Y-27788333D01*
X248055238Y-27883571D01*
X248055238Y-28407380D01*
X248388571Y-27740714D02*
X248769523Y-27740714D01*
X248531428Y-27407380D02*
X248531428Y-28264523D01*
X248579047Y-28359761D01*
X248674285Y-28407380D01*
X248769523Y-28407380D01*
X249102857Y-28407380D02*
X249102857Y-27740714D01*
X249102857Y-27407380D02*
X249055238Y-27455000D01*
X249102857Y-27502619D01*
X249150476Y-27455000D01*
X249102857Y-27407380D01*
X249102857Y-27502619D01*
X249579047Y-27740714D02*
X249579047Y-28407380D01*
X249579047Y-27835952D02*
X249626666Y-27788333D01*
X249721904Y-27740714D01*
X249864761Y-27740714D01*
X249960000Y-27788333D01*
X250007619Y-27883571D01*
X250007619Y-28407380D01*
X250912380Y-27740714D02*
X250912380Y-28550238D01*
X250864761Y-28645476D01*
X250817142Y-28693095D01*
X250721904Y-28740714D01*
X250579047Y-28740714D01*
X250483809Y-28693095D01*
X250912380Y-28359761D02*
X250817142Y-28407380D01*
X250626666Y-28407380D01*
X250531428Y-28359761D01*
X250483809Y-28312142D01*
X250436190Y-28216904D01*
X250436190Y-27931190D01*
X250483809Y-27835952D01*
X250531428Y-27788333D01*
X250626666Y-27740714D01*
X250817142Y-27740714D01*
X250912380Y-27788333D01*
X251388571Y-28407380D02*
X251388571Y-27407380D01*
X251388571Y-27883571D02*
X251960000Y-27883571D01*
X251960000Y-28407380D02*
X251960000Y-27407380D01*
X252579047Y-28407380D02*
X252483809Y-28359761D01*
X252436190Y-28312142D01*
X252388571Y-28216904D01*
X252388571Y-27931190D01*
X252436190Y-27835952D01*
X252483809Y-27788333D01*
X252579047Y-27740714D01*
X252721904Y-27740714D01*
X252817142Y-27788333D01*
X252864761Y-27835952D01*
X252912380Y-27931190D01*
X252912380Y-28216904D01*
X252864761Y-28312142D01*
X252817142Y-28359761D01*
X252721904Y-28407380D01*
X252579047Y-28407380D01*
X253483809Y-28407380D02*
X253388571Y-28359761D01*
X253340952Y-28264523D01*
X253340952Y-27407380D01*
X254245714Y-28359761D02*
X254150476Y-28407380D01*
X253960000Y-28407380D01*
X253864761Y-28359761D01*
X253817142Y-28264523D01*
X253817142Y-27883571D01*
X253864761Y-27788333D01*
X253960000Y-27740714D01*
X254150476Y-27740714D01*
X254245714Y-27788333D01*
X254293333Y-27883571D01*
X254293333Y-27978809D01*
X253817142Y-28074047D01*
X248521904Y-25057380D02*
X248521904Y-24057380D01*
X248521904Y-24533571D02*
X249093333Y-24533571D01*
X249093333Y-25057380D02*
X249093333Y-24057380D01*
X249521904Y-24152619D02*
X249569523Y-24105000D01*
X249664761Y-24057380D01*
X249902857Y-24057380D01*
X249998095Y-24105000D01*
X250045714Y-24152619D01*
X250093333Y-24247857D01*
X250093333Y-24343095D01*
X250045714Y-24485952D01*
X249474285Y-25057380D01*
X250093333Y-25057380D01*
X250426666Y-24057380D02*
X251045714Y-24057380D01*
X250712380Y-24438333D01*
X250855238Y-24438333D01*
X250950476Y-24485952D01*
X250998095Y-24533571D01*
X251045714Y-24628809D01*
X251045714Y-24866904D01*
X250998095Y-24962142D01*
X250950476Y-25009761D01*
X250855238Y-25057380D01*
X250569523Y-25057380D01*
X250474285Y-25009761D01*
X250426666Y-24962142D01*
X224354285Y-150907380D02*
X224354285Y-149907380D01*
X224687619Y-150621666D01*
X225020952Y-149907380D01*
X225020952Y-150907380D01*
X225640000Y-150907380D02*
X225544761Y-150859761D01*
X225497142Y-150812142D01*
X225449523Y-150716904D01*
X225449523Y-150431190D01*
X225497142Y-150335952D01*
X225544761Y-150288333D01*
X225640000Y-150240714D01*
X225782857Y-150240714D01*
X225878095Y-150288333D01*
X225925714Y-150335952D01*
X225973333Y-150431190D01*
X225973333Y-150716904D01*
X225925714Y-150812142D01*
X225878095Y-150859761D01*
X225782857Y-150907380D01*
X225640000Y-150907380D01*
X226830476Y-150240714D02*
X226830476Y-150907380D01*
X226401904Y-150240714D02*
X226401904Y-150764523D01*
X226449523Y-150859761D01*
X226544761Y-150907380D01*
X226687619Y-150907380D01*
X226782857Y-150859761D01*
X226830476Y-150812142D01*
X227306666Y-150240714D02*
X227306666Y-150907380D01*
X227306666Y-150335952D02*
X227354285Y-150288333D01*
X227449523Y-150240714D01*
X227592380Y-150240714D01*
X227687619Y-150288333D01*
X227735238Y-150383571D01*
X227735238Y-150907380D01*
X228068571Y-150240714D02*
X228449523Y-150240714D01*
X228211428Y-149907380D02*
X228211428Y-150764523D01*
X228259047Y-150859761D01*
X228354285Y-150907380D01*
X228449523Y-150907380D01*
X228782857Y-150907380D02*
X228782857Y-150240714D01*
X228782857Y-149907380D02*
X228735238Y-149955000D01*
X228782857Y-150002619D01*
X228830476Y-149955000D01*
X228782857Y-149907380D01*
X228782857Y-150002619D01*
X229259047Y-150240714D02*
X229259047Y-150907380D01*
X229259047Y-150335952D02*
X229306666Y-150288333D01*
X229401904Y-150240714D01*
X229544761Y-150240714D01*
X229640000Y-150288333D01*
X229687619Y-150383571D01*
X229687619Y-150907380D01*
X230592380Y-150240714D02*
X230592380Y-151050238D01*
X230544761Y-151145476D01*
X230497142Y-151193095D01*
X230401904Y-151240714D01*
X230259047Y-151240714D01*
X230163809Y-151193095D01*
X230592380Y-150859761D02*
X230497142Y-150907380D01*
X230306666Y-150907380D01*
X230211428Y-150859761D01*
X230163809Y-150812142D01*
X230116190Y-150716904D01*
X230116190Y-150431190D01*
X230163809Y-150335952D01*
X230211428Y-150288333D01*
X230306666Y-150240714D01*
X230497142Y-150240714D01*
X230592380Y-150288333D01*
X231068571Y-150907380D02*
X231068571Y-149907380D01*
X231068571Y-150383571D02*
X231640000Y-150383571D01*
X231640000Y-150907380D02*
X231640000Y-149907380D01*
X232259047Y-150907380D02*
X232163809Y-150859761D01*
X232116190Y-150812142D01*
X232068571Y-150716904D01*
X232068571Y-150431190D01*
X232116190Y-150335952D01*
X232163809Y-150288333D01*
X232259047Y-150240714D01*
X232401904Y-150240714D01*
X232497142Y-150288333D01*
X232544761Y-150335952D01*
X232592380Y-150431190D01*
X232592380Y-150716904D01*
X232544761Y-150812142D01*
X232497142Y-150859761D01*
X232401904Y-150907380D01*
X232259047Y-150907380D01*
X233163809Y-150907380D02*
X233068571Y-150859761D01*
X233020952Y-150764523D01*
X233020952Y-149907380D01*
X233925714Y-150859761D02*
X233830476Y-150907380D01*
X233640000Y-150907380D01*
X233544761Y-150859761D01*
X233497142Y-150764523D01*
X233497142Y-150383571D01*
X233544761Y-150288333D01*
X233640000Y-150240714D01*
X233830476Y-150240714D01*
X233925714Y-150288333D01*
X233973333Y-150383571D01*
X233973333Y-150478809D01*
X233497142Y-150574047D01*
X228201904Y-147557380D02*
X228201904Y-146557380D01*
X228201904Y-147033571D02*
X228773333Y-147033571D01*
X228773333Y-147557380D02*
X228773333Y-146557380D01*
X229201904Y-146652619D02*
X229249523Y-146605000D01*
X229344761Y-146557380D01*
X229582857Y-146557380D01*
X229678095Y-146605000D01*
X229725714Y-146652619D01*
X229773333Y-146747857D01*
X229773333Y-146843095D01*
X229725714Y-146985952D01*
X229154285Y-147557380D01*
X229773333Y-147557380D01*
X230154285Y-146652619D02*
X230201904Y-146605000D01*
X230297142Y-146557380D01*
X230535238Y-146557380D01*
X230630476Y-146605000D01*
X230678095Y-146652619D01*
X230725714Y-146747857D01*
X230725714Y-146843095D01*
X230678095Y-146985952D01*
X230106666Y-147557380D01*
X230725714Y-147557380D01*
X224354285Y-28407380D02*
X224354285Y-27407380D01*
X224687619Y-28121666D01*
X225020952Y-27407380D01*
X225020952Y-28407380D01*
X225640000Y-28407380D02*
X225544761Y-28359761D01*
X225497142Y-28312142D01*
X225449523Y-28216904D01*
X225449523Y-27931190D01*
X225497142Y-27835952D01*
X225544761Y-27788333D01*
X225640000Y-27740714D01*
X225782857Y-27740714D01*
X225878095Y-27788333D01*
X225925714Y-27835952D01*
X225973333Y-27931190D01*
X225973333Y-28216904D01*
X225925714Y-28312142D01*
X225878095Y-28359761D01*
X225782857Y-28407380D01*
X225640000Y-28407380D01*
X226830476Y-27740714D02*
X226830476Y-28407380D01*
X226401904Y-27740714D02*
X226401904Y-28264523D01*
X226449523Y-28359761D01*
X226544761Y-28407380D01*
X226687619Y-28407380D01*
X226782857Y-28359761D01*
X226830476Y-28312142D01*
X227306666Y-27740714D02*
X227306666Y-28407380D01*
X227306666Y-27835952D02*
X227354285Y-27788333D01*
X227449523Y-27740714D01*
X227592380Y-27740714D01*
X227687619Y-27788333D01*
X227735238Y-27883571D01*
X227735238Y-28407380D01*
X228068571Y-27740714D02*
X228449523Y-27740714D01*
X228211428Y-27407380D02*
X228211428Y-28264523D01*
X228259047Y-28359761D01*
X228354285Y-28407380D01*
X228449523Y-28407380D01*
X228782857Y-28407380D02*
X228782857Y-27740714D01*
X228782857Y-27407380D02*
X228735238Y-27455000D01*
X228782857Y-27502619D01*
X228830476Y-27455000D01*
X228782857Y-27407380D01*
X228782857Y-27502619D01*
X229259047Y-27740714D02*
X229259047Y-28407380D01*
X229259047Y-27835952D02*
X229306666Y-27788333D01*
X229401904Y-27740714D01*
X229544761Y-27740714D01*
X229640000Y-27788333D01*
X229687619Y-27883571D01*
X229687619Y-28407380D01*
X230592380Y-27740714D02*
X230592380Y-28550238D01*
X230544761Y-28645476D01*
X230497142Y-28693095D01*
X230401904Y-28740714D01*
X230259047Y-28740714D01*
X230163809Y-28693095D01*
X230592380Y-28359761D02*
X230497142Y-28407380D01*
X230306666Y-28407380D01*
X230211428Y-28359761D01*
X230163809Y-28312142D01*
X230116190Y-28216904D01*
X230116190Y-27931190D01*
X230163809Y-27835952D01*
X230211428Y-27788333D01*
X230306666Y-27740714D01*
X230497142Y-27740714D01*
X230592380Y-27788333D01*
X231068571Y-28407380D02*
X231068571Y-27407380D01*
X231068571Y-27883571D02*
X231640000Y-27883571D01*
X231640000Y-28407380D02*
X231640000Y-27407380D01*
X232259047Y-28407380D02*
X232163809Y-28359761D01*
X232116190Y-28312142D01*
X232068571Y-28216904D01*
X232068571Y-27931190D01*
X232116190Y-27835952D01*
X232163809Y-27788333D01*
X232259047Y-27740714D01*
X232401904Y-27740714D01*
X232497142Y-27788333D01*
X232544761Y-27835952D01*
X232592380Y-27931190D01*
X232592380Y-28216904D01*
X232544761Y-28312142D01*
X232497142Y-28359761D01*
X232401904Y-28407380D01*
X232259047Y-28407380D01*
X233163809Y-28407380D02*
X233068571Y-28359761D01*
X233020952Y-28264523D01*
X233020952Y-27407380D01*
X233925714Y-28359761D02*
X233830476Y-28407380D01*
X233640000Y-28407380D01*
X233544761Y-28359761D01*
X233497142Y-28264523D01*
X233497142Y-27883571D01*
X233544761Y-27788333D01*
X233640000Y-27740714D01*
X233830476Y-27740714D01*
X233925714Y-27788333D01*
X233973333Y-27883571D01*
X233973333Y-27978809D01*
X233497142Y-28074047D01*
X228201904Y-25057380D02*
X228201904Y-24057380D01*
X228201904Y-24533571D02*
X228773333Y-24533571D01*
X228773333Y-25057380D02*
X228773333Y-24057380D01*
X229201904Y-24152619D02*
X229249523Y-24105000D01*
X229344761Y-24057380D01*
X229582857Y-24057380D01*
X229678095Y-24105000D01*
X229725714Y-24152619D01*
X229773333Y-24247857D01*
X229773333Y-24343095D01*
X229725714Y-24485952D01*
X229154285Y-25057380D01*
X229773333Y-25057380D01*
X230725714Y-25057380D02*
X230154285Y-25057380D01*
X230440000Y-25057380D02*
X230440000Y-24057380D01*
X230344761Y-24200238D01*
X230249523Y-24295476D01*
X230154285Y-24343095D01*
X204034285Y-150907380D02*
X204034285Y-149907380D01*
X204367619Y-150621666D01*
X204700952Y-149907380D01*
X204700952Y-150907380D01*
X205320000Y-150907380D02*
X205224761Y-150859761D01*
X205177142Y-150812142D01*
X205129523Y-150716904D01*
X205129523Y-150431190D01*
X205177142Y-150335952D01*
X205224761Y-150288333D01*
X205320000Y-150240714D01*
X205462857Y-150240714D01*
X205558095Y-150288333D01*
X205605714Y-150335952D01*
X205653333Y-150431190D01*
X205653333Y-150716904D01*
X205605714Y-150812142D01*
X205558095Y-150859761D01*
X205462857Y-150907380D01*
X205320000Y-150907380D01*
X206510476Y-150240714D02*
X206510476Y-150907380D01*
X206081904Y-150240714D02*
X206081904Y-150764523D01*
X206129523Y-150859761D01*
X206224761Y-150907380D01*
X206367619Y-150907380D01*
X206462857Y-150859761D01*
X206510476Y-150812142D01*
X206986666Y-150240714D02*
X206986666Y-150907380D01*
X206986666Y-150335952D02*
X207034285Y-150288333D01*
X207129523Y-150240714D01*
X207272380Y-150240714D01*
X207367619Y-150288333D01*
X207415238Y-150383571D01*
X207415238Y-150907380D01*
X207748571Y-150240714D02*
X208129523Y-150240714D01*
X207891428Y-149907380D02*
X207891428Y-150764523D01*
X207939047Y-150859761D01*
X208034285Y-150907380D01*
X208129523Y-150907380D01*
X208462857Y-150907380D02*
X208462857Y-150240714D01*
X208462857Y-149907380D02*
X208415238Y-149955000D01*
X208462857Y-150002619D01*
X208510476Y-149955000D01*
X208462857Y-149907380D01*
X208462857Y-150002619D01*
X208939047Y-150240714D02*
X208939047Y-150907380D01*
X208939047Y-150335952D02*
X208986666Y-150288333D01*
X209081904Y-150240714D01*
X209224761Y-150240714D01*
X209320000Y-150288333D01*
X209367619Y-150383571D01*
X209367619Y-150907380D01*
X210272380Y-150240714D02*
X210272380Y-151050238D01*
X210224761Y-151145476D01*
X210177142Y-151193095D01*
X210081904Y-151240714D01*
X209939047Y-151240714D01*
X209843809Y-151193095D01*
X210272380Y-150859761D02*
X210177142Y-150907380D01*
X209986666Y-150907380D01*
X209891428Y-150859761D01*
X209843809Y-150812142D01*
X209796190Y-150716904D01*
X209796190Y-150431190D01*
X209843809Y-150335952D01*
X209891428Y-150288333D01*
X209986666Y-150240714D01*
X210177142Y-150240714D01*
X210272380Y-150288333D01*
X210748571Y-150907380D02*
X210748571Y-149907380D01*
X210748571Y-150383571D02*
X211320000Y-150383571D01*
X211320000Y-150907380D02*
X211320000Y-149907380D01*
X211939047Y-150907380D02*
X211843809Y-150859761D01*
X211796190Y-150812142D01*
X211748571Y-150716904D01*
X211748571Y-150431190D01*
X211796190Y-150335952D01*
X211843809Y-150288333D01*
X211939047Y-150240714D01*
X212081904Y-150240714D01*
X212177142Y-150288333D01*
X212224761Y-150335952D01*
X212272380Y-150431190D01*
X212272380Y-150716904D01*
X212224761Y-150812142D01*
X212177142Y-150859761D01*
X212081904Y-150907380D01*
X211939047Y-150907380D01*
X212843809Y-150907380D02*
X212748571Y-150859761D01*
X212700952Y-150764523D01*
X212700952Y-149907380D01*
X213605714Y-150859761D02*
X213510476Y-150907380D01*
X213320000Y-150907380D01*
X213224761Y-150859761D01*
X213177142Y-150764523D01*
X213177142Y-150383571D01*
X213224761Y-150288333D01*
X213320000Y-150240714D01*
X213510476Y-150240714D01*
X213605714Y-150288333D01*
X213653333Y-150383571D01*
X213653333Y-150478809D01*
X213177142Y-150574047D01*
X207881904Y-147557380D02*
X207881904Y-146557380D01*
X207881904Y-147033571D02*
X208453333Y-147033571D01*
X208453333Y-147557380D02*
X208453333Y-146557380D01*
X208881904Y-146652619D02*
X208929523Y-146605000D01*
X209024761Y-146557380D01*
X209262857Y-146557380D01*
X209358095Y-146605000D01*
X209405714Y-146652619D01*
X209453333Y-146747857D01*
X209453333Y-146843095D01*
X209405714Y-146985952D01*
X208834285Y-147557380D01*
X209453333Y-147557380D01*
X210072380Y-146557380D02*
X210167619Y-146557380D01*
X210262857Y-146605000D01*
X210310476Y-146652619D01*
X210358095Y-146747857D01*
X210405714Y-146938333D01*
X210405714Y-147176428D01*
X210358095Y-147366904D01*
X210310476Y-147462142D01*
X210262857Y-147509761D01*
X210167619Y-147557380D01*
X210072380Y-147557380D01*
X209977142Y-147509761D01*
X209929523Y-147462142D01*
X209881904Y-147366904D01*
X209834285Y-147176428D01*
X209834285Y-146938333D01*
X209881904Y-146747857D01*
X209929523Y-146652619D01*
X209977142Y-146605000D01*
X210072380Y-146557380D01*
X204034285Y-28407380D02*
X204034285Y-27407380D01*
X204367619Y-28121666D01*
X204700952Y-27407380D01*
X204700952Y-28407380D01*
X205320000Y-28407380D02*
X205224761Y-28359761D01*
X205177142Y-28312142D01*
X205129523Y-28216904D01*
X205129523Y-27931190D01*
X205177142Y-27835952D01*
X205224761Y-27788333D01*
X205320000Y-27740714D01*
X205462857Y-27740714D01*
X205558095Y-27788333D01*
X205605714Y-27835952D01*
X205653333Y-27931190D01*
X205653333Y-28216904D01*
X205605714Y-28312142D01*
X205558095Y-28359761D01*
X205462857Y-28407380D01*
X205320000Y-28407380D01*
X206510476Y-27740714D02*
X206510476Y-28407380D01*
X206081904Y-27740714D02*
X206081904Y-28264523D01*
X206129523Y-28359761D01*
X206224761Y-28407380D01*
X206367619Y-28407380D01*
X206462857Y-28359761D01*
X206510476Y-28312142D01*
X206986666Y-27740714D02*
X206986666Y-28407380D01*
X206986666Y-27835952D02*
X207034285Y-27788333D01*
X207129523Y-27740714D01*
X207272380Y-27740714D01*
X207367619Y-27788333D01*
X207415238Y-27883571D01*
X207415238Y-28407380D01*
X207748571Y-27740714D02*
X208129523Y-27740714D01*
X207891428Y-27407380D02*
X207891428Y-28264523D01*
X207939047Y-28359761D01*
X208034285Y-28407380D01*
X208129523Y-28407380D01*
X208462857Y-28407380D02*
X208462857Y-27740714D01*
X208462857Y-27407380D02*
X208415238Y-27455000D01*
X208462857Y-27502619D01*
X208510476Y-27455000D01*
X208462857Y-27407380D01*
X208462857Y-27502619D01*
X208939047Y-27740714D02*
X208939047Y-28407380D01*
X208939047Y-27835952D02*
X208986666Y-27788333D01*
X209081904Y-27740714D01*
X209224761Y-27740714D01*
X209320000Y-27788333D01*
X209367619Y-27883571D01*
X209367619Y-28407380D01*
X210272380Y-27740714D02*
X210272380Y-28550238D01*
X210224761Y-28645476D01*
X210177142Y-28693095D01*
X210081904Y-28740714D01*
X209939047Y-28740714D01*
X209843809Y-28693095D01*
X210272380Y-28359761D02*
X210177142Y-28407380D01*
X209986666Y-28407380D01*
X209891428Y-28359761D01*
X209843809Y-28312142D01*
X209796190Y-28216904D01*
X209796190Y-27931190D01*
X209843809Y-27835952D01*
X209891428Y-27788333D01*
X209986666Y-27740714D01*
X210177142Y-27740714D01*
X210272380Y-27788333D01*
X210748571Y-28407380D02*
X210748571Y-27407380D01*
X210748571Y-27883571D02*
X211320000Y-27883571D01*
X211320000Y-28407380D02*
X211320000Y-27407380D01*
X211939047Y-28407380D02*
X211843809Y-28359761D01*
X211796190Y-28312142D01*
X211748571Y-28216904D01*
X211748571Y-27931190D01*
X211796190Y-27835952D01*
X211843809Y-27788333D01*
X211939047Y-27740714D01*
X212081904Y-27740714D01*
X212177142Y-27788333D01*
X212224761Y-27835952D01*
X212272380Y-27931190D01*
X212272380Y-28216904D01*
X212224761Y-28312142D01*
X212177142Y-28359761D01*
X212081904Y-28407380D01*
X211939047Y-28407380D01*
X212843809Y-28407380D02*
X212748571Y-28359761D01*
X212700952Y-28264523D01*
X212700952Y-27407380D01*
X213605714Y-28359761D02*
X213510476Y-28407380D01*
X213320000Y-28407380D01*
X213224761Y-28359761D01*
X213177142Y-28264523D01*
X213177142Y-27883571D01*
X213224761Y-27788333D01*
X213320000Y-27740714D01*
X213510476Y-27740714D01*
X213605714Y-27788333D01*
X213653333Y-27883571D01*
X213653333Y-27978809D01*
X213177142Y-28074047D01*
X207881904Y-25057380D02*
X207881904Y-24057380D01*
X207881904Y-24533571D02*
X208453333Y-24533571D01*
X208453333Y-25057380D02*
X208453333Y-24057380D01*
X209453333Y-25057380D02*
X208881904Y-25057380D01*
X209167619Y-25057380D02*
X209167619Y-24057380D01*
X209072380Y-24200238D01*
X208977142Y-24295476D01*
X208881904Y-24343095D01*
X209929523Y-25057380D02*
X210120000Y-25057380D01*
X210215238Y-25009761D01*
X210262857Y-24962142D01*
X210358095Y-24819285D01*
X210405714Y-24628809D01*
X210405714Y-24247857D01*
X210358095Y-24152619D01*
X210310476Y-24105000D01*
X210215238Y-24057380D01*
X210024761Y-24057380D01*
X209929523Y-24105000D01*
X209881904Y-24152619D01*
X209834285Y-24247857D01*
X209834285Y-24485952D01*
X209881904Y-24581190D01*
X209929523Y-24628809D01*
X210024761Y-24676428D01*
X210215238Y-24676428D01*
X210310476Y-24628809D01*
X210358095Y-24581190D01*
X210405714Y-24485952D01*
X183714285Y-150907380D02*
X183714285Y-149907380D01*
X184047619Y-150621666D01*
X184380952Y-149907380D01*
X184380952Y-150907380D01*
X185000000Y-150907380D02*
X184904761Y-150859761D01*
X184857142Y-150812142D01*
X184809523Y-150716904D01*
X184809523Y-150431190D01*
X184857142Y-150335952D01*
X184904761Y-150288333D01*
X185000000Y-150240714D01*
X185142857Y-150240714D01*
X185238095Y-150288333D01*
X185285714Y-150335952D01*
X185333333Y-150431190D01*
X185333333Y-150716904D01*
X185285714Y-150812142D01*
X185238095Y-150859761D01*
X185142857Y-150907380D01*
X185000000Y-150907380D01*
X186190476Y-150240714D02*
X186190476Y-150907380D01*
X185761904Y-150240714D02*
X185761904Y-150764523D01*
X185809523Y-150859761D01*
X185904761Y-150907380D01*
X186047619Y-150907380D01*
X186142857Y-150859761D01*
X186190476Y-150812142D01*
X186666666Y-150240714D02*
X186666666Y-150907380D01*
X186666666Y-150335952D02*
X186714285Y-150288333D01*
X186809523Y-150240714D01*
X186952380Y-150240714D01*
X187047619Y-150288333D01*
X187095238Y-150383571D01*
X187095238Y-150907380D01*
X187428571Y-150240714D02*
X187809523Y-150240714D01*
X187571428Y-149907380D02*
X187571428Y-150764523D01*
X187619047Y-150859761D01*
X187714285Y-150907380D01*
X187809523Y-150907380D01*
X188142857Y-150907380D02*
X188142857Y-150240714D01*
X188142857Y-149907380D02*
X188095238Y-149955000D01*
X188142857Y-150002619D01*
X188190476Y-149955000D01*
X188142857Y-149907380D01*
X188142857Y-150002619D01*
X188619047Y-150240714D02*
X188619047Y-150907380D01*
X188619047Y-150335952D02*
X188666666Y-150288333D01*
X188761904Y-150240714D01*
X188904761Y-150240714D01*
X189000000Y-150288333D01*
X189047619Y-150383571D01*
X189047619Y-150907380D01*
X189952380Y-150240714D02*
X189952380Y-151050238D01*
X189904761Y-151145476D01*
X189857142Y-151193095D01*
X189761904Y-151240714D01*
X189619047Y-151240714D01*
X189523809Y-151193095D01*
X189952380Y-150859761D02*
X189857142Y-150907380D01*
X189666666Y-150907380D01*
X189571428Y-150859761D01*
X189523809Y-150812142D01*
X189476190Y-150716904D01*
X189476190Y-150431190D01*
X189523809Y-150335952D01*
X189571428Y-150288333D01*
X189666666Y-150240714D01*
X189857142Y-150240714D01*
X189952380Y-150288333D01*
X190428571Y-150907380D02*
X190428571Y-149907380D01*
X190428571Y-150383571D02*
X191000000Y-150383571D01*
X191000000Y-150907380D02*
X191000000Y-149907380D01*
X191619047Y-150907380D02*
X191523809Y-150859761D01*
X191476190Y-150812142D01*
X191428571Y-150716904D01*
X191428571Y-150431190D01*
X191476190Y-150335952D01*
X191523809Y-150288333D01*
X191619047Y-150240714D01*
X191761904Y-150240714D01*
X191857142Y-150288333D01*
X191904761Y-150335952D01*
X191952380Y-150431190D01*
X191952380Y-150716904D01*
X191904761Y-150812142D01*
X191857142Y-150859761D01*
X191761904Y-150907380D01*
X191619047Y-150907380D01*
X192523809Y-150907380D02*
X192428571Y-150859761D01*
X192380952Y-150764523D01*
X192380952Y-149907380D01*
X193285714Y-150859761D02*
X193190476Y-150907380D01*
X193000000Y-150907380D01*
X192904761Y-150859761D01*
X192857142Y-150764523D01*
X192857142Y-150383571D01*
X192904761Y-150288333D01*
X193000000Y-150240714D01*
X193190476Y-150240714D01*
X193285714Y-150288333D01*
X193333333Y-150383571D01*
X193333333Y-150478809D01*
X192857142Y-150574047D01*
X187561904Y-147557380D02*
X187561904Y-146557380D01*
X187561904Y-147033571D02*
X188133333Y-147033571D01*
X188133333Y-147557380D02*
X188133333Y-146557380D01*
X189133333Y-147557380D02*
X188561904Y-147557380D01*
X188847619Y-147557380D02*
X188847619Y-146557380D01*
X188752380Y-146700238D01*
X188657142Y-146795476D01*
X188561904Y-146843095D01*
X189704761Y-146985952D02*
X189609523Y-146938333D01*
X189561904Y-146890714D01*
X189514285Y-146795476D01*
X189514285Y-146747857D01*
X189561904Y-146652619D01*
X189609523Y-146605000D01*
X189704761Y-146557380D01*
X189895238Y-146557380D01*
X189990476Y-146605000D01*
X190038095Y-146652619D01*
X190085714Y-146747857D01*
X190085714Y-146795476D01*
X190038095Y-146890714D01*
X189990476Y-146938333D01*
X189895238Y-146985952D01*
X189704761Y-146985952D01*
X189609523Y-147033571D01*
X189561904Y-147081190D01*
X189514285Y-147176428D01*
X189514285Y-147366904D01*
X189561904Y-147462142D01*
X189609523Y-147509761D01*
X189704761Y-147557380D01*
X189895238Y-147557380D01*
X189990476Y-147509761D01*
X190038095Y-147462142D01*
X190085714Y-147366904D01*
X190085714Y-147176428D01*
X190038095Y-147081190D01*
X189990476Y-147033571D01*
X189895238Y-146985952D01*
X183714285Y-28407380D02*
X183714285Y-27407380D01*
X184047619Y-28121666D01*
X184380952Y-27407380D01*
X184380952Y-28407380D01*
X185000000Y-28407380D02*
X184904761Y-28359761D01*
X184857142Y-28312142D01*
X184809523Y-28216904D01*
X184809523Y-27931190D01*
X184857142Y-27835952D01*
X184904761Y-27788333D01*
X185000000Y-27740714D01*
X185142857Y-27740714D01*
X185238095Y-27788333D01*
X185285714Y-27835952D01*
X185333333Y-27931190D01*
X185333333Y-28216904D01*
X185285714Y-28312142D01*
X185238095Y-28359761D01*
X185142857Y-28407380D01*
X185000000Y-28407380D01*
X186190476Y-27740714D02*
X186190476Y-28407380D01*
X185761904Y-27740714D02*
X185761904Y-28264523D01*
X185809523Y-28359761D01*
X185904761Y-28407380D01*
X186047619Y-28407380D01*
X186142857Y-28359761D01*
X186190476Y-28312142D01*
X186666666Y-27740714D02*
X186666666Y-28407380D01*
X186666666Y-27835952D02*
X186714285Y-27788333D01*
X186809523Y-27740714D01*
X186952380Y-27740714D01*
X187047619Y-27788333D01*
X187095238Y-27883571D01*
X187095238Y-28407380D01*
X187428571Y-27740714D02*
X187809523Y-27740714D01*
X187571428Y-27407380D02*
X187571428Y-28264523D01*
X187619047Y-28359761D01*
X187714285Y-28407380D01*
X187809523Y-28407380D01*
X188142857Y-28407380D02*
X188142857Y-27740714D01*
X188142857Y-27407380D02*
X188095238Y-27455000D01*
X188142857Y-27502619D01*
X188190476Y-27455000D01*
X188142857Y-27407380D01*
X188142857Y-27502619D01*
X188619047Y-27740714D02*
X188619047Y-28407380D01*
X188619047Y-27835952D02*
X188666666Y-27788333D01*
X188761904Y-27740714D01*
X188904761Y-27740714D01*
X189000000Y-27788333D01*
X189047619Y-27883571D01*
X189047619Y-28407380D01*
X189952380Y-27740714D02*
X189952380Y-28550238D01*
X189904761Y-28645476D01*
X189857142Y-28693095D01*
X189761904Y-28740714D01*
X189619047Y-28740714D01*
X189523809Y-28693095D01*
X189952380Y-28359761D02*
X189857142Y-28407380D01*
X189666666Y-28407380D01*
X189571428Y-28359761D01*
X189523809Y-28312142D01*
X189476190Y-28216904D01*
X189476190Y-27931190D01*
X189523809Y-27835952D01*
X189571428Y-27788333D01*
X189666666Y-27740714D01*
X189857142Y-27740714D01*
X189952380Y-27788333D01*
X190428571Y-28407380D02*
X190428571Y-27407380D01*
X190428571Y-27883571D02*
X191000000Y-27883571D01*
X191000000Y-28407380D02*
X191000000Y-27407380D01*
X191619047Y-28407380D02*
X191523809Y-28359761D01*
X191476190Y-28312142D01*
X191428571Y-28216904D01*
X191428571Y-27931190D01*
X191476190Y-27835952D01*
X191523809Y-27788333D01*
X191619047Y-27740714D01*
X191761904Y-27740714D01*
X191857142Y-27788333D01*
X191904761Y-27835952D01*
X191952380Y-27931190D01*
X191952380Y-28216904D01*
X191904761Y-28312142D01*
X191857142Y-28359761D01*
X191761904Y-28407380D01*
X191619047Y-28407380D01*
X192523809Y-28407380D02*
X192428571Y-28359761D01*
X192380952Y-28264523D01*
X192380952Y-27407380D01*
X193285714Y-28359761D02*
X193190476Y-28407380D01*
X193000000Y-28407380D01*
X192904761Y-28359761D01*
X192857142Y-28264523D01*
X192857142Y-27883571D01*
X192904761Y-27788333D01*
X193000000Y-27740714D01*
X193190476Y-27740714D01*
X193285714Y-27788333D01*
X193333333Y-27883571D01*
X193333333Y-27978809D01*
X192857142Y-28074047D01*
X187561904Y-25057380D02*
X187561904Y-24057380D01*
X187561904Y-24533571D02*
X188133333Y-24533571D01*
X188133333Y-25057380D02*
X188133333Y-24057380D01*
X189133333Y-25057380D02*
X188561904Y-25057380D01*
X188847619Y-25057380D02*
X188847619Y-24057380D01*
X188752380Y-24200238D01*
X188657142Y-24295476D01*
X188561904Y-24343095D01*
X189466666Y-24057380D02*
X190133333Y-24057380D01*
X189704761Y-25057380D01*
X163394285Y-150907380D02*
X163394285Y-149907380D01*
X163727619Y-150621666D01*
X164060952Y-149907380D01*
X164060952Y-150907380D01*
X164680000Y-150907380D02*
X164584761Y-150859761D01*
X164537142Y-150812142D01*
X164489523Y-150716904D01*
X164489523Y-150431190D01*
X164537142Y-150335952D01*
X164584761Y-150288333D01*
X164680000Y-150240714D01*
X164822857Y-150240714D01*
X164918095Y-150288333D01*
X164965714Y-150335952D01*
X165013333Y-150431190D01*
X165013333Y-150716904D01*
X164965714Y-150812142D01*
X164918095Y-150859761D01*
X164822857Y-150907380D01*
X164680000Y-150907380D01*
X165870476Y-150240714D02*
X165870476Y-150907380D01*
X165441904Y-150240714D02*
X165441904Y-150764523D01*
X165489523Y-150859761D01*
X165584761Y-150907380D01*
X165727619Y-150907380D01*
X165822857Y-150859761D01*
X165870476Y-150812142D01*
X166346666Y-150240714D02*
X166346666Y-150907380D01*
X166346666Y-150335952D02*
X166394285Y-150288333D01*
X166489523Y-150240714D01*
X166632380Y-150240714D01*
X166727619Y-150288333D01*
X166775238Y-150383571D01*
X166775238Y-150907380D01*
X167108571Y-150240714D02*
X167489523Y-150240714D01*
X167251428Y-149907380D02*
X167251428Y-150764523D01*
X167299047Y-150859761D01*
X167394285Y-150907380D01*
X167489523Y-150907380D01*
X167822857Y-150907380D02*
X167822857Y-150240714D01*
X167822857Y-149907380D02*
X167775238Y-149955000D01*
X167822857Y-150002619D01*
X167870476Y-149955000D01*
X167822857Y-149907380D01*
X167822857Y-150002619D01*
X168299047Y-150240714D02*
X168299047Y-150907380D01*
X168299047Y-150335952D02*
X168346666Y-150288333D01*
X168441904Y-150240714D01*
X168584761Y-150240714D01*
X168680000Y-150288333D01*
X168727619Y-150383571D01*
X168727619Y-150907380D01*
X169632380Y-150240714D02*
X169632380Y-151050238D01*
X169584761Y-151145476D01*
X169537142Y-151193095D01*
X169441904Y-151240714D01*
X169299047Y-151240714D01*
X169203809Y-151193095D01*
X169632380Y-150859761D02*
X169537142Y-150907380D01*
X169346666Y-150907380D01*
X169251428Y-150859761D01*
X169203809Y-150812142D01*
X169156190Y-150716904D01*
X169156190Y-150431190D01*
X169203809Y-150335952D01*
X169251428Y-150288333D01*
X169346666Y-150240714D01*
X169537142Y-150240714D01*
X169632380Y-150288333D01*
X170108571Y-150907380D02*
X170108571Y-149907380D01*
X170108571Y-150383571D02*
X170680000Y-150383571D01*
X170680000Y-150907380D02*
X170680000Y-149907380D01*
X171299047Y-150907380D02*
X171203809Y-150859761D01*
X171156190Y-150812142D01*
X171108571Y-150716904D01*
X171108571Y-150431190D01*
X171156190Y-150335952D01*
X171203809Y-150288333D01*
X171299047Y-150240714D01*
X171441904Y-150240714D01*
X171537142Y-150288333D01*
X171584761Y-150335952D01*
X171632380Y-150431190D01*
X171632380Y-150716904D01*
X171584761Y-150812142D01*
X171537142Y-150859761D01*
X171441904Y-150907380D01*
X171299047Y-150907380D01*
X172203809Y-150907380D02*
X172108571Y-150859761D01*
X172060952Y-150764523D01*
X172060952Y-149907380D01*
X172965714Y-150859761D02*
X172870476Y-150907380D01*
X172680000Y-150907380D01*
X172584761Y-150859761D01*
X172537142Y-150764523D01*
X172537142Y-150383571D01*
X172584761Y-150288333D01*
X172680000Y-150240714D01*
X172870476Y-150240714D01*
X172965714Y-150288333D01*
X173013333Y-150383571D01*
X173013333Y-150478809D01*
X172537142Y-150574047D01*
X167241904Y-147557380D02*
X167241904Y-146557380D01*
X167241904Y-147033571D02*
X167813333Y-147033571D01*
X167813333Y-147557380D02*
X167813333Y-146557380D01*
X168813333Y-147557380D02*
X168241904Y-147557380D01*
X168527619Y-147557380D02*
X168527619Y-146557380D01*
X168432380Y-146700238D01*
X168337142Y-146795476D01*
X168241904Y-146843095D01*
X169670476Y-146557380D02*
X169480000Y-146557380D01*
X169384761Y-146605000D01*
X169337142Y-146652619D01*
X169241904Y-146795476D01*
X169194285Y-146985952D01*
X169194285Y-147366904D01*
X169241904Y-147462142D01*
X169289523Y-147509761D01*
X169384761Y-147557380D01*
X169575238Y-147557380D01*
X169670476Y-147509761D01*
X169718095Y-147462142D01*
X169765714Y-147366904D01*
X169765714Y-147128809D01*
X169718095Y-147033571D01*
X169670476Y-146985952D01*
X169575238Y-146938333D01*
X169384761Y-146938333D01*
X169289523Y-146985952D01*
X169241904Y-147033571D01*
X169194285Y-147128809D01*
X163394285Y-28407380D02*
X163394285Y-27407380D01*
X163727619Y-28121666D01*
X164060952Y-27407380D01*
X164060952Y-28407380D01*
X164680000Y-28407380D02*
X164584761Y-28359761D01*
X164537142Y-28312142D01*
X164489523Y-28216904D01*
X164489523Y-27931190D01*
X164537142Y-27835952D01*
X164584761Y-27788333D01*
X164680000Y-27740714D01*
X164822857Y-27740714D01*
X164918095Y-27788333D01*
X164965714Y-27835952D01*
X165013333Y-27931190D01*
X165013333Y-28216904D01*
X164965714Y-28312142D01*
X164918095Y-28359761D01*
X164822857Y-28407380D01*
X164680000Y-28407380D01*
X165870476Y-27740714D02*
X165870476Y-28407380D01*
X165441904Y-27740714D02*
X165441904Y-28264523D01*
X165489523Y-28359761D01*
X165584761Y-28407380D01*
X165727619Y-28407380D01*
X165822857Y-28359761D01*
X165870476Y-28312142D01*
X166346666Y-27740714D02*
X166346666Y-28407380D01*
X166346666Y-27835952D02*
X166394285Y-27788333D01*
X166489523Y-27740714D01*
X166632380Y-27740714D01*
X166727619Y-27788333D01*
X166775238Y-27883571D01*
X166775238Y-28407380D01*
X167108571Y-27740714D02*
X167489523Y-27740714D01*
X167251428Y-27407380D02*
X167251428Y-28264523D01*
X167299047Y-28359761D01*
X167394285Y-28407380D01*
X167489523Y-28407380D01*
X167822857Y-28407380D02*
X167822857Y-27740714D01*
X167822857Y-27407380D02*
X167775238Y-27455000D01*
X167822857Y-27502619D01*
X167870476Y-27455000D01*
X167822857Y-27407380D01*
X167822857Y-27502619D01*
X168299047Y-27740714D02*
X168299047Y-28407380D01*
X168299047Y-27835952D02*
X168346666Y-27788333D01*
X168441904Y-27740714D01*
X168584761Y-27740714D01*
X168680000Y-27788333D01*
X168727619Y-27883571D01*
X168727619Y-28407380D01*
X169632380Y-27740714D02*
X169632380Y-28550238D01*
X169584761Y-28645476D01*
X169537142Y-28693095D01*
X169441904Y-28740714D01*
X169299047Y-28740714D01*
X169203809Y-28693095D01*
X169632380Y-28359761D02*
X169537142Y-28407380D01*
X169346666Y-28407380D01*
X169251428Y-28359761D01*
X169203809Y-28312142D01*
X169156190Y-28216904D01*
X169156190Y-27931190D01*
X169203809Y-27835952D01*
X169251428Y-27788333D01*
X169346666Y-27740714D01*
X169537142Y-27740714D01*
X169632380Y-27788333D01*
X170108571Y-28407380D02*
X170108571Y-27407380D01*
X170108571Y-27883571D02*
X170680000Y-27883571D01*
X170680000Y-28407380D02*
X170680000Y-27407380D01*
X171299047Y-28407380D02*
X171203809Y-28359761D01*
X171156190Y-28312142D01*
X171108571Y-28216904D01*
X171108571Y-27931190D01*
X171156190Y-27835952D01*
X171203809Y-27788333D01*
X171299047Y-27740714D01*
X171441904Y-27740714D01*
X171537142Y-27788333D01*
X171584761Y-27835952D01*
X171632380Y-27931190D01*
X171632380Y-28216904D01*
X171584761Y-28312142D01*
X171537142Y-28359761D01*
X171441904Y-28407380D01*
X171299047Y-28407380D01*
X172203809Y-28407380D02*
X172108571Y-28359761D01*
X172060952Y-28264523D01*
X172060952Y-27407380D01*
X172965714Y-28359761D02*
X172870476Y-28407380D01*
X172680000Y-28407380D01*
X172584761Y-28359761D01*
X172537142Y-28264523D01*
X172537142Y-27883571D01*
X172584761Y-27788333D01*
X172680000Y-27740714D01*
X172870476Y-27740714D01*
X172965714Y-27788333D01*
X173013333Y-27883571D01*
X173013333Y-27978809D01*
X172537142Y-28074047D01*
X167241904Y-25057380D02*
X167241904Y-24057380D01*
X167241904Y-24533571D02*
X167813333Y-24533571D01*
X167813333Y-25057380D02*
X167813333Y-24057380D01*
X168813333Y-25057380D02*
X168241904Y-25057380D01*
X168527619Y-25057380D02*
X168527619Y-24057380D01*
X168432380Y-24200238D01*
X168337142Y-24295476D01*
X168241904Y-24343095D01*
X169718095Y-24057380D02*
X169241904Y-24057380D01*
X169194285Y-24533571D01*
X169241904Y-24485952D01*
X169337142Y-24438333D01*
X169575238Y-24438333D01*
X169670476Y-24485952D01*
X169718095Y-24533571D01*
X169765714Y-24628809D01*
X169765714Y-24866904D01*
X169718095Y-24962142D01*
X169670476Y-25009761D01*
X169575238Y-25057380D01*
X169337142Y-25057380D01*
X169241904Y-25009761D01*
X169194285Y-24962142D01*
X143074285Y-150907380D02*
X143074285Y-149907380D01*
X143407619Y-150621666D01*
X143740952Y-149907380D01*
X143740952Y-150907380D01*
X144360000Y-150907380D02*
X144264761Y-150859761D01*
X144217142Y-150812142D01*
X144169523Y-150716904D01*
X144169523Y-150431190D01*
X144217142Y-150335952D01*
X144264761Y-150288333D01*
X144360000Y-150240714D01*
X144502857Y-150240714D01*
X144598095Y-150288333D01*
X144645714Y-150335952D01*
X144693333Y-150431190D01*
X144693333Y-150716904D01*
X144645714Y-150812142D01*
X144598095Y-150859761D01*
X144502857Y-150907380D01*
X144360000Y-150907380D01*
X145550476Y-150240714D02*
X145550476Y-150907380D01*
X145121904Y-150240714D02*
X145121904Y-150764523D01*
X145169523Y-150859761D01*
X145264761Y-150907380D01*
X145407619Y-150907380D01*
X145502857Y-150859761D01*
X145550476Y-150812142D01*
X146026666Y-150240714D02*
X146026666Y-150907380D01*
X146026666Y-150335952D02*
X146074285Y-150288333D01*
X146169523Y-150240714D01*
X146312380Y-150240714D01*
X146407619Y-150288333D01*
X146455238Y-150383571D01*
X146455238Y-150907380D01*
X146788571Y-150240714D02*
X147169523Y-150240714D01*
X146931428Y-149907380D02*
X146931428Y-150764523D01*
X146979047Y-150859761D01*
X147074285Y-150907380D01*
X147169523Y-150907380D01*
X147502857Y-150907380D02*
X147502857Y-150240714D01*
X147502857Y-149907380D02*
X147455238Y-149955000D01*
X147502857Y-150002619D01*
X147550476Y-149955000D01*
X147502857Y-149907380D01*
X147502857Y-150002619D01*
X147979047Y-150240714D02*
X147979047Y-150907380D01*
X147979047Y-150335952D02*
X148026666Y-150288333D01*
X148121904Y-150240714D01*
X148264761Y-150240714D01*
X148360000Y-150288333D01*
X148407619Y-150383571D01*
X148407619Y-150907380D01*
X149312380Y-150240714D02*
X149312380Y-151050238D01*
X149264761Y-151145476D01*
X149217142Y-151193095D01*
X149121904Y-151240714D01*
X148979047Y-151240714D01*
X148883809Y-151193095D01*
X149312380Y-150859761D02*
X149217142Y-150907380D01*
X149026666Y-150907380D01*
X148931428Y-150859761D01*
X148883809Y-150812142D01*
X148836190Y-150716904D01*
X148836190Y-150431190D01*
X148883809Y-150335952D01*
X148931428Y-150288333D01*
X149026666Y-150240714D01*
X149217142Y-150240714D01*
X149312380Y-150288333D01*
X149788571Y-150907380D02*
X149788571Y-149907380D01*
X149788571Y-150383571D02*
X150360000Y-150383571D01*
X150360000Y-150907380D02*
X150360000Y-149907380D01*
X150979047Y-150907380D02*
X150883809Y-150859761D01*
X150836190Y-150812142D01*
X150788571Y-150716904D01*
X150788571Y-150431190D01*
X150836190Y-150335952D01*
X150883809Y-150288333D01*
X150979047Y-150240714D01*
X151121904Y-150240714D01*
X151217142Y-150288333D01*
X151264761Y-150335952D01*
X151312380Y-150431190D01*
X151312380Y-150716904D01*
X151264761Y-150812142D01*
X151217142Y-150859761D01*
X151121904Y-150907380D01*
X150979047Y-150907380D01*
X151883809Y-150907380D02*
X151788571Y-150859761D01*
X151740952Y-150764523D01*
X151740952Y-149907380D01*
X152645714Y-150859761D02*
X152550476Y-150907380D01*
X152360000Y-150907380D01*
X152264761Y-150859761D01*
X152217142Y-150764523D01*
X152217142Y-150383571D01*
X152264761Y-150288333D01*
X152360000Y-150240714D01*
X152550476Y-150240714D01*
X152645714Y-150288333D01*
X152693333Y-150383571D01*
X152693333Y-150478809D01*
X152217142Y-150574047D01*
X146921904Y-147557380D02*
X146921904Y-146557380D01*
X146921904Y-147033571D02*
X147493333Y-147033571D01*
X147493333Y-147557380D02*
X147493333Y-146557380D01*
X148493333Y-147557380D02*
X147921904Y-147557380D01*
X148207619Y-147557380D02*
X148207619Y-146557380D01*
X148112380Y-146700238D01*
X148017142Y-146795476D01*
X147921904Y-146843095D01*
X149350476Y-146890714D02*
X149350476Y-147557380D01*
X149112380Y-146509761D02*
X148874285Y-147224047D01*
X149493333Y-147224047D01*
X143074285Y-28407380D02*
X143074285Y-27407380D01*
X143407619Y-28121666D01*
X143740952Y-27407380D01*
X143740952Y-28407380D01*
X144360000Y-28407380D02*
X144264761Y-28359761D01*
X144217142Y-28312142D01*
X144169523Y-28216904D01*
X144169523Y-27931190D01*
X144217142Y-27835952D01*
X144264761Y-27788333D01*
X144360000Y-27740714D01*
X144502857Y-27740714D01*
X144598095Y-27788333D01*
X144645714Y-27835952D01*
X144693333Y-27931190D01*
X144693333Y-28216904D01*
X144645714Y-28312142D01*
X144598095Y-28359761D01*
X144502857Y-28407380D01*
X144360000Y-28407380D01*
X145550476Y-27740714D02*
X145550476Y-28407380D01*
X145121904Y-27740714D02*
X145121904Y-28264523D01*
X145169523Y-28359761D01*
X145264761Y-28407380D01*
X145407619Y-28407380D01*
X145502857Y-28359761D01*
X145550476Y-28312142D01*
X146026666Y-27740714D02*
X146026666Y-28407380D01*
X146026666Y-27835952D02*
X146074285Y-27788333D01*
X146169523Y-27740714D01*
X146312380Y-27740714D01*
X146407619Y-27788333D01*
X146455238Y-27883571D01*
X146455238Y-28407380D01*
X146788571Y-27740714D02*
X147169523Y-27740714D01*
X146931428Y-27407380D02*
X146931428Y-28264523D01*
X146979047Y-28359761D01*
X147074285Y-28407380D01*
X147169523Y-28407380D01*
X147502857Y-28407380D02*
X147502857Y-27740714D01*
X147502857Y-27407380D02*
X147455238Y-27455000D01*
X147502857Y-27502619D01*
X147550476Y-27455000D01*
X147502857Y-27407380D01*
X147502857Y-27502619D01*
X147979047Y-27740714D02*
X147979047Y-28407380D01*
X147979047Y-27835952D02*
X148026666Y-27788333D01*
X148121904Y-27740714D01*
X148264761Y-27740714D01*
X148360000Y-27788333D01*
X148407619Y-27883571D01*
X148407619Y-28407380D01*
X149312380Y-27740714D02*
X149312380Y-28550238D01*
X149264761Y-28645476D01*
X149217142Y-28693095D01*
X149121904Y-28740714D01*
X148979047Y-28740714D01*
X148883809Y-28693095D01*
X149312380Y-28359761D02*
X149217142Y-28407380D01*
X149026666Y-28407380D01*
X148931428Y-28359761D01*
X148883809Y-28312142D01*
X148836190Y-28216904D01*
X148836190Y-27931190D01*
X148883809Y-27835952D01*
X148931428Y-27788333D01*
X149026666Y-27740714D01*
X149217142Y-27740714D01*
X149312380Y-27788333D01*
X149788571Y-28407380D02*
X149788571Y-27407380D01*
X149788571Y-27883571D02*
X150360000Y-27883571D01*
X150360000Y-28407380D02*
X150360000Y-27407380D01*
X150979047Y-28407380D02*
X150883809Y-28359761D01*
X150836190Y-28312142D01*
X150788571Y-28216904D01*
X150788571Y-27931190D01*
X150836190Y-27835952D01*
X150883809Y-27788333D01*
X150979047Y-27740714D01*
X151121904Y-27740714D01*
X151217142Y-27788333D01*
X151264761Y-27835952D01*
X151312380Y-27931190D01*
X151312380Y-28216904D01*
X151264761Y-28312142D01*
X151217142Y-28359761D01*
X151121904Y-28407380D01*
X150979047Y-28407380D01*
X151883809Y-28407380D02*
X151788571Y-28359761D01*
X151740952Y-28264523D01*
X151740952Y-27407380D01*
X152645714Y-28359761D02*
X152550476Y-28407380D01*
X152360000Y-28407380D01*
X152264761Y-28359761D01*
X152217142Y-28264523D01*
X152217142Y-27883571D01*
X152264761Y-27788333D01*
X152360000Y-27740714D01*
X152550476Y-27740714D01*
X152645714Y-27788333D01*
X152693333Y-27883571D01*
X152693333Y-27978809D01*
X152217142Y-28074047D01*
X146921904Y-25057380D02*
X146921904Y-24057380D01*
X146921904Y-24533571D02*
X147493333Y-24533571D01*
X147493333Y-25057380D02*
X147493333Y-24057380D01*
X148493333Y-25057380D02*
X147921904Y-25057380D01*
X148207619Y-25057380D02*
X148207619Y-24057380D01*
X148112380Y-24200238D01*
X148017142Y-24295476D01*
X147921904Y-24343095D01*
X148826666Y-24057380D02*
X149445714Y-24057380D01*
X149112380Y-24438333D01*
X149255238Y-24438333D01*
X149350476Y-24485952D01*
X149398095Y-24533571D01*
X149445714Y-24628809D01*
X149445714Y-24866904D01*
X149398095Y-24962142D01*
X149350476Y-25009761D01*
X149255238Y-25057380D01*
X148969523Y-25057380D01*
X148874285Y-25009761D01*
X148826666Y-24962142D01*
X122754285Y-150907380D02*
X122754285Y-149907380D01*
X123087619Y-150621666D01*
X123420952Y-149907380D01*
X123420952Y-150907380D01*
X124040000Y-150907380D02*
X123944761Y-150859761D01*
X123897142Y-150812142D01*
X123849523Y-150716904D01*
X123849523Y-150431190D01*
X123897142Y-150335952D01*
X123944761Y-150288333D01*
X124040000Y-150240714D01*
X124182857Y-150240714D01*
X124278095Y-150288333D01*
X124325714Y-150335952D01*
X124373333Y-150431190D01*
X124373333Y-150716904D01*
X124325714Y-150812142D01*
X124278095Y-150859761D01*
X124182857Y-150907380D01*
X124040000Y-150907380D01*
X125230476Y-150240714D02*
X125230476Y-150907380D01*
X124801904Y-150240714D02*
X124801904Y-150764523D01*
X124849523Y-150859761D01*
X124944761Y-150907380D01*
X125087619Y-150907380D01*
X125182857Y-150859761D01*
X125230476Y-150812142D01*
X125706666Y-150240714D02*
X125706666Y-150907380D01*
X125706666Y-150335952D02*
X125754285Y-150288333D01*
X125849523Y-150240714D01*
X125992380Y-150240714D01*
X126087619Y-150288333D01*
X126135238Y-150383571D01*
X126135238Y-150907380D01*
X126468571Y-150240714D02*
X126849523Y-150240714D01*
X126611428Y-149907380D02*
X126611428Y-150764523D01*
X126659047Y-150859761D01*
X126754285Y-150907380D01*
X126849523Y-150907380D01*
X127182857Y-150907380D02*
X127182857Y-150240714D01*
X127182857Y-149907380D02*
X127135238Y-149955000D01*
X127182857Y-150002619D01*
X127230476Y-149955000D01*
X127182857Y-149907380D01*
X127182857Y-150002619D01*
X127659047Y-150240714D02*
X127659047Y-150907380D01*
X127659047Y-150335952D02*
X127706666Y-150288333D01*
X127801904Y-150240714D01*
X127944761Y-150240714D01*
X128040000Y-150288333D01*
X128087619Y-150383571D01*
X128087619Y-150907380D01*
X128992380Y-150240714D02*
X128992380Y-151050238D01*
X128944761Y-151145476D01*
X128897142Y-151193095D01*
X128801904Y-151240714D01*
X128659047Y-151240714D01*
X128563809Y-151193095D01*
X128992380Y-150859761D02*
X128897142Y-150907380D01*
X128706666Y-150907380D01*
X128611428Y-150859761D01*
X128563809Y-150812142D01*
X128516190Y-150716904D01*
X128516190Y-150431190D01*
X128563809Y-150335952D01*
X128611428Y-150288333D01*
X128706666Y-150240714D01*
X128897142Y-150240714D01*
X128992380Y-150288333D01*
X129468571Y-150907380D02*
X129468571Y-149907380D01*
X129468571Y-150383571D02*
X130040000Y-150383571D01*
X130040000Y-150907380D02*
X130040000Y-149907380D01*
X130659047Y-150907380D02*
X130563809Y-150859761D01*
X130516190Y-150812142D01*
X130468571Y-150716904D01*
X130468571Y-150431190D01*
X130516190Y-150335952D01*
X130563809Y-150288333D01*
X130659047Y-150240714D01*
X130801904Y-150240714D01*
X130897142Y-150288333D01*
X130944761Y-150335952D01*
X130992380Y-150431190D01*
X130992380Y-150716904D01*
X130944761Y-150812142D01*
X130897142Y-150859761D01*
X130801904Y-150907380D01*
X130659047Y-150907380D01*
X131563809Y-150907380D02*
X131468571Y-150859761D01*
X131420952Y-150764523D01*
X131420952Y-149907380D01*
X132325714Y-150859761D02*
X132230476Y-150907380D01*
X132040000Y-150907380D01*
X131944761Y-150859761D01*
X131897142Y-150764523D01*
X131897142Y-150383571D01*
X131944761Y-150288333D01*
X132040000Y-150240714D01*
X132230476Y-150240714D01*
X132325714Y-150288333D01*
X132373333Y-150383571D01*
X132373333Y-150478809D01*
X131897142Y-150574047D01*
X126601904Y-147557380D02*
X126601904Y-146557380D01*
X126601904Y-147033571D02*
X127173333Y-147033571D01*
X127173333Y-147557380D02*
X127173333Y-146557380D01*
X128173333Y-147557380D02*
X127601904Y-147557380D01*
X127887619Y-147557380D02*
X127887619Y-146557380D01*
X127792380Y-146700238D01*
X127697142Y-146795476D01*
X127601904Y-146843095D01*
X128554285Y-146652619D02*
X128601904Y-146605000D01*
X128697142Y-146557380D01*
X128935238Y-146557380D01*
X129030476Y-146605000D01*
X129078095Y-146652619D01*
X129125714Y-146747857D01*
X129125714Y-146843095D01*
X129078095Y-146985952D01*
X128506666Y-147557380D01*
X129125714Y-147557380D01*
X122754285Y-28407380D02*
X122754285Y-27407380D01*
X123087619Y-28121666D01*
X123420952Y-27407380D01*
X123420952Y-28407380D01*
X124040000Y-28407380D02*
X123944761Y-28359761D01*
X123897142Y-28312142D01*
X123849523Y-28216904D01*
X123849523Y-27931190D01*
X123897142Y-27835952D01*
X123944761Y-27788333D01*
X124040000Y-27740714D01*
X124182857Y-27740714D01*
X124278095Y-27788333D01*
X124325714Y-27835952D01*
X124373333Y-27931190D01*
X124373333Y-28216904D01*
X124325714Y-28312142D01*
X124278095Y-28359761D01*
X124182857Y-28407380D01*
X124040000Y-28407380D01*
X125230476Y-27740714D02*
X125230476Y-28407380D01*
X124801904Y-27740714D02*
X124801904Y-28264523D01*
X124849523Y-28359761D01*
X124944761Y-28407380D01*
X125087619Y-28407380D01*
X125182857Y-28359761D01*
X125230476Y-28312142D01*
X125706666Y-27740714D02*
X125706666Y-28407380D01*
X125706666Y-27835952D02*
X125754285Y-27788333D01*
X125849523Y-27740714D01*
X125992380Y-27740714D01*
X126087619Y-27788333D01*
X126135238Y-27883571D01*
X126135238Y-28407380D01*
X126468571Y-27740714D02*
X126849523Y-27740714D01*
X126611428Y-27407380D02*
X126611428Y-28264523D01*
X126659047Y-28359761D01*
X126754285Y-28407380D01*
X126849523Y-28407380D01*
X127182857Y-28407380D02*
X127182857Y-27740714D01*
X127182857Y-27407380D02*
X127135238Y-27455000D01*
X127182857Y-27502619D01*
X127230476Y-27455000D01*
X127182857Y-27407380D01*
X127182857Y-27502619D01*
X127659047Y-27740714D02*
X127659047Y-28407380D01*
X127659047Y-27835952D02*
X127706666Y-27788333D01*
X127801904Y-27740714D01*
X127944761Y-27740714D01*
X128040000Y-27788333D01*
X128087619Y-27883571D01*
X128087619Y-28407380D01*
X128992380Y-27740714D02*
X128992380Y-28550238D01*
X128944761Y-28645476D01*
X128897142Y-28693095D01*
X128801904Y-28740714D01*
X128659047Y-28740714D01*
X128563809Y-28693095D01*
X128992380Y-28359761D02*
X128897142Y-28407380D01*
X128706666Y-28407380D01*
X128611428Y-28359761D01*
X128563809Y-28312142D01*
X128516190Y-28216904D01*
X128516190Y-27931190D01*
X128563809Y-27835952D01*
X128611428Y-27788333D01*
X128706666Y-27740714D01*
X128897142Y-27740714D01*
X128992380Y-27788333D01*
X129468571Y-28407380D02*
X129468571Y-27407380D01*
X129468571Y-27883571D02*
X130040000Y-27883571D01*
X130040000Y-28407380D02*
X130040000Y-27407380D01*
X130659047Y-28407380D02*
X130563809Y-28359761D01*
X130516190Y-28312142D01*
X130468571Y-28216904D01*
X130468571Y-27931190D01*
X130516190Y-27835952D01*
X130563809Y-27788333D01*
X130659047Y-27740714D01*
X130801904Y-27740714D01*
X130897142Y-27788333D01*
X130944761Y-27835952D01*
X130992380Y-27931190D01*
X130992380Y-28216904D01*
X130944761Y-28312142D01*
X130897142Y-28359761D01*
X130801904Y-28407380D01*
X130659047Y-28407380D01*
X131563809Y-28407380D02*
X131468571Y-28359761D01*
X131420952Y-28264523D01*
X131420952Y-27407380D01*
X132325714Y-28359761D02*
X132230476Y-28407380D01*
X132040000Y-28407380D01*
X131944761Y-28359761D01*
X131897142Y-28264523D01*
X131897142Y-27883571D01*
X131944761Y-27788333D01*
X132040000Y-27740714D01*
X132230476Y-27740714D01*
X132325714Y-27788333D01*
X132373333Y-27883571D01*
X132373333Y-27978809D01*
X131897142Y-28074047D01*
X126601904Y-25057380D02*
X126601904Y-24057380D01*
X126601904Y-24533571D02*
X127173333Y-24533571D01*
X127173333Y-25057380D02*
X127173333Y-24057380D01*
X128173333Y-25057380D02*
X127601904Y-25057380D01*
X127887619Y-25057380D02*
X127887619Y-24057380D01*
X127792380Y-24200238D01*
X127697142Y-24295476D01*
X127601904Y-24343095D01*
X129125714Y-25057380D02*
X128554285Y-25057380D01*
X128840000Y-25057380D02*
X128840000Y-24057380D01*
X128744761Y-24200238D01*
X128649523Y-24295476D01*
X128554285Y-24343095D01*
X102434285Y-150907380D02*
X102434285Y-149907380D01*
X102767619Y-150621666D01*
X103100952Y-149907380D01*
X103100952Y-150907380D01*
X103720000Y-150907380D02*
X103624761Y-150859761D01*
X103577142Y-150812142D01*
X103529523Y-150716904D01*
X103529523Y-150431190D01*
X103577142Y-150335952D01*
X103624761Y-150288333D01*
X103720000Y-150240714D01*
X103862857Y-150240714D01*
X103958095Y-150288333D01*
X104005714Y-150335952D01*
X104053333Y-150431190D01*
X104053333Y-150716904D01*
X104005714Y-150812142D01*
X103958095Y-150859761D01*
X103862857Y-150907380D01*
X103720000Y-150907380D01*
X104910476Y-150240714D02*
X104910476Y-150907380D01*
X104481904Y-150240714D02*
X104481904Y-150764523D01*
X104529523Y-150859761D01*
X104624761Y-150907380D01*
X104767619Y-150907380D01*
X104862857Y-150859761D01*
X104910476Y-150812142D01*
X105386666Y-150240714D02*
X105386666Y-150907380D01*
X105386666Y-150335952D02*
X105434285Y-150288333D01*
X105529523Y-150240714D01*
X105672380Y-150240714D01*
X105767619Y-150288333D01*
X105815238Y-150383571D01*
X105815238Y-150907380D01*
X106148571Y-150240714D02*
X106529523Y-150240714D01*
X106291428Y-149907380D02*
X106291428Y-150764523D01*
X106339047Y-150859761D01*
X106434285Y-150907380D01*
X106529523Y-150907380D01*
X106862857Y-150907380D02*
X106862857Y-150240714D01*
X106862857Y-149907380D02*
X106815238Y-149955000D01*
X106862857Y-150002619D01*
X106910476Y-149955000D01*
X106862857Y-149907380D01*
X106862857Y-150002619D01*
X107339047Y-150240714D02*
X107339047Y-150907380D01*
X107339047Y-150335952D02*
X107386666Y-150288333D01*
X107481904Y-150240714D01*
X107624761Y-150240714D01*
X107720000Y-150288333D01*
X107767619Y-150383571D01*
X107767619Y-150907380D01*
X108672380Y-150240714D02*
X108672380Y-151050238D01*
X108624761Y-151145476D01*
X108577142Y-151193095D01*
X108481904Y-151240714D01*
X108339047Y-151240714D01*
X108243809Y-151193095D01*
X108672380Y-150859761D02*
X108577142Y-150907380D01*
X108386666Y-150907380D01*
X108291428Y-150859761D01*
X108243809Y-150812142D01*
X108196190Y-150716904D01*
X108196190Y-150431190D01*
X108243809Y-150335952D01*
X108291428Y-150288333D01*
X108386666Y-150240714D01*
X108577142Y-150240714D01*
X108672380Y-150288333D01*
X109148571Y-150907380D02*
X109148571Y-149907380D01*
X109148571Y-150383571D02*
X109720000Y-150383571D01*
X109720000Y-150907380D02*
X109720000Y-149907380D01*
X110339047Y-150907380D02*
X110243809Y-150859761D01*
X110196190Y-150812142D01*
X110148571Y-150716904D01*
X110148571Y-150431190D01*
X110196190Y-150335952D01*
X110243809Y-150288333D01*
X110339047Y-150240714D01*
X110481904Y-150240714D01*
X110577142Y-150288333D01*
X110624761Y-150335952D01*
X110672380Y-150431190D01*
X110672380Y-150716904D01*
X110624761Y-150812142D01*
X110577142Y-150859761D01*
X110481904Y-150907380D01*
X110339047Y-150907380D01*
X111243809Y-150907380D02*
X111148571Y-150859761D01*
X111100952Y-150764523D01*
X111100952Y-149907380D01*
X112005714Y-150859761D02*
X111910476Y-150907380D01*
X111720000Y-150907380D01*
X111624761Y-150859761D01*
X111577142Y-150764523D01*
X111577142Y-150383571D01*
X111624761Y-150288333D01*
X111720000Y-150240714D01*
X111910476Y-150240714D01*
X112005714Y-150288333D01*
X112053333Y-150383571D01*
X112053333Y-150478809D01*
X111577142Y-150574047D01*
X106281904Y-147557380D02*
X106281904Y-146557380D01*
X106281904Y-147033571D02*
X106853333Y-147033571D01*
X106853333Y-147557380D02*
X106853333Y-146557380D01*
X107853333Y-147557380D02*
X107281904Y-147557380D01*
X107567619Y-147557380D02*
X107567619Y-146557380D01*
X107472380Y-146700238D01*
X107377142Y-146795476D01*
X107281904Y-146843095D01*
X108472380Y-146557380D02*
X108567619Y-146557380D01*
X108662857Y-146605000D01*
X108710476Y-146652619D01*
X108758095Y-146747857D01*
X108805714Y-146938333D01*
X108805714Y-147176428D01*
X108758095Y-147366904D01*
X108710476Y-147462142D01*
X108662857Y-147509761D01*
X108567619Y-147557380D01*
X108472380Y-147557380D01*
X108377142Y-147509761D01*
X108329523Y-147462142D01*
X108281904Y-147366904D01*
X108234285Y-147176428D01*
X108234285Y-146938333D01*
X108281904Y-146747857D01*
X108329523Y-146652619D01*
X108377142Y-146605000D01*
X108472380Y-146557380D01*
X102434285Y-28407380D02*
X102434285Y-27407380D01*
X102767619Y-28121666D01*
X103100952Y-27407380D01*
X103100952Y-28407380D01*
X103720000Y-28407380D02*
X103624761Y-28359761D01*
X103577142Y-28312142D01*
X103529523Y-28216904D01*
X103529523Y-27931190D01*
X103577142Y-27835952D01*
X103624761Y-27788333D01*
X103720000Y-27740714D01*
X103862857Y-27740714D01*
X103958095Y-27788333D01*
X104005714Y-27835952D01*
X104053333Y-27931190D01*
X104053333Y-28216904D01*
X104005714Y-28312142D01*
X103958095Y-28359761D01*
X103862857Y-28407380D01*
X103720000Y-28407380D01*
X104910476Y-27740714D02*
X104910476Y-28407380D01*
X104481904Y-27740714D02*
X104481904Y-28264523D01*
X104529523Y-28359761D01*
X104624761Y-28407380D01*
X104767619Y-28407380D01*
X104862857Y-28359761D01*
X104910476Y-28312142D01*
X105386666Y-27740714D02*
X105386666Y-28407380D01*
X105386666Y-27835952D02*
X105434285Y-27788333D01*
X105529523Y-27740714D01*
X105672380Y-27740714D01*
X105767619Y-27788333D01*
X105815238Y-27883571D01*
X105815238Y-28407380D01*
X106148571Y-27740714D02*
X106529523Y-27740714D01*
X106291428Y-27407380D02*
X106291428Y-28264523D01*
X106339047Y-28359761D01*
X106434285Y-28407380D01*
X106529523Y-28407380D01*
X106862857Y-28407380D02*
X106862857Y-27740714D01*
X106862857Y-27407380D02*
X106815238Y-27455000D01*
X106862857Y-27502619D01*
X106910476Y-27455000D01*
X106862857Y-27407380D01*
X106862857Y-27502619D01*
X107339047Y-27740714D02*
X107339047Y-28407380D01*
X107339047Y-27835952D02*
X107386666Y-27788333D01*
X107481904Y-27740714D01*
X107624761Y-27740714D01*
X107720000Y-27788333D01*
X107767619Y-27883571D01*
X107767619Y-28407380D01*
X108672380Y-27740714D02*
X108672380Y-28550238D01*
X108624761Y-28645476D01*
X108577142Y-28693095D01*
X108481904Y-28740714D01*
X108339047Y-28740714D01*
X108243809Y-28693095D01*
X108672380Y-28359761D02*
X108577142Y-28407380D01*
X108386666Y-28407380D01*
X108291428Y-28359761D01*
X108243809Y-28312142D01*
X108196190Y-28216904D01*
X108196190Y-27931190D01*
X108243809Y-27835952D01*
X108291428Y-27788333D01*
X108386666Y-27740714D01*
X108577142Y-27740714D01*
X108672380Y-27788333D01*
X109148571Y-28407380D02*
X109148571Y-27407380D01*
X109148571Y-27883571D02*
X109720000Y-27883571D01*
X109720000Y-28407380D02*
X109720000Y-27407380D01*
X110339047Y-28407380D02*
X110243809Y-28359761D01*
X110196190Y-28312142D01*
X110148571Y-28216904D01*
X110148571Y-27931190D01*
X110196190Y-27835952D01*
X110243809Y-27788333D01*
X110339047Y-27740714D01*
X110481904Y-27740714D01*
X110577142Y-27788333D01*
X110624761Y-27835952D01*
X110672380Y-27931190D01*
X110672380Y-28216904D01*
X110624761Y-28312142D01*
X110577142Y-28359761D01*
X110481904Y-28407380D01*
X110339047Y-28407380D01*
X111243809Y-28407380D02*
X111148571Y-28359761D01*
X111100952Y-28264523D01*
X111100952Y-27407380D01*
X112005714Y-28359761D02*
X111910476Y-28407380D01*
X111720000Y-28407380D01*
X111624761Y-28359761D01*
X111577142Y-28264523D01*
X111577142Y-27883571D01*
X111624761Y-27788333D01*
X111720000Y-27740714D01*
X111910476Y-27740714D01*
X112005714Y-27788333D01*
X112053333Y-27883571D01*
X112053333Y-27978809D01*
X111577142Y-28074047D01*
X106758095Y-25057380D02*
X106758095Y-24057380D01*
X106758095Y-24533571D02*
X107329523Y-24533571D01*
X107329523Y-25057380D02*
X107329523Y-24057380D01*
X107853333Y-25057380D02*
X108043809Y-25057380D01*
X108139047Y-25009761D01*
X108186666Y-24962142D01*
X108281904Y-24819285D01*
X108329523Y-24628809D01*
X108329523Y-24247857D01*
X108281904Y-24152619D01*
X108234285Y-24105000D01*
X108139047Y-24057380D01*
X107948571Y-24057380D01*
X107853333Y-24105000D01*
X107805714Y-24152619D01*
X107758095Y-24247857D01*
X107758095Y-24485952D01*
X107805714Y-24581190D01*
X107853333Y-24628809D01*
X107948571Y-24676428D01*
X108139047Y-24676428D01*
X108234285Y-24628809D01*
X108281904Y-24581190D01*
X108329523Y-24485952D01*
X82114285Y-150907380D02*
X82114285Y-149907380D01*
X82447619Y-150621666D01*
X82780952Y-149907380D01*
X82780952Y-150907380D01*
X83400000Y-150907380D02*
X83304761Y-150859761D01*
X83257142Y-150812142D01*
X83209523Y-150716904D01*
X83209523Y-150431190D01*
X83257142Y-150335952D01*
X83304761Y-150288333D01*
X83400000Y-150240714D01*
X83542857Y-150240714D01*
X83638095Y-150288333D01*
X83685714Y-150335952D01*
X83733333Y-150431190D01*
X83733333Y-150716904D01*
X83685714Y-150812142D01*
X83638095Y-150859761D01*
X83542857Y-150907380D01*
X83400000Y-150907380D01*
X84590476Y-150240714D02*
X84590476Y-150907380D01*
X84161904Y-150240714D02*
X84161904Y-150764523D01*
X84209523Y-150859761D01*
X84304761Y-150907380D01*
X84447619Y-150907380D01*
X84542857Y-150859761D01*
X84590476Y-150812142D01*
X85066666Y-150240714D02*
X85066666Y-150907380D01*
X85066666Y-150335952D02*
X85114285Y-150288333D01*
X85209523Y-150240714D01*
X85352380Y-150240714D01*
X85447619Y-150288333D01*
X85495238Y-150383571D01*
X85495238Y-150907380D01*
X85828571Y-150240714D02*
X86209523Y-150240714D01*
X85971428Y-149907380D02*
X85971428Y-150764523D01*
X86019047Y-150859761D01*
X86114285Y-150907380D01*
X86209523Y-150907380D01*
X86542857Y-150907380D02*
X86542857Y-150240714D01*
X86542857Y-149907380D02*
X86495238Y-149955000D01*
X86542857Y-150002619D01*
X86590476Y-149955000D01*
X86542857Y-149907380D01*
X86542857Y-150002619D01*
X87019047Y-150240714D02*
X87019047Y-150907380D01*
X87019047Y-150335952D02*
X87066666Y-150288333D01*
X87161904Y-150240714D01*
X87304761Y-150240714D01*
X87400000Y-150288333D01*
X87447619Y-150383571D01*
X87447619Y-150907380D01*
X88352380Y-150240714D02*
X88352380Y-151050238D01*
X88304761Y-151145476D01*
X88257142Y-151193095D01*
X88161904Y-151240714D01*
X88019047Y-151240714D01*
X87923809Y-151193095D01*
X88352380Y-150859761D02*
X88257142Y-150907380D01*
X88066666Y-150907380D01*
X87971428Y-150859761D01*
X87923809Y-150812142D01*
X87876190Y-150716904D01*
X87876190Y-150431190D01*
X87923809Y-150335952D01*
X87971428Y-150288333D01*
X88066666Y-150240714D01*
X88257142Y-150240714D01*
X88352380Y-150288333D01*
X88828571Y-150907380D02*
X88828571Y-149907380D01*
X88828571Y-150383571D02*
X89400000Y-150383571D01*
X89400000Y-150907380D02*
X89400000Y-149907380D01*
X90019047Y-150907380D02*
X89923809Y-150859761D01*
X89876190Y-150812142D01*
X89828571Y-150716904D01*
X89828571Y-150431190D01*
X89876190Y-150335952D01*
X89923809Y-150288333D01*
X90019047Y-150240714D01*
X90161904Y-150240714D01*
X90257142Y-150288333D01*
X90304761Y-150335952D01*
X90352380Y-150431190D01*
X90352380Y-150716904D01*
X90304761Y-150812142D01*
X90257142Y-150859761D01*
X90161904Y-150907380D01*
X90019047Y-150907380D01*
X90923809Y-150907380D02*
X90828571Y-150859761D01*
X90780952Y-150764523D01*
X90780952Y-149907380D01*
X91685714Y-150859761D02*
X91590476Y-150907380D01*
X91400000Y-150907380D01*
X91304761Y-150859761D01*
X91257142Y-150764523D01*
X91257142Y-150383571D01*
X91304761Y-150288333D01*
X91400000Y-150240714D01*
X91590476Y-150240714D01*
X91685714Y-150288333D01*
X91733333Y-150383571D01*
X91733333Y-150478809D01*
X91257142Y-150574047D01*
X86438095Y-147557380D02*
X86438095Y-146557380D01*
X86438095Y-147033571D02*
X87009523Y-147033571D01*
X87009523Y-147557380D02*
X87009523Y-146557380D01*
X87628571Y-146985952D02*
X87533333Y-146938333D01*
X87485714Y-146890714D01*
X87438095Y-146795476D01*
X87438095Y-146747857D01*
X87485714Y-146652619D01*
X87533333Y-146605000D01*
X87628571Y-146557380D01*
X87819047Y-146557380D01*
X87914285Y-146605000D01*
X87961904Y-146652619D01*
X88009523Y-146747857D01*
X88009523Y-146795476D01*
X87961904Y-146890714D01*
X87914285Y-146938333D01*
X87819047Y-146985952D01*
X87628571Y-146985952D01*
X87533333Y-147033571D01*
X87485714Y-147081190D01*
X87438095Y-147176428D01*
X87438095Y-147366904D01*
X87485714Y-147462142D01*
X87533333Y-147509761D01*
X87628571Y-147557380D01*
X87819047Y-147557380D01*
X87914285Y-147509761D01*
X87961904Y-147462142D01*
X88009523Y-147366904D01*
X88009523Y-147176428D01*
X87961904Y-147081190D01*
X87914285Y-147033571D01*
X87819047Y-146985952D01*
X82114285Y-28407380D02*
X82114285Y-27407380D01*
X82447619Y-28121666D01*
X82780952Y-27407380D01*
X82780952Y-28407380D01*
X83400000Y-28407380D02*
X83304761Y-28359761D01*
X83257142Y-28312142D01*
X83209523Y-28216904D01*
X83209523Y-27931190D01*
X83257142Y-27835952D01*
X83304761Y-27788333D01*
X83400000Y-27740714D01*
X83542857Y-27740714D01*
X83638095Y-27788333D01*
X83685714Y-27835952D01*
X83733333Y-27931190D01*
X83733333Y-28216904D01*
X83685714Y-28312142D01*
X83638095Y-28359761D01*
X83542857Y-28407380D01*
X83400000Y-28407380D01*
X84590476Y-27740714D02*
X84590476Y-28407380D01*
X84161904Y-27740714D02*
X84161904Y-28264523D01*
X84209523Y-28359761D01*
X84304761Y-28407380D01*
X84447619Y-28407380D01*
X84542857Y-28359761D01*
X84590476Y-28312142D01*
X85066666Y-27740714D02*
X85066666Y-28407380D01*
X85066666Y-27835952D02*
X85114285Y-27788333D01*
X85209523Y-27740714D01*
X85352380Y-27740714D01*
X85447619Y-27788333D01*
X85495238Y-27883571D01*
X85495238Y-28407380D01*
X85828571Y-27740714D02*
X86209523Y-27740714D01*
X85971428Y-27407380D02*
X85971428Y-28264523D01*
X86019047Y-28359761D01*
X86114285Y-28407380D01*
X86209523Y-28407380D01*
X86542857Y-28407380D02*
X86542857Y-27740714D01*
X86542857Y-27407380D02*
X86495238Y-27455000D01*
X86542857Y-27502619D01*
X86590476Y-27455000D01*
X86542857Y-27407380D01*
X86542857Y-27502619D01*
X87019047Y-27740714D02*
X87019047Y-28407380D01*
X87019047Y-27835952D02*
X87066666Y-27788333D01*
X87161904Y-27740714D01*
X87304761Y-27740714D01*
X87400000Y-27788333D01*
X87447619Y-27883571D01*
X87447619Y-28407380D01*
X88352380Y-27740714D02*
X88352380Y-28550238D01*
X88304761Y-28645476D01*
X88257142Y-28693095D01*
X88161904Y-28740714D01*
X88019047Y-28740714D01*
X87923809Y-28693095D01*
X88352380Y-28359761D02*
X88257142Y-28407380D01*
X88066666Y-28407380D01*
X87971428Y-28359761D01*
X87923809Y-28312142D01*
X87876190Y-28216904D01*
X87876190Y-27931190D01*
X87923809Y-27835952D01*
X87971428Y-27788333D01*
X88066666Y-27740714D01*
X88257142Y-27740714D01*
X88352380Y-27788333D01*
X88828571Y-28407380D02*
X88828571Y-27407380D01*
X88828571Y-27883571D02*
X89400000Y-27883571D01*
X89400000Y-28407380D02*
X89400000Y-27407380D01*
X90019047Y-28407380D02*
X89923809Y-28359761D01*
X89876190Y-28312142D01*
X89828571Y-28216904D01*
X89828571Y-27931190D01*
X89876190Y-27835952D01*
X89923809Y-27788333D01*
X90019047Y-27740714D01*
X90161904Y-27740714D01*
X90257142Y-27788333D01*
X90304761Y-27835952D01*
X90352380Y-27931190D01*
X90352380Y-28216904D01*
X90304761Y-28312142D01*
X90257142Y-28359761D01*
X90161904Y-28407380D01*
X90019047Y-28407380D01*
X90923809Y-28407380D02*
X90828571Y-28359761D01*
X90780952Y-28264523D01*
X90780952Y-27407380D01*
X91685714Y-28359761D02*
X91590476Y-28407380D01*
X91400000Y-28407380D01*
X91304761Y-28359761D01*
X91257142Y-28264523D01*
X91257142Y-27883571D01*
X91304761Y-27788333D01*
X91400000Y-27740714D01*
X91590476Y-27740714D01*
X91685714Y-27788333D01*
X91733333Y-27883571D01*
X91733333Y-27978809D01*
X91257142Y-28074047D01*
X86438095Y-25057380D02*
X86438095Y-24057380D01*
X86438095Y-24533571D02*
X87009523Y-24533571D01*
X87009523Y-25057380D02*
X87009523Y-24057380D01*
X87390476Y-24057380D02*
X88057142Y-24057380D01*
X87628571Y-25057380D01*
X61794285Y-150907380D02*
X61794285Y-149907380D01*
X62127619Y-150621666D01*
X62460952Y-149907380D01*
X62460952Y-150907380D01*
X63080000Y-150907380D02*
X62984761Y-150859761D01*
X62937142Y-150812142D01*
X62889523Y-150716904D01*
X62889523Y-150431190D01*
X62937142Y-150335952D01*
X62984761Y-150288333D01*
X63080000Y-150240714D01*
X63222857Y-150240714D01*
X63318095Y-150288333D01*
X63365714Y-150335952D01*
X63413333Y-150431190D01*
X63413333Y-150716904D01*
X63365714Y-150812142D01*
X63318095Y-150859761D01*
X63222857Y-150907380D01*
X63080000Y-150907380D01*
X64270476Y-150240714D02*
X64270476Y-150907380D01*
X63841904Y-150240714D02*
X63841904Y-150764523D01*
X63889523Y-150859761D01*
X63984761Y-150907380D01*
X64127619Y-150907380D01*
X64222857Y-150859761D01*
X64270476Y-150812142D01*
X64746666Y-150240714D02*
X64746666Y-150907380D01*
X64746666Y-150335952D02*
X64794285Y-150288333D01*
X64889523Y-150240714D01*
X65032380Y-150240714D01*
X65127619Y-150288333D01*
X65175238Y-150383571D01*
X65175238Y-150907380D01*
X65508571Y-150240714D02*
X65889523Y-150240714D01*
X65651428Y-149907380D02*
X65651428Y-150764523D01*
X65699047Y-150859761D01*
X65794285Y-150907380D01*
X65889523Y-150907380D01*
X66222857Y-150907380D02*
X66222857Y-150240714D01*
X66222857Y-149907380D02*
X66175238Y-149955000D01*
X66222857Y-150002619D01*
X66270476Y-149955000D01*
X66222857Y-149907380D01*
X66222857Y-150002619D01*
X66699047Y-150240714D02*
X66699047Y-150907380D01*
X66699047Y-150335952D02*
X66746666Y-150288333D01*
X66841904Y-150240714D01*
X66984761Y-150240714D01*
X67080000Y-150288333D01*
X67127619Y-150383571D01*
X67127619Y-150907380D01*
X68032380Y-150240714D02*
X68032380Y-151050238D01*
X67984761Y-151145476D01*
X67937142Y-151193095D01*
X67841904Y-151240714D01*
X67699047Y-151240714D01*
X67603809Y-151193095D01*
X68032380Y-150859761D02*
X67937142Y-150907380D01*
X67746666Y-150907380D01*
X67651428Y-150859761D01*
X67603809Y-150812142D01*
X67556190Y-150716904D01*
X67556190Y-150431190D01*
X67603809Y-150335952D01*
X67651428Y-150288333D01*
X67746666Y-150240714D01*
X67937142Y-150240714D01*
X68032380Y-150288333D01*
X68508571Y-150907380D02*
X68508571Y-149907380D01*
X68508571Y-150383571D02*
X69080000Y-150383571D01*
X69080000Y-150907380D02*
X69080000Y-149907380D01*
X69699047Y-150907380D02*
X69603809Y-150859761D01*
X69556190Y-150812142D01*
X69508571Y-150716904D01*
X69508571Y-150431190D01*
X69556190Y-150335952D01*
X69603809Y-150288333D01*
X69699047Y-150240714D01*
X69841904Y-150240714D01*
X69937142Y-150288333D01*
X69984761Y-150335952D01*
X70032380Y-150431190D01*
X70032380Y-150716904D01*
X69984761Y-150812142D01*
X69937142Y-150859761D01*
X69841904Y-150907380D01*
X69699047Y-150907380D01*
X70603809Y-150907380D02*
X70508571Y-150859761D01*
X70460952Y-150764523D01*
X70460952Y-149907380D01*
X71365714Y-150859761D02*
X71270476Y-150907380D01*
X71080000Y-150907380D01*
X70984761Y-150859761D01*
X70937142Y-150764523D01*
X70937142Y-150383571D01*
X70984761Y-150288333D01*
X71080000Y-150240714D01*
X71270476Y-150240714D01*
X71365714Y-150288333D01*
X71413333Y-150383571D01*
X71413333Y-150478809D01*
X70937142Y-150574047D01*
X66118095Y-147557380D02*
X66118095Y-146557380D01*
X66118095Y-147033571D02*
X66689523Y-147033571D01*
X66689523Y-147557380D02*
X66689523Y-146557380D01*
X67594285Y-146557380D02*
X67403809Y-146557380D01*
X67308571Y-146605000D01*
X67260952Y-146652619D01*
X67165714Y-146795476D01*
X67118095Y-146985952D01*
X67118095Y-147366904D01*
X67165714Y-147462142D01*
X67213333Y-147509761D01*
X67308571Y-147557380D01*
X67499047Y-147557380D01*
X67594285Y-147509761D01*
X67641904Y-147462142D01*
X67689523Y-147366904D01*
X67689523Y-147128809D01*
X67641904Y-147033571D01*
X67594285Y-146985952D01*
X67499047Y-146938333D01*
X67308571Y-146938333D01*
X67213333Y-146985952D01*
X67165714Y-147033571D01*
X67118095Y-147128809D01*
X61794285Y-28407380D02*
X61794285Y-27407380D01*
X62127619Y-28121666D01*
X62460952Y-27407380D01*
X62460952Y-28407380D01*
X63080000Y-28407380D02*
X62984761Y-28359761D01*
X62937142Y-28312142D01*
X62889523Y-28216904D01*
X62889523Y-27931190D01*
X62937142Y-27835952D01*
X62984761Y-27788333D01*
X63080000Y-27740714D01*
X63222857Y-27740714D01*
X63318095Y-27788333D01*
X63365714Y-27835952D01*
X63413333Y-27931190D01*
X63413333Y-28216904D01*
X63365714Y-28312142D01*
X63318095Y-28359761D01*
X63222857Y-28407380D01*
X63080000Y-28407380D01*
X64270476Y-27740714D02*
X64270476Y-28407380D01*
X63841904Y-27740714D02*
X63841904Y-28264523D01*
X63889523Y-28359761D01*
X63984761Y-28407380D01*
X64127619Y-28407380D01*
X64222857Y-28359761D01*
X64270476Y-28312142D01*
X64746666Y-27740714D02*
X64746666Y-28407380D01*
X64746666Y-27835952D02*
X64794285Y-27788333D01*
X64889523Y-27740714D01*
X65032380Y-27740714D01*
X65127619Y-27788333D01*
X65175238Y-27883571D01*
X65175238Y-28407380D01*
X65508571Y-27740714D02*
X65889523Y-27740714D01*
X65651428Y-27407380D02*
X65651428Y-28264523D01*
X65699047Y-28359761D01*
X65794285Y-28407380D01*
X65889523Y-28407380D01*
X66222857Y-28407380D02*
X66222857Y-27740714D01*
X66222857Y-27407380D02*
X66175238Y-27455000D01*
X66222857Y-27502619D01*
X66270476Y-27455000D01*
X66222857Y-27407380D01*
X66222857Y-27502619D01*
X66699047Y-27740714D02*
X66699047Y-28407380D01*
X66699047Y-27835952D02*
X66746666Y-27788333D01*
X66841904Y-27740714D01*
X66984761Y-27740714D01*
X67080000Y-27788333D01*
X67127619Y-27883571D01*
X67127619Y-28407380D01*
X68032380Y-27740714D02*
X68032380Y-28550238D01*
X67984761Y-28645476D01*
X67937142Y-28693095D01*
X67841904Y-28740714D01*
X67699047Y-28740714D01*
X67603809Y-28693095D01*
X68032380Y-28359761D02*
X67937142Y-28407380D01*
X67746666Y-28407380D01*
X67651428Y-28359761D01*
X67603809Y-28312142D01*
X67556190Y-28216904D01*
X67556190Y-27931190D01*
X67603809Y-27835952D01*
X67651428Y-27788333D01*
X67746666Y-27740714D01*
X67937142Y-27740714D01*
X68032380Y-27788333D01*
X68508571Y-28407380D02*
X68508571Y-27407380D01*
X68508571Y-27883571D02*
X69080000Y-27883571D01*
X69080000Y-28407380D02*
X69080000Y-27407380D01*
X69699047Y-28407380D02*
X69603809Y-28359761D01*
X69556190Y-28312142D01*
X69508571Y-28216904D01*
X69508571Y-27931190D01*
X69556190Y-27835952D01*
X69603809Y-27788333D01*
X69699047Y-27740714D01*
X69841904Y-27740714D01*
X69937142Y-27788333D01*
X69984761Y-27835952D01*
X70032380Y-27931190D01*
X70032380Y-28216904D01*
X69984761Y-28312142D01*
X69937142Y-28359761D01*
X69841904Y-28407380D01*
X69699047Y-28407380D01*
X70603809Y-28407380D02*
X70508571Y-28359761D01*
X70460952Y-28264523D01*
X70460952Y-27407380D01*
X71365714Y-28359761D02*
X71270476Y-28407380D01*
X71080000Y-28407380D01*
X70984761Y-28359761D01*
X70937142Y-28264523D01*
X70937142Y-27883571D01*
X70984761Y-27788333D01*
X71080000Y-27740714D01*
X71270476Y-27740714D01*
X71365714Y-27788333D01*
X71413333Y-27883571D01*
X71413333Y-27978809D01*
X70937142Y-28074047D01*
X66118095Y-25057380D02*
X66118095Y-24057380D01*
X66118095Y-24533571D02*
X66689523Y-24533571D01*
X66689523Y-25057380D02*
X66689523Y-24057380D01*
X67641904Y-24057380D02*
X67165714Y-24057380D01*
X67118095Y-24533571D01*
X67165714Y-24485952D01*
X67260952Y-24438333D01*
X67499047Y-24438333D01*
X67594285Y-24485952D01*
X67641904Y-24533571D01*
X67689523Y-24628809D01*
X67689523Y-24866904D01*
X67641904Y-24962142D01*
X67594285Y-25009761D01*
X67499047Y-25057380D01*
X67260952Y-25057380D01*
X67165714Y-25009761D01*
X67118095Y-24962142D01*
X41474285Y-150907380D02*
X41474285Y-149907380D01*
X41807619Y-150621666D01*
X42140952Y-149907380D01*
X42140952Y-150907380D01*
X42760000Y-150907380D02*
X42664761Y-150859761D01*
X42617142Y-150812142D01*
X42569523Y-150716904D01*
X42569523Y-150431190D01*
X42617142Y-150335952D01*
X42664761Y-150288333D01*
X42760000Y-150240714D01*
X42902857Y-150240714D01*
X42998095Y-150288333D01*
X43045714Y-150335952D01*
X43093333Y-150431190D01*
X43093333Y-150716904D01*
X43045714Y-150812142D01*
X42998095Y-150859761D01*
X42902857Y-150907380D01*
X42760000Y-150907380D01*
X43950476Y-150240714D02*
X43950476Y-150907380D01*
X43521904Y-150240714D02*
X43521904Y-150764523D01*
X43569523Y-150859761D01*
X43664761Y-150907380D01*
X43807619Y-150907380D01*
X43902857Y-150859761D01*
X43950476Y-150812142D01*
X44426666Y-150240714D02*
X44426666Y-150907380D01*
X44426666Y-150335952D02*
X44474285Y-150288333D01*
X44569523Y-150240714D01*
X44712380Y-150240714D01*
X44807619Y-150288333D01*
X44855238Y-150383571D01*
X44855238Y-150907380D01*
X45188571Y-150240714D02*
X45569523Y-150240714D01*
X45331428Y-149907380D02*
X45331428Y-150764523D01*
X45379047Y-150859761D01*
X45474285Y-150907380D01*
X45569523Y-150907380D01*
X45902857Y-150907380D02*
X45902857Y-150240714D01*
X45902857Y-149907380D02*
X45855238Y-149955000D01*
X45902857Y-150002619D01*
X45950476Y-149955000D01*
X45902857Y-149907380D01*
X45902857Y-150002619D01*
X46379047Y-150240714D02*
X46379047Y-150907380D01*
X46379047Y-150335952D02*
X46426666Y-150288333D01*
X46521904Y-150240714D01*
X46664761Y-150240714D01*
X46760000Y-150288333D01*
X46807619Y-150383571D01*
X46807619Y-150907380D01*
X47712380Y-150240714D02*
X47712380Y-151050238D01*
X47664761Y-151145476D01*
X47617142Y-151193095D01*
X47521904Y-151240714D01*
X47379047Y-151240714D01*
X47283809Y-151193095D01*
X47712380Y-150859761D02*
X47617142Y-150907380D01*
X47426666Y-150907380D01*
X47331428Y-150859761D01*
X47283809Y-150812142D01*
X47236190Y-150716904D01*
X47236190Y-150431190D01*
X47283809Y-150335952D01*
X47331428Y-150288333D01*
X47426666Y-150240714D01*
X47617142Y-150240714D01*
X47712380Y-150288333D01*
X48188571Y-150907380D02*
X48188571Y-149907380D01*
X48188571Y-150383571D02*
X48760000Y-150383571D01*
X48760000Y-150907380D02*
X48760000Y-149907380D01*
X49379047Y-150907380D02*
X49283809Y-150859761D01*
X49236190Y-150812142D01*
X49188571Y-150716904D01*
X49188571Y-150431190D01*
X49236190Y-150335952D01*
X49283809Y-150288333D01*
X49379047Y-150240714D01*
X49521904Y-150240714D01*
X49617142Y-150288333D01*
X49664761Y-150335952D01*
X49712380Y-150431190D01*
X49712380Y-150716904D01*
X49664761Y-150812142D01*
X49617142Y-150859761D01*
X49521904Y-150907380D01*
X49379047Y-150907380D01*
X50283809Y-150907380D02*
X50188571Y-150859761D01*
X50140952Y-150764523D01*
X50140952Y-149907380D01*
X51045714Y-150859761D02*
X50950476Y-150907380D01*
X50760000Y-150907380D01*
X50664761Y-150859761D01*
X50617142Y-150764523D01*
X50617142Y-150383571D01*
X50664761Y-150288333D01*
X50760000Y-150240714D01*
X50950476Y-150240714D01*
X51045714Y-150288333D01*
X51093333Y-150383571D01*
X51093333Y-150478809D01*
X50617142Y-150574047D01*
X45798095Y-147557380D02*
X45798095Y-146557380D01*
X45798095Y-147033571D02*
X46369523Y-147033571D01*
X46369523Y-147557380D02*
X46369523Y-146557380D01*
X47274285Y-146890714D02*
X47274285Y-147557380D01*
X47036190Y-146509761D02*
X46798095Y-147224047D01*
X47417142Y-147224047D01*
X41474285Y-28407380D02*
X41474285Y-27407380D01*
X41807619Y-28121666D01*
X42140952Y-27407380D01*
X42140952Y-28407380D01*
X42760000Y-28407380D02*
X42664761Y-28359761D01*
X42617142Y-28312142D01*
X42569523Y-28216904D01*
X42569523Y-27931190D01*
X42617142Y-27835952D01*
X42664761Y-27788333D01*
X42760000Y-27740714D01*
X42902857Y-27740714D01*
X42998095Y-27788333D01*
X43045714Y-27835952D01*
X43093333Y-27931190D01*
X43093333Y-28216904D01*
X43045714Y-28312142D01*
X42998095Y-28359761D01*
X42902857Y-28407380D01*
X42760000Y-28407380D01*
X43950476Y-27740714D02*
X43950476Y-28407380D01*
X43521904Y-27740714D02*
X43521904Y-28264523D01*
X43569523Y-28359761D01*
X43664761Y-28407380D01*
X43807619Y-28407380D01*
X43902857Y-28359761D01*
X43950476Y-28312142D01*
X44426666Y-27740714D02*
X44426666Y-28407380D01*
X44426666Y-27835952D02*
X44474285Y-27788333D01*
X44569523Y-27740714D01*
X44712380Y-27740714D01*
X44807619Y-27788333D01*
X44855238Y-27883571D01*
X44855238Y-28407380D01*
X45188571Y-27740714D02*
X45569523Y-27740714D01*
X45331428Y-27407380D02*
X45331428Y-28264523D01*
X45379047Y-28359761D01*
X45474285Y-28407380D01*
X45569523Y-28407380D01*
X45902857Y-28407380D02*
X45902857Y-27740714D01*
X45902857Y-27407380D02*
X45855238Y-27455000D01*
X45902857Y-27502619D01*
X45950476Y-27455000D01*
X45902857Y-27407380D01*
X45902857Y-27502619D01*
X46379047Y-27740714D02*
X46379047Y-28407380D01*
X46379047Y-27835952D02*
X46426666Y-27788333D01*
X46521904Y-27740714D01*
X46664761Y-27740714D01*
X46760000Y-27788333D01*
X46807619Y-27883571D01*
X46807619Y-28407380D01*
X47712380Y-27740714D02*
X47712380Y-28550238D01*
X47664761Y-28645476D01*
X47617142Y-28693095D01*
X47521904Y-28740714D01*
X47379047Y-28740714D01*
X47283809Y-28693095D01*
X47712380Y-28359761D02*
X47617142Y-28407380D01*
X47426666Y-28407380D01*
X47331428Y-28359761D01*
X47283809Y-28312142D01*
X47236190Y-28216904D01*
X47236190Y-27931190D01*
X47283809Y-27835952D01*
X47331428Y-27788333D01*
X47426666Y-27740714D01*
X47617142Y-27740714D01*
X47712380Y-27788333D01*
X48188571Y-28407380D02*
X48188571Y-27407380D01*
X48188571Y-27883571D02*
X48760000Y-27883571D01*
X48760000Y-28407380D02*
X48760000Y-27407380D01*
X49379047Y-28407380D02*
X49283809Y-28359761D01*
X49236190Y-28312142D01*
X49188571Y-28216904D01*
X49188571Y-27931190D01*
X49236190Y-27835952D01*
X49283809Y-27788333D01*
X49379047Y-27740714D01*
X49521904Y-27740714D01*
X49617142Y-27788333D01*
X49664761Y-27835952D01*
X49712380Y-27931190D01*
X49712380Y-28216904D01*
X49664761Y-28312142D01*
X49617142Y-28359761D01*
X49521904Y-28407380D01*
X49379047Y-28407380D01*
X50283809Y-28407380D02*
X50188571Y-28359761D01*
X50140952Y-28264523D01*
X50140952Y-27407380D01*
X51045714Y-28359761D02*
X50950476Y-28407380D01*
X50760000Y-28407380D01*
X50664761Y-28359761D01*
X50617142Y-28264523D01*
X50617142Y-27883571D01*
X50664761Y-27788333D01*
X50760000Y-27740714D01*
X50950476Y-27740714D01*
X51045714Y-27788333D01*
X51093333Y-27883571D01*
X51093333Y-27978809D01*
X50617142Y-28074047D01*
X45798095Y-25057380D02*
X45798095Y-24057380D01*
X45798095Y-24533571D02*
X46369523Y-24533571D01*
X46369523Y-25057380D02*
X46369523Y-24057380D01*
X46750476Y-24057380D02*
X47369523Y-24057380D01*
X47036190Y-24438333D01*
X47179047Y-24438333D01*
X47274285Y-24485952D01*
X47321904Y-24533571D01*
X47369523Y-24628809D01*
X47369523Y-24866904D01*
X47321904Y-24962142D01*
X47274285Y-25009761D01*
X47179047Y-25057380D01*
X46893333Y-25057380D01*
X46798095Y-25009761D01*
X46750476Y-24962142D01*
X21154285Y-150907380D02*
X21154285Y-149907380D01*
X21487619Y-150621666D01*
X21820952Y-149907380D01*
X21820952Y-150907380D01*
X22440000Y-150907380D02*
X22344761Y-150859761D01*
X22297142Y-150812142D01*
X22249523Y-150716904D01*
X22249523Y-150431190D01*
X22297142Y-150335952D01*
X22344761Y-150288333D01*
X22440000Y-150240714D01*
X22582857Y-150240714D01*
X22678095Y-150288333D01*
X22725714Y-150335952D01*
X22773333Y-150431190D01*
X22773333Y-150716904D01*
X22725714Y-150812142D01*
X22678095Y-150859761D01*
X22582857Y-150907380D01*
X22440000Y-150907380D01*
X23630476Y-150240714D02*
X23630476Y-150907380D01*
X23201904Y-150240714D02*
X23201904Y-150764523D01*
X23249523Y-150859761D01*
X23344761Y-150907380D01*
X23487619Y-150907380D01*
X23582857Y-150859761D01*
X23630476Y-150812142D01*
X24106666Y-150240714D02*
X24106666Y-150907380D01*
X24106666Y-150335952D02*
X24154285Y-150288333D01*
X24249523Y-150240714D01*
X24392380Y-150240714D01*
X24487619Y-150288333D01*
X24535238Y-150383571D01*
X24535238Y-150907380D01*
X24868571Y-150240714D02*
X25249523Y-150240714D01*
X25011428Y-149907380D02*
X25011428Y-150764523D01*
X25059047Y-150859761D01*
X25154285Y-150907380D01*
X25249523Y-150907380D01*
X25582857Y-150907380D02*
X25582857Y-150240714D01*
X25582857Y-149907380D02*
X25535238Y-149955000D01*
X25582857Y-150002619D01*
X25630476Y-149955000D01*
X25582857Y-149907380D01*
X25582857Y-150002619D01*
X26059047Y-150240714D02*
X26059047Y-150907380D01*
X26059047Y-150335952D02*
X26106666Y-150288333D01*
X26201904Y-150240714D01*
X26344761Y-150240714D01*
X26440000Y-150288333D01*
X26487619Y-150383571D01*
X26487619Y-150907380D01*
X27392380Y-150240714D02*
X27392380Y-151050238D01*
X27344761Y-151145476D01*
X27297142Y-151193095D01*
X27201904Y-151240714D01*
X27059047Y-151240714D01*
X26963809Y-151193095D01*
X27392380Y-150859761D02*
X27297142Y-150907380D01*
X27106666Y-150907380D01*
X27011428Y-150859761D01*
X26963809Y-150812142D01*
X26916190Y-150716904D01*
X26916190Y-150431190D01*
X26963809Y-150335952D01*
X27011428Y-150288333D01*
X27106666Y-150240714D01*
X27297142Y-150240714D01*
X27392380Y-150288333D01*
X27868571Y-150907380D02*
X27868571Y-149907380D01*
X27868571Y-150383571D02*
X28440000Y-150383571D01*
X28440000Y-150907380D02*
X28440000Y-149907380D01*
X29059047Y-150907380D02*
X28963809Y-150859761D01*
X28916190Y-150812142D01*
X28868571Y-150716904D01*
X28868571Y-150431190D01*
X28916190Y-150335952D01*
X28963809Y-150288333D01*
X29059047Y-150240714D01*
X29201904Y-150240714D01*
X29297142Y-150288333D01*
X29344761Y-150335952D01*
X29392380Y-150431190D01*
X29392380Y-150716904D01*
X29344761Y-150812142D01*
X29297142Y-150859761D01*
X29201904Y-150907380D01*
X29059047Y-150907380D01*
X29963809Y-150907380D02*
X29868571Y-150859761D01*
X29820952Y-150764523D01*
X29820952Y-149907380D01*
X30725714Y-150859761D02*
X30630476Y-150907380D01*
X30440000Y-150907380D01*
X30344761Y-150859761D01*
X30297142Y-150764523D01*
X30297142Y-150383571D01*
X30344761Y-150288333D01*
X30440000Y-150240714D01*
X30630476Y-150240714D01*
X30725714Y-150288333D01*
X30773333Y-150383571D01*
X30773333Y-150478809D01*
X30297142Y-150574047D01*
X25478095Y-147557380D02*
X25478095Y-146557380D01*
X25478095Y-147033571D02*
X26049523Y-147033571D01*
X26049523Y-147557380D02*
X26049523Y-146557380D01*
X26478095Y-146652619D02*
X26525714Y-146605000D01*
X26620952Y-146557380D01*
X26859047Y-146557380D01*
X26954285Y-146605000D01*
X27001904Y-146652619D01*
X27049523Y-146747857D01*
X27049523Y-146843095D01*
X27001904Y-146985952D01*
X26430476Y-147557380D01*
X27049523Y-147557380D01*
X21154285Y-28407380D02*
X21154285Y-27407380D01*
X21487619Y-28121666D01*
X21820952Y-27407380D01*
X21820952Y-28407380D01*
X22440000Y-28407380D02*
X22344761Y-28359761D01*
X22297142Y-28312142D01*
X22249523Y-28216904D01*
X22249523Y-27931190D01*
X22297142Y-27835952D01*
X22344761Y-27788333D01*
X22440000Y-27740714D01*
X22582857Y-27740714D01*
X22678095Y-27788333D01*
X22725714Y-27835952D01*
X22773333Y-27931190D01*
X22773333Y-28216904D01*
X22725714Y-28312142D01*
X22678095Y-28359761D01*
X22582857Y-28407380D01*
X22440000Y-28407380D01*
X23630476Y-27740714D02*
X23630476Y-28407380D01*
X23201904Y-27740714D02*
X23201904Y-28264523D01*
X23249523Y-28359761D01*
X23344761Y-28407380D01*
X23487619Y-28407380D01*
X23582857Y-28359761D01*
X23630476Y-28312142D01*
X24106666Y-27740714D02*
X24106666Y-28407380D01*
X24106666Y-27835952D02*
X24154285Y-27788333D01*
X24249523Y-27740714D01*
X24392380Y-27740714D01*
X24487619Y-27788333D01*
X24535238Y-27883571D01*
X24535238Y-28407380D01*
X24868571Y-27740714D02*
X25249523Y-27740714D01*
X25011428Y-27407380D02*
X25011428Y-28264523D01*
X25059047Y-28359761D01*
X25154285Y-28407380D01*
X25249523Y-28407380D01*
X25582857Y-28407380D02*
X25582857Y-27740714D01*
X25582857Y-27407380D02*
X25535238Y-27455000D01*
X25582857Y-27502619D01*
X25630476Y-27455000D01*
X25582857Y-27407380D01*
X25582857Y-27502619D01*
X26059047Y-27740714D02*
X26059047Y-28407380D01*
X26059047Y-27835952D02*
X26106666Y-27788333D01*
X26201904Y-27740714D01*
X26344761Y-27740714D01*
X26440000Y-27788333D01*
X26487619Y-27883571D01*
X26487619Y-28407380D01*
X27392380Y-27740714D02*
X27392380Y-28550238D01*
X27344761Y-28645476D01*
X27297142Y-28693095D01*
X27201904Y-28740714D01*
X27059047Y-28740714D01*
X26963809Y-28693095D01*
X27392380Y-28359761D02*
X27297142Y-28407380D01*
X27106666Y-28407380D01*
X27011428Y-28359761D01*
X26963809Y-28312142D01*
X26916190Y-28216904D01*
X26916190Y-27931190D01*
X26963809Y-27835952D01*
X27011428Y-27788333D01*
X27106666Y-27740714D01*
X27297142Y-27740714D01*
X27392380Y-27788333D01*
X27868571Y-28407380D02*
X27868571Y-27407380D01*
X27868571Y-27883571D02*
X28440000Y-27883571D01*
X28440000Y-28407380D02*
X28440000Y-27407380D01*
X29059047Y-28407380D02*
X28963809Y-28359761D01*
X28916190Y-28312142D01*
X28868571Y-28216904D01*
X28868571Y-27931190D01*
X28916190Y-27835952D01*
X28963809Y-27788333D01*
X29059047Y-27740714D01*
X29201904Y-27740714D01*
X29297142Y-27788333D01*
X29344761Y-27835952D01*
X29392380Y-27931190D01*
X29392380Y-28216904D01*
X29344761Y-28312142D01*
X29297142Y-28359761D01*
X29201904Y-28407380D01*
X29059047Y-28407380D01*
X29963809Y-28407380D02*
X29868571Y-28359761D01*
X29820952Y-28264523D01*
X29820952Y-27407380D01*
X30725714Y-28359761D02*
X30630476Y-28407380D01*
X30440000Y-28407380D01*
X30344761Y-28359761D01*
X30297142Y-28264523D01*
X30297142Y-27883571D01*
X30344761Y-27788333D01*
X30440000Y-27740714D01*
X30630476Y-27740714D01*
X30725714Y-27788333D01*
X30773333Y-27883571D01*
X30773333Y-27978809D01*
X30297142Y-28074047D01*
X25478095Y-25057380D02*
X25478095Y-24057380D01*
X25478095Y-24533571D02*
X26049523Y-24533571D01*
X26049523Y-25057380D02*
X26049523Y-24057380D01*
X27049523Y-25057380D02*
X26478095Y-25057380D01*
X26763809Y-25057380D02*
X26763809Y-24057380D01*
X26668571Y-24200238D01*
X26573333Y-24295476D01*
X26478095Y-24343095D01*
X34828571Y-134712142D02*
X34780952Y-134759761D01*
X34638095Y-134807380D01*
X34542857Y-134807380D01*
X34400000Y-134759761D01*
X34304761Y-134664523D01*
X34257142Y-134569285D01*
X34209523Y-134378809D01*
X34209523Y-134235952D01*
X34257142Y-134045476D01*
X34304761Y-133950238D01*
X34400000Y-133855000D01*
X34542857Y-133807380D01*
X34638095Y-133807380D01*
X34780952Y-133855000D01*
X34828571Y-133902619D01*
X35685714Y-133807380D02*
X35495238Y-133807380D01*
X35400000Y-133855000D01*
X35352380Y-133902619D01*
X35257142Y-134045476D01*
X35209523Y-134235952D01*
X35209523Y-134616904D01*
X35257142Y-134712142D01*
X35304761Y-134759761D01*
X35400000Y-134807380D01*
X35590476Y-134807380D01*
X35685714Y-134759761D01*
X35733333Y-134712142D01*
X35780952Y-134616904D01*
X35780952Y-134378809D01*
X35733333Y-134283571D01*
X35685714Y-134235952D01*
X35590476Y-134188333D01*
X35400000Y-134188333D01*
X35304761Y-134235952D01*
X35257142Y-134283571D01*
X35209523Y-134378809D01*
X36638095Y-134140714D02*
X36638095Y-134807380D01*
X36400000Y-133759761D02*
X36161904Y-134474047D01*
X36780952Y-134474047D01*
X37114285Y-134521666D02*
X37590476Y-134521666D01*
X37019047Y-134807380D02*
X37352380Y-133807380D01*
X37685714Y-134807380D01*
X38590476Y-134712142D02*
X38542857Y-134759761D01*
X38400000Y-134807380D01*
X38304761Y-134807380D01*
X38161904Y-134759761D01*
X38066666Y-134664523D01*
X38019047Y-134569285D01*
X37971428Y-134378809D01*
X37971428Y-134235952D01*
X38019047Y-134045476D01*
X38066666Y-133950238D01*
X38161904Y-133855000D01*
X38304761Y-133807380D01*
X38400000Y-133807380D01*
X38542857Y-133855000D01*
X38590476Y-133902619D01*
X36066666Y-85307380D02*
X36066666Y-86021666D01*
X36019047Y-86164523D01*
X35923809Y-86259761D01*
X35780952Y-86307380D01*
X35685714Y-86307380D01*
X36447619Y-85307380D02*
X37114285Y-85307380D01*
X36685714Y-86307380D01*
X390428571Y-134712142D02*
X390380952Y-134759761D01*
X390238095Y-134807380D01*
X390142857Y-134807380D01*
X390000000Y-134759761D01*
X389904761Y-134664523D01*
X389857142Y-134569285D01*
X389809523Y-134378809D01*
X389809523Y-134235952D01*
X389857142Y-134045476D01*
X389904761Y-133950238D01*
X390000000Y-133855000D01*
X390142857Y-133807380D01*
X390238095Y-133807380D01*
X390380952Y-133855000D01*
X390428571Y-133902619D01*
X391285714Y-133807380D02*
X391095238Y-133807380D01*
X391000000Y-133855000D01*
X390952380Y-133902619D01*
X390857142Y-134045476D01*
X390809523Y-134235952D01*
X390809523Y-134616904D01*
X390857142Y-134712142D01*
X390904761Y-134759761D01*
X391000000Y-134807380D01*
X391190476Y-134807380D01*
X391285714Y-134759761D01*
X391333333Y-134712142D01*
X391380952Y-134616904D01*
X391380952Y-134378809D01*
X391333333Y-134283571D01*
X391285714Y-134235952D01*
X391190476Y-134188333D01*
X391000000Y-134188333D01*
X390904761Y-134235952D01*
X390857142Y-134283571D01*
X390809523Y-134378809D01*
X392238095Y-134140714D02*
X392238095Y-134807380D01*
X392000000Y-133759761D02*
X391761904Y-134474047D01*
X392380952Y-134474047D01*
X392714285Y-134521666D02*
X393190476Y-134521666D01*
X392619047Y-134807380D02*
X392952380Y-133807380D01*
X393285714Y-134807380D01*
X394190476Y-134712142D02*
X394142857Y-134759761D01*
X394000000Y-134807380D01*
X393904761Y-134807380D01*
X393761904Y-134759761D01*
X393666666Y-134664523D01*
X393619047Y-134569285D01*
X393571428Y-134378809D01*
X393571428Y-134235952D01*
X393619047Y-134045476D01*
X393666666Y-133950238D01*
X393761904Y-133855000D01*
X393904761Y-133807380D01*
X394000000Y-133807380D01*
X394142857Y-133855000D01*
X394190476Y-133902619D01*
X391190476Y-85307380D02*
X391190476Y-86021666D01*
X391142857Y-86164523D01*
X391047619Y-86259761D01*
X390904761Y-86307380D01*
X390809523Y-86307380D01*
X392190476Y-86307380D02*
X391619047Y-86307380D01*
X391904761Y-86307380D02*
X391904761Y-85307380D01*
X391809523Y-85450238D01*
X391714285Y-85545476D01*
X391619047Y-85593095D01*
X392571428Y-85402619D02*
X392619047Y-85355000D01*
X392714285Y-85307380D01*
X392952380Y-85307380D01*
X393047619Y-85355000D01*
X393095238Y-85402619D01*
X393142857Y-85497857D01*
X393142857Y-85593095D01*
X393095238Y-85735952D01*
X392523809Y-86307380D01*
X393142857Y-86307380D01*
X319308571Y-134712142D02*
X319260952Y-134759761D01*
X319118095Y-134807380D01*
X319022857Y-134807380D01*
X318880000Y-134759761D01*
X318784761Y-134664523D01*
X318737142Y-134569285D01*
X318689523Y-134378809D01*
X318689523Y-134235952D01*
X318737142Y-134045476D01*
X318784761Y-133950238D01*
X318880000Y-133855000D01*
X319022857Y-133807380D01*
X319118095Y-133807380D01*
X319260952Y-133855000D01*
X319308571Y-133902619D01*
X320165714Y-133807380D02*
X319975238Y-133807380D01*
X319880000Y-133855000D01*
X319832380Y-133902619D01*
X319737142Y-134045476D01*
X319689523Y-134235952D01*
X319689523Y-134616904D01*
X319737142Y-134712142D01*
X319784761Y-134759761D01*
X319880000Y-134807380D01*
X320070476Y-134807380D01*
X320165714Y-134759761D01*
X320213333Y-134712142D01*
X320260952Y-134616904D01*
X320260952Y-134378809D01*
X320213333Y-134283571D01*
X320165714Y-134235952D01*
X320070476Y-134188333D01*
X319880000Y-134188333D01*
X319784761Y-134235952D01*
X319737142Y-134283571D01*
X319689523Y-134378809D01*
X321118095Y-134140714D02*
X321118095Y-134807380D01*
X320880000Y-133759761D02*
X320641904Y-134474047D01*
X321260952Y-134474047D01*
X321594285Y-134521666D02*
X322070476Y-134521666D01*
X321499047Y-134807380D02*
X321832380Y-133807380D01*
X322165714Y-134807380D01*
X323070476Y-134712142D02*
X323022857Y-134759761D01*
X322880000Y-134807380D01*
X322784761Y-134807380D01*
X322641904Y-134759761D01*
X322546666Y-134664523D01*
X322499047Y-134569285D01*
X322451428Y-134378809D01*
X322451428Y-134235952D01*
X322499047Y-134045476D01*
X322546666Y-133950238D01*
X322641904Y-133855000D01*
X322784761Y-133807380D01*
X322880000Y-133807380D01*
X323022857Y-133855000D01*
X323070476Y-133902619D01*
X320070476Y-85307380D02*
X320070476Y-86021666D01*
X320022857Y-86164523D01*
X319927619Y-86259761D01*
X319784761Y-86307380D01*
X319689523Y-86307380D01*
X321070476Y-86307380D02*
X320499047Y-86307380D01*
X320784761Y-86307380D02*
X320784761Y-85307380D01*
X320689523Y-85450238D01*
X320594285Y-85545476D01*
X320499047Y-85593095D01*
X322022857Y-86307380D02*
X321451428Y-86307380D01*
X321737142Y-86307380D02*
X321737142Y-85307380D01*
X321641904Y-85450238D01*
X321546666Y-85545476D01*
X321451428Y-85593095D01*
X248188571Y-134712142D02*
X248140952Y-134759761D01*
X247998095Y-134807380D01*
X247902857Y-134807380D01*
X247760000Y-134759761D01*
X247664761Y-134664523D01*
X247617142Y-134569285D01*
X247569523Y-134378809D01*
X247569523Y-134235952D01*
X247617142Y-134045476D01*
X247664761Y-133950238D01*
X247760000Y-133855000D01*
X247902857Y-133807380D01*
X247998095Y-133807380D01*
X248140952Y-133855000D01*
X248188571Y-133902619D01*
X249045714Y-133807380D02*
X248855238Y-133807380D01*
X248760000Y-133855000D01*
X248712380Y-133902619D01*
X248617142Y-134045476D01*
X248569523Y-134235952D01*
X248569523Y-134616904D01*
X248617142Y-134712142D01*
X248664761Y-134759761D01*
X248760000Y-134807380D01*
X248950476Y-134807380D01*
X249045714Y-134759761D01*
X249093333Y-134712142D01*
X249140952Y-134616904D01*
X249140952Y-134378809D01*
X249093333Y-134283571D01*
X249045714Y-134235952D01*
X248950476Y-134188333D01*
X248760000Y-134188333D01*
X248664761Y-134235952D01*
X248617142Y-134283571D01*
X248569523Y-134378809D01*
X249998095Y-134140714D02*
X249998095Y-134807380D01*
X249760000Y-133759761D02*
X249521904Y-134474047D01*
X250140952Y-134474047D01*
X250474285Y-134521666D02*
X250950476Y-134521666D01*
X250379047Y-134807380D02*
X250712380Y-133807380D01*
X251045714Y-134807380D01*
X251950476Y-134712142D02*
X251902857Y-134759761D01*
X251760000Y-134807380D01*
X251664761Y-134807380D01*
X251521904Y-134759761D01*
X251426666Y-134664523D01*
X251379047Y-134569285D01*
X251331428Y-134378809D01*
X251331428Y-134235952D01*
X251379047Y-134045476D01*
X251426666Y-133950238D01*
X251521904Y-133855000D01*
X251664761Y-133807380D01*
X251760000Y-133807380D01*
X251902857Y-133855000D01*
X251950476Y-133902619D01*
X248950476Y-85307380D02*
X248950476Y-86021666D01*
X248902857Y-86164523D01*
X248807619Y-86259761D01*
X248664761Y-86307380D01*
X248569523Y-86307380D01*
X249950476Y-86307380D02*
X249379047Y-86307380D01*
X249664761Y-86307380D02*
X249664761Y-85307380D01*
X249569523Y-85450238D01*
X249474285Y-85545476D01*
X249379047Y-85593095D01*
X250569523Y-85307380D02*
X250664761Y-85307380D01*
X250760000Y-85355000D01*
X250807619Y-85402619D01*
X250855238Y-85497857D01*
X250902857Y-85688333D01*
X250902857Y-85926428D01*
X250855238Y-86116904D01*
X250807619Y-86212142D01*
X250760000Y-86259761D01*
X250664761Y-86307380D01*
X250569523Y-86307380D01*
X250474285Y-86259761D01*
X250426666Y-86212142D01*
X250379047Y-86116904D01*
X250331428Y-85926428D01*
X250331428Y-85688333D01*
X250379047Y-85497857D01*
X250426666Y-85402619D01*
X250474285Y-85355000D01*
X250569523Y-85307380D01*
X177068571Y-134712142D02*
X177020952Y-134759761D01*
X176878095Y-134807380D01*
X176782857Y-134807380D01*
X176640000Y-134759761D01*
X176544761Y-134664523D01*
X176497142Y-134569285D01*
X176449523Y-134378809D01*
X176449523Y-134235952D01*
X176497142Y-134045476D01*
X176544761Y-133950238D01*
X176640000Y-133855000D01*
X176782857Y-133807380D01*
X176878095Y-133807380D01*
X177020952Y-133855000D01*
X177068571Y-133902619D01*
X177925714Y-133807380D02*
X177735238Y-133807380D01*
X177640000Y-133855000D01*
X177592380Y-133902619D01*
X177497142Y-134045476D01*
X177449523Y-134235952D01*
X177449523Y-134616904D01*
X177497142Y-134712142D01*
X177544761Y-134759761D01*
X177640000Y-134807380D01*
X177830476Y-134807380D01*
X177925714Y-134759761D01*
X177973333Y-134712142D01*
X178020952Y-134616904D01*
X178020952Y-134378809D01*
X177973333Y-134283571D01*
X177925714Y-134235952D01*
X177830476Y-134188333D01*
X177640000Y-134188333D01*
X177544761Y-134235952D01*
X177497142Y-134283571D01*
X177449523Y-134378809D01*
X178878095Y-134140714D02*
X178878095Y-134807380D01*
X178640000Y-133759761D02*
X178401904Y-134474047D01*
X179020952Y-134474047D01*
X179354285Y-134521666D02*
X179830476Y-134521666D01*
X179259047Y-134807380D02*
X179592380Y-133807380D01*
X179925714Y-134807380D01*
X180830476Y-134712142D02*
X180782857Y-134759761D01*
X180640000Y-134807380D01*
X180544761Y-134807380D01*
X180401904Y-134759761D01*
X180306666Y-134664523D01*
X180259047Y-134569285D01*
X180211428Y-134378809D01*
X180211428Y-134235952D01*
X180259047Y-134045476D01*
X180306666Y-133950238D01*
X180401904Y-133855000D01*
X180544761Y-133807380D01*
X180640000Y-133807380D01*
X180782857Y-133855000D01*
X180830476Y-133902619D01*
X178306666Y-85307380D02*
X178306666Y-86021666D01*
X178259047Y-86164523D01*
X178163809Y-86259761D01*
X178020952Y-86307380D01*
X177925714Y-86307380D01*
X178830476Y-86307380D02*
X179020952Y-86307380D01*
X179116190Y-86259761D01*
X179163809Y-86212142D01*
X179259047Y-86069285D01*
X179306666Y-85878809D01*
X179306666Y-85497857D01*
X179259047Y-85402619D01*
X179211428Y-85355000D01*
X179116190Y-85307380D01*
X178925714Y-85307380D01*
X178830476Y-85355000D01*
X178782857Y-85402619D01*
X178735238Y-85497857D01*
X178735238Y-85735952D01*
X178782857Y-85831190D01*
X178830476Y-85878809D01*
X178925714Y-85926428D01*
X179116190Y-85926428D01*
X179211428Y-85878809D01*
X179259047Y-85831190D01*
X179306666Y-85735952D01*
X105948571Y-134712142D02*
X105900952Y-134759761D01*
X105758095Y-134807380D01*
X105662857Y-134807380D01*
X105520000Y-134759761D01*
X105424761Y-134664523D01*
X105377142Y-134569285D01*
X105329523Y-134378809D01*
X105329523Y-134235952D01*
X105377142Y-134045476D01*
X105424761Y-133950238D01*
X105520000Y-133855000D01*
X105662857Y-133807380D01*
X105758095Y-133807380D01*
X105900952Y-133855000D01*
X105948571Y-133902619D01*
X106805714Y-133807380D02*
X106615238Y-133807380D01*
X106520000Y-133855000D01*
X106472380Y-133902619D01*
X106377142Y-134045476D01*
X106329523Y-134235952D01*
X106329523Y-134616904D01*
X106377142Y-134712142D01*
X106424761Y-134759761D01*
X106520000Y-134807380D01*
X106710476Y-134807380D01*
X106805714Y-134759761D01*
X106853333Y-134712142D01*
X106900952Y-134616904D01*
X106900952Y-134378809D01*
X106853333Y-134283571D01*
X106805714Y-134235952D01*
X106710476Y-134188333D01*
X106520000Y-134188333D01*
X106424761Y-134235952D01*
X106377142Y-134283571D01*
X106329523Y-134378809D01*
X107758095Y-134140714D02*
X107758095Y-134807380D01*
X107520000Y-133759761D02*
X107281904Y-134474047D01*
X107900952Y-134474047D01*
X108234285Y-134521666D02*
X108710476Y-134521666D01*
X108139047Y-134807380D02*
X108472380Y-133807380D01*
X108805714Y-134807380D01*
X109710476Y-134712142D02*
X109662857Y-134759761D01*
X109520000Y-134807380D01*
X109424761Y-134807380D01*
X109281904Y-134759761D01*
X109186666Y-134664523D01*
X109139047Y-134569285D01*
X109091428Y-134378809D01*
X109091428Y-134235952D01*
X109139047Y-134045476D01*
X109186666Y-133950238D01*
X109281904Y-133855000D01*
X109424761Y-133807380D01*
X109520000Y-133807380D01*
X109662857Y-133855000D01*
X109710476Y-133902619D01*
X107186666Y-85307380D02*
X107186666Y-86021666D01*
X107139047Y-86164523D01*
X107043809Y-86259761D01*
X106900952Y-86307380D01*
X106805714Y-86307380D01*
X107805714Y-85735952D02*
X107710476Y-85688333D01*
X107662857Y-85640714D01*
X107615238Y-85545476D01*
X107615238Y-85497857D01*
X107662857Y-85402619D01*
X107710476Y-85355000D01*
X107805714Y-85307380D01*
X107996190Y-85307380D01*
X108091428Y-85355000D01*
X108139047Y-85402619D01*
X108186666Y-85497857D01*
X108186666Y-85545476D01*
X108139047Y-85640714D01*
X108091428Y-85688333D01*
X107996190Y-85735952D01*
X107805714Y-85735952D01*
X107710476Y-85783571D01*
X107662857Y-85831190D01*
X107615238Y-85926428D01*
X107615238Y-86116904D01*
X107662857Y-86212142D01*
X107710476Y-86259761D01*
X107805714Y-86307380D01*
X107996190Y-86307380D01*
X108091428Y-86259761D01*
X108139047Y-86212142D01*
X108186666Y-86116904D01*
X108186666Y-85926428D01*
X108139047Y-85831190D01*
X108091428Y-85783571D01*
X107996190Y-85735952D01*
X72589047Y-128982380D02*
X72112857Y-128982380D01*
X72112857Y-127982380D01*
X73065238Y-128982380D02*
X72970000Y-128934761D01*
X72922380Y-128887142D01*
X72874761Y-128791904D01*
X72874761Y-128506190D01*
X72922380Y-128410952D01*
X72970000Y-128363333D01*
X73065238Y-128315714D01*
X73208095Y-128315714D01*
X73303333Y-128363333D01*
X73350952Y-128410952D01*
X73398571Y-128506190D01*
X73398571Y-128791904D01*
X73350952Y-128887142D01*
X73303333Y-128934761D01*
X73208095Y-128982380D01*
X73065238Y-128982380D01*
X74255714Y-128315714D02*
X74255714Y-129125238D01*
X74208095Y-129220476D01*
X74160476Y-129268095D01*
X74065238Y-129315714D01*
X73922380Y-129315714D01*
X73827142Y-129268095D01*
X74255714Y-128934761D02*
X74160476Y-128982380D01*
X73970000Y-128982380D01*
X73874761Y-128934761D01*
X73827142Y-128887142D01*
X73779523Y-128791904D01*
X73779523Y-128506190D01*
X73827142Y-128410952D01*
X73874761Y-128363333D01*
X73970000Y-128315714D01*
X74160476Y-128315714D01*
X74255714Y-128363333D01*
X74874761Y-128982380D02*
X74779523Y-128934761D01*
X74731904Y-128887142D01*
X74684285Y-128791904D01*
X74684285Y-128506190D01*
X74731904Y-128410952D01*
X74779523Y-128363333D01*
X74874761Y-128315714D01*
X75017619Y-128315714D01*
X75112857Y-128363333D01*
X75160476Y-128410952D01*
X75208095Y-128506190D01*
X75208095Y-128791904D01*
X75160476Y-128887142D01*
X75112857Y-128934761D01*
X75017619Y-128982380D01*
X74874761Y-128982380D01*
X75398571Y-129077619D02*
X76160476Y-129077619D01*
X76350952Y-128696666D02*
X76827142Y-128696666D01*
X76255714Y-128982380D02*
X76589047Y-127982380D01*
X76922380Y-128982380D01*
X77255714Y-128982380D02*
X77255714Y-127982380D01*
X77636666Y-127982380D01*
X77731904Y-128030000D01*
X77779523Y-128077619D01*
X77827142Y-128172857D01*
X77827142Y-128315714D01*
X77779523Y-128410952D01*
X77731904Y-128458571D01*
X77636666Y-128506190D01*
X77255714Y-128506190D01*
X78922380Y-129077619D02*
X78827142Y-129030000D01*
X78731904Y-128934761D01*
X78589047Y-128791904D01*
X78493809Y-128744285D01*
X78398571Y-128744285D01*
X78446190Y-128982380D02*
X78350952Y-128934761D01*
X78255714Y-128839523D01*
X78208095Y-128649047D01*
X78208095Y-128315714D01*
X78255714Y-128125238D01*
X78350952Y-128030000D01*
X78446190Y-127982380D01*
X78636666Y-127982380D01*
X78731904Y-128030000D01*
X78827142Y-128125238D01*
X78874761Y-128315714D01*
X78874761Y-128649047D01*
X78827142Y-128839523D01*
X78731904Y-128934761D01*
X78636666Y-128982380D01*
X78446190Y-128982380D01*
X380268571Y-134712142D02*
X380220952Y-134759761D01*
X380078095Y-134807380D01*
X379982857Y-134807380D01*
X379840000Y-134759761D01*
X379744761Y-134664523D01*
X379697142Y-134569285D01*
X379649523Y-134378809D01*
X379649523Y-134235952D01*
X379697142Y-134045476D01*
X379744761Y-133950238D01*
X379840000Y-133855000D01*
X379982857Y-133807380D01*
X380078095Y-133807380D01*
X380220952Y-133855000D01*
X380268571Y-133902619D01*
X381125714Y-133807380D02*
X380935238Y-133807380D01*
X380840000Y-133855000D01*
X380792380Y-133902619D01*
X380697142Y-134045476D01*
X380649523Y-134235952D01*
X380649523Y-134616904D01*
X380697142Y-134712142D01*
X380744761Y-134759761D01*
X380840000Y-134807380D01*
X381030476Y-134807380D01*
X381125714Y-134759761D01*
X381173333Y-134712142D01*
X381220952Y-134616904D01*
X381220952Y-134378809D01*
X381173333Y-134283571D01*
X381125714Y-134235952D01*
X381030476Y-134188333D01*
X380840000Y-134188333D01*
X380744761Y-134235952D01*
X380697142Y-134283571D01*
X380649523Y-134378809D01*
X382078095Y-134140714D02*
X382078095Y-134807380D01*
X381840000Y-133759761D02*
X381601904Y-134474047D01*
X382220952Y-134474047D01*
X382554285Y-134521666D02*
X383030476Y-134521666D01*
X382459047Y-134807380D02*
X382792380Y-133807380D01*
X383125714Y-134807380D01*
X384030476Y-134712142D02*
X383982857Y-134759761D01*
X383840000Y-134807380D01*
X383744761Y-134807380D01*
X383601904Y-134759761D01*
X383506666Y-134664523D01*
X383459047Y-134569285D01*
X383411428Y-134378809D01*
X383411428Y-134235952D01*
X383459047Y-134045476D01*
X383506666Y-133950238D01*
X383601904Y-133855000D01*
X383744761Y-133807380D01*
X383840000Y-133807380D01*
X383982857Y-133855000D01*
X384030476Y-133902619D01*
X381506666Y-85307380D02*
X381506666Y-86021666D01*
X381459047Y-86164523D01*
X381363809Y-86259761D01*
X381220952Y-86307380D01*
X381125714Y-86307380D01*
X382411428Y-85307380D02*
X382220952Y-85307380D01*
X382125714Y-85355000D01*
X382078095Y-85402619D01*
X381982857Y-85545476D01*
X381935238Y-85735952D01*
X381935238Y-86116904D01*
X381982857Y-86212142D01*
X382030476Y-86259761D01*
X382125714Y-86307380D01*
X382316190Y-86307380D01*
X382411428Y-86259761D01*
X382459047Y-86212142D01*
X382506666Y-86116904D01*
X382506666Y-85878809D01*
X382459047Y-85783571D01*
X382411428Y-85735952D01*
X382316190Y-85688333D01*
X382125714Y-85688333D01*
X382030476Y-85735952D01*
X381982857Y-85783571D01*
X381935238Y-85878809D01*
X309148571Y-134712142D02*
X309100952Y-134759761D01*
X308958095Y-134807380D01*
X308862857Y-134807380D01*
X308720000Y-134759761D01*
X308624761Y-134664523D01*
X308577142Y-134569285D01*
X308529523Y-134378809D01*
X308529523Y-134235952D01*
X308577142Y-134045476D01*
X308624761Y-133950238D01*
X308720000Y-133855000D01*
X308862857Y-133807380D01*
X308958095Y-133807380D01*
X309100952Y-133855000D01*
X309148571Y-133902619D01*
X310005714Y-133807380D02*
X309815238Y-133807380D01*
X309720000Y-133855000D01*
X309672380Y-133902619D01*
X309577142Y-134045476D01*
X309529523Y-134235952D01*
X309529523Y-134616904D01*
X309577142Y-134712142D01*
X309624761Y-134759761D01*
X309720000Y-134807380D01*
X309910476Y-134807380D01*
X310005714Y-134759761D01*
X310053333Y-134712142D01*
X310100952Y-134616904D01*
X310100952Y-134378809D01*
X310053333Y-134283571D01*
X310005714Y-134235952D01*
X309910476Y-134188333D01*
X309720000Y-134188333D01*
X309624761Y-134235952D01*
X309577142Y-134283571D01*
X309529523Y-134378809D01*
X310958095Y-134140714D02*
X310958095Y-134807380D01*
X310720000Y-133759761D02*
X310481904Y-134474047D01*
X311100952Y-134474047D01*
X311434285Y-134521666D02*
X311910476Y-134521666D01*
X311339047Y-134807380D02*
X311672380Y-133807380D01*
X312005714Y-134807380D01*
X312910476Y-134712142D02*
X312862857Y-134759761D01*
X312720000Y-134807380D01*
X312624761Y-134807380D01*
X312481904Y-134759761D01*
X312386666Y-134664523D01*
X312339047Y-134569285D01*
X312291428Y-134378809D01*
X312291428Y-134235952D01*
X312339047Y-134045476D01*
X312386666Y-133950238D01*
X312481904Y-133855000D01*
X312624761Y-133807380D01*
X312720000Y-133807380D01*
X312862857Y-133855000D01*
X312910476Y-133902619D01*
X310386666Y-85307380D02*
X310386666Y-86021666D01*
X310339047Y-86164523D01*
X310243809Y-86259761D01*
X310100952Y-86307380D01*
X310005714Y-86307380D01*
X311339047Y-85307380D02*
X310862857Y-85307380D01*
X310815238Y-85783571D01*
X310862857Y-85735952D01*
X310958095Y-85688333D01*
X311196190Y-85688333D01*
X311291428Y-85735952D01*
X311339047Y-85783571D01*
X311386666Y-85878809D01*
X311386666Y-86116904D01*
X311339047Y-86212142D01*
X311291428Y-86259761D01*
X311196190Y-86307380D01*
X310958095Y-86307380D01*
X310862857Y-86259761D01*
X310815238Y-86212142D01*
X238028571Y-134712142D02*
X237980952Y-134759761D01*
X237838095Y-134807380D01*
X237742857Y-134807380D01*
X237600000Y-134759761D01*
X237504761Y-134664523D01*
X237457142Y-134569285D01*
X237409523Y-134378809D01*
X237409523Y-134235952D01*
X237457142Y-134045476D01*
X237504761Y-133950238D01*
X237600000Y-133855000D01*
X237742857Y-133807380D01*
X237838095Y-133807380D01*
X237980952Y-133855000D01*
X238028571Y-133902619D01*
X238885714Y-133807380D02*
X238695238Y-133807380D01*
X238600000Y-133855000D01*
X238552380Y-133902619D01*
X238457142Y-134045476D01*
X238409523Y-134235952D01*
X238409523Y-134616904D01*
X238457142Y-134712142D01*
X238504761Y-134759761D01*
X238600000Y-134807380D01*
X238790476Y-134807380D01*
X238885714Y-134759761D01*
X238933333Y-134712142D01*
X238980952Y-134616904D01*
X238980952Y-134378809D01*
X238933333Y-134283571D01*
X238885714Y-134235952D01*
X238790476Y-134188333D01*
X238600000Y-134188333D01*
X238504761Y-134235952D01*
X238457142Y-134283571D01*
X238409523Y-134378809D01*
X239838095Y-134140714D02*
X239838095Y-134807380D01*
X239600000Y-133759761D02*
X239361904Y-134474047D01*
X239980952Y-134474047D01*
X240314285Y-134521666D02*
X240790476Y-134521666D01*
X240219047Y-134807380D02*
X240552380Y-133807380D01*
X240885714Y-134807380D01*
X241790476Y-134712142D02*
X241742857Y-134759761D01*
X241600000Y-134807380D01*
X241504761Y-134807380D01*
X241361904Y-134759761D01*
X241266666Y-134664523D01*
X241219047Y-134569285D01*
X241171428Y-134378809D01*
X241171428Y-134235952D01*
X241219047Y-134045476D01*
X241266666Y-133950238D01*
X241361904Y-133855000D01*
X241504761Y-133807380D01*
X241600000Y-133807380D01*
X241742857Y-133855000D01*
X241790476Y-133902619D01*
X239266666Y-85307380D02*
X239266666Y-86021666D01*
X239219047Y-86164523D01*
X239123809Y-86259761D01*
X238980952Y-86307380D01*
X238885714Y-86307380D01*
X240171428Y-85640714D02*
X240171428Y-86307380D01*
X239933333Y-85259761D02*
X239695238Y-85974047D01*
X240314285Y-85974047D01*
X166908571Y-134712142D02*
X166860952Y-134759761D01*
X166718095Y-134807380D01*
X166622857Y-134807380D01*
X166480000Y-134759761D01*
X166384761Y-134664523D01*
X166337142Y-134569285D01*
X166289523Y-134378809D01*
X166289523Y-134235952D01*
X166337142Y-134045476D01*
X166384761Y-133950238D01*
X166480000Y-133855000D01*
X166622857Y-133807380D01*
X166718095Y-133807380D01*
X166860952Y-133855000D01*
X166908571Y-133902619D01*
X167765714Y-133807380D02*
X167575238Y-133807380D01*
X167480000Y-133855000D01*
X167432380Y-133902619D01*
X167337142Y-134045476D01*
X167289523Y-134235952D01*
X167289523Y-134616904D01*
X167337142Y-134712142D01*
X167384761Y-134759761D01*
X167480000Y-134807380D01*
X167670476Y-134807380D01*
X167765714Y-134759761D01*
X167813333Y-134712142D01*
X167860952Y-134616904D01*
X167860952Y-134378809D01*
X167813333Y-134283571D01*
X167765714Y-134235952D01*
X167670476Y-134188333D01*
X167480000Y-134188333D01*
X167384761Y-134235952D01*
X167337142Y-134283571D01*
X167289523Y-134378809D01*
X168718095Y-134140714D02*
X168718095Y-134807380D01*
X168480000Y-133759761D02*
X168241904Y-134474047D01*
X168860952Y-134474047D01*
X169194285Y-134521666D02*
X169670476Y-134521666D01*
X169099047Y-134807380D02*
X169432380Y-133807380D01*
X169765714Y-134807380D01*
X170670476Y-134712142D02*
X170622857Y-134759761D01*
X170480000Y-134807380D01*
X170384761Y-134807380D01*
X170241904Y-134759761D01*
X170146666Y-134664523D01*
X170099047Y-134569285D01*
X170051428Y-134378809D01*
X170051428Y-134235952D01*
X170099047Y-134045476D01*
X170146666Y-133950238D01*
X170241904Y-133855000D01*
X170384761Y-133807380D01*
X170480000Y-133807380D01*
X170622857Y-133855000D01*
X170670476Y-133902619D01*
X168146666Y-85307380D02*
X168146666Y-86021666D01*
X168099047Y-86164523D01*
X168003809Y-86259761D01*
X167860952Y-86307380D01*
X167765714Y-86307380D01*
X168527619Y-85307380D02*
X169146666Y-85307380D01*
X168813333Y-85688333D01*
X168956190Y-85688333D01*
X169051428Y-85735952D01*
X169099047Y-85783571D01*
X169146666Y-85878809D01*
X169146666Y-86116904D01*
X169099047Y-86212142D01*
X169051428Y-86259761D01*
X168956190Y-86307380D01*
X168670476Y-86307380D01*
X168575238Y-86259761D01*
X168527619Y-86212142D01*
X95788571Y-134712142D02*
X95740952Y-134759761D01*
X95598095Y-134807380D01*
X95502857Y-134807380D01*
X95360000Y-134759761D01*
X95264761Y-134664523D01*
X95217142Y-134569285D01*
X95169523Y-134378809D01*
X95169523Y-134235952D01*
X95217142Y-134045476D01*
X95264761Y-133950238D01*
X95360000Y-133855000D01*
X95502857Y-133807380D01*
X95598095Y-133807380D01*
X95740952Y-133855000D01*
X95788571Y-133902619D01*
X96645714Y-133807380D02*
X96455238Y-133807380D01*
X96360000Y-133855000D01*
X96312380Y-133902619D01*
X96217142Y-134045476D01*
X96169523Y-134235952D01*
X96169523Y-134616904D01*
X96217142Y-134712142D01*
X96264761Y-134759761D01*
X96360000Y-134807380D01*
X96550476Y-134807380D01*
X96645714Y-134759761D01*
X96693333Y-134712142D01*
X96740952Y-134616904D01*
X96740952Y-134378809D01*
X96693333Y-134283571D01*
X96645714Y-134235952D01*
X96550476Y-134188333D01*
X96360000Y-134188333D01*
X96264761Y-134235952D01*
X96217142Y-134283571D01*
X96169523Y-134378809D01*
X97598095Y-134140714D02*
X97598095Y-134807380D01*
X97360000Y-133759761D02*
X97121904Y-134474047D01*
X97740952Y-134474047D01*
X98074285Y-134521666D02*
X98550476Y-134521666D01*
X97979047Y-134807380D02*
X98312380Y-133807380D01*
X98645714Y-134807380D01*
X99550476Y-134712142D02*
X99502857Y-134759761D01*
X99360000Y-134807380D01*
X99264761Y-134807380D01*
X99121904Y-134759761D01*
X99026666Y-134664523D01*
X98979047Y-134569285D01*
X98931428Y-134378809D01*
X98931428Y-134235952D01*
X98979047Y-134045476D01*
X99026666Y-133950238D01*
X99121904Y-133855000D01*
X99264761Y-133807380D01*
X99360000Y-133807380D01*
X99502857Y-133855000D01*
X99550476Y-133902619D01*
X97026666Y-85307380D02*
X97026666Y-86021666D01*
X96979047Y-86164523D01*
X96883809Y-86259761D01*
X96740952Y-86307380D01*
X96645714Y-86307380D01*
X97455238Y-85402619D02*
X97502857Y-85355000D01*
X97598095Y-85307380D01*
X97836190Y-85307380D01*
X97931428Y-85355000D01*
X97979047Y-85402619D01*
X98026666Y-85497857D01*
X98026666Y-85593095D01*
X97979047Y-85735952D01*
X97407619Y-86307380D01*
X98026666Y-86307380D01*
X24668571Y-134712142D02*
X24620952Y-134759761D01*
X24478095Y-134807380D01*
X24382857Y-134807380D01*
X24240000Y-134759761D01*
X24144761Y-134664523D01*
X24097142Y-134569285D01*
X24049523Y-134378809D01*
X24049523Y-134235952D01*
X24097142Y-134045476D01*
X24144761Y-133950238D01*
X24240000Y-133855000D01*
X24382857Y-133807380D01*
X24478095Y-133807380D01*
X24620952Y-133855000D01*
X24668571Y-133902619D01*
X25525714Y-133807380D02*
X25335238Y-133807380D01*
X25240000Y-133855000D01*
X25192380Y-133902619D01*
X25097142Y-134045476D01*
X25049523Y-134235952D01*
X25049523Y-134616904D01*
X25097142Y-134712142D01*
X25144761Y-134759761D01*
X25240000Y-134807380D01*
X25430476Y-134807380D01*
X25525714Y-134759761D01*
X25573333Y-134712142D01*
X25620952Y-134616904D01*
X25620952Y-134378809D01*
X25573333Y-134283571D01*
X25525714Y-134235952D01*
X25430476Y-134188333D01*
X25240000Y-134188333D01*
X25144761Y-134235952D01*
X25097142Y-134283571D01*
X25049523Y-134378809D01*
X26478095Y-134140714D02*
X26478095Y-134807380D01*
X26240000Y-133759761D02*
X26001904Y-134474047D01*
X26620952Y-134474047D01*
X26954285Y-134521666D02*
X27430476Y-134521666D01*
X26859047Y-134807380D02*
X27192380Y-133807380D01*
X27525714Y-134807380D01*
X28430476Y-134712142D02*
X28382857Y-134759761D01*
X28240000Y-134807380D01*
X28144761Y-134807380D01*
X28001904Y-134759761D01*
X27906666Y-134664523D01*
X27859047Y-134569285D01*
X27811428Y-134378809D01*
X27811428Y-134235952D01*
X27859047Y-134045476D01*
X27906666Y-133950238D01*
X28001904Y-133855000D01*
X28144761Y-133807380D01*
X28240000Y-133807380D01*
X28382857Y-133855000D01*
X28430476Y-133902619D01*
X25906666Y-85307380D02*
X25906666Y-86021666D01*
X25859047Y-86164523D01*
X25763809Y-86259761D01*
X25620952Y-86307380D01*
X25525714Y-86307380D01*
X26906666Y-86307380D02*
X26335238Y-86307380D01*
X26620952Y-86307380D02*
X26620952Y-85307380D01*
X26525714Y-85450238D01*
X26430476Y-85545476D01*
X26335238Y-85593095D01*
M02*
