M48
; DRILL file {KiCad 5.1.8} date Mon Dec 14 16:47:22 2020
; FORMAT={-:-/ absolute / metric / decimal}
; #@! TF.CreationDate,2020-12-14T16:47:22+01:00
; #@! TF.GenerationSoftware,Kicad,Pcbnew,5.1.8
; #@! TF.FileFunction,NonPlated,1,2,NPTH
FMAT,2
METRIC
T1C2.850
%
G90
G05
T1
X320.58Y-40.855
X320.58Y-130.855
X310.42Y-40.855
X310.42Y-130.855
X239.3Y-40.855
X239.3Y-130.855
X249.46Y-40.855
X249.46Y-130.855
X25.94Y-40.855
X25.94Y-130.855
X178.34Y-40.855
X178.34Y-130.855
X168.18Y-40.855
X168.18Y-130.855
X107.22Y-40.855
X107.22Y-130.855
X381.54Y-40.855
X381.54Y-130.855
X391.7Y-40.855
X391.7Y-130.855
X36.1Y-40.855
X36.1Y-130.855
X97.06Y-40.855
X97.06Y-130.855
T0
M30
