G04 #@! TF.GenerationSoftware,KiCad,Pcbnew,5.1.8*
G04 #@! TF.CreationDate,2020-12-14T16:47:20+01:00*
G04 #@! TF.ProjectId,main,6d61696e-2e6b-4696-9361-645f70636258,v1.0.0*
G04 #@! TF.SameCoordinates,Original*
G04 #@! TF.FileFunction,Other,Fab,Bot*
%FSLAX46Y46*%
G04 Gerber Fmt 4.6, Leading zero omitted, Abs format (unit mm)*
G04 Created by KiCad (PCBNEW 5.1.8) date 2020-12-14 16:47:20*
%MOMM*%
%LPD*%
G01*
G04 APERTURE LIST*
%ADD10C,0.100000*%
%ADD11C,0.150000*%
%ADD12C,0.120000*%
%ADD13C,0.080000*%
%ADD14C,0.060000*%
G04 APERTURE END LIST*
D10*
X353060000Y-56355000D02*
G75*
G03*
X353060000Y-56355000I-2000000J0D01*
G01*
X356560000Y-69855000D02*
X356560000Y-83855000D01*
X356560000Y-83855000D02*
X345560000Y-83855000D01*
X345560000Y-83855000D02*
X345560000Y-69855000D01*
X356560000Y-69855000D02*
X357060000Y-69855000D01*
X357060000Y-69855000D02*
X357060000Y-50855000D01*
X357060000Y-50855000D02*
X345060000Y-50855000D01*
X345060000Y-50855000D02*
X345060000Y-69855000D01*
X345060000Y-69855000D02*
X345560000Y-69855000D01*
X412200000Y-62485000D02*
X412700000Y-62485000D01*
X412200000Y-43485000D02*
X412200000Y-62485000D01*
X424200000Y-43485000D02*
X412200000Y-43485000D01*
X424200000Y-62485000D02*
X424200000Y-43485000D01*
X423700000Y-62485000D02*
X424200000Y-62485000D01*
X412700000Y-76485000D02*
X412700000Y-62485000D01*
X423700000Y-76485000D02*
X412700000Y-76485000D01*
X423700000Y-62485000D02*
X423700000Y-76485000D01*
X420200000Y-48985000D02*
G75*
G03*
X420200000Y-48985000I-2000000J0D01*
G01*
X399200000Y-62485000D02*
X399700000Y-62485000D01*
X399200000Y-43485000D02*
X399200000Y-62485000D01*
X411200000Y-43485000D02*
X399200000Y-43485000D01*
X411200000Y-62485000D02*
X411200000Y-43485000D01*
X410700000Y-62485000D02*
X411200000Y-62485000D01*
X399700000Y-76485000D02*
X399700000Y-62485000D01*
X410700000Y-76485000D02*
X399700000Y-76485000D01*
X410700000Y-62485000D02*
X410700000Y-76485000D01*
X407200000Y-48985000D02*
G75*
G03*
X407200000Y-48985000I-2000000J0D01*
G01*
X425200000Y-62485000D02*
X425700000Y-62485000D01*
X425200000Y-43485000D02*
X425200000Y-62485000D01*
X437200000Y-43485000D02*
X425200000Y-43485000D01*
X437200000Y-62485000D02*
X437200000Y-43485000D01*
X436700000Y-62485000D02*
X437200000Y-62485000D01*
X425700000Y-76485000D02*
X425700000Y-62485000D01*
X436700000Y-76485000D02*
X425700000Y-76485000D01*
X436700000Y-62485000D02*
X436700000Y-76485000D01*
X433200000Y-48985000D02*
G75*
G03*
X433200000Y-48985000I-2000000J0D01*
G01*
X48475000Y-81775000D02*
X49725000Y-81775000D01*
X49725000Y-81775000D02*
X49725000Y-79775000D01*
X49725000Y-79775000D02*
X48475000Y-79775000D01*
X48475000Y-79775000D02*
X48475000Y-81775000D01*
X387320000Y-90135000D02*
X386520000Y-90135000D01*
X386520000Y-90135000D02*
X386520000Y-91735000D01*
X386520000Y-91735000D02*
X387320000Y-91735000D01*
X387320000Y-91735000D02*
X387320000Y-90135000D01*
X386520000Y-81575000D02*
X387320000Y-81575000D01*
X387320000Y-81575000D02*
X387320000Y-79975000D01*
X387320000Y-79975000D02*
X386520000Y-79975000D01*
X386520000Y-79975000D02*
X386520000Y-81575000D01*
X316200000Y-90135000D02*
X315400000Y-90135000D01*
X315400000Y-90135000D02*
X315400000Y-91735000D01*
X315400000Y-91735000D02*
X316200000Y-91735000D01*
X316200000Y-91735000D02*
X316200000Y-90135000D01*
X315400000Y-81575000D02*
X316200000Y-81575000D01*
X316200000Y-81575000D02*
X316200000Y-79975000D01*
X316200000Y-79975000D02*
X315400000Y-79975000D01*
X315400000Y-79975000D02*
X315400000Y-81575000D01*
X245080000Y-90135000D02*
X244280000Y-90135000D01*
X244280000Y-90135000D02*
X244280000Y-91735000D01*
X244280000Y-91735000D02*
X245080000Y-91735000D01*
X245080000Y-91735000D02*
X245080000Y-90135000D01*
X173960000Y-89881000D02*
X173160000Y-89881000D01*
X173160000Y-89881000D02*
X173160000Y-91481000D01*
X173160000Y-91481000D02*
X173960000Y-91481000D01*
X173960000Y-91481000D02*
X173960000Y-89881000D01*
X244280000Y-81829000D02*
X245080000Y-81829000D01*
X245080000Y-81829000D02*
X245080000Y-80229000D01*
X245080000Y-80229000D02*
X244280000Y-80229000D01*
X244280000Y-80229000D02*
X244280000Y-81829000D01*
X173160000Y-81575000D02*
X173960000Y-81575000D01*
X173960000Y-81575000D02*
X173960000Y-79975000D01*
X173960000Y-79975000D02*
X173160000Y-79975000D01*
X173160000Y-79975000D02*
X173160000Y-81575000D01*
X102840000Y-90135000D02*
X102040000Y-90135000D01*
X102040000Y-90135000D02*
X102040000Y-91735000D01*
X102040000Y-91735000D02*
X102840000Y-91735000D01*
X102840000Y-91735000D02*
X102840000Y-90135000D01*
X102040000Y-81575000D02*
X102840000Y-81575000D01*
X102840000Y-81575000D02*
X102840000Y-79975000D01*
X102840000Y-79975000D02*
X102040000Y-79975000D01*
X102040000Y-79975000D02*
X102040000Y-81575000D01*
X31720000Y-90135000D02*
X30920000Y-90135000D01*
X30920000Y-90135000D02*
X30920000Y-91735000D01*
X30920000Y-91735000D02*
X31720000Y-91735000D01*
X31720000Y-91735000D02*
X31720000Y-90135000D01*
X30920000Y-81575000D02*
X31720000Y-81575000D01*
X31720000Y-81575000D02*
X31720000Y-79975000D01*
X31720000Y-79975000D02*
X30920000Y-79975000D01*
X30920000Y-79975000D02*
X30920000Y-81575000D01*
D11*
X344917142Y-49819285D02*
X344964761Y-49771666D01*
X345012380Y-49628809D01*
X345012380Y-49533571D01*
X344964761Y-49390714D01*
X344869523Y-49295476D01*
X344774285Y-49247857D01*
X344583809Y-49200238D01*
X344440952Y-49200238D01*
X344250476Y-49247857D01*
X344155238Y-49295476D01*
X344060000Y-49390714D01*
X344012380Y-49533571D01*
X344012380Y-49628809D01*
X344060000Y-49771666D01*
X344107619Y-49819285D01*
X345012380Y-50390714D02*
X344964761Y-50295476D01*
X344917142Y-50247857D01*
X344821904Y-50200238D01*
X344536190Y-50200238D01*
X344440952Y-50247857D01*
X344393333Y-50295476D01*
X344345714Y-50390714D01*
X344345714Y-50533571D01*
X344393333Y-50628809D01*
X344440952Y-50676428D01*
X344536190Y-50724047D01*
X344821904Y-50724047D01*
X344917142Y-50676428D01*
X344964761Y-50628809D01*
X345012380Y-50533571D01*
X345012380Y-50390714D01*
X344345714Y-51152619D02*
X345012380Y-51152619D01*
X344440952Y-51152619D02*
X344393333Y-51200238D01*
X344345714Y-51295476D01*
X344345714Y-51438333D01*
X344393333Y-51533571D01*
X344488571Y-51581190D01*
X345012380Y-51581190D01*
X344345714Y-52057380D02*
X345012380Y-52057380D01*
X344440952Y-52057380D02*
X344393333Y-52105000D01*
X344345714Y-52200238D01*
X344345714Y-52343095D01*
X344393333Y-52438333D01*
X344488571Y-52485952D01*
X345012380Y-52485952D01*
X345107619Y-52724047D02*
X345107619Y-53485952D01*
X344012380Y-53914523D02*
X344012380Y-54009761D01*
X344060000Y-54105000D01*
X344107619Y-54152619D01*
X344202857Y-54200238D01*
X344393333Y-54247857D01*
X344631428Y-54247857D01*
X344821904Y-54200238D01*
X344917142Y-54152619D01*
X344964761Y-54105000D01*
X345012380Y-54009761D01*
X345012380Y-53914523D01*
X344964761Y-53819285D01*
X344917142Y-53771666D01*
X344821904Y-53724047D01*
X344631428Y-53676428D01*
X344393333Y-53676428D01*
X344202857Y-53724047D01*
X344107619Y-53771666D01*
X344060000Y-53819285D01*
X344012380Y-53914523D01*
X345012380Y-55200238D02*
X345012380Y-54628809D01*
X345012380Y-54914523D02*
X344012380Y-54914523D01*
X344155238Y-54819285D01*
X344250476Y-54724047D01*
X344298095Y-54628809D01*
X345012380Y-55533571D02*
X344345714Y-56057380D01*
X344345714Y-55533571D02*
X345012380Y-56057380D01*
X344012380Y-56628809D02*
X344012380Y-56724047D01*
X344060000Y-56819285D01*
X344107619Y-56866904D01*
X344202857Y-56914523D01*
X344393333Y-56962142D01*
X344631428Y-56962142D01*
X344821904Y-56914523D01*
X344917142Y-56866904D01*
X344964761Y-56819285D01*
X345012380Y-56724047D01*
X345012380Y-56628809D01*
X344964761Y-56533571D01*
X344917142Y-56485952D01*
X344821904Y-56438333D01*
X344631428Y-56390714D01*
X344393333Y-56390714D01*
X344202857Y-56438333D01*
X344107619Y-56485952D01*
X344060000Y-56533571D01*
X344012380Y-56628809D01*
X345012380Y-57914523D02*
X345012380Y-57343095D01*
X345012380Y-57628809D02*
X344012380Y-57628809D01*
X344155238Y-57533571D01*
X344250476Y-57438333D01*
X344298095Y-57343095D01*
X345107619Y-58105000D02*
X345107619Y-58866904D01*
X344488571Y-59438333D02*
X344488571Y-59105000D01*
X345012380Y-59105000D02*
X344012380Y-59105000D01*
X344012380Y-59581190D01*
X344964761Y-60343095D02*
X345012380Y-60247857D01*
X345012380Y-60057380D01*
X344964761Y-59962142D01*
X344869523Y-59914523D01*
X344488571Y-59914523D01*
X344393333Y-59962142D01*
X344345714Y-60057380D01*
X344345714Y-60247857D01*
X344393333Y-60343095D01*
X344488571Y-60390714D01*
X344583809Y-60390714D01*
X344679047Y-59914523D01*
X345012380Y-60819285D02*
X344345714Y-60819285D01*
X344440952Y-60819285D02*
X344393333Y-60866904D01*
X344345714Y-60962142D01*
X344345714Y-61105000D01*
X344393333Y-61200238D01*
X344488571Y-61247857D01*
X345012380Y-61247857D01*
X344488571Y-61247857D02*
X344393333Y-61295476D01*
X344345714Y-61390714D01*
X344345714Y-61533571D01*
X344393333Y-61628809D01*
X344488571Y-61676428D01*
X345012380Y-61676428D01*
X345012380Y-62581190D02*
X344488571Y-62581190D01*
X344393333Y-62533571D01*
X344345714Y-62438333D01*
X344345714Y-62247857D01*
X344393333Y-62152619D01*
X344964761Y-62581190D02*
X345012380Y-62485952D01*
X345012380Y-62247857D01*
X344964761Y-62152619D01*
X344869523Y-62105000D01*
X344774285Y-62105000D01*
X344679047Y-62152619D01*
X344631428Y-62247857D01*
X344631428Y-62485952D01*
X344583809Y-62581190D01*
X345012380Y-63200238D02*
X344964761Y-63105000D01*
X344869523Y-63057380D01*
X344012380Y-63057380D01*
X344964761Y-63962142D02*
X345012380Y-63866904D01*
X345012380Y-63676428D01*
X344964761Y-63581190D01*
X344869523Y-63533571D01*
X344488571Y-63533571D01*
X344393333Y-63581190D01*
X344345714Y-63676428D01*
X344345714Y-63866904D01*
X344393333Y-63962142D01*
X344488571Y-64009761D01*
X344583809Y-64009761D01*
X344679047Y-63533571D01*
D12*
X350621904Y-55707380D02*
X351193333Y-55707380D01*
X351307619Y-55669285D01*
X351383809Y-55593095D01*
X351421904Y-55478809D01*
X351421904Y-55402619D01*
X351421904Y-56507380D02*
X351421904Y-56050238D01*
X351421904Y-56278809D02*
X350621904Y-56278809D01*
X350736190Y-56202619D01*
X350812380Y-56126428D01*
X350850476Y-56050238D01*
X350621904Y-57193095D02*
X350621904Y-57040714D01*
X350660000Y-56964523D01*
X350698095Y-56926428D01*
X350812380Y-56850238D01*
X350964761Y-56812142D01*
X351269523Y-56812142D01*
X351345714Y-56850238D01*
X351383809Y-56888333D01*
X351421904Y-56964523D01*
X351421904Y-57116904D01*
X351383809Y-57193095D01*
X351345714Y-57231190D01*
X351269523Y-57269285D01*
X351079047Y-57269285D01*
X351002857Y-57231190D01*
X350964761Y-57193095D01*
X350926666Y-57116904D01*
X350926666Y-56964523D01*
X350964761Y-56888333D01*
X351002857Y-56850238D01*
X351079047Y-56812142D01*
D11*
X412057142Y-42449285D02*
X412104761Y-42401666D01*
X412152380Y-42258809D01*
X412152380Y-42163571D01*
X412104761Y-42020714D01*
X412009523Y-41925476D01*
X411914285Y-41877857D01*
X411723809Y-41830238D01*
X411580952Y-41830238D01*
X411390476Y-41877857D01*
X411295238Y-41925476D01*
X411200000Y-42020714D01*
X411152380Y-42163571D01*
X411152380Y-42258809D01*
X411200000Y-42401666D01*
X411247619Y-42449285D01*
X412152380Y-43020714D02*
X412104761Y-42925476D01*
X412057142Y-42877857D01*
X411961904Y-42830238D01*
X411676190Y-42830238D01*
X411580952Y-42877857D01*
X411533333Y-42925476D01*
X411485714Y-43020714D01*
X411485714Y-43163571D01*
X411533333Y-43258809D01*
X411580952Y-43306428D01*
X411676190Y-43354047D01*
X411961904Y-43354047D01*
X412057142Y-43306428D01*
X412104761Y-43258809D01*
X412152380Y-43163571D01*
X412152380Y-43020714D01*
X411485714Y-43782619D02*
X412152380Y-43782619D01*
X411580952Y-43782619D02*
X411533333Y-43830238D01*
X411485714Y-43925476D01*
X411485714Y-44068333D01*
X411533333Y-44163571D01*
X411628571Y-44211190D01*
X412152380Y-44211190D01*
X411485714Y-44687380D02*
X412152380Y-44687380D01*
X411580952Y-44687380D02*
X411533333Y-44735000D01*
X411485714Y-44830238D01*
X411485714Y-44973095D01*
X411533333Y-45068333D01*
X411628571Y-45115952D01*
X412152380Y-45115952D01*
X412247619Y-45354047D02*
X412247619Y-46115952D01*
X411152380Y-46544523D02*
X411152380Y-46639761D01*
X411200000Y-46735000D01*
X411247619Y-46782619D01*
X411342857Y-46830238D01*
X411533333Y-46877857D01*
X411771428Y-46877857D01*
X411961904Y-46830238D01*
X412057142Y-46782619D01*
X412104761Y-46735000D01*
X412152380Y-46639761D01*
X412152380Y-46544523D01*
X412104761Y-46449285D01*
X412057142Y-46401666D01*
X411961904Y-46354047D01*
X411771428Y-46306428D01*
X411533333Y-46306428D01*
X411342857Y-46354047D01*
X411247619Y-46401666D01*
X411200000Y-46449285D01*
X411152380Y-46544523D01*
X412152380Y-47830238D02*
X412152380Y-47258809D01*
X412152380Y-47544523D02*
X411152380Y-47544523D01*
X411295238Y-47449285D01*
X411390476Y-47354047D01*
X411438095Y-47258809D01*
X412152380Y-48163571D02*
X411485714Y-48687380D01*
X411485714Y-48163571D02*
X412152380Y-48687380D01*
X411152380Y-49258809D02*
X411152380Y-49354047D01*
X411200000Y-49449285D01*
X411247619Y-49496904D01*
X411342857Y-49544523D01*
X411533333Y-49592142D01*
X411771428Y-49592142D01*
X411961904Y-49544523D01*
X412057142Y-49496904D01*
X412104761Y-49449285D01*
X412152380Y-49354047D01*
X412152380Y-49258809D01*
X412104761Y-49163571D01*
X412057142Y-49115952D01*
X411961904Y-49068333D01*
X411771428Y-49020714D01*
X411533333Y-49020714D01*
X411342857Y-49068333D01*
X411247619Y-49115952D01*
X411200000Y-49163571D01*
X411152380Y-49258809D01*
X412152380Y-50544523D02*
X412152380Y-49973095D01*
X412152380Y-50258809D02*
X411152380Y-50258809D01*
X411295238Y-50163571D01*
X411390476Y-50068333D01*
X411438095Y-49973095D01*
X412247619Y-50735000D02*
X412247619Y-51496904D01*
X411628571Y-52068333D02*
X411628571Y-51735000D01*
X412152380Y-51735000D02*
X411152380Y-51735000D01*
X411152380Y-52211190D01*
X412104761Y-52973095D02*
X412152380Y-52877857D01*
X412152380Y-52687380D01*
X412104761Y-52592142D01*
X412009523Y-52544523D01*
X411628571Y-52544523D01*
X411533333Y-52592142D01*
X411485714Y-52687380D01*
X411485714Y-52877857D01*
X411533333Y-52973095D01*
X411628571Y-53020714D01*
X411723809Y-53020714D01*
X411819047Y-52544523D01*
X412152380Y-53449285D02*
X411485714Y-53449285D01*
X411580952Y-53449285D02*
X411533333Y-53496904D01*
X411485714Y-53592142D01*
X411485714Y-53735000D01*
X411533333Y-53830238D01*
X411628571Y-53877857D01*
X412152380Y-53877857D01*
X411628571Y-53877857D02*
X411533333Y-53925476D01*
X411485714Y-54020714D01*
X411485714Y-54163571D01*
X411533333Y-54258809D01*
X411628571Y-54306428D01*
X412152380Y-54306428D01*
X412152380Y-55211190D02*
X411628571Y-55211190D01*
X411533333Y-55163571D01*
X411485714Y-55068333D01*
X411485714Y-54877857D01*
X411533333Y-54782619D01*
X412104761Y-55211190D02*
X412152380Y-55115952D01*
X412152380Y-54877857D01*
X412104761Y-54782619D01*
X412009523Y-54735000D01*
X411914285Y-54735000D01*
X411819047Y-54782619D01*
X411771428Y-54877857D01*
X411771428Y-55115952D01*
X411723809Y-55211190D01*
X412152380Y-55830238D02*
X412104761Y-55735000D01*
X412009523Y-55687380D01*
X411152380Y-55687380D01*
X412104761Y-56592142D02*
X412152380Y-56496904D01*
X412152380Y-56306428D01*
X412104761Y-56211190D01*
X412009523Y-56163571D01*
X411628571Y-56163571D01*
X411533333Y-56211190D01*
X411485714Y-56306428D01*
X411485714Y-56496904D01*
X411533333Y-56592142D01*
X411628571Y-56639761D01*
X411723809Y-56639761D01*
X411819047Y-56163571D01*
D12*
X417761904Y-48337380D02*
X418333333Y-48337380D01*
X418447619Y-48299285D01*
X418523809Y-48223095D01*
X418561904Y-48108809D01*
X418561904Y-48032619D01*
X418561904Y-49137380D02*
X418561904Y-48680238D01*
X418561904Y-48908809D02*
X417761904Y-48908809D01*
X417876190Y-48832619D01*
X417952380Y-48756428D01*
X417990476Y-48680238D01*
X417761904Y-49861190D02*
X417761904Y-49480238D01*
X418142857Y-49442142D01*
X418104761Y-49480238D01*
X418066666Y-49556428D01*
X418066666Y-49746904D01*
X418104761Y-49823095D01*
X418142857Y-49861190D01*
X418219047Y-49899285D01*
X418409523Y-49899285D01*
X418485714Y-49861190D01*
X418523809Y-49823095D01*
X418561904Y-49746904D01*
X418561904Y-49556428D01*
X418523809Y-49480238D01*
X418485714Y-49442142D01*
D11*
X399057142Y-42449285D02*
X399104761Y-42401666D01*
X399152380Y-42258809D01*
X399152380Y-42163571D01*
X399104761Y-42020714D01*
X399009523Y-41925476D01*
X398914285Y-41877857D01*
X398723809Y-41830238D01*
X398580952Y-41830238D01*
X398390476Y-41877857D01*
X398295238Y-41925476D01*
X398200000Y-42020714D01*
X398152380Y-42163571D01*
X398152380Y-42258809D01*
X398200000Y-42401666D01*
X398247619Y-42449285D01*
X399152380Y-43020714D02*
X399104761Y-42925476D01*
X399057142Y-42877857D01*
X398961904Y-42830238D01*
X398676190Y-42830238D01*
X398580952Y-42877857D01*
X398533333Y-42925476D01*
X398485714Y-43020714D01*
X398485714Y-43163571D01*
X398533333Y-43258809D01*
X398580952Y-43306428D01*
X398676190Y-43354047D01*
X398961904Y-43354047D01*
X399057142Y-43306428D01*
X399104761Y-43258809D01*
X399152380Y-43163571D01*
X399152380Y-43020714D01*
X398485714Y-43782619D02*
X399152380Y-43782619D01*
X398580952Y-43782619D02*
X398533333Y-43830238D01*
X398485714Y-43925476D01*
X398485714Y-44068333D01*
X398533333Y-44163571D01*
X398628571Y-44211190D01*
X399152380Y-44211190D01*
X398485714Y-44687380D02*
X399152380Y-44687380D01*
X398580952Y-44687380D02*
X398533333Y-44735000D01*
X398485714Y-44830238D01*
X398485714Y-44973095D01*
X398533333Y-45068333D01*
X398628571Y-45115952D01*
X399152380Y-45115952D01*
X399247619Y-45354047D02*
X399247619Y-46115952D01*
X398152380Y-46544523D02*
X398152380Y-46639761D01*
X398200000Y-46735000D01*
X398247619Y-46782619D01*
X398342857Y-46830238D01*
X398533333Y-46877857D01*
X398771428Y-46877857D01*
X398961904Y-46830238D01*
X399057142Y-46782619D01*
X399104761Y-46735000D01*
X399152380Y-46639761D01*
X399152380Y-46544523D01*
X399104761Y-46449285D01*
X399057142Y-46401666D01*
X398961904Y-46354047D01*
X398771428Y-46306428D01*
X398533333Y-46306428D01*
X398342857Y-46354047D01*
X398247619Y-46401666D01*
X398200000Y-46449285D01*
X398152380Y-46544523D01*
X399152380Y-47830238D02*
X399152380Y-47258809D01*
X399152380Y-47544523D02*
X398152380Y-47544523D01*
X398295238Y-47449285D01*
X398390476Y-47354047D01*
X398438095Y-47258809D01*
X399152380Y-48163571D02*
X398485714Y-48687380D01*
X398485714Y-48163571D02*
X399152380Y-48687380D01*
X398152380Y-49258809D02*
X398152380Y-49354047D01*
X398200000Y-49449285D01*
X398247619Y-49496904D01*
X398342857Y-49544523D01*
X398533333Y-49592142D01*
X398771428Y-49592142D01*
X398961904Y-49544523D01*
X399057142Y-49496904D01*
X399104761Y-49449285D01*
X399152380Y-49354047D01*
X399152380Y-49258809D01*
X399104761Y-49163571D01*
X399057142Y-49115952D01*
X398961904Y-49068333D01*
X398771428Y-49020714D01*
X398533333Y-49020714D01*
X398342857Y-49068333D01*
X398247619Y-49115952D01*
X398200000Y-49163571D01*
X398152380Y-49258809D01*
X399152380Y-50544523D02*
X399152380Y-49973095D01*
X399152380Y-50258809D02*
X398152380Y-50258809D01*
X398295238Y-50163571D01*
X398390476Y-50068333D01*
X398438095Y-49973095D01*
X399247619Y-50735000D02*
X399247619Y-51496904D01*
X398628571Y-52068333D02*
X398628571Y-51735000D01*
X399152380Y-51735000D02*
X398152380Y-51735000D01*
X398152380Y-52211190D01*
X399104761Y-52973095D02*
X399152380Y-52877857D01*
X399152380Y-52687380D01*
X399104761Y-52592142D01*
X399009523Y-52544523D01*
X398628571Y-52544523D01*
X398533333Y-52592142D01*
X398485714Y-52687380D01*
X398485714Y-52877857D01*
X398533333Y-52973095D01*
X398628571Y-53020714D01*
X398723809Y-53020714D01*
X398819047Y-52544523D01*
X399152380Y-53449285D02*
X398485714Y-53449285D01*
X398580952Y-53449285D02*
X398533333Y-53496904D01*
X398485714Y-53592142D01*
X398485714Y-53735000D01*
X398533333Y-53830238D01*
X398628571Y-53877857D01*
X399152380Y-53877857D01*
X398628571Y-53877857D02*
X398533333Y-53925476D01*
X398485714Y-54020714D01*
X398485714Y-54163571D01*
X398533333Y-54258809D01*
X398628571Y-54306428D01*
X399152380Y-54306428D01*
X399152380Y-55211190D02*
X398628571Y-55211190D01*
X398533333Y-55163571D01*
X398485714Y-55068333D01*
X398485714Y-54877857D01*
X398533333Y-54782619D01*
X399104761Y-55211190D02*
X399152380Y-55115952D01*
X399152380Y-54877857D01*
X399104761Y-54782619D01*
X399009523Y-54735000D01*
X398914285Y-54735000D01*
X398819047Y-54782619D01*
X398771428Y-54877857D01*
X398771428Y-55115952D01*
X398723809Y-55211190D01*
X399152380Y-55830238D02*
X399104761Y-55735000D01*
X399009523Y-55687380D01*
X398152380Y-55687380D01*
X399104761Y-56592142D02*
X399152380Y-56496904D01*
X399152380Y-56306428D01*
X399104761Y-56211190D01*
X399009523Y-56163571D01*
X398628571Y-56163571D01*
X398533333Y-56211190D01*
X398485714Y-56306428D01*
X398485714Y-56496904D01*
X398533333Y-56592142D01*
X398628571Y-56639761D01*
X398723809Y-56639761D01*
X398819047Y-56163571D01*
D12*
X404761904Y-48337380D02*
X405333333Y-48337380D01*
X405447619Y-48299285D01*
X405523809Y-48223095D01*
X405561904Y-48108809D01*
X405561904Y-48032619D01*
X405561904Y-49137380D02*
X405561904Y-48680238D01*
X405561904Y-48908809D02*
X404761904Y-48908809D01*
X404876190Y-48832619D01*
X404952380Y-48756428D01*
X404990476Y-48680238D01*
X405028571Y-49823095D02*
X405561904Y-49823095D01*
X404723809Y-49632619D02*
X405295238Y-49442142D01*
X405295238Y-49937380D01*
D11*
X425057142Y-42449285D02*
X425104761Y-42401666D01*
X425152380Y-42258809D01*
X425152380Y-42163571D01*
X425104761Y-42020714D01*
X425009523Y-41925476D01*
X424914285Y-41877857D01*
X424723809Y-41830238D01*
X424580952Y-41830238D01*
X424390476Y-41877857D01*
X424295238Y-41925476D01*
X424200000Y-42020714D01*
X424152380Y-42163571D01*
X424152380Y-42258809D01*
X424200000Y-42401666D01*
X424247619Y-42449285D01*
X425152380Y-43020714D02*
X425104761Y-42925476D01*
X425057142Y-42877857D01*
X424961904Y-42830238D01*
X424676190Y-42830238D01*
X424580952Y-42877857D01*
X424533333Y-42925476D01*
X424485714Y-43020714D01*
X424485714Y-43163571D01*
X424533333Y-43258809D01*
X424580952Y-43306428D01*
X424676190Y-43354047D01*
X424961904Y-43354047D01*
X425057142Y-43306428D01*
X425104761Y-43258809D01*
X425152380Y-43163571D01*
X425152380Y-43020714D01*
X424485714Y-43782619D02*
X425152380Y-43782619D01*
X424580952Y-43782619D02*
X424533333Y-43830238D01*
X424485714Y-43925476D01*
X424485714Y-44068333D01*
X424533333Y-44163571D01*
X424628571Y-44211190D01*
X425152380Y-44211190D01*
X424485714Y-44687380D02*
X425152380Y-44687380D01*
X424580952Y-44687380D02*
X424533333Y-44735000D01*
X424485714Y-44830238D01*
X424485714Y-44973095D01*
X424533333Y-45068333D01*
X424628571Y-45115952D01*
X425152380Y-45115952D01*
X425247619Y-45354047D02*
X425247619Y-46115952D01*
X424152380Y-46544523D02*
X424152380Y-46639761D01*
X424200000Y-46735000D01*
X424247619Y-46782619D01*
X424342857Y-46830238D01*
X424533333Y-46877857D01*
X424771428Y-46877857D01*
X424961904Y-46830238D01*
X425057142Y-46782619D01*
X425104761Y-46735000D01*
X425152380Y-46639761D01*
X425152380Y-46544523D01*
X425104761Y-46449285D01*
X425057142Y-46401666D01*
X424961904Y-46354047D01*
X424771428Y-46306428D01*
X424533333Y-46306428D01*
X424342857Y-46354047D01*
X424247619Y-46401666D01*
X424200000Y-46449285D01*
X424152380Y-46544523D01*
X425152380Y-47830238D02*
X425152380Y-47258809D01*
X425152380Y-47544523D02*
X424152380Y-47544523D01*
X424295238Y-47449285D01*
X424390476Y-47354047D01*
X424438095Y-47258809D01*
X425152380Y-48163571D02*
X424485714Y-48687380D01*
X424485714Y-48163571D02*
X425152380Y-48687380D01*
X424152380Y-49258809D02*
X424152380Y-49354047D01*
X424200000Y-49449285D01*
X424247619Y-49496904D01*
X424342857Y-49544523D01*
X424533333Y-49592142D01*
X424771428Y-49592142D01*
X424961904Y-49544523D01*
X425057142Y-49496904D01*
X425104761Y-49449285D01*
X425152380Y-49354047D01*
X425152380Y-49258809D01*
X425104761Y-49163571D01*
X425057142Y-49115952D01*
X424961904Y-49068333D01*
X424771428Y-49020714D01*
X424533333Y-49020714D01*
X424342857Y-49068333D01*
X424247619Y-49115952D01*
X424200000Y-49163571D01*
X424152380Y-49258809D01*
X425152380Y-50544523D02*
X425152380Y-49973095D01*
X425152380Y-50258809D02*
X424152380Y-50258809D01*
X424295238Y-50163571D01*
X424390476Y-50068333D01*
X424438095Y-49973095D01*
X425247619Y-50735000D02*
X425247619Y-51496904D01*
X424628571Y-52068333D02*
X424628571Y-51735000D01*
X425152380Y-51735000D02*
X424152380Y-51735000D01*
X424152380Y-52211190D01*
X425104761Y-52973095D02*
X425152380Y-52877857D01*
X425152380Y-52687380D01*
X425104761Y-52592142D01*
X425009523Y-52544523D01*
X424628571Y-52544523D01*
X424533333Y-52592142D01*
X424485714Y-52687380D01*
X424485714Y-52877857D01*
X424533333Y-52973095D01*
X424628571Y-53020714D01*
X424723809Y-53020714D01*
X424819047Y-52544523D01*
X425152380Y-53449285D02*
X424485714Y-53449285D01*
X424580952Y-53449285D02*
X424533333Y-53496904D01*
X424485714Y-53592142D01*
X424485714Y-53735000D01*
X424533333Y-53830238D01*
X424628571Y-53877857D01*
X425152380Y-53877857D01*
X424628571Y-53877857D02*
X424533333Y-53925476D01*
X424485714Y-54020714D01*
X424485714Y-54163571D01*
X424533333Y-54258809D01*
X424628571Y-54306428D01*
X425152380Y-54306428D01*
X425152380Y-55211190D02*
X424628571Y-55211190D01*
X424533333Y-55163571D01*
X424485714Y-55068333D01*
X424485714Y-54877857D01*
X424533333Y-54782619D01*
X425104761Y-55211190D02*
X425152380Y-55115952D01*
X425152380Y-54877857D01*
X425104761Y-54782619D01*
X425009523Y-54735000D01*
X424914285Y-54735000D01*
X424819047Y-54782619D01*
X424771428Y-54877857D01*
X424771428Y-55115952D01*
X424723809Y-55211190D01*
X425152380Y-55830238D02*
X425104761Y-55735000D01*
X425009523Y-55687380D01*
X424152380Y-55687380D01*
X425104761Y-56592142D02*
X425152380Y-56496904D01*
X425152380Y-56306428D01*
X425104761Y-56211190D01*
X425009523Y-56163571D01*
X424628571Y-56163571D01*
X424533333Y-56211190D01*
X424485714Y-56306428D01*
X424485714Y-56496904D01*
X424533333Y-56592142D01*
X424628571Y-56639761D01*
X424723809Y-56639761D01*
X424819047Y-56163571D01*
D12*
X430761904Y-48337380D02*
X431333333Y-48337380D01*
X431447619Y-48299285D01*
X431523809Y-48223095D01*
X431561904Y-48108809D01*
X431561904Y-48032619D01*
X431561904Y-49137380D02*
X431561904Y-48680238D01*
X431561904Y-48908809D02*
X430761904Y-48908809D01*
X430876190Y-48832619D01*
X430952380Y-48756428D01*
X430990476Y-48680238D01*
X430761904Y-49404047D02*
X430761904Y-49899285D01*
X431066666Y-49632619D01*
X431066666Y-49746904D01*
X431104761Y-49823095D01*
X431142857Y-49861190D01*
X431219047Y-49899285D01*
X431409523Y-49899285D01*
X431485714Y-49861190D01*
X431523809Y-49823095D01*
X431561904Y-49746904D01*
X431561904Y-49518333D01*
X431523809Y-49442142D01*
X431485714Y-49404047D01*
D11*
X47902380Y-80489285D02*
X47902380Y-79917857D01*
X47902380Y-80203571D02*
X46902380Y-80203571D01*
X47045238Y-80108333D01*
X47140476Y-80013095D01*
X47188095Y-79917857D01*
X47902380Y-80917857D02*
X46902380Y-80917857D01*
X47616666Y-81251190D01*
X46902380Y-81584523D01*
X47902380Y-81584523D01*
D13*
X49326190Y-80691666D02*
X49088095Y-80525000D01*
X49326190Y-80405952D02*
X48826190Y-80405952D01*
X48826190Y-80596428D01*
X48850000Y-80644047D01*
X48873809Y-80667857D01*
X48921428Y-80691666D01*
X48992857Y-80691666D01*
X49040476Y-80667857D01*
X49064285Y-80644047D01*
X49088095Y-80596428D01*
X49088095Y-80405952D01*
X49326190Y-81167857D02*
X49326190Y-80882142D01*
X49326190Y-81025000D02*
X48826190Y-81025000D01*
X48897619Y-80977380D01*
X48945238Y-80929761D01*
X48969047Y-80882142D01*
D11*
X388802380Y-90292142D02*
X388802380Y-89720714D01*
X388802380Y-90006428D02*
X387802380Y-90006428D01*
X387945238Y-89911190D01*
X388040476Y-89815952D01*
X388088095Y-89720714D01*
X387802380Y-90911190D02*
X387802380Y-91006428D01*
X387850000Y-91101666D01*
X387897619Y-91149285D01*
X387992857Y-91196904D01*
X388183333Y-91244523D01*
X388421428Y-91244523D01*
X388611904Y-91196904D01*
X388707142Y-91149285D01*
X388754761Y-91101666D01*
X388802380Y-91006428D01*
X388802380Y-90911190D01*
X388754761Y-90815952D01*
X388707142Y-90768333D01*
X388611904Y-90720714D01*
X388421428Y-90673095D01*
X388183333Y-90673095D01*
X387992857Y-90720714D01*
X387897619Y-90768333D01*
X387850000Y-90815952D01*
X387802380Y-90911190D01*
X388135714Y-91673095D02*
X388802380Y-91673095D01*
X388230952Y-91673095D02*
X388183333Y-91720714D01*
X388135714Y-91815952D01*
X388135714Y-91958809D01*
X388183333Y-92054047D01*
X388278571Y-92101666D01*
X388802380Y-92101666D01*
D14*
X387062857Y-90677857D02*
X387081904Y-90658809D01*
X387100952Y-90601666D01*
X387100952Y-90563571D01*
X387081904Y-90506428D01*
X387043809Y-90468333D01*
X387005714Y-90449285D01*
X386929523Y-90430238D01*
X386872380Y-90430238D01*
X386796190Y-90449285D01*
X386758095Y-90468333D01*
X386720000Y-90506428D01*
X386700952Y-90563571D01*
X386700952Y-90601666D01*
X386720000Y-90658809D01*
X386739047Y-90677857D01*
X387100952Y-91058809D02*
X387100952Y-90830238D01*
X387100952Y-90944523D02*
X386700952Y-90944523D01*
X386758095Y-90906428D01*
X386796190Y-90868333D01*
X386815238Y-90830238D01*
X386739047Y-91211190D02*
X386720000Y-91230238D01*
X386700952Y-91268333D01*
X386700952Y-91363571D01*
X386720000Y-91401666D01*
X386739047Y-91420714D01*
X386777142Y-91439761D01*
X386815238Y-91439761D01*
X386872380Y-91420714D01*
X387100952Y-91192142D01*
X387100952Y-91439761D01*
D11*
X385942380Y-80132142D02*
X385942380Y-79560714D01*
X385942380Y-79846428D02*
X384942380Y-79846428D01*
X385085238Y-79751190D01*
X385180476Y-79655952D01*
X385228095Y-79560714D01*
X384942380Y-80751190D02*
X384942380Y-80846428D01*
X384990000Y-80941666D01*
X385037619Y-80989285D01*
X385132857Y-81036904D01*
X385323333Y-81084523D01*
X385561428Y-81084523D01*
X385751904Y-81036904D01*
X385847142Y-80989285D01*
X385894761Y-80941666D01*
X385942380Y-80846428D01*
X385942380Y-80751190D01*
X385894761Y-80655952D01*
X385847142Y-80608333D01*
X385751904Y-80560714D01*
X385561428Y-80513095D01*
X385323333Y-80513095D01*
X385132857Y-80560714D01*
X385037619Y-80608333D01*
X384990000Y-80655952D01*
X384942380Y-80751190D01*
X385275714Y-81513095D02*
X385942380Y-81513095D01*
X385370952Y-81513095D02*
X385323333Y-81560714D01*
X385275714Y-81655952D01*
X385275714Y-81798809D01*
X385323333Y-81894047D01*
X385418571Y-81941666D01*
X385942380Y-81941666D01*
D14*
X387062857Y-80517857D02*
X387081904Y-80498809D01*
X387100952Y-80441666D01*
X387100952Y-80403571D01*
X387081904Y-80346428D01*
X387043809Y-80308333D01*
X387005714Y-80289285D01*
X386929523Y-80270238D01*
X386872380Y-80270238D01*
X386796190Y-80289285D01*
X386758095Y-80308333D01*
X386720000Y-80346428D01*
X386700952Y-80403571D01*
X386700952Y-80441666D01*
X386720000Y-80498809D01*
X386739047Y-80517857D01*
X387100952Y-80898809D02*
X387100952Y-80670238D01*
X387100952Y-80784523D02*
X386700952Y-80784523D01*
X386758095Y-80746428D01*
X386796190Y-80708333D01*
X386815238Y-80670238D01*
X387100952Y-81279761D02*
X387100952Y-81051190D01*
X387100952Y-81165476D02*
X386700952Y-81165476D01*
X386758095Y-81127380D01*
X386796190Y-81089285D01*
X386815238Y-81051190D01*
D11*
X317682380Y-90292142D02*
X317682380Y-89720714D01*
X317682380Y-90006428D02*
X316682380Y-90006428D01*
X316825238Y-89911190D01*
X316920476Y-89815952D01*
X316968095Y-89720714D01*
X316682380Y-90911190D02*
X316682380Y-91006428D01*
X316730000Y-91101666D01*
X316777619Y-91149285D01*
X316872857Y-91196904D01*
X317063333Y-91244523D01*
X317301428Y-91244523D01*
X317491904Y-91196904D01*
X317587142Y-91149285D01*
X317634761Y-91101666D01*
X317682380Y-91006428D01*
X317682380Y-90911190D01*
X317634761Y-90815952D01*
X317587142Y-90768333D01*
X317491904Y-90720714D01*
X317301428Y-90673095D01*
X317063333Y-90673095D01*
X316872857Y-90720714D01*
X316777619Y-90768333D01*
X316730000Y-90815952D01*
X316682380Y-90911190D01*
X317015714Y-91673095D02*
X317682380Y-91673095D01*
X317110952Y-91673095D02*
X317063333Y-91720714D01*
X317015714Y-91815952D01*
X317015714Y-91958809D01*
X317063333Y-92054047D01*
X317158571Y-92101666D01*
X317682380Y-92101666D01*
D14*
X315942857Y-90677857D02*
X315961904Y-90658809D01*
X315980952Y-90601666D01*
X315980952Y-90563571D01*
X315961904Y-90506428D01*
X315923809Y-90468333D01*
X315885714Y-90449285D01*
X315809523Y-90430238D01*
X315752380Y-90430238D01*
X315676190Y-90449285D01*
X315638095Y-90468333D01*
X315600000Y-90506428D01*
X315580952Y-90563571D01*
X315580952Y-90601666D01*
X315600000Y-90658809D01*
X315619047Y-90677857D01*
X315980952Y-91058809D02*
X315980952Y-90830238D01*
X315980952Y-90944523D02*
X315580952Y-90944523D01*
X315638095Y-90906428D01*
X315676190Y-90868333D01*
X315695238Y-90830238D01*
X315580952Y-91306428D02*
X315580952Y-91344523D01*
X315600000Y-91382619D01*
X315619047Y-91401666D01*
X315657142Y-91420714D01*
X315733333Y-91439761D01*
X315828571Y-91439761D01*
X315904761Y-91420714D01*
X315942857Y-91401666D01*
X315961904Y-91382619D01*
X315980952Y-91344523D01*
X315980952Y-91306428D01*
X315961904Y-91268333D01*
X315942857Y-91249285D01*
X315904761Y-91230238D01*
X315828571Y-91211190D01*
X315733333Y-91211190D01*
X315657142Y-91230238D01*
X315619047Y-91249285D01*
X315600000Y-91268333D01*
X315580952Y-91306428D01*
D11*
X314822380Y-80132142D02*
X314822380Y-79560714D01*
X314822380Y-79846428D02*
X313822380Y-79846428D01*
X313965238Y-79751190D01*
X314060476Y-79655952D01*
X314108095Y-79560714D01*
X313822380Y-80751190D02*
X313822380Y-80846428D01*
X313870000Y-80941666D01*
X313917619Y-80989285D01*
X314012857Y-81036904D01*
X314203333Y-81084523D01*
X314441428Y-81084523D01*
X314631904Y-81036904D01*
X314727142Y-80989285D01*
X314774761Y-80941666D01*
X314822380Y-80846428D01*
X314822380Y-80751190D01*
X314774761Y-80655952D01*
X314727142Y-80608333D01*
X314631904Y-80560714D01*
X314441428Y-80513095D01*
X314203333Y-80513095D01*
X314012857Y-80560714D01*
X313917619Y-80608333D01*
X313870000Y-80655952D01*
X313822380Y-80751190D01*
X314155714Y-81513095D02*
X314822380Y-81513095D01*
X314250952Y-81513095D02*
X314203333Y-81560714D01*
X314155714Y-81655952D01*
X314155714Y-81798809D01*
X314203333Y-81894047D01*
X314298571Y-81941666D01*
X314822380Y-81941666D01*
D14*
X315942857Y-80708333D02*
X315961904Y-80689285D01*
X315980952Y-80632142D01*
X315980952Y-80594047D01*
X315961904Y-80536904D01*
X315923809Y-80498809D01*
X315885714Y-80479761D01*
X315809523Y-80460714D01*
X315752380Y-80460714D01*
X315676190Y-80479761D01*
X315638095Y-80498809D01*
X315600000Y-80536904D01*
X315580952Y-80594047D01*
X315580952Y-80632142D01*
X315600000Y-80689285D01*
X315619047Y-80708333D01*
X315980952Y-80898809D02*
X315980952Y-80975000D01*
X315961904Y-81013095D01*
X315942857Y-81032142D01*
X315885714Y-81070238D01*
X315809523Y-81089285D01*
X315657142Y-81089285D01*
X315619047Y-81070238D01*
X315600000Y-81051190D01*
X315580952Y-81013095D01*
X315580952Y-80936904D01*
X315600000Y-80898809D01*
X315619047Y-80879761D01*
X315657142Y-80860714D01*
X315752380Y-80860714D01*
X315790476Y-80879761D01*
X315809523Y-80898809D01*
X315828571Y-80936904D01*
X315828571Y-81013095D01*
X315809523Y-81051190D01*
X315790476Y-81070238D01*
X315752380Y-81089285D01*
D11*
X246562380Y-90292142D02*
X246562380Y-89720714D01*
X246562380Y-90006428D02*
X245562380Y-90006428D01*
X245705238Y-89911190D01*
X245800476Y-89815952D01*
X245848095Y-89720714D01*
X245562380Y-90911190D02*
X245562380Y-91006428D01*
X245610000Y-91101666D01*
X245657619Y-91149285D01*
X245752857Y-91196904D01*
X245943333Y-91244523D01*
X246181428Y-91244523D01*
X246371904Y-91196904D01*
X246467142Y-91149285D01*
X246514761Y-91101666D01*
X246562380Y-91006428D01*
X246562380Y-90911190D01*
X246514761Y-90815952D01*
X246467142Y-90768333D01*
X246371904Y-90720714D01*
X246181428Y-90673095D01*
X245943333Y-90673095D01*
X245752857Y-90720714D01*
X245657619Y-90768333D01*
X245610000Y-90815952D01*
X245562380Y-90911190D01*
X245895714Y-91673095D02*
X246562380Y-91673095D01*
X245990952Y-91673095D02*
X245943333Y-91720714D01*
X245895714Y-91815952D01*
X245895714Y-91958809D01*
X245943333Y-92054047D01*
X246038571Y-92101666D01*
X246562380Y-92101666D01*
D14*
X244822857Y-90868333D02*
X244841904Y-90849285D01*
X244860952Y-90792142D01*
X244860952Y-90754047D01*
X244841904Y-90696904D01*
X244803809Y-90658809D01*
X244765714Y-90639761D01*
X244689523Y-90620714D01*
X244632380Y-90620714D01*
X244556190Y-90639761D01*
X244518095Y-90658809D01*
X244480000Y-90696904D01*
X244460952Y-90754047D01*
X244460952Y-90792142D01*
X244480000Y-90849285D01*
X244499047Y-90868333D01*
X244632380Y-91096904D02*
X244613333Y-91058809D01*
X244594285Y-91039761D01*
X244556190Y-91020714D01*
X244537142Y-91020714D01*
X244499047Y-91039761D01*
X244480000Y-91058809D01*
X244460952Y-91096904D01*
X244460952Y-91173095D01*
X244480000Y-91211190D01*
X244499047Y-91230238D01*
X244537142Y-91249285D01*
X244556190Y-91249285D01*
X244594285Y-91230238D01*
X244613333Y-91211190D01*
X244632380Y-91173095D01*
X244632380Y-91096904D01*
X244651428Y-91058809D01*
X244670476Y-91039761D01*
X244708571Y-91020714D01*
X244784761Y-91020714D01*
X244822857Y-91039761D01*
X244841904Y-91058809D01*
X244860952Y-91096904D01*
X244860952Y-91173095D01*
X244841904Y-91211190D01*
X244822857Y-91230238D01*
X244784761Y-91249285D01*
X244708571Y-91249285D01*
X244670476Y-91230238D01*
X244651428Y-91211190D01*
X244632380Y-91173095D01*
D11*
X175442380Y-90038142D02*
X175442380Y-89466714D01*
X175442380Y-89752428D02*
X174442380Y-89752428D01*
X174585238Y-89657190D01*
X174680476Y-89561952D01*
X174728095Y-89466714D01*
X174442380Y-90657190D02*
X174442380Y-90752428D01*
X174490000Y-90847666D01*
X174537619Y-90895285D01*
X174632857Y-90942904D01*
X174823333Y-90990523D01*
X175061428Y-90990523D01*
X175251904Y-90942904D01*
X175347142Y-90895285D01*
X175394761Y-90847666D01*
X175442380Y-90752428D01*
X175442380Y-90657190D01*
X175394761Y-90561952D01*
X175347142Y-90514333D01*
X175251904Y-90466714D01*
X175061428Y-90419095D01*
X174823333Y-90419095D01*
X174632857Y-90466714D01*
X174537619Y-90514333D01*
X174490000Y-90561952D01*
X174442380Y-90657190D01*
X174775714Y-91419095D02*
X175442380Y-91419095D01*
X174870952Y-91419095D02*
X174823333Y-91466714D01*
X174775714Y-91561952D01*
X174775714Y-91704809D01*
X174823333Y-91800047D01*
X174918571Y-91847666D01*
X175442380Y-91847666D01*
D14*
X173702857Y-90614333D02*
X173721904Y-90595285D01*
X173740952Y-90538142D01*
X173740952Y-90500047D01*
X173721904Y-90442904D01*
X173683809Y-90404809D01*
X173645714Y-90385761D01*
X173569523Y-90366714D01*
X173512380Y-90366714D01*
X173436190Y-90385761D01*
X173398095Y-90404809D01*
X173360000Y-90442904D01*
X173340952Y-90500047D01*
X173340952Y-90538142D01*
X173360000Y-90595285D01*
X173379047Y-90614333D01*
X173340952Y-90747666D02*
X173340952Y-91014333D01*
X173740952Y-90842904D01*
D11*
X243702380Y-80386142D02*
X243702380Y-79814714D01*
X243702380Y-80100428D02*
X242702380Y-80100428D01*
X242845238Y-80005190D01*
X242940476Y-79909952D01*
X242988095Y-79814714D01*
X242702380Y-81005190D02*
X242702380Y-81100428D01*
X242750000Y-81195666D01*
X242797619Y-81243285D01*
X242892857Y-81290904D01*
X243083333Y-81338523D01*
X243321428Y-81338523D01*
X243511904Y-81290904D01*
X243607142Y-81243285D01*
X243654761Y-81195666D01*
X243702380Y-81100428D01*
X243702380Y-81005190D01*
X243654761Y-80909952D01*
X243607142Y-80862333D01*
X243511904Y-80814714D01*
X243321428Y-80767095D01*
X243083333Y-80767095D01*
X242892857Y-80814714D01*
X242797619Y-80862333D01*
X242750000Y-80909952D01*
X242702380Y-81005190D01*
X243035714Y-81767095D02*
X243702380Y-81767095D01*
X243130952Y-81767095D02*
X243083333Y-81814714D01*
X243035714Y-81909952D01*
X243035714Y-82052809D01*
X243083333Y-82148047D01*
X243178571Y-82195666D01*
X243702380Y-82195666D01*
D14*
X244822857Y-80962333D02*
X244841904Y-80943285D01*
X244860952Y-80886142D01*
X244860952Y-80848047D01*
X244841904Y-80790904D01*
X244803809Y-80752809D01*
X244765714Y-80733761D01*
X244689523Y-80714714D01*
X244632380Y-80714714D01*
X244556190Y-80733761D01*
X244518095Y-80752809D01*
X244480000Y-80790904D01*
X244460952Y-80848047D01*
X244460952Y-80886142D01*
X244480000Y-80943285D01*
X244499047Y-80962333D01*
X244460952Y-81305190D02*
X244460952Y-81229000D01*
X244480000Y-81190904D01*
X244499047Y-81171857D01*
X244556190Y-81133761D01*
X244632380Y-81114714D01*
X244784761Y-81114714D01*
X244822857Y-81133761D01*
X244841904Y-81152809D01*
X244860952Y-81190904D01*
X244860952Y-81267095D01*
X244841904Y-81305190D01*
X244822857Y-81324238D01*
X244784761Y-81343285D01*
X244689523Y-81343285D01*
X244651428Y-81324238D01*
X244632380Y-81305190D01*
X244613333Y-81267095D01*
X244613333Y-81190904D01*
X244632380Y-81152809D01*
X244651428Y-81133761D01*
X244689523Y-81114714D01*
D11*
X172582380Y-80132142D02*
X172582380Y-79560714D01*
X172582380Y-79846428D02*
X171582380Y-79846428D01*
X171725238Y-79751190D01*
X171820476Y-79655952D01*
X171868095Y-79560714D01*
X171582380Y-80751190D02*
X171582380Y-80846428D01*
X171630000Y-80941666D01*
X171677619Y-80989285D01*
X171772857Y-81036904D01*
X171963333Y-81084523D01*
X172201428Y-81084523D01*
X172391904Y-81036904D01*
X172487142Y-80989285D01*
X172534761Y-80941666D01*
X172582380Y-80846428D01*
X172582380Y-80751190D01*
X172534761Y-80655952D01*
X172487142Y-80608333D01*
X172391904Y-80560714D01*
X172201428Y-80513095D01*
X171963333Y-80513095D01*
X171772857Y-80560714D01*
X171677619Y-80608333D01*
X171630000Y-80655952D01*
X171582380Y-80751190D01*
X171915714Y-81513095D02*
X172582380Y-81513095D01*
X172010952Y-81513095D02*
X171963333Y-81560714D01*
X171915714Y-81655952D01*
X171915714Y-81798809D01*
X171963333Y-81894047D01*
X172058571Y-81941666D01*
X172582380Y-81941666D01*
D14*
X173702857Y-80708333D02*
X173721904Y-80689285D01*
X173740952Y-80632142D01*
X173740952Y-80594047D01*
X173721904Y-80536904D01*
X173683809Y-80498809D01*
X173645714Y-80479761D01*
X173569523Y-80460714D01*
X173512380Y-80460714D01*
X173436190Y-80479761D01*
X173398095Y-80498809D01*
X173360000Y-80536904D01*
X173340952Y-80594047D01*
X173340952Y-80632142D01*
X173360000Y-80689285D01*
X173379047Y-80708333D01*
X173340952Y-81070238D02*
X173340952Y-80879761D01*
X173531428Y-80860714D01*
X173512380Y-80879761D01*
X173493333Y-80917857D01*
X173493333Y-81013095D01*
X173512380Y-81051190D01*
X173531428Y-81070238D01*
X173569523Y-81089285D01*
X173664761Y-81089285D01*
X173702857Y-81070238D01*
X173721904Y-81051190D01*
X173740952Y-81013095D01*
X173740952Y-80917857D01*
X173721904Y-80879761D01*
X173702857Y-80860714D01*
D11*
X104322380Y-90292142D02*
X104322380Y-89720714D01*
X104322380Y-90006428D02*
X103322380Y-90006428D01*
X103465238Y-89911190D01*
X103560476Y-89815952D01*
X103608095Y-89720714D01*
X103322380Y-90911190D02*
X103322380Y-91006428D01*
X103370000Y-91101666D01*
X103417619Y-91149285D01*
X103512857Y-91196904D01*
X103703333Y-91244523D01*
X103941428Y-91244523D01*
X104131904Y-91196904D01*
X104227142Y-91149285D01*
X104274761Y-91101666D01*
X104322380Y-91006428D01*
X104322380Y-90911190D01*
X104274761Y-90815952D01*
X104227142Y-90768333D01*
X104131904Y-90720714D01*
X103941428Y-90673095D01*
X103703333Y-90673095D01*
X103512857Y-90720714D01*
X103417619Y-90768333D01*
X103370000Y-90815952D01*
X103322380Y-90911190D01*
X103655714Y-91673095D02*
X104322380Y-91673095D01*
X103750952Y-91673095D02*
X103703333Y-91720714D01*
X103655714Y-91815952D01*
X103655714Y-91958809D01*
X103703333Y-92054047D01*
X103798571Y-92101666D01*
X104322380Y-92101666D01*
D14*
X102582857Y-90868333D02*
X102601904Y-90849285D01*
X102620952Y-90792142D01*
X102620952Y-90754047D01*
X102601904Y-90696904D01*
X102563809Y-90658809D01*
X102525714Y-90639761D01*
X102449523Y-90620714D01*
X102392380Y-90620714D01*
X102316190Y-90639761D01*
X102278095Y-90658809D01*
X102240000Y-90696904D01*
X102220952Y-90754047D01*
X102220952Y-90792142D01*
X102240000Y-90849285D01*
X102259047Y-90868333D01*
X102354285Y-91211190D02*
X102620952Y-91211190D01*
X102201904Y-91115952D02*
X102487619Y-91020714D01*
X102487619Y-91268333D01*
D11*
X101462380Y-80132142D02*
X101462380Y-79560714D01*
X101462380Y-79846428D02*
X100462380Y-79846428D01*
X100605238Y-79751190D01*
X100700476Y-79655952D01*
X100748095Y-79560714D01*
X100462380Y-80751190D02*
X100462380Y-80846428D01*
X100510000Y-80941666D01*
X100557619Y-80989285D01*
X100652857Y-81036904D01*
X100843333Y-81084523D01*
X101081428Y-81084523D01*
X101271904Y-81036904D01*
X101367142Y-80989285D01*
X101414761Y-80941666D01*
X101462380Y-80846428D01*
X101462380Y-80751190D01*
X101414761Y-80655952D01*
X101367142Y-80608333D01*
X101271904Y-80560714D01*
X101081428Y-80513095D01*
X100843333Y-80513095D01*
X100652857Y-80560714D01*
X100557619Y-80608333D01*
X100510000Y-80655952D01*
X100462380Y-80751190D01*
X100795714Y-81513095D02*
X101462380Y-81513095D01*
X100890952Y-81513095D02*
X100843333Y-81560714D01*
X100795714Y-81655952D01*
X100795714Y-81798809D01*
X100843333Y-81894047D01*
X100938571Y-81941666D01*
X101462380Y-81941666D01*
D14*
X102582857Y-80708333D02*
X102601904Y-80689285D01*
X102620952Y-80632142D01*
X102620952Y-80594047D01*
X102601904Y-80536904D01*
X102563809Y-80498809D01*
X102525714Y-80479761D01*
X102449523Y-80460714D01*
X102392380Y-80460714D01*
X102316190Y-80479761D01*
X102278095Y-80498809D01*
X102240000Y-80536904D01*
X102220952Y-80594047D01*
X102220952Y-80632142D01*
X102240000Y-80689285D01*
X102259047Y-80708333D01*
X102220952Y-80841666D02*
X102220952Y-81089285D01*
X102373333Y-80955952D01*
X102373333Y-81013095D01*
X102392380Y-81051190D01*
X102411428Y-81070238D01*
X102449523Y-81089285D01*
X102544761Y-81089285D01*
X102582857Y-81070238D01*
X102601904Y-81051190D01*
X102620952Y-81013095D01*
X102620952Y-80898809D01*
X102601904Y-80860714D01*
X102582857Y-80841666D01*
D11*
X33202380Y-90292142D02*
X33202380Y-89720714D01*
X33202380Y-90006428D02*
X32202380Y-90006428D01*
X32345238Y-89911190D01*
X32440476Y-89815952D01*
X32488095Y-89720714D01*
X32202380Y-90911190D02*
X32202380Y-91006428D01*
X32250000Y-91101666D01*
X32297619Y-91149285D01*
X32392857Y-91196904D01*
X32583333Y-91244523D01*
X32821428Y-91244523D01*
X33011904Y-91196904D01*
X33107142Y-91149285D01*
X33154761Y-91101666D01*
X33202380Y-91006428D01*
X33202380Y-90911190D01*
X33154761Y-90815952D01*
X33107142Y-90768333D01*
X33011904Y-90720714D01*
X32821428Y-90673095D01*
X32583333Y-90673095D01*
X32392857Y-90720714D01*
X32297619Y-90768333D01*
X32250000Y-90815952D01*
X32202380Y-90911190D01*
X32535714Y-91673095D02*
X33202380Y-91673095D01*
X32630952Y-91673095D02*
X32583333Y-91720714D01*
X32535714Y-91815952D01*
X32535714Y-91958809D01*
X32583333Y-92054047D01*
X32678571Y-92101666D01*
X33202380Y-92101666D01*
D14*
X31462857Y-90868333D02*
X31481904Y-90849285D01*
X31500952Y-90792142D01*
X31500952Y-90754047D01*
X31481904Y-90696904D01*
X31443809Y-90658809D01*
X31405714Y-90639761D01*
X31329523Y-90620714D01*
X31272380Y-90620714D01*
X31196190Y-90639761D01*
X31158095Y-90658809D01*
X31120000Y-90696904D01*
X31100952Y-90754047D01*
X31100952Y-90792142D01*
X31120000Y-90849285D01*
X31139047Y-90868333D01*
X31139047Y-91020714D02*
X31120000Y-91039761D01*
X31100952Y-91077857D01*
X31100952Y-91173095D01*
X31120000Y-91211190D01*
X31139047Y-91230238D01*
X31177142Y-91249285D01*
X31215238Y-91249285D01*
X31272380Y-91230238D01*
X31500952Y-91001666D01*
X31500952Y-91249285D01*
D11*
X30342380Y-80132142D02*
X30342380Y-79560714D01*
X30342380Y-79846428D02*
X29342380Y-79846428D01*
X29485238Y-79751190D01*
X29580476Y-79655952D01*
X29628095Y-79560714D01*
X29342380Y-80751190D02*
X29342380Y-80846428D01*
X29390000Y-80941666D01*
X29437619Y-80989285D01*
X29532857Y-81036904D01*
X29723333Y-81084523D01*
X29961428Y-81084523D01*
X30151904Y-81036904D01*
X30247142Y-80989285D01*
X30294761Y-80941666D01*
X30342380Y-80846428D01*
X30342380Y-80751190D01*
X30294761Y-80655952D01*
X30247142Y-80608333D01*
X30151904Y-80560714D01*
X29961428Y-80513095D01*
X29723333Y-80513095D01*
X29532857Y-80560714D01*
X29437619Y-80608333D01*
X29390000Y-80655952D01*
X29342380Y-80751190D01*
X29675714Y-81513095D02*
X30342380Y-81513095D01*
X29770952Y-81513095D02*
X29723333Y-81560714D01*
X29675714Y-81655952D01*
X29675714Y-81798809D01*
X29723333Y-81894047D01*
X29818571Y-81941666D01*
X30342380Y-81941666D01*
D14*
X31462857Y-80708333D02*
X31481904Y-80689285D01*
X31500952Y-80632142D01*
X31500952Y-80594047D01*
X31481904Y-80536904D01*
X31443809Y-80498809D01*
X31405714Y-80479761D01*
X31329523Y-80460714D01*
X31272380Y-80460714D01*
X31196190Y-80479761D01*
X31158095Y-80498809D01*
X31120000Y-80536904D01*
X31100952Y-80594047D01*
X31100952Y-80632142D01*
X31120000Y-80689285D01*
X31139047Y-80708333D01*
X31500952Y-81089285D02*
X31500952Y-80860714D01*
X31500952Y-80975000D02*
X31100952Y-80975000D01*
X31158095Y-80936904D01*
X31196190Y-80898809D01*
X31215238Y-80860714D01*
M02*
