G04 #@! TF.GenerationSoftware,KiCad,Pcbnew,5.1.8*
G04 #@! TF.CreationDate,2020-12-14T16:47:20+01:00*
G04 #@! TF.ProjectId,main,6d61696e-2e6b-4696-9361-645f70636258,v1.0.0*
G04 #@! TF.SameCoordinates,Original*
G04 #@! TF.FileFunction,Legend,Top*
G04 #@! TF.FilePolarity,Positive*
%FSLAX46Y46*%
G04 Gerber Fmt 4.6, Leading zero omitted, Abs format (unit mm)*
G04 Created by KiCad (PCBNEW 5.1.8) date 2020-12-14 16:47:20*
%MOMM*%
%LPD*%
G01*
G04 APERTURE LIST*
%ADD10C,0.300000*%
%ADD11C,0.500000*%
%ADD12C,0.150000*%
%ADD13C,0.600000*%
%ADD14C,0.120000*%
%ADD15C,0.010000*%
%ADD16C,0.250000*%
G04 APERTURE END LIST*
D10*
X348488571Y-46247857D02*
X348988571Y-46247857D01*
X349202857Y-47033571D02*
X348488571Y-47033571D01*
X348488571Y-45533571D01*
X349202857Y-45533571D01*
X350488571Y-47033571D02*
X350488571Y-46247857D01*
X350417142Y-46105000D01*
X350274285Y-46033571D01*
X349988571Y-46033571D01*
X349845714Y-46105000D01*
X350488571Y-46962142D02*
X350345714Y-47033571D01*
X349988571Y-47033571D01*
X349845714Y-46962142D01*
X349774285Y-46819285D01*
X349774285Y-46676428D01*
X349845714Y-46533571D01*
X349988571Y-46462142D01*
X350345714Y-46462142D01*
X350488571Y-46390714D01*
X351202857Y-47033571D02*
X351202857Y-46033571D01*
X351202857Y-46319285D02*
X351274285Y-46176428D01*
X351345714Y-46105000D01*
X351488571Y-46033571D01*
X351631428Y-46033571D01*
X351917142Y-46033571D02*
X352488571Y-46033571D01*
X352131428Y-45533571D02*
X352131428Y-46819285D01*
X352202857Y-46962142D01*
X352345714Y-47033571D01*
X352488571Y-47033571D01*
X352988571Y-47033571D02*
X352988571Y-45533571D01*
X353631428Y-47033571D02*
X353631428Y-46247857D01*
X353560000Y-46105000D01*
X353417142Y-46033571D01*
X353202857Y-46033571D01*
X353060000Y-46105000D01*
X352988571Y-46176428D01*
X191740000Y-34622142D02*
X191073333Y-34622142D01*
X191073333Y-35669761D02*
X191073333Y-33669761D01*
X192025714Y-33669761D01*
X192787619Y-35669761D02*
X192787619Y-34336428D01*
X192787619Y-33669761D02*
X192692380Y-33765000D01*
X192787619Y-33860238D01*
X192882857Y-33765000D01*
X192787619Y-33669761D01*
X192787619Y-33860238D01*
X193644761Y-35574523D02*
X193835238Y-35669761D01*
X194216190Y-35669761D01*
X194406666Y-35574523D01*
X194501904Y-35384047D01*
X194501904Y-35288809D01*
X194406666Y-35098333D01*
X194216190Y-35003095D01*
X193930476Y-35003095D01*
X193740000Y-34907857D01*
X193644761Y-34717380D01*
X193644761Y-34622142D01*
X193740000Y-34431666D01*
X193930476Y-34336428D01*
X194216190Y-34336428D01*
X194406666Y-34431666D01*
X196216190Y-35574523D02*
X196025714Y-35669761D01*
X195644761Y-35669761D01*
X195454285Y-35574523D01*
X195359047Y-35479285D01*
X195263809Y-35288809D01*
X195263809Y-34717380D01*
X195359047Y-34526904D01*
X195454285Y-34431666D01*
X195644761Y-34336428D01*
X196025714Y-34336428D01*
X196216190Y-34431666D01*
X197073333Y-35669761D02*
X197073333Y-33669761D01*
X197930476Y-35669761D02*
X197930476Y-34622142D01*
X197835238Y-34431666D01*
X197644761Y-34336428D01*
X197359047Y-34336428D01*
X197168571Y-34431666D01*
X197073333Y-34526904D01*
X199644761Y-35574523D02*
X199454285Y-35669761D01*
X199073333Y-35669761D01*
X198882857Y-35574523D01*
X198787619Y-35384047D01*
X198787619Y-34622142D01*
X198882857Y-34431666D01*
X199073333Y-34336428D01*
X199454285Y-34336428D01*
X199644761Y-34431666D01*
X199740000Y-34622142D01*
X199740000Y-34812619D01*
X198787619Y-35003095D01*
X200597142Y-35669761D02*
X200597142Y-34336428D01*
X200597142Y-34717380D02*
X200692380Y-34526904D01*
X200787619Y-34431666D01*
X200978095Y-34336428D01*
X201168571Y-34336428D01*
X203073333Y-33669761D02*
X204216190Y-33669761D01*
X203644761Y-35669761D02*
X203644761Y-33669761D01*
X205549523Y-34622142D02*
X204882857Y-34622142D01*
X204882857Y-35669761D02*
X204882857Y-33669761D01*
X205835238Y-33669761D01*
X206597142Y-35669761D02*
X206597142Y-33669761D01*
X207359047Y-33669761D01*
X207549523Y-33765000D01*
X207644761Y-33860238D01*
X207740000Y-34050714D01*
X207740000Y-34336428D01*
X207644761Y-34526904D01*
X207549523Y-34622142D01*
X207359047Y-34717380D01*
X206597142Y-34717380D01*
X209930476Y-33669761D02*
X211168571Y-33669761D01*
X210501904Y-34431666D01*
X210787619Y-34431666D01*
X210978095Y-34526904D01*
X211073333Y-34622142D01*
X211168571Y-34812619D01*
X211168571Y-35288809D01*
X211073333Y-35479285D01*
X210978095Y-35574523D01*
X210787619Y-35669761D01*
X210216190Y-35669761D01*
X210025714Y-35574523D01*
X209930476Y-35479285D01*
X214597142Y-35669761D02*
X213454285Y-35669761D01*
X214025714Y-35669761D02*
X214025714Y-33669761D01*
X213835238Y-33955476D01*
X213644761Y-34145952D01*
X213454285Y-34241190D01*
X216311428Y-34336428D02*
X216311428Y-35669761D01*
X215835238Y-33574523D02*
X215359047Y-35003095D01*
X216597142Y-35003095D01*
X201376190Y-136222142D02*
X200709523Y-136222142D01*
X200709523Y-137269761D02*
X200709523Y-135269761D01*
X201661904Y-135269761D01*
X202423809Y-137269761D02*
X202423809Y-135936428D01*
X202423809Y-135269761D02*
X202328571Y-135365000D01*
X202423809Y-135460238D01*
X202519047Y-135365000D01*
X202423809Y-135269761D01*
X202423809Y-135460238D01*
X203280952Y-137174523D02*
X203471428Y-137269761D01*
X203852380Y-137269761D01*
X204042857Y-137174523D01*
X204138095Y-136984047D01*
X204138095Y-136888809D01*
X204042857Y-136698333D01*
X203852380Y-136603095D01*
X203566666Y-136603095D01*
X203376190Y-136507857D01*
X203280952Y-136317380D01*
X203280952Y-136222142D01*
X203376190Y-136031666D01*
X203566666Y-135936428D01*
X203852380Y-135936428D01*
X204042857Y-136031666D01*
X205852380Y-137174523D02*
X205661904Y-137269761D01*
X205280952Y-137269761D01*
X205090476Y-137174523D01*
X204995238Y-137079285D01*
X204900000Y-136888809D01*
X204900000Y-136317380D01*
X204995238Y-136126904D01*
X205090476Y-136031666D01*
X205280952Y-135936428D01*
X205661904Y-135936428D01*
X205852380Y-136031666D01*
X206709523Y-137269761D02*
X206709523Y-135269761D01*
X207566666Y-137269761D02*
X207566666Y-136222142D01*
X207471428Y-136031666D01*
X207280952Y-135936428D01*
X206995238Y-135936428D01*
X206804761Y-136031666D01*
X206709523Y-136126904D01*
X209280952Y-137174523D02*
X209090476Y-137269761D01*
X208709523Y-137269761D01*
X208519047Y-137174523D01*
X208423809Y-136984047D01*
X208423809Y-136222142D01*
X208519047Y-136031666D01*
X208709523Y-135936428D01*
X209090476Y-135936428D01*
X209280952Y-136031666D01*
X209376190Y-136222142D01*
X209376190Y-136412619D01*
X208423809Y-136603095D01*
X210233333Y-137269761D02*
X210233333Y-135936428D01*
X210233333Y-136317380D02*
X210328571Y-136126904D01*
X210423809Y-136031666D01*
X210614285Y-135936428D01*
X210804761Y-135936428D01*
X212995238Y-137269761D02*
X212995238Y-135269761D01*
X212995238Y-136222142D02*
X214138095Y-136222142D01*
X214138095Y-137269761D02*
X214138095Y-135269761D01*
X215757142Y-136222142D02*
X216042857Y-136317380D01*
X216138095Y-136412619D01*
X216233333Y-136603095D01*
X216233333Y-136888809D01*
X216138095Y-137079285D01*
X216042857Y-137174523D01*
X215852380Y-137269761D01*
X215090476Y-137269761D01*
X215090476Y-135269761D01*
X215757142Y-135269761D01*
X215947619Y-135365000D01*
X216042857Y-135460238D01*
X216138095Y-135650714D01*
X216138095Y-135841190D01*
X216042857Y-136031666D01*
X215947619Y-136126904D01*
X215757142Y-136222142D01*
X215090476Y-136222142D01*
X218614285Y-137269761D02*
X218614285Y-135269761D01*
X219280952Y-136698333D01*
X219947619Y-135269761D01*
X219947619Y-137269761D01*
X220900000Y-136222142D02*
X221566666Y-136222142D01*
X221852380Y-137269761D02*
X220900000Y-137269761D01*
X220900000Y-135269761D01*
X221852380Y-135269761D01*
X225280952Y-137269761D02*
X224138095Y-137269761D01*
X224709523Y-137269761D02*
X224709523Y-135269761D01*
X224519047Y-135555476D01*
X224328571Y-135745952D01*
X224138095Y-135841190D01*
X226995238Y-135936428D02*
X226995238Y-137269761D01*
X226519047Y-135174523D02*
X226042857Y-136603095D01*
X227280952Y-136603095D01*
D11*
X391700000Y-138905000D02*
X391700000Y-136365000D01*
X391700000Y-138905000D02*
X320580000Y-138905000D01*
X320580000Y-138905000D02*
X320580000Y-136365000D01*
X249460000Y-138905000D02*
X178340000Y-138905000D01*
X178340000Y-138905000D02*
X107220000Y-138905000D01*
X178340000Y-138905000D02*
X178340000Y-136365000D01*
X320580000Y-138905000D02*
X249460000Y-138905000D01*
X107220000Y-138905000D02*
X36100000Y-138905000D01*
X36100000Y-138905000D02*
X36100000Y-136365000D01*
X107220000Y-138905000D02*
X107220000Y-136365000D01*
X249460000Y-138905000D02*
X249460000Y-136365000D01*
D12*
X436848571Y-29565952D02*
X436753333Y-29518333D01*
X436705714Y-29470714D01*
X436658095Y-29375476D01*
X436658095Y-29327857D01*
X436705714Y-29232619D01*
X436753333Y-29185000D01*
X436848571Y-29137380D01*
X437039047Y-29137380D01*
X437134285Y-29185000D01*
X437181904Y-29232619D01*
X437229523Y-29327857D01*
X437229523Y-29375476D01*
X437181904Y-29470714D01*
X437134285Y-29518333D01*
X437039047Y-29565952D01*
X436848571Y-29565952D01*
X436753333Y-29613571D01*
X436705714Y-29661190D01*
X436658095Y-29756428D01*
X436658095Y-29946904D01*
X436705714Y-30042142D01*
X436753333Y-30089761D01*
X436848571Y-30137380D01*
X437039047Y-30137380D01*
X437134285Y-30089761D01*
X437181904Y-30042142D01*
X437229523Y-29946904D01*
X437229523Y-29756428D01*
X437181904Y-29661190D01*
X437134285Y-29613571D01*
X437039047Y-29565952D01*
X437610476Y-29232619D02*
X437658095Y-29185000D01*
X437753333Y-29137380D01*
X437991428Y-29137380D01*
X438086666Y-29185000D01*
X438134285Y-29232619D01*
X438181904Y-29327857D01*
X438181904Y-29423095D01*
X438134285Y-29565952D01*
X437562857Y-30137380D01*
X438181904Y-30137380D01*
X431768571Y-29565952D02*
X431673333Y-29518333D01*
X431625714Y-29470714D01*
X431578095Y-29375476D01*
X431578095Y-29327857D01*
X431625714Y-29232619D01*
X431673333Y-29185000D01*
X431768571Y-29137380D01*
X431959047Y-29137380D01*
X432054285Y-29185000D01*
X432101904Y-29232619D01*
X432149523Y-29327857D01*
X432149523Y-29375476D01*
X432101904Y-29470714D01*
X432054285Y-29518333D01*
X431959047Y-29565952D01*
X431768571Y-29565952D01*
X431673333Y-29613571D01*
X431625714Y-29661190D01*
X431578095Y-29756428D01*
X431578095Y-29946904D01*
X431625714Y-30042142D01*
X431673333Y-30089761D01*
X431768571Y-30137380D01*
X431959047Y-30137380D01*
X432054285Y-30089761D01*
X432101904Y-30042142D01*
X432149523Y-29946904D01*
X432149523Y-29756428D01*
X432101904Y-29661190D01*
X432054285Y-29613571D01*
X431959047Y-29565952D01*
X433101904Y-30137380D02*
X432530476Y-30137380D01*
X432816190Y-30137380D02*
X432816190Y-29137380D01*
X432720952Y-29280238D01*
X432625714Y-29375476D01*
X432530476Y-29423095D01*
X426688571Y-29565952D02*
X426593333Y-29518333D01*
X426545714Y-29470714D01*
X426498095Y-29375476D01*
X426498095Y-29327857D01*
X426545714Y-29232619D01*
X426593333Y-29185000D01*
X426688571Y-29137380D01*
X426879047Y-29137380D01*
X426974285Y-29185000D01*
X427021904Y-29232619D01*
X427069523Y-29327857D01*
X427069523Y-29375476D01*
X427021904Y-29470714D01*
X426974285Y-29518333D01*
X426879047Y-29565952D01*
X426688571Y-29565952D01*
X426593333Y-29613571D01*
X426545714Y-29661190D01*
X426498095Y-29756428D01*
X426498095Y-29946904D01*
X426545714Y-30042142D01*
X426593333Y-30089761D01*
X426688571Y-30137380D01*
X426879047Y-30137380D01*
X426974285Y-30089761D01*
X427021904Y-30042142D01*
X427069523Y-29946904D01*
X427069523Y-29756428D01*
X427021904Y-29661190D01*
X426974285Y-29613571D01*
X426879047Y-29565952D01*
X427688571Y-29137380D02*
X427783809Y-29137380D01*
X427879047Y-29185000D01*
X427926666Y-29232619D01*
X427974285Y-29327857D01*
X428021904Y-29518333D01*
X428021904Y-29756428D01*
X427974285Y-29946904D01*
X427926666Y-30042142D01*
X427879047Y-30089761D01*
X427783809Y-30137380D01*
X427688571Y-30137380D01*
X427593333Y-30089761D01*
X427545714Y-30042142D01*
X427498095Y-29946904D01*
X427450476Y-29756428D01*
X427450476Y-29518333D01*
X427498095Y-29327857D01*
X427545714Y-29232619D01*
X427593333Y-29185000D01*
X427688571Y-29137380D01*
X421370476Y-29137380D02*
X422037142Y-29137380D01*
X421608571Y-30137380D01*
X422465714Y-30137380D02*
X422656190Y-30137380D01*
X422751428Y-30089761D01*
X422799047Y-30042142D01*
X422894285Y-29899285D01*
X422941904Y-29708809D01*
X422941904Y-29327857D01*
X422894285Y-29232619D01*
X422846666Y-29185000D01*
X422751428Y-29137380D01*
X422560952Y-29137380D01*
X422465714Y-29185000D01*
X422418095Y-29232619D01*
X422370476Y-29327857D01*
X422370476Y-29565952D01*
X422418095Y-29661190D01*
X422465714Y-29708809D01*
X422560952Y-29756428D01*
X422751428Y-29756428D01*
X422846666Y-29708809D01*
X422894285Y-29661190D01*
X422941904Y-29565952D01*
X416290476Y-29137380D02*
X416957142Y-29137380D01*
X416528571Y-30137380D01*
X417480952Y-29565952D02*
X417385714Y-29518333D01*
X417338095Y-29470714D01*
X417290476Y-29375476D01*
X417290476Y-29327857D01*
X417338095Y-29232619D01*
X417385714Y-29185000D01*
X417480952Y-29137380D01*
X417671428Y-29137380D01*
X417766666Y-29185000D01*
X417814285Y-29232619D01*
X417861904Y-29327857D01*
X417861904Y-29375476D01*
X417814285Y-29470714D01*
X417766666Y-29518333D01*
X417671428Y-29565952D01*
X417480952Y-29565952D01*
X417385714Y-29613571D01*
X417338095Y-29661190D01*
X417290476Y-29756428D01*
X417290476Y-29946904D01*
X417338095Y-30042142D01*
X417385714Y-30089761D01*
X417480952Y-30137380D01*
X417671428Y-30137380D01*
X417766666Y-30089761D01*
X417814285Y-30042142D01*
X417861904Y-29946904D01*
X417861904Y-29756428D01*
X417814285Y-29661190D01*
X417766666Y-29613571D01*
X417671428Y-29565952D01*
X411210476Y-29137380D02*
X411877142Y-29137380D01*
X411448571Y-30137380D01*
X412162857Y-29137380D02*
X412829523Y-29137380D01*
X412400952Y-30137380D01*
X406130476Y-29137380D02*
X406797142Y-29137380D01*
X406368571Y-30137380D01*
X407606666Y-29137380D02*
X407416190Y-29137380D01*
X407320952Y-29185000D01*
X407273333Y-29232619D01*
X407178095Y-29375476D01*
X407130476Y-29565952D01*
X407130476Y-29946904D01*
X407178095Y-30042142D01*
X407225714Y-30089761D01*
X407320952Y-30137380D01*
X407511428Y-30137380D01*
X407606666Y-30089761D01*
X407654285Y-30042142D01*
X407701904Y-29946904D01*
X407701904Y-29708809D01*
X407654285Y-29613571D01*
X407606666Y-29565952D01*
X407511428Y-29518333D01*
X407320952Y-29518333D01*
X407225714Y-29565952D01*
X407178095Y-29613571D01*
X407130476Y-29708809D01*
X401050476Y-29137380D02*
X401717142Y-29137380D01*
X401288571Y-30137380D01*
X402574285Y-29137380D02*
X402098095Y-29137380D01*
X402050476Y-29613571D01*
X402098095Y-29565952D01*
X402193333Y-29518333D01*
X402431428Y-29518333D01*
X402526666Y-29565952D01*
X402574285Y-29613571D01*
X402621904Y-29708809D01*
X402621904Y-29946904D01*
X402574285Y-30042142D01*
X402526666Y-30089761D01*
X402431428Y-30137380D01*
X402193333Y-30137380D01*
X402098095Y-30089761D01*
X402050476Y-30042142D01*
X395970476Y-29137380D02*
X396637142Y-29137380D01*
X396208571Y-30137380D01*
X397446666Y-29470714D02*
X397446666Y-30137380D01*
X397208571Y-29089761D02*
X396970476Y-29804047D01*
X397589523Y-29804047D01*
X390890476Y-29137380D02*
X391557142Y-29137380D01*
X391128571Y-30137380D01*
X391842857Y-29137380D02*
X392461904Y-29137380D01*
X392128571Y-29518333D01*
X392271428Y-29518333D01*
X392366666Y-29565952D01*
X392414285Y-29613571D01*
X392461904Y-29708809D01*
X392461904Y-29946904D01*
X392414285Y-30042142D01*
X392366666Y-30089761D01*
X392271428Y-30137380D01*
X391985714Y-30137380D01*
X391890476Y-30089761D01*
X391842857Y-30042142D01*
X385810476Y-29137380D02*
X386477142Y-29137380D01*
X386048571Y-30137380D01*
X386810476Y-29232619D02*
X386858095Y-29185000D01*
X386953333Y-29137380D01*
X387191428Y-29137380D01*
X387286666Y-29185000D01*
X387334285Y-29232619D01*
X387381904Y-29327857D01*
X387381904Y-29423095D01*
X387334285Y-29565952D01*
X386762857Y-30137380D01*
X387381904Y-30137380D01*
X380730476Y-29137380D02*
X381397142Y-29137380D01*
X380968571Y-30137380D01*
X382301904Y-30137380D02*
X381730476Y-30137380D01*
X382016190Y-30137380D02*
X382016190Y-29137380D01*
X381920952Y-29280238D01*
X381825714Y-29375476D01*
X381730476Y-29423095D01*
X375650476Y-29137380D02*
X376317142Y-29137380D01*
X375888571Y-30137380D01*
X376888571Y-29137380D02*
X376983809Y-29137380D01*
X377079047Y-29185000D01*
X377126666Y-29232619D01*
X377174285Y-29327857D01*
X377221904Y-29518333D01*
X377221904Y-29756428D01*
X377174285Y-29946904D01*
X377126666Y-30042142D01*
X377079047Y-30089761D01*
X376983809Y-30137380D01*
X376888571Y-30137380D01*
X376793333Y-30089761D01*
X376745714Y-30042142D01*
X376698095Y-29946904D01*
X376650476Y-29756428D01*
X376650476Y-29518333D01*
X376698095Y-29327857D01*
X376745714Y-29232619D01*
X376793333Y-29185000D01*
X376888571Y-29137380D01*
X371094285Y-29137380D02*
X370903809Y-29137380D01*
X370808571Y-29185000D01*
X370760952Y-29232619D01*
X370665714Y-29375476D01*
X370618095Y-29565952D01*
X370618095Y-29946904D01*
X370665714Y-30042142D01*
X370713333Y-30089761D01*
X370808571Y-30137380D01*
X370999047Y-30137380D01*
X371094285Y-30089761D01*
X371141904Y-30042142D01*
X371189523Y-29946904D01*
X371189523Y-29708809D01*
X371141904Y-29613571D01*
X371094285Y-29565952D01*
X370999047Y-29518333D01*
X370808571Y-29518333D01*
X370713333Y-29565952D01*
X370665714Y-29613571D01*
X370618095Y-29708809D01*
X371665714Y-30137380D02*
X371856190Y-30137380D01*
X371951428Y-30089761D01*
X371999047Y-30042142D01*
X372094285Y-29899285D01*
X372141904Y-29708809D01*
X372141904Y-29327857D01*
X372094285Y-29232619D01*
X372046666Y-29185000D01*
X371951428Y-29137380D01*
X371760952Y-29137380D01*
X371665714Y-29185000D01*
X371618095Y-29232619D01*
X371570476Y-29327857D01*
X371570476Y-29565952D01*
X371618095Y-29661190D01*
X371665714Y-29708809D01*
X371760952Y-29756428D01*
X371951428Y-29756428D01*
X372046666Y-29708809D01*
X372094285Y-29661190D01*
X372141904Y-29565952D01*
X366014285Y-29137380D02*
X365823809Y-29137380D01*
X365728571Y-29185000D01*
X365680952Y-29232619D01*
X365585714Y-29375476D01*
X365538095Y-29565952D01*
X365538095Y-29946904D01*
X365585714Y-30042142D01*
X365633333Y-30089761D01*
X365728571Y-30137380D01*
X365919047Y-30137380D01*
X366014285Y-30089761D01*
X366061904Y-30042142D01*
X366109523Y-29946904D01*
X366109523Y-29708809D01*
X366061904Y-29613571D01*
X366014285Y-29565952D01*
X365919047Y-29518333D01*
X365728571Y-29518333D01*
X365633333Y-29565952D01*
X365585714Y-29613571D01*
X365538095Y-29708809D01*
X366680952Y-29565952D02*
X366585714Y-29518333D01*
X366538095Y-29470714D01*
X366490476Y-29375476D01*
X366490476Y-29327857D01*
X366538095Y-29232619D01*
X366585714Y-29185000D01*
X366680952Y-29137380D01*
X366871428Y-29137380D01*
X366966666Y-29185000D01*
X367014285Y-29232619D01*
X367061904Y-29327857D01*
X367061904Y-29375476D01*
X367014285Y-29470714D01*
X366966666Y-29518333D01*
X366871428Y-29565952D01*
X366680952Y-29565952D01*
X366585714Y-29613571D01*
X366538095Y-29661190D01*
X366490476Y-29756428D01*
X366490476Y-29946904D01*
X366538095Y-30042142D01*
X366585714Y-30089761D01*
X366680952Y-30137380D01*
X366871428Y-30137380D01*
X366966666Y-30089761D01*
X367014285Y-30042142D01*
X367061904Y-29946904D01*
X367061904Y-29756428D01*
X367014285Y-29661190D01*
X366966666Y-29613571D01*
X366871428Y-29565952D01*
X360934285Y-29137380D02*
X360743809Y-29137380D01*
X360648571Y-29185000D01*
X360600952Y-29232619D01*
X360505714Y-29375476D01*
X360458095Y-29565952D01*
X360458095Y-29946904D01*
X360505714Y-30042142D01*
X360553333Y-30089761D01*
X360648571Y-30137380D01*
X360839047Y-30137380D01*
X360934285Y-30089761D01*
X360981904Y-30042142D01*
X361029523Y-29946904D01*
X361029523Y-29708809D01*
X360981904Y-29613571D01*
X360934285Y-29565952D01*
X360839047Y-29518333D01*
X360648571Y-29518333D01*
X360553333Y-29565952D01*
X360505714Y-29613571D01*
X360458095Y-29708809D01*
X361362857Y-29137380D02*
X362029523Y-29137380D01*
X361600952Y-30137380D01*
X355854285Y-29137380D02*
X355663809Y-29137380D01*
X355568571Y-29185000D01*
X355520952Y-29232619D01*
X355425714Y-29375476D01*
X355378095Y-29565952D01*
X355378095Y-29946904D01*
X355425714Y-30042142D01*
X355473333Y-30089761D01*
X355568571Y-30137380D01*
X355759047Y-30137380D01*
X355854285Y-30089761D01*
X355901904Y-30042142D01*
X355949523Y-29946904D01*
X355949523Y-29708809D01*
X355901904Y-29613571D01*
X355854285Y-29565952D01*
X355759047Y-29518333D01*
X355568571Y-29518333D01*
X355473333Y-29565952D01*
X355425714Y-29613571D01*
X355378095Y-29708809D01*
X356806666Y-29137380D02*
X356616190Y-29137380D01*
X356520952Y-29185000D01*
X356473333Y-29232619D01*
X356378095Y-29375476D01*
X356330476Y-29565952D01*
X356330476Y-29946904D01*
X356378095Y-30042142D01*
X356425714Y-30089761D01*
X356520952Y-30137380D01*
X356711428Y-30137380D01*
X356806666Y-30089761D01*
X356854285Y-30042142D01*
X356901904Y-29946904D01*
X356901904Y-29708809D01*
X356854285Y-29613571D01*
X356806666Y-29565952D01*
X356711428Y-29518333D01*
X356520952Y-29518333D01*
X356425714Y-29565952D01*
X356378095Y-29613571D01*
X356330476Y-29708809D01*
X350774285Y-29137380D02*
X350583809Y-29137380D01*
X350488571Y-29185000D01*
X350440952Y-29232619D01*
X350345714Y-29375476D01*
X350298095Y-29565952D01*
X350298095Y-29946904D01*
X350345714Y-30042142D01*
X350393333Y-30089761D01*
X350488571Y-30137380D01*
X350679047Y-30137380D01*
X350774285Y-30089761D01*
X350821904Y-30042142D01*
X350869523Y-29946904D01*
X350869523Y-29708809D01*
X350821904Y-29613571D01*
X350774285Y-29565952D01*
X350679047Y-29518333D01*
X350488571Y-29518333D01*
X350393333Y-29565952D01*
X350345714Y-29613571D01*
X350298095Y-29708809D01*
X351774285Y-29137380D02*
X351298095Y-29137380D01*
X351250476Y-29613571D01*
X351298095Y-29565952D01*
X351393333Y-29518333D01*
X351631428Y-29518333D01*
X351726666Y-29565952D01*
X351774285Y-29613571D01*
X351821904Y-29708809D01*
X351821904Y-29946904D01*
X351774285Y-30042142D01*
X351726666Y-30089761D01*
X351631428Y-30137380D01*
X351393333Y-30137380D01*
X351298095Y-30089761D01*
X351250476Y-30042142D01*
X345694285Y-29137380D02*
X345503809Y-29137380D01*
X345408571Y-29185000D01*
X345360952Y-29232619D01*
X345265714Y-29375476D01*
X345218095Y-29565952D01*
X345218095Y-29946904D01*
X345265714Y-30042142D01*
X345313333Y-30089761D01*
X345408571Y-30137380D01*
X345599047Y-30137380D01*
X345694285Y-30089761D01*
X345741904Y-30042142D01*
X345789523Y-29946904D01*
X345789523Y-29708809D01*
X345741904Y-29613571D01*
X345694285Y-29565952D01*
X345599047Y-29518333D01*
X345408571Y-29518333D01*
X345313333Y-29565952D01*
X345265714Y-29613571D01*
X345218095Y-29708809D01*
X346646666Y-29470714D02*
X346646666Y-30137380D01*
X346408571Y-29089761D02*
X346170476Y-29804047D01*
X346789523Y-29804047D01*
X340614285Y-29137380D02*
X340423809Y-29137380D01*
X340328571Y-29185000D01*
X340280952Y-29232619D01*
X340185714Y-29375476D01*
X340138095Y-29565952D01*
X340138095Y-29946904D01*
X340185714Y-30042142D01*
X340233333Y-30089761D01*
X340328571Y-30137380D01*
X340519047Y-30137380D01*
X340614285Y-30089761D01*
X340661904Y-30042142D01*
X340709523Y-29946904D01*
X340709523Y-29708809D01*
X340661904Y-29613571D01*
X340614285Y-29565952D01*
X340519047Y-29518333D01*
X340328571Y-29518333D01*
X340233333Y-29565952D01*
X340185714Y-29613571D01*
X340138095Y-29708809D01*
X341042857Y-29137380D02*
X341661904Y-29137380D01*
X341328571Y-29518333D01*
X341471428Y-29518333D01*
X341566666Y-29565952D01*
X341614285Y-29613571D01*
X341661904Y-29708809D01*
X341661904Y-29946904D01*
X341614285Y-30042142D01*
X341566666Y-30089761D01*
X341471428Y-30137380D01*
X341185714Y-30137380D01*
X341090476Y-30089761D01*
X341042857Y-30042142D01*
X335534285Y-29137380D02*
X335343809Y-29137380D01*
X335248571Y-29185000D01*
X335200952Y-29232619D01*
X335105714Y-29375476D01*
X335058095Y-29565952D01*
X335058095Y-29946904D01*
X335105714Y-30042142D01*
X335153333Y-30089761D01*
X335248571Y-30137380D01*
X335439047Y-30137380D01*
X335534285Y-30089761D01*
X335581904Y-30042142D01*
X335629523Y-29946904D01*
X335629523Y-29708809D01*
X335581904Y-29613571D01*
X335534285Y-29565952D01*
X335439047Y-29518333D01*
X335248571Y-29518333D01*
X335153333Y-29565952D01*
X335105714Y-29613571D01*
X335058095Y-29708809D01*
X336010476Y-29232619D02*
X336058095Y-29185000D01*
X336153333Y-29137380D01*
X336391428Y-29137380D01*
X336486666Y-29185000D01*
X336534285Y-29232619D01*
X336581904Y-29327857D01*
X336581904Y-29423095D01*
X336534285Y-29565952D01*
X335962857Y-30137380D01*
X336581904Y-30137380D01*
X330454285Y-29137380D02*
X330263809Y-29137380D01*
X330168571Y-29185000D01*
X330120952Y-29232619D01*
X330025714Y-29375476D01*
X329978095Y-29565952D01*
X329978095Y-29946904D01*
X330025714Y-30042142D01*
X330073333Y-30089761D01*
X330168571Y-30137380D01*
X330359047Y-30137380D01*
X330454285Y-30089761D01*
X330501904Y-30042142D01*
X330549523Y-29946904D01*
X330549523Y-29708809D01*
X330501904Y-29613571D01*
X330454285Y-29565952D01*
X330359047Y-29518333D01*
X330168571Y-29518333D01*
X330073333Y-29565952D01*
X330025714Y-29613571D01*
X329978095Y-29708809D01*
X331501904Y-30137380D02*
X330930476Y-30137380D01*
X331216190Y-30137380D02*
X331216190Y-29137380D01*
X331120952Y-29280238D01*
X331025714Y-29375476D01*
X330930476Y-29423095D01*
X325374285Y-29137380D02*
X325183809Y-29137380D01*
X325088571Y-29185000D01*
X325040952Y-29232619D01*
X324945714Y-29375476D01*
X324898095Y-29565952D01*
X324898095Y-29946904D01*
X324945714Y-30042142D01*
X324993333Y-30089761D01*
X325088571Y-30137380D01*
X325279047Y-30137380D01*
X325374285Y-30089761D01*
X325421904Y-30042142D01*
X325469523Y-29946904D01*
X325469523Y-29708809D01*
X325421904Y-29613571D01*
X325374285Y-29565952D01*
X325279047Y-29518333D01*
X325088571Y-29518333D01*
X324993333Y-29565952D01*
X324945714Y-29613571D01*
X324898095Y-29708809D01*
X326088571Y-29137380D02*
X326183809Y-29137380D01*
X326279047Y-29185000D01*
X326326666Y-29232619D01*
X326374285Y-29327857D01*
X326421904Y-29518333D01*
X326421904Y-29756428D01*
X326374285Y-29946904D01*
X326326666Y-30042142D01*
X326279047Y-30089761D01*
X326183809Y-30137380D01*
X326088571Y-30137380D01*
X325993333Y-30089761D01*
X325945714Y-30042142D01*
X325898095Y-29946904D01*
X325850476Y-29756428D01*
X325850476Y-29518333D01*
X325898095Y-29327857D01*
X325945714Y-29232619D01*
X325993333Y-29185000D01*
X326088571Y-29137380D01*
X320341904Y-29137380D02*
X319865714Y-29137380D01*
X319818095Y-29613571D01*
X319865714Y-29565952D01*
X319960952Y-29518333D01*
X320199047Y-29518333D01*
X320294285Y-29565952D01*
X320341904Y-29613571D01*
X320389523Y-29708809D01*
X320389523Y-29946904D01*
X320341904Y-30042142D01*
X320294285Y-30089761D01*
X320199047Y-30137380D01*
X319960952Y-30137380D01*
X319865714Y-30089761D01*
X319818095Y-30042142D01*
X320865714Y-30137380D02*
X321056190Y-30137380D01*
X321151428Y-30089761D01*
X321199047Y-30042142D01*
X321294285Y-29899285D01*
X321341904Y-29708809D01*
X321341904Y-29327857D01*
X321294285Y-29232619D01*
X321246666Y-29185000D01*
X321151428Y-29137380D01*
X320960952Y-29137380D01*
X320865714Y-29185000D01*
X320818095Y-29232619D01*
X320770476Y-29327857D01*
X320770476Y-29565952D01*
X320818095Y-29661190D01*
X320865714Y-29708809D01*
X320960952Y-29756428D01*
X321151428Y-29756428D01*
X321246666Y-29708809D01*
X321294285Y-29661190D01*
X321341904Y-29565952D01*
X315261904Y-29137380D02*
X314785714Y-29137380D01*
X314738095Y-29613571D01*
X314785714Y-29565952D01*
X314880952Y-29518333D01*
X315119047Y-29518333D01*
X315214285Y-29565952D01*
X315261904Y-29613571D01*
X315309523Y-29708809D01*
X315309523Y-29946904D01*
X315261904Y-30042142D01*
X315214285Y-30089761D01*
X315119047Y-30137380D01*
X314880952Y-30137380D01*
X314785714Y-30089761D01*
X314738095Y-30042142D01*
X315880952Y-29565952D02*
X315785714Y-29518333D01*
X315738095Y-29470714D01*
X315690476Y-29375476D01*
X315690476Y-29327857D01*
X315738095Y-29232619D01*
X315785714Y-29185000D01*
X315880952Y-29137380D01*
X316071428Y-29137380D01*
X316166666Y-29185000D01*
X316214285Y-29232619D01*
X316261904Y-29327857D01*
X316261904Y-29375476D01*
X316214285Y-29470714D01*
X316166666Y-29518333D01*
X316071428Y-29565952D01*
X315880952Y-29565952D01*
X315785714Y-29613571D01*
X315738095Y-29661190D01*
X315690476Y-29756428D01*
X315690476Y-29946904D01*
X315738095Y-30042142D01*
X315785714Y-30089761D01*
X315880952Y-30137380D01*
X316071428Y-30137380D01*
X316166666Y-30089761D01*
X316214285Y-30042142D01*
X316261904Y-29946904D01*
X316261904Y-29756428D01*
X316214285Y-29661190D01*
X316166666Y-29613571D01*
X316071428Y-29565952D01*
X310181904Y-29137380D02*
X309705714Y-29137380D01*
X309658095Y-29613571D01*
X309705714Y-29565952D01*
X309800952Y-29518333D01*
X310039047Y-29518333D01*
X310134285Y-29565952D01*
X310181904Y-29613571D01*
X310229523Y-29708809D01*
X310229523Y-29946904D01*
X310181904Y-30042142D01*
X310134285Y-30089761D01*
X310039047Y-30137380D01*
X309800952Y-30137380D01*
X309705714Y-30089761D01*
X309658095Y-30042142D01*
X310562857Y-29137380D02*
X311229523Y-29137380D01*
X310800952Y-30137380D01*
X305101904Y-29137380D02*
X304625714Y-29137380D01*
X304578095Y-29613571D01*
X304625714Y-29565952D01*
X304720952Y-29518333D01*
X304959047Y-29518333D01*
X305054285Y-29565952D01*
X305101904Y-29613571D01*
X305149523Y-29708809D01*
X305149523Y-29946904D01*
X305101904Y-30042142D01*
X305054285Y-30089761D01*
X304959047Y-30137380D01*
X304720952Y-30137380D01*
X304625714Y-30089761D01*
X304578095Y-30042142D01*
X306006666Y-29137380D02*
X305816190Y-29137380D01*
X305720952Y-29185000D01*
X305673333Y-29232619D01*
X305578095Y-29375476D01*
X305530476Y-29565952D01*
X305530476Y-29946904D01*
X305578095Y-30042142D01*
X305625714Y-30089761D01*
X305720952Y-30137380D01*
X305911428Y-30137380D01*
X306006666Y-30089761D01*
X306054285Y-30042142D01*
X306101904Y-29946904D01*
X306101904Y-29708809D01*
X306054285Y-29613571D01*
X306006666Y-29565952D01*
X305911428Y-29518333D01*
X305720952Y-29518333D01*
X305625714Y-29565952D01*
X305578095Y-29613571D01*
X305530476Y-29708809D01*
X300021904Y-29137380D02*
X299545714Y-29137380D01*
X299498095Y-29613571D01*
X299545714Y-29565952D01*
X299640952Y-29518333D01*
X299879047Y-29518333D01*
X299974285Y-29565952D01*
X300021904Y-29613571D01*
X300069523Y-29708809D01*
X300069523Y-29946904D01*
X300021904Y-30042142D01*
X299974285Y-30089761D01*
X299879047Y-30137380D01*
X299640952Y-30137380D01*
X299545714Y-30089761D01*
X299498095Y-30042142D01*
X300974285Y-29137380D02*
X300498095Y-29137380D01*
X300450476Y-29613571D01*
X300498095Y-29565952D01*
X300593333Y-29518333D01*
X300831428Y-29518333D01*
X300926666Y-29565952D01*
X300974285Y-29613571D01*
X301021904Y-29708809D01*
X301021904Y-29946904D01*
X300974285Y-30042142D01*
X300926666Y-30089761D01*
X300831428Y-30137380D01*
X300593333Y-30137380D01*
X300498095Y-30089761D01*
X300450476Y-30042142D01*
X294941904Y-29137380D02*
X294465714Y-29137380D01*
X294418095Y-29613571D01*
X294465714Y-29565952D01*
X294560952Y-29518333D01*
X294799047Y-29518333D01*
X294894285Y-29565952D01*
X294941904Y-29613571D01*
X294989523Y-29708809D01*
X294989523Y-29946904D01*
X294941904Y-30042142D01*
X294894285Y-30089761D01*
X294799047Y-30137380D01*
X294560952Y-30137380D01*
X294465714Y-30089761D01*
X294418095Y-30042142D01*
X295846666Y-29470714D02*
X295846666Y-30137380D01*
X295608571Y-29089761D02*
X295370476Y-29804047D01*
X295989523Y-29804047D01*
X289861904Y-29137380D02*
X289385714Y-29137380D01*
X289338095Y-29613571D01*
X289385714Y-29565952D01*
X289480952Y-29518333D01*
X289719047Y-29518333D01*
X289814285Y-29565952D01*
X289861904Y-29613571D01*
X289909523Y-29708809D01*
X289909523Y-29946904D01*
X289861904Y-30042142D01*
X289814285Y-30089761D01*
X289719047Y-30137380D01*
X289480952Y-30137380D01*
X289385714Y-30089761D01*
X289338095Y-30042142D01*
X290242857Y-29137380D02*
X290861904Y-29137380D01*
X290528571Y-29518333D01*
X290671428Y-29518333D01*
X290766666Y-29565952D01*
X290814285Y-29613571D01*
X290861904Y-29708809D01*
X290861904Y-29946904D01*
X290814285Y-30042142D01*
X290766666Y-30089761D01*
X290671428Y-30137380D01*
X290385714Y-30137380D01*
X290290476Y-30089761D01*
X290242857Y-30042142D01*
X284781904Y-29137380D02*
X284305714Y-29137380D01*
X284258095Y-29613571D01*
X284305714Y-29565952D01*
X284400952Y-29518333D01*
X284639047Y-29518333D01*
X284734285Y-29565952D01*
X284781904Y-29613571D01*
X284829523Y-29708809D01*
X284829523Y-29946904D01*
X284781904Y-30042142D01*
X284734285Y-30089761D01*
X284639047Y-30137380D01*
X284400952Y-30137380D01*
X284305714Y-30089761D01*
X284258095Y-30042142D01*
X285210476Y-29232619D02*
X285258095Y-29185000D01*
X285353333Y-29137380D01*
X285591428Y-29137380D01*
X285686666Y-29185000D01*
X285734285Y-29232619D01*
X285781904Y-29327857D01*
X285781904Y-29423095D01*
X285734285Y-29565952D01*
X285162857Y-30137380D01*
X285781904Y-30137380D01*
X279701904Y-29137380D02*
X279225714Y-29137380D01*
X279178095Y-29613571D01*
X279225714Y-29565952D01*
X279320952Y-29518333D01*
X279559047Y-29518333D01*
X279654285Y-29565952D01*
X279701904Y-29613571D01*
X279749523Y-29708809D01*
X279749523Y-29946904D01*
X279701904Y-30042142D01*
X279654285Y-30089761D01*
X279559047Y-30137380D01*
X279320952Y-30137380D01*
X279225714Y-30089761D01*
X279178095Y-30042142D01*
X280701904Y-30137380D02*
X280130476Y-30137380D01*
X280416190Y-30137380D02*
X280416190Y-29137380D01*
X280320952Y-29280238D01*
X280225714Y-29375476D01*
X280130476Y-29423095D01*
X274621904Y-29137380D02*
X274145714Y-29137380D01*
X274098095Y-29613571D01*
X274145714Y-29565952D01*
X274240952Y-29518333D01*
X274479047Y-29518333D01*
X274574285Y-29565952D01*
X274621904Y-29613571D01*
X274669523Y-29708809D01*
X274669523Y-29946904D01*
X274621904Y-30042142D01*
X274574285Y-30089761D01*
X274479047Y-30137380D01*
X274240952Y-30137380D01*
X274145714Y-30089761D01*
X274098095Y-30042142D01*
X275288571Y-29137380D02*
X275383809Y-29137380D01*
X275479047Y-29185000D01*
X275526666Y-29232619D01*
X275574285Y-29327857D01*
X275621904Y-29518333D01*
X275621904Y-29756428D01*
X275574285Y-29946904D01*
X275526666Y-30042142D01*
X275479047Y-30089761D01*
X275383809Y-30137380D01*
X275288571Y-30137380D01*
X275193333Y-30089761D01*
X275145714Y-30042142D01*
X275098095Y-29946904D01*
X275050476Y-29756428D01*
X275050476Y-29518333D01*
X275098095Y-29327857D01*
X275145714Y-29232619D01*
X275193333Y-29185000D01*
X275288571Y-29137380D01*
X269494285Y-29470714D02*
X269494285Y-30137380D01*
X269256190Y-29089761D02*
X269018095Y-29804047D01*
X269637142Y-29804047D01*
X270065714Y-30137380D02*
X270256190Y-30137380D01*
X270351428Y-30089761D01*
X270399047Y-30042142D01*
X270494285Y-29899285D01*
X270541904Y-29708809D01*
X270541904Y-29327857D01*
X270494285Y-29232619D01*
X270446666Y-29185000D01*
X270351428Y-29137380D01*
X270160952Y-29137380D01*
X270065714Y-29185000D01*
X270018095Y-29232619D01*
X269970476Y-29327857D01*
X269970476Y-29565952D01*
X270018095Y-29661190D01*
X270065714Y-29708809D01*
X270160952Y-29756428D01*
X270351428Y-29756428D01*
X270446666Y-29708809D01*
X270494285Y-29661190D01*
X270541904Y-29565952D01*
X264414285Y-29470714D02*
X264414285Y-30137380D01*
X264176190Y-29089761D02*
X263938095Y-29804047D01*
X264557142Y-29804047D01*
X265080952Y-29565952D02*
X264985714Y-29518333D01*
X264938095Y-29470714D01*
X264890476Y-29375476D01*
X264890476Y-29327857D01*
X264938095Y-29232619D01*
X264985714Y-29185000D01*
X265080952Y-29137380D01*
X265271428Y-29137380D01*
X265366666Y-29185000D01*
X265414285Y-29232619D01*
X265461904Y-29327857D01*
X265461904Y-29375476D01*
X265414285Y-29470714D01*
X265366666Y-29518333D01*
X265271428Y-29565952D01*
X265080952Y-29565952D01*
X264985714Y-29613571D01*
X264938095Y-29661190D01*
X264890476Y-29756428D01*
X264890476Y-29946904D01*
X264938095Y-30042142D01*
X264985714Y-30089761D01*
X265080952Y-30137380D01*
X265271428Y-30137380D01*
X265366666Y-30089761D01*
X265414285Y-30042142D01*
X265461904Y-29946904D01*
X265461904Y-29756428D01*
X265414285Y-29661190D01*
X265366666Y-29613571D01*
X265271428Y-29565952D01*
X259334285Y-29470714D02*
X259334285Y-30137380D01*
X259096190Y-29089761D02*
X258858095Y-29804047D01*
X259477142Y-29804047D01*
X259762857Y-29137380D02*
X260429523Y-29137380D01*
X260000952Y-30137380D01*
X254254285Y-29470714D02*
X254254285Y-30137380D01*
X254016190Y-29089761D02*
X253778095Y-29804047D01*
X254397142Y-29804047D01*
X255206666Y-29137380D02*
X255016190Y-29137380D01*
X254920952Y-29185000D01*
X254873333Y-29232619D01*
X254778095Y-29375476D01*
X254730476Y-29565952D01*
X254730476Y-29946904D01*
X254778095Y-30042142D01*
X254825714Y-30089761D01*
X254920952Y-30137380D01*
X255111428Y-30137380D01*
X255206666Y-30089761D01*
X255254285Y-30042142D01*
X255301904Y-29946904D01*
X255301904Y-29708809D01*
X255254285Y-29613571D01*
X255206666Y-29565952D01*
X255111428Y-29518333D01*
X254920952Y-29518333D01*
X254825714Y-29565952D01*
X254778095Y-29613571D01*
X254730476Y-29708809D01*
X249174285Y-29470714D02*
X249174285Y-30137380D01*
X248936190Y-29089761D02*
X248698095Y-29804047D01*
X249317142Y-29804047D01*
X250174285Y-29137380D02*
X249698095Y-29137380D01*
X249650476Y-29613571D01*
X249698095Y-29565952D01*
X249793333Y-29518333D01*
X250031428Y-29518333D01*
X250126666Y-29565952D01*
X250174285Y-29613571D01*
X250221904Y-29708809D01*
X250221904Y-29946904D01*
X250174285Y-30042142D01*
X250126666Y-30089761D01*
X250031428Y-30137380D01*
X249793333Y-30137380D01*
X249698095Y-30089761D01*
X249650476Y-30042142D01*
X244094285Y-29470714D02*
X244094285Y-30137380D01*
X243856190Y-29089761D02*
X243618095Y-29804047D01*
X244237142Y-29804047D01*
X245046666Y-29470714D02*
X245046666Y-30137380D01*
X244808571Y-29089761D02*
X244570476Y-29804047D01*
X245189523Y-29804047D01*
X239014285Y-29470714D02*
X239014285Y-30137380D01*
X238776190Y-29089761D02*
X238538095Y-29804047D01*
X239157142Y-29804047D01*
X239442857Y-29137380D02*
X240061904Y-29137380D01*
X239728571Y-29518333D01*
X239871428Y-29518333D01*
X239966666Y-29565952D01*
X240014285Y-29613571D01*
X240061904Y-29708809D01*
X240061904Y-29946904D01*
X240014285Y-30042142D01*
X239966666Y-30089761D01*
X239871428Y-30137380D01*
X239585714Y-30137380D01*
X239490476Y-30089761D01*
X239442857Y-30042142D01*
X233934285Y-29470714D02*
X233934285Y-30137380D01*
X233696190Y-29089761D02*
X233458095Y-29804047D01*
X234077142Y-29804047D01*
X234410476Y-29232619D02*
X234458095Y-29185000D01*
X234553333Y-29137380D01*
X234791428Y-29137380D01*
X234886666Y-29185000D01*
X234934285Y-29232619D01*
X234981904Y-29327857D01*
X234981904Y-29423095D01*
X234934285Y-29565952D01*
X234362857Y-30137380D01*
X234981904Y-30137380D01*
X228854285Y-29470714D02*
X228854285Y-30137380D01*
X228616190Y-29089761D02*
X228378095Y-29804047D01*
X228997142Y-29804047D01*
X229901904Y-30137380D02*
X229330476Y-30137380D01*
X229616190Y-30137380D02*
X229616190Y-29137380D01*
X229520952Y-29280238D01*
X229425714Y-29375476D01*
X229330476Y-29423095D01*
X223774285Y-29470714D02*
X223774285Y-30137380D01*
X223536190Y-29089761D02*
X223298095Y-29804047D01*
X223917142Y-29804047D01*
X224488571Y-29137380D02*
X224583809Y-29137380D01*
X224679047Y-29185000D01*
X224726666Y-29232619D01*
X224774285Y-29327857D01*
X224821904Y-29518333D01*
X224821904Y-29756428D01*
X224774285Y-29946904D01*
X224726666Y-30042142D01*
X224679047Y-30089761D01*
X224583809Y-30137380D01*
X224488571Y-30137380D01*
X224393333Y-30089761D01*
X224345714Y-30042142D01*
X224298095Y-29946904D01*
X224250476Y-29756428D01*
X224250476Y-29518333D01*
X224298095Y-29327857D01*
X224345714Y-29232619D01*
X224393333Y-29185000D01*
X224488571Y-29137380D01*
X218170476Y-29137380D02*
X218789523Y-29137380D01*
X218456190Y-29518333D01*
X218599047Y-29518333D01*
X218694285Y-29565952D01*
X218741904Y-29613571D01*
X218789523Y-29708809D01*
X218789523Y-29946904D01*
X218741904Y-30042142D01*
X218694285Y-30089761D01*
X218599047Y-30137380D01*
X218313333Y-30137380D01*
X218218095Y-30089761D01*
X218170476Y-30042142D01*
X219265714Y-30137380D02*
X219456190Y-30137380D01*
X219551428Y-30089761D01*
X219599047Y-30042142D01*
X219694285Y-29899285D01*
X219741904Y-29708809D01*
X219741904Y-29327857D01*
X219694285Y-29232619D01*
X219646666Y-29185000D01*
X219551428Y-29137380D01*
X219360952Y-29137380D01*
X219265714Y-29185000D01*
X219218095Y-29232619D01*
X219170476Y-29327857D01*
X219170476Y-29565952D01*
X219218095Y-29661190D01*
X219265714Y-29708809D01*
X219360952Y-29756428D01*
X219551428Y-29756428D01*
X219646666Y-29708809D01*
X219694285Y-29661190D01*
X219741904Y-29565952D01*
X213090476Y-29137380D02*
X213709523Y-29137380D01*
X213376190Y-29518333D01*
X213519047Y-29518333D01*
X213614285Y-29565952D01*
X213661904Y-29613571D01*
X213709523Y-29708809D01*
X213709523Y-29946904D01*
X213661904Y-30042142D01*
X213614285Y-30089761D01*
X213519047Y-30137380D01*
X213233333Y-30137380D01*
X213138095Y-30089761D01*
X213090476Y-30042142D01*
X214280952Y-29565952D02*
X214185714Y-29518333D01*
X214138095Y-29470714D01*
X214090476Y-29375476D01*
X214090476Y-29327857D01*
X214138095Y-29232619D01*
X214185714Y-29185000D01*
X214280952Y-29137380D01*
X214471428Y-29137380D01*
X214566666Y-29185000D01*
X214614285Y-29232619D01*
X214661904Y-29327857D01*
X214661904Y-29375476D01*
X214614285Y-29470714D01*
X214566666Y-29518333D01*
X214471428Y-29565952D01*
X214280952Y-29565952D01*
X214185714Y-29613571D01*
X214138095Y-29661190D01*
X214090476Y-29756428D01*
X214090476Y-29946904D01*
X214138095Y-30042142D01*
X214185714Y-30089761D01*
X214280952Y-30137380D01*
X214471428Y-30137380D01*
X214566666Y-30089761D01*
X214614285Y-30042142D01*
X214661904Y-29946904D01*
X214661904Y-29756428D01*
X214614285Y-29661190D01*
X214566666Y-29613571D01*
X214471428Y-29565952D01*
X208010476Y-29137380D02*
X208629523Y-29137380D01*
X208296190Y-29518333D01*
X208439047Y-29518333D01*
X208534285Y-29565952D01*
X208581904Y-29613571D01*
X208629523Y-29708809D01*
X208629523Y-29946904D01*
X208581904Y-30042142D01*
X208534285Y-30089761D01*
X208439047Y-30137380D01*
X208153333Y-30137380D01*
X208058095Y-30089761D01*
X208010476Y-30042142D01*
X208962857Y-29137380D02*
X209629523Y-29137380D01*
X209200952Y-30137380D01*
X202930476Y-29137380D02*
X203549523Y-29137380D01*
X203216190Y-29518333D01*
X203359047Y-29518333D01*
X203454285Y-29565952D01*
X203501904Y-29613571D01*
X203549523Y-29708809D01*
X203549523Y-29946904D01*
X203501904Y-30042142D01*
X203454285Y-30089761D01*
X203359047Y-30137380D01*
X203073333Y-30137380D01*
X202978095Y-30089761D01*
X202930476Y-30042142D01*
X204406666Y-29137380D02*
X204216190Y-29137380D01*
X204120952Y-29185000D01*
X204073333Y-29232619D01*
X203978095Y-29375476D01*
X203930476Y-29565952D01*
X203930476Y-29946904D01*
X203978095Y-30042142D01*
X204025714Y-30089761D01*
X204120952Y-30137380D01*
X204311428Y-30137380D01*
X204406666Y-30089761D01*
X204454285Y-30042142D01*
X204501904Y-29946904D01*
X204501904Y-29708809D01*
X204454285Y-29613571D01*
X204406666Y-29565952D01*
X204311428Y-29518333D01*
X204120952Y-29518333D01*
X204025714Y-29565952D01*
X203978095Y-29613571D01*
X203930476Y-29708809D01*
X197850476Y-29137380D02*
X198469523Y-29137380D01*
X198136190Y-29518333D01*
X198279047Y-29518333D01*
X198374285Y-29565952D01*
X198421904Y-29613571D01*
X198469523Y-29708809D01*
X198469523Y-29946904D01*
X198421904Y-30042142D01*
X198374285Y-30089761D01*
X198279047Y-30137380D01*
X197993333Y-30137380D01*
X197898095Y-30089761D01*
X197850476Y-30042142D01*
X199374285Y-29137380D02*
X198898095Y-29137380D01*
X198850476Y-29613571D01*
X198898095Y-29565952D01*
X198993333Y-29518333D01*
X199231428Y-29518333D01*
X199326666Y-29565952D01*
X199374285Y-29613571D01*
X199421904Y-29708809D01*
X199421904Y-29946904D01*
X199374285Y-30042142D01*
X199326666Y-30089761D01*
X199231428Y-30137380D01*
X198993333Y-30137380D01*
X198898095Y-30089761D01*
X198850476Y-30042142D01*
X192770476Y-29137380D02*
X193389523Y-29137380D01*
X193056190Y-29518333D01*
X193199047Y-29518333D01*
X193294285Y-29565952D01*
X193341904Y-29613571D01*
X193389523Y-29708809D01*
X193389523Y-29946904D01*
X193341904Y-30042142D01*
X193294285Y-30089761D01*
X193199047Y-30137380D01*
X192913333Y-30137380D01*
X192818095Y-30089761D01*
X192770476Y-30042142D01*
X194246666Y-29470714D02*
X194246666Y-30137380D01*
X194008571Y-29089761D02*
X193770476Y-29804047D01*
X194389523Y-29804047D01*
X187690476Y-29137380D02*
X188309523Y-29137380D01*
X187976190Y-29518333D01*
X188119047Y-29518333D01*
X188214285Y-29565952D01*
X188261904Y-29613571D01*
X188309523Y-29708809D01*
X188309523Y-29946904D01*
X188261904Y-30042142D01*
X188214285Y-30089761D01*
X188119047Y-30137380D01*
X187833333Y-30137380D01*
X187738095Y-30089761D01*
X187690476Y-30042142D01*
X188642857Y-29137380D02*
X189261904Y-29137380D01*
X188928571Y-29518333D01*
X189071428Y-29518333D01*
X189166666Y-29565952D01*
X189214285Y-29613571D01*
X189261904Y-29708809D01*
X189261904Y-29946904D01*
X189214285Y-30042142D01*
X189166666Y-30089761D01*
X189071428Y-30137380D01*
X188785714Y-30137380D01*
X188690476Y-30089761D01*
X188642857Y-30042142D01*
X182610476Y-29137380D02*
X183229523Y-29137380D01*
X182896190Y-29518333D01*
X183039047Y-29518333D01*
X183134285Y-29565952D01*
X183181904Y-29613571D01*
X183229523Y-29708809D01*
X183229523Y-29946904D01*
X183181904Y-30042142D01*
X183134285Y-30089761D01*
X183039047Y-30137380D01*
X182753333Y-30137380D01*
X182658095Y-30089761D01*
X182610476Y-30042142D01*
X183610476Y-29232619D02*
X183658095Y-29185000D01*
X183753333Y-29137380D01*
X183991428Y-29137380D01*
X184086666Y-29185000D01*
X184134285Y-29232619D01*
X184181904Y-29327857D01*
X184181904Y-29423095D01*
X184134285Y-29565952D01*
X183562857Y-30137380D01*
X184181904Y-30137380D01*
X177530476Y-29137380D02*
X178149523Y-29137380D01*
X177816190Y-29518333D01*
X177959047Y-29518333D01*
X178054285Y-29565952D01*
X178101904Y-29613571D01*
X178149523Y-29708809D01*
X178149523Y-29946904D01*
X178101904Y-30042142D01*
X178054285Y-30089761D01*
X177959047Y-30137380D01*
X177673333Y-30137380D01*
X177578095Y-30089761D01*
X177530476Y-30042142D01*
X179101904Y-30137380D02*
X178530476Y-30137380D01*
X178816190Y-30137380D02*
X178816190Y-29137380D01*
X178720952Y-29280238D01*
X178625714Y-29375476D01*
X178530476Y-29423095D01*
X172450476Y-29137380D02*
X173069523Y-29137380D01*
X172736190Y-29518333D01*
X172879047Y-29518333D01*
X172974285Y-29565952D01*
X173021904Y-29613571D01*
X173069523Y-29708809D01*
X173069523Y-29946904D01*
X173021904Y-30042142D01*
X172974285Y-30089761D01*
X172879047Y-30137380D01*
X172593333Y-30137380D01*
X172498095Y-30089761D01*
X172450476Y-30042142D01*
X173688571Y-29137380D02*
X173783809Y-29137380D01*
X173879047Y-29185000D01*
X173926666Y-29232619D01*
X173974285Y-29327857D01*
X174021904Y-29518333D01*
X174021904Y-29756428D01*
X173974285Y-29946904D01*
X173926666Y-30042142D01*
X173879047Y-30089761D01*
X173783809Y-30137380D01*
X173688571Y-30137380D01*
X173593333Y-30089761D01*
X173545714Y-30042142D01*
X173498095Y-29946904D01*
X173450476Y-29756428D01*
X173450476Y-29518333D01*
X173498095Y-29327857D01*
X173545714Y-29232619D01*
X173593333Y-29185000D01*
X173688571Y-29137380D01*
X167418095Y-29232619D02*
X167465714Y-29185000D01*
X167560952Y-29137380D01*
X167799047Y-29137380D01*
X167894285Y-29185000D01*
X167941904Y-29232619D01*
X167989523Y-29327857D01*
X167989523Y-29423095D01*
X167941904Y-29565952D01*
X167370476Y-30137380D01*
X167989523Y-30137380D01*
X168465714Y-30137380D02*
X168656190Y-30137380D01*
X168751428Y-30089761D01*
X168799047Y-30042142D01*
X168894285Y-29899285D01*
X168941904Y-29708809D01*
X168941904Y-29327857D01*
X168894285Y-29232619D01*
X168846666Y-29185000D01*
X168751428Y-29137380D01*
X168560952Y-29137380D01*
X168465714Y-29185000D01*
X168418095Y-29232619D01*
X168370476Y-29327857D01*
X168370476Y-29565952D01*
X168418095Y-29661190D01*
X168465714Y-29708809D01*
X168560952Y-29756428D01*
X168751428Y-29756428D01*
X168846666Y-29708809D01*
X168894285Y-29661190D01*
X168941904Y-29565952D01*
X162338095Y-29232619D02*
X162385714Y-29185000D01*
X162480952Y-29137380D01*
X162719047Y-29137380D01*
X162814285Y-29185000D01*
X162861904Y-29232619D01*
X162909523Y-29327857D01*
X162909523Y-29423095D01*
X162861904Y-29565952D01*
X162290476Y-30137380D01*
X162909523Y-30137380D01*
X163480952Y-29565952D02*
X163385714Y-29518333D01*
X163338095Y-29470714D01*
X163290476Y-29375476D01*
X163290476Y-29327857D01*
X163338095Y-29232619D01*
X163385714Y-29185000D01*
X163480952Y-29137380D01*
X163671428Y-29137380D01*
X163766666Y-29185000D01*
X163814285Y-29232619D01*
X163861904Y-29327857D01*
X163861904Y-29375476D01*
X163814285Y-29470714D01*
X163766666Y-29518333D01*
X163671428Y-29565952D01*
X163480952Y-29565952D01*
X163385714Y-29613571D01*
X163338095Y-29661190D01*
X163290476Y-29756428D01*
X163290476Y-29946904D01*
X163338095Y-30042142D01*
X163385714Y-30089761D01*
X163480952Y-30137380D01*
X163671428Y-30137380D01*
X163766666Y-30089761D01*
X163814285Y-30042142D01*
X163861904Y-29946904D01*
X163861904Y-29756428D01*
X163814285Y-29661190D01*
X163766666Y-29613571D01*
X163671428Y-29565952D01*
X157258095Y-29232619D02*
X157305714Y-29185000D01*
X157400952Y-29137380D01*
X157639047Y-29137380D01*
X157734285Y-29185000D01*
X157781904Y-29232619D01*
X157829523Y-29327857D01*
X157829523Y-29423095D01*
X157781904Y-29565952D01*
X157210476Y-30137380D01*
X157829523Y-30137380D01*
X158162857Y-29137380D02*
X158829523Y-29137380D01*
X158400952Y-30137380D01*
X152178095Y-29232619D02*
X152225714Y-29185000D01*
X152320952Y-29137380D01*
X152559047Y-29137380D01*
X152654285Y-29185000D01*
X152701904Y-29232619D01*
X152749523Y-29327857D01*
X152749523Y-29423095D01*
X152701904Y-29565952D01*
X152130476Y-30137380D01*
X152749523Y-30137380D01*
X153606666Y-29137380D02*
X153416190Y-29137380D01*
X153320952Y-29185000D01*
X153273333Y-29232619D01*
X153178095Y-29375476D01*
X153130476Y-29565952D01*
X153130476Y-29946904D01*
X153178095Y-30042142D01*
X153225714Y-30089761D01*
X153320952Y-30137380D01*
X153511428Y-30137380D01*
X153606666Y-30089761D01*
X153654285Y-30042142D01*
X153701904Y-29946904D01*
X153701904Y-29708809D01*
X153654285Y-29613571D01*
X153606666Y-29565952D01*
X153511428Y-29518333D01*
X153320952Y-29518333D01*
X153225714Y-29565952D01*
X153178095Y-29613571D01*
X153130476Y-29708809D01*
X147098095Y-29232619D02*
X147145714Y-29185000D01*
X147240952Y-29137380D01*
X147479047Y-29137380D01*
X147574285Y-29185000D01*
X147621904Y-29232619D01*
X147669523Y-29327857D01*
X147669523Y-29423095D01*
X147621904Y-29565952D01*
X147050476Y-30137380D01*
X147669523Y-30137380D01*
X148574285Y-29137380D02*
X148098095Y-29137380D01*
X148050476Y-29613571D01*
X148098095Y-29565952D01*
X148193333Y-29518333D01*
X148431428Y-29518333D01*
X148526666Y-29565952D01*
X148574285Y-29613571D01*
X148621904Y-29708809D01*
X148621904Y-29946904D01*
X148574285Y-30042142D01*
X148526666Y-30089761D01*
X148431428Y-30137380D01*
X148193333Y-30137380D01*
X148098095Y-30089761D01*
X148050476Y-30042142D01*
X142018095Y-29232619D02*
X142065714Y-29185000D01*
X142160952Y-29137380D01*
X142399047Y-29137380D01*
X142494285Y-29185000D01*
X142541904Y-29232619D01*
X142589523Y-29327857D01*
X142589523Y-29423095D01*
X142541904Y-29565952D01*
X141970476Y-30137380D01*
X142589523Y-30137380D01*
X143446666Y-29470714D02*
X143446666Y-30137380D01*
X143208571Y-29089761D02*
X142970476Y-29804047D01*
X143589523Y-29804047D01*
X136938095Y-29232619D02*
X136985714Y-29185000D01*
X137080952Y-29137380D01*
X137319047Y-29137380D01*
X137414285Y-29185000D01*
X137461904Y-29232619D01*
X137509523Y-29327857D01*
X137509523Y-29423095D01*
X137461904Y-29565952D01*
X136890476Y-30137380D01*
X137509523Y-30137380D01*
X137842857Y-29137380D02*
X138461904Y-29137380D01*
X138128571Y-29518333D01*
X138271428Y-29518333D01*
X138366666Y-29565952D01*
X138414285Y-29613571D01*
X138461904Y-29708809D01*
X138461904Y-29946904D01*
X138414285Y-30042142D01*
X138366666Y-30089761D01*
X138271428Y-30137380D01*
X137985714Y-30137380D01*
X137890476Y-30089761D01*
X137842857Y-30042142D01*
X131858095Y-29232619D02*
X131905714Y-29185000D01*
X132000952Y-29137380D01*
X132239047Y-29137380D01*
X132334285Y-29185000D01*
X132381904Y-29232619D01*
X132429523Y-29327857D01*
X132429523Y-29423095D01*
X132381904Y-29565952D01*
X131810476Y-30137380D01*
X132429523Y-30137380D01*
X132810476Y-29232619D02*
X132858095Y-29185000D01*
X132953333Y-29137380D01*
X133191428Y-29137380D01*
X133286666Y-29185000D01*
X133334285Y-29232619D01*
X133381904Y-29327857D01*
X133381904Y-29423095D01*
X133334285Y-29565952D01*
X132762857Y-30137380D01*
X133381904Y-30137380D01*
X126778095Y-29232619D02*
X126825714Y-29185000D01*
X126920952Y-29137380D01*
X127159047Y-29137380D01*
X127254285Y-29185000D01*
X127301904Y-29232619D01*
X127349523Y-29327857D01*
X127349523Y-29423095D01*
X127301904Y-29565952D01*
X126730476Y-30137380D01*
X127349523Y-30137380D01*
X128301904Y-30137380D02*
X127730476Y-30137380D01*
X128016190Y-30137380D02*
X128016190Y-29137380D01*
X127920952Y-29280238D01*
X127825714Y-29375476D01*
X127730476Y-29423095D01*
X121698095Y-29232619D02*
X121745714Y-29185000D01*
X121840952Y-29137380D01*
X122079047Y-29137380D01*
X122174285Y-29185000D01*
X122221904Y-29232619D01*
X122269523Y-29327857D01*
X122269523Y-29423095D01*
X122221904Y-29565952D01*
X121650476Y-30137380D01*
X122269523Y-30137380D01*
X122888571Y-29137380D02*
X122983809Y-29137380D01*
X123079047Y-29185000D01*
X123126666Y-29232619D01*
X123174285Y-29327857D01*
X123221904Y-29518333D01*
X123221904Y-29756428D01*
X123174285Y-29946904D01*
X123126666Y-30042142D01*
X123079047Y-30089761D01*
X122983809Y-30137380D01*
X122888571Y-30137380D01*
X122793333Y-30089761D01*
X122745714Y-30042142D01*
X122698095Y-29946904D01*
X122650476Y-29756428D01*
X122650476Y-29518333D01*
X122698095Y-29327857D01*
X122745714Y-29232619D01*
X122793333Y-29185000D01*
X122888571Y-29137380D01*
X117189523Y-30137380D02*
X116618095Y-30137380D01*
X116903809Y-30137380D02*
X116903809Y-29137380D01*
X116808571Y-29280238D01*
X116713333Y-29375476D01*
X116618095Y-29423095D01*
X117665714Y-30137380D02*
X117856190Y-30137380D01*
X117951428Y-30089761D01*
X117999047Y-30042142D01*
X118094285Y-29899285D01*
X118141904Y-29708809D01*
X118141904Y-29327857D01*
X118094285Y-29232619D01*
X118046666Y-29185000D01*
X117951428Y-29137380D01*
X117760952Y-29137380D01*
X117665714Y-29185000D01*
X117618095Y-29232619D01*
X117570476Y-29327857D01*
X117570476Y-29565952D01*
X117618095Y-29661190D01*
X117665714Y-29708809D01*
X117760952Y-29756428D01*
X117951428Y-29756428D01*
X118046666Y-29708809D01*
X118094285Y-29661190D01*
X118141904Y-29565952D01*
X112109523Y-30137380D02*
X111538095Y-30137380D01*
X111823809Y-30137380D02*
X111823809Y-29137380D01*
X111728571Y-29280238D01*
X111633333Y-29375476D01*
X111538095Y-29423095D01*
X112680952Y-29565952D02*
X112585714Y-29518333D01*
X112538095Y-29470714D01*
X112490476Y-29375476D01*
X112490476Y-29327857D01*
X112538095Y-29232619D01*
X112585714Y-29185000D01*
X112680952Y-29137380D01*
X112871428Y-29137380D01*
X112966666Y-29185000D01*
X113014285Y-29232619D01*
X113061904Y-29327857D01*
X113061904Y-29375476D01*
X113014285Y-29470714D01*
X112966666Y-29518333D01*
X112871428Y-29565952D01*
X112680952Y-29565952D01*
X112585714Y-29613571D01*
X112538095Y-29661190D01*
X112490476Y-29756428D01*
X112490476Y-29946904D01*
X112538095Y-30042142D01*
X112585714Y-30089761D01*
X112680952Y-30137380D01*
X112871428Y-30137380D01*
X112966666Y-30089761D01*
X113014285Y-30042142D01*
X113061904Y-29946904D01*
X113061904Y-29756428D01*
X113014285Y-29661190D01*
X112966666Y-29613571D01*
X112871428Y-29565952D01*
X107029523Y-30137380D02*
X106458095Y-30137380D01*
X106743809Y-30137380D02*
X106743809Y-29137380D01*
X106648571Y-29280238D01*
X106553333Y-29375476D01*
X106458095Y-29423095D01*
X107362857Y-29137380D02*
X108029523Y-29137380D01*
X107600952Y-30137380D01*
X101949523Y-30137380D02*
X101378095Y-30137380D01*
X101663809Y-30137380D02*
X101663809Y-29137380D01*
X101568571Y-29280238D01*
X101473333Y-29375476D01*
X101378095Y-29423095D01*
X102806666Y-29137380D02*
X102616190Y-29137380D01*
X102520952Y-29185000D01*
X102473333Y-29232619D01*
X102378095Y-29375476D01*
X102330476Y-29565952D01*
X102330476Y-29946904D01*
X102378095Y-30042142D01*
X102425714Y-30089761D01*
X102520952Y-30137380D01*
X102711428Y-30137380D01*
X102806666Y-30089761D01*
X102854285Y-30042142D01*
X102901904Y-29946904D01*
X102901904Y-29708809D01*
X102854285Y-29613571D01*
X102806666Y-29565952D01*
X102711428Y-29518333D01*
X102520952Y-29518333D01*
X102425714Y-29565952D01*
X102378095Y-29613571D01*
X102330476Y-29708809D01*
X96869523Y-30137380D02*
X96298095Y-30137380D01*
X96583809Y-30137380D02*
X96583809Y-29137380D01*
X96488571Y-29280238D01*
X96393333Y-29375476D01*
X96298095Y-29423095D01*
X97774285Y-29137380D02*
X97298095Y-29137380D01*
X97250476Y-29613571D01*
X97298095Y-29565952D01*
X97393333Y-29518333D01*
X97631428Y-29518333D01*
X97726666Y-29565952D01*
X97774285Y-29613571D01*
X97821904Y-29708809D01*
X97821904Y-29946904D01*
X97774285Y-30042142D01*
X97726666Y-30089761D01*
X97631428Y-30137380D01*
X97393333Y-30137380D01*
X97298095Y-30089761D01*
X97250476Y-30042142D01*
X91789523Y-30137380D02*
X91218095Y-30137380D01*
X91503809Y-30137380D02*
X91503809Y-29137380D01*
X91408571Y-29280238D01*
X91313333Y-29375476D01*
X91218095Y-29423095D01*
X92646666Y-29470714D02*
X92646666Y-30137380D01*
X92408571Y-29089761D02*
X92170476Y-29804047D01*
X92789523Y-29804047D01*
X86709523Y-30137380D02*
X86138095Y-30137380D01*
X86423809Y-30137380D02*
X86423809Y-29137380D01*
X86328571Y-29280238D01*
X86233333Y-29375476D01*
X86138095Y-29423095D01*
X87042857Y-29137380D02*
X87661904Y-29137380D01*
X87328571Y-29518333D01*
X87471428Y-29518333D01*
X87566666Y-29565952D01*
X87614285Y-29613571D01*
X87661904Y-29708809D01*
X87661904Y-29946904D01*
X87614285Y-30042142D01*
X87566666Y-30089761D01*
X87471428Y-30137380D01*
X87185714Y-30137380D01*
X87090476Y-30089761D01*
X87042857Y-30042142D01*
X81629523Y-30137380D02*
X81058095Y-30137380D01*
X81343809Y-30137380D02*
X81343809Y-29137380D01*
X81248571Y-29280238D01*
X81153333Y-29375476D01*
X81058095Y-29423095D01*
X82010476Y-29232619D02*
X82058095Y-29185000D01*
X82153333Y-29137380D01*
X82391428Y-29137380D01*
X82486666Y-29185000D01*
X82534285Y-29232619D01*
X82581904Y-29327857D01*
X82581904Y-29423095D01*
X82534285Y-29565952D01*
X81962857Y-30137380D01*
X82581904Y-30137380D01*
X76549523Y-30137380D02*
X75978095Y-30137380D01*
X76263809Y-30137380D02*
X76263809Y-29137380D01*
X76168571Y-29280238D01*
X76073333Y-29375476D01*
X75978095Y-29423095D01*
X77501904Y-30137380D02*
X76930476Y-30137380D01*
X77216190Y-30137380D02*
X77216190Y-29137380D01*
X77120952Y-29280238D01*
X77025714Y-29375476D01*
X76930476Y-29423095D01*
X71469523Y-30137380D02*
X70898095Y-30137380D01*
X71183809Y-30137380D02*
X71183809Y-29137380D01*
X71088571Y-29280238D01*
X70993333Y-29375476D01*
X70898095Y-29423095D01*
X72088571Y-29137380D02*
X72183809Y-29137380D01*
X72279047Y-29185000D01*
X72326666Y-29232619D01*
X72374285Y-29327857D01*
X72421904Y-29518333D01*
X72421904Y-29756428D01*
X72374285Y-29946904D01*
X72326666Y-30042142D01*
X72279047Y-30089761D01*
X72183809Y-30137380D01*
X72088571Y-30137380D01*
X71993333Y-30089761D01*
X71945714Y-30042142D01*
X71898095Y-29946904D01*
X71850476Y-29756428D01*
X71850476Y-29518333D01*
X71898095Y-29327857D01*
X71945714Y-29232619D01*
X71993333Y-29185000D01*
X72088571Y-29137380D01*
X66389523Y-30137380D02*
X66580000Y-30137380D01*
X66675238Y-30089761D01*
X66722857Y-30042142D01*
X66818095Y-29899285D01*
X66865714Y-29708809D01*
X66865714Y-29327857D01*
X66818095Y-29232619D01*
X66770476Y-29185000D01*
X66675238Y-29137380D01*
X66484761Y-29137380D01*
X66389523Y-29185000D01*
X66341904Y-29232619D01*
X66294285Y-29327857D01*
X66294285Y-29565952D01*
X66341904Y-29661190D01*
X66389523Y-29708809D01*
X66484761Y-29756428D01*
X66675238Y-29756428D01*
X66770476Y-29708809D01*
X66818095Y-29661190D01*
X66865714Y-29565952D01*
X61404761Y-29565952D02*
X61309523Y-29518333D01*
X61261904Y-29470714D01*
X61214285Y-29375476D01*
X61214285Y-29327857D01*
X61261904Y-29232619D01*
X61309523Y-29185000D01*
X61404761Y-29137380D01*
X61595238Y-29137380D01*
X61690476Y-29185000D01*
X61738095Y-29232619D01*
X61785714Y-29327857D01*
X61785714Y-29375476D01*
X61738095Y-29470714D01*
X61690476Y-29518333D01*
X61595238Y-29565952D01*
X61404761Y-29565952D01*
X61309523Y-29613571D01*
X61261904Y-29661190D01*
X61214285Y-29756428D01*
X61214285Y-29946904D01*
X61261904Y-30042142D01*
X61309523Y-30089761D01*
X61404761Y-30137380D01*
X61595238Y-30137380D01*
X61690476Y-30089761D01*
X61738095Y-30042142D01*
X61785714Y-29946904D01*
X61785714Y-29756428D01*
X61738095Y-29661190D01*
X61690476Y-29613571D01*
X61595238Y-29565952D01*
X56086666Y-29137380D02*
X56753333Y-29137380D01*
X56324761Y-30137380D01*
X51530476Y-29137380D02*
X51340000Y-29137380D01*
X51244761Y-29185000D01*
X51197142Y-29232619D01*
X51101904Y-29375476D01*
X51054285Y-29565952D01*
X51054285Y-29946904D01*
X51101904Y-30042142D01*
X51149523Y-30089761D01*
X51244761Y-30137380D01*
X51435238Y-30137380D01*
X51530476Y-30089761D01*
X51578095Y-30042142D01*
X51625714Y-29946904D01*
X51625714Y-29708809D01*
X51578095Y-29613571D01*
X51530476Y-29565952D01*
X51435238Y-29518333D01*
X51244761Y-29518333D01*
X51149523Y-29565952D01*
X51101904Y-29613571D01*
X51054285Y-29708809D01*
X46498095Y-29137380D02*
X46021904Y-29137380D01*
X45974285Y-29613571D01*
X46021904Y-29565952D01*
X46117142Y-29518333D01*
X46355238Y-29518333D01*
X46450476Y-29565952D01*
X46498095Y-29613571D01*
X46545714Y-29708809D01*
X46545714Y-29946904D01*
X46498095Y-30042142D01*
X46450476Y-30089761D01*
X46355238Y-30137380D01*
X46117142Y-30137380D01*
X46021904Y-30089761D01*
X45974285Y-30042142D01*
X41370476Y-29470714D02*
X41370476Y-30137380D01*
X41132380Y-29089761D02*
X40894285Y-29804047D01*
X41513333Y-29804047D01*
X35766666Y-29137380D02*
X36385714Y-29137380D01*
X36052380Y-29518333D01*
X36195238Y-29518333D01*
X36290476Y-29565952D01*
X36338095Y-29613571D01*
X36385714Y-29708809D01*
X36385714Y-29946904D01*
X36338095Y-30042142D01*
X36290476Y-30089761D01*
X36195238Y-30137380D01*
X35909523Y-30137380D01*
X35814285Y-30089761D01*
X35766666Y-30042142D01*
X30734285Y-29232619D02*
X30781904Y-29185000D01*
X30877142Y-29137380D01*
X31115238Y-29137380D01*
X31210476Y-29185000D01*
X31258095Y-29232619D01*
X31305714Y-29327857D01*
X31305714Y-29423095D01*
X31258095Y-29565952D01*
X30686666Y-30137380D01*
X31305714Y-30137380D01*
X26225714Y-30137380D02*
X25654285Y-30137380D01*
X25940000Y-30137380D02*
X25940000Y-29137380D01*
X25844761Y-29280238D01*
X25749523Y-29375476D01*
X25654285Y-29423095D01*
D11*
X381540000Y-32225000D02*
X381540000Y-34765000D01*
X310420000Y-32225000D02*
X381540000Y-32225000D01*
X310420000Y-32225000D02*
X310420000Y-34765000D01*
X239300000Y-32225000D02*
X310420000Y-32225000D01*
X239300000Y-32225000D02*
X239300000Y-34765000D01*
X168180000Y-32225000D02*
X239300000Y-32225000D01*
X168180000Y-32225000D02*
X168180000Y-34765000D01*
X97060000Y-32225000D02*
X168180000Y-32225000D01*
X97060000Y-32225000D02*
X97060000Y-34765000D01*
X25940000Y-32225000D02*
X97060000Y-32225000D01*
X25940000Y-34765000D02*
X25940000Y-32225000D01*
D10*
X427985714Y-39092142D02*
X429128571Y-39092142D01*
X430628571Y-39663571D02*
X429771428Y-39663571D01*
X430200000Y-39663571D02*
X430200000Y-38163571D01*
X430057142Y-38377857D01*
X429914285Y-38520714D01*
X429771428Y-38592142D01*
X431985714Y-38163571D02*
X431271428Y-38163571D01*
X431200000Y-38877857D01*
X431271428Y-38806428D01*
X431414285Y-38735000D01*
X431771428Y-38735000D01*
X431914285Y-38806428D01*
X431985714Y-38877857D01*
X432057142Y-39020714D01*
X432057142Y-39377857D01*
X431985714Y-39520714D01*
X431914285Y-39592142D01*
X431771428Y-39663571D01*
X431414285Y-39663571D01*
X431271428Y-39592142D01*
X431200000Y-39520714D01*
X433628571Y-38163571D02*
X434128571Y-39663571D01*
X434628571Y-38163571D01*
X417057142Y-38235000D02*
X416914285Y-38163571D01*
X416700000Y-38163571D01*
X416485714Y-38235000D01*
X416342857Y-38377857D01*
X416271428Y-38520714D01*
X416200000Y-38806428D01*
X416200000Y-39020714D01*
X416271428Y-39306428D01*
X416342857Y-39449285D01*
X416485714Y-39592142D01*
X416700000Y-39663571D01*
X416842857Y-39663571D01*
X417057142Y-39592142D01*
X417128571Y-39520714D01*
X417128571Y-39020714D01*
X416842857Y-39020714D01*
X417771428Y-39663571D02*
X417771428Y-38163571D01*
X418628571Y-39663571D01*
X418628571Y-38163571D01*
X419342857Y-39663571D02*
X419342857Y-38163571D01*
X419700000Y-38163571D01*
X419914285Y-38235000D01*
X420057142Y-38377857D01*
X420128571Y-38520714D01*
X420200000Y-38806428D01*
X420200000Y-39020714D01*
X420128571Y-39306428D01*
X420057142Y-39449285D01*
X419914285Y-39592142D01*
X419700000Y-39663571D01*
X419342857Y-39663571D01*
X401985714Y-39092142D02*
X403128571Y-39092142D01*
X402557142Y-39663571D02*
X402557142Y-38520714D01*
X404628571Y-39663571D02*
X403771428Y-39663571D01*
X404200000Y-39663571D02*
X404200000Y-38163571D01*
X404057142Y-38377857D01*
X403914285Y-38520714D01*
X403771428Y-38592142D01*
X405985714Y-38163571D02*
X405271428Y-38163571D01*
X405200000Y-38877857D01*
X405271428Y-38806428D01*
X405414285Y-38735000D01*
X405771428Y-38735000D01*
X405914285Y-38806428D01*
X405985714Y-38877857D01*
X406057142Y-39020714D01*
X406057142Y-39377857D01*
X405985714Y-39520714D01*
X405914285Y-39592142D01*
X405771428Y-39663571D01*
X405414285Y-39663571D01*
X405271428Y-39592142D01*
X405200000Y-39520714D01*
X407628571Y-38163571D02*
X408128571Y-39663571D01*
X408628571Y-38163571D01*
D13*
X45124285Y-122899285D02*
X47410000Y-122899285D01*
X50410000Y-124042142D02*
X48695714Y-124042142D01*
X49552857Y-124042142D02*
X49552857Y-121042142D01*
X49267142Y-121470714D01*
X48981428Y-121756428D01*
X48695714Y-121899285D01*
X53124285Y-121042142D02*
X51695714Y-121042142D01*
X51552857Y-122470714D01*
X51695714Y-122327857D01*
X51981428Y-122185000D01*
X52695714Y-122185000D01*
X52981428Y-122327857D01*
X53124285Y-122470714D01*
X53267142Y-122756428D01*
X53267142Y-123470714D01*
X53124285Y-123756428D01*
X52981428Y-123899285D01*
X52695714Y-124042142D01*
X51981428Y-124042142D01*
X51695714Y-123899285D01*
X51552857Y-123756428D01*
X56410000Y-121042142D02*
X57410000Y-124042142D01*
X58410000Y-121042142D01*
X46695714Y-84355000D02*
X46410000Y-84212142D01*
X45981428Y-84212142D01*
X45552857Y-84355000D01*
X45267142Y-84640714D01*
X45124285Y-84926428D01*
X44981428Y-85497857D01*
X44981428Y-85926428D01*
X45124285Y-86497857D01*
X45267142Y-86783571D01*
X45552857Y-87069285D01*
X45981428Y-87212142D01*
X46267142Y-87212142D01*
X46695714Y-87069285D01*
X46838571Y-86926428D01*
X46838571Y-85926428D01*
X46267142Y-85926428D01*
X48124285Y-87212142D02*
X48124285Y-84212142D01*
X49838571Y-87212142D01*
X49838571Y-84212142D01*
X51267142Y-87212142D02*
X51267142Y-84212142D01*
X51981428Y-84212142D01*
X52410000Y-84355000D01*
X52695714Y-84640714D01*
X52838571Y-84926428D01*
X52981428Y-85497857D01*
X52981428Y-85926428D01*
X52838571Y-86497857D01*
X52695714Y-86783571D01*
X52410000Y-87069285D01*
X51981428Y-87212142D01*
X51267142Y-87212142D01*
X45124285Y-49239285D02*
X47410000Y-49239285D01*
X46267142Y-50382142D02*
X46267142Y-48096428D01*
X50410000Y-50382142D02*
X48695714Y-50382142D01*
X49552857Y-50382142D02*
X49552857Y-47382142D01*
X49267142Y-47810714D01*
X48981428Y-48096428D01*
X48695714Y-48239285D01*
X53124285Y-47382142D02*
X51695714Y-47382142D01*
X51552857Y-48810714D01*
X51695714Y-48667857D01*
X51981428Y-48525000D01*
X52695714Y-48525000D01*
X52981428Y-48667857D01*
X53124285Y-48810714D01*
X53267142Y-49096428D01*
X53267142Y-49810714D01*
X53124285Y-50096428D01*
X52981428Y-50239285D01*
X52695714Y-50382142D01*
X51981428Y-50382142D01*
X51695714Y-50239285D01*
X51552857Y-50096428D01*
X56410000Y-47382142D02*
X57410000Y-50382142D01*
X58410000Y-47382142D01*
D12*
X44427023Y-131676904D02*
X43969880Y-131676904D01*
X44198452Y-131676904D02*
X44198452Y-130876904D01*
X44122261Y-130991190D01*
X44046071Y-131067380D01*
X43969880Y-131105476D01*
X44807976Y-131676904D02*
X44960357Y-131676904D01*
X45036547Y-131638809D01*
X45074642Y-131600714D01*
X45150833Y-131486428D01*
X45188928Y-131334047D01*
X45188928Y-131029285D01*
X45150833Y-130953095D01*
X45112738Y-130915000D01*
X45036547Y-130876904D01*
X44884166Y-130876904D01*
X44807976Y-130915000D01*
X44769880Y-130953095D01*
X44731785Y-131029285D01*
X44731785Y-131219761D01*
X44769880Y-131295952D01*
X44807976Y-131334047D01*
X44884166Y-131372142D01*
X45036547Y-131372142D01*
X45112738Y-131334047D01*
X45150833Y-131295952D01*
X45188928Y-131219761D01*
X45493690Y-130876904D02*
X45493690Y-131029285D01*
X45798452Y-130876904D02*
X45798452Y-131029285D01*
X46750833Y-131676904D02*
X46750833Y-130876904D01*
X46941309Y-130876904D01*
X47055595Y-130915000D01*
X47131785Y-130991190D01*
X47169880Y-131067380D01*
X47207976Y-131219761D01*
X47207976Y-131334047D01*
X47169880Y-131486428D01*
X47131785Y-131562619D01*
X47055595Y-131638809D01*
X46941309Y-131676904D01*
X46750833Y-131676904D01*
X47550833Y-131676904D02*
X47550833Y-130876904D01*
X47931785Y-131676904D02*
X47931785Y-130876904D01*
X48388928Y-131676904D01*
X48388928Y-130876904D01*
X49722261Y-131143571D02*
X49722261Y-131676904D01*
X49531785Y-130838809D02*
X49341309Y-131410238D01*
X49836547Y-131410238D01*
X50560357Y-131676904D02*
X50103214Y-131676904D01*
X50331785Y-131676904D02*
X50331785Y-130876904D01*
X50255595Y-130991190D01*
X50179404Y-131067380D01*
X50103214Y-131105476D01*
X51246071Y-130876904D02*
X51093690Y-130876904D01*
X51017500Y-130915000D01*
X50979404Y-130953095D01*
X50903214Y-131067380D01*
X50865119Y-131219761D01*
X50865119Y-131524523D01*
X50903214Y-131600714D01*
X50941309Y-131638809D01*
X51017500Y-131676904D01*
X51169880Y-131676904D01*
X51246071Y-131638809D01*
X51284166Y-131600714D01*
X51322261Y-131524523D01*
X51322261Y-131334047D01*
X51284166Y-131257857D01*
X51246071Y-131219761D01*
X51169880Y-131181666D01*
X51017500Y-131181666D01*
X50941309Y-131219761D01*
X50903214Y-131257857D01*
X50865119Y-131334047D01*
X52084166Y-131676904D02*
X51627023Y-131676904D01*
X51855595Y-131676904D02*
X51855595Y-130876904D01*
X51779404Y-130991190D01*
X51703214Y-131067380D01*
X51627023Y-131105476D01*
X52388928Y-130953095D02*
X52427023Y-130915000D01*
X52503214Y-130876904D01*
X52693690Y-130876904D01*
X52769880Y-130915000D01*
X52807976Y-130953095D01*
X52846071Y-131029285D01*
X52846071Y-131105476D01*
X52807976Y-131219761D01*
X52350833Y-131676904D01*
X52846071Y-131676904D01*
X54065119Y-131257857D02*
X54179404Y-131295952D01*
X54217500Y-131334047D01*
X54255595Y-131410238D01*
X54255595Y-131524523D01*
X54217500Y-131600714D01*
X54179404Y-131638809D01*
X54103214Y-131676904D01*
X53798452Y-131676904D01*
X53798452Y-130876904D01*
X54065119Y-130876904D01*
X54141309Y-130915000D01*
X54179404Y-130953095D01*
X54217500Y-131029285D01*
X54217500Y-131105476D01*
X54179404Y-131181666D01*
X54141309Y-131219761D01*
X54065119Y-131257857D01*
X53798452Y-131257857D01*
X54941309Y-131676904D02*
X54941309Y-131257857D01*
X54903214Y-131181666D01*
X54827023Y-131143571D01*
X54674642Y-131143571D01*
X54598452Y-131181666D01*
X54941309Y-131638809D02*
X54865119Y-131676904D01*
X54674642Y-131676904D01*
X54598452Y-131638809D01*
X54560357Y-131562619D01*
X54560357Y-131486428D01*
X54598452Y-131410238D01*
X54674642Y-131372142D01*
X54865119Y-131372142D01*
X54941309Y-131334047D01*
X55665119Y-131638809D02*
X55588928Y-131676904D01*
X55436547Y-131676904D01*
X55360357Y-131638809D01*
X55322261Y-131600714D01*
X55284166Y-131524523D01*
X55284166Y-131295952D01*
X55322261Y-131219761D01*
X55360357Y-131181666D01*
X55436547Y-131143571D01*
X55588928Y-131143571D01*
X55665119Y-131181666D01*
X56007976Y-131676904D02*
X56007976Y-130876904D01*
X56084166Y-131372142D02*
X56312738Y-131676904D01*
X56312738Y-131143571D02*
X56007976Y-131448333D01*
X56655595Y-131143571D02*
X56655595Y-131943571D01*
X56655595Y-131181666D02*
X56731785Y-131143571D01*
X56884166Y-131143571D01*
X56960357Y-131181666D01*
X56998452Y-131219761D01*
X57036547Y-131295952D01*
X57036547Y-131524523D01*
X56998452Y-131600714D01*
X56960357Y-131638809D01*
X56884166Y-131676904D01*
X56731785Y-131676904D01*
X56655595Y-131638809D01*
X57493690Y-131676904D02*
X57417500Y-131638809D01*
X57379404Y-131562619D01*
X57379404Y-130876904D01*
X58141309Y-131676904D02*
X58141309Y-131257857D01*
X58103214Y-131181666D01*
X58027023Y-131143571D01*
X57874642Y-131143571D01*
X57798452Y-131181666D01*
X58141309Y-131638809D02*
X58065119Y-131676904D01*
X57874642Y-131676904D01*
X57798452Y-131638809D01*
X57760357Y-131562619D01*
X57760357Y-131486428D01*
X57798452Y-131410238D01*
X57874642Y-131372142D01*
X58065119Y-131372142D01*
X58141309Y-131334047D01*
X58522261Y-131143571D02*
X58522261Y-131676904D01*
X58522261Y-131219761D02*
X58560357Y-131181666D01*
X58636547Y-131143571D01*
X58750833Y-131143571D01*
X58827023Y-131181666D01*
X58865119Y-131257857D01*
X58865119Y-131676904D01*
X59550833Y-131638809D02*
X59474642Y-131676904D01*
X59322261Y-131676904D01*
X59246071Y-131638809D01*
X59207976Y-131562619D01*
X59207976Y-131257857D01*
X59246071Y-131181666D01*
X59322261Y-131143571D01*
X59474642Y-131143571D01*
X59550833Y-131181666D01*
X59588928Y-131257857D01*
X59588928Y-131334047D01*
X59207976Y-131410238D01*
X60465119Y-131143571D02*
X60655595Y-131676904D01*
X60846071Y-131143571D01*
X61569880Y-131676904D02*
X61112738Y-131676904D01*
X61341309Y-131676904D02*
X61341309Y-130876904D01*
X61265119Y-130991190D01*
X61188928Y-131067380D01*
X61112738Y-131105476D01*
X61912738Y-131600714D02*
X61950833Y-131638809D01*
X61912738Y-131676904D01*
X61874642Y-131638809D01*
X61912738Y-131600714D01*
X61912738Y-131676904D01*
X62446071Y-130876904D02*
X62522261Y-130876904D01*
X62598452Y-130915000D01*
X62636547Y-130953095D01*
X62674642Y-131029285D01*
X62712738Y-131181666D01*
X62712738Y-131372142D01*
X62674642Y-131524523D01*
X62636547Y-131600714D01*
X62598452Y-131638809D01*
X62522261Y-131676904D01*
X62446071Y-131676904D01*
X62369880Y-131638809D01*
X62331785Y-131600714D01*
X62293690Y-131524523D01*
X62255595Y-131372142D01*
X62255595Y-131181666D01*
X62293690Y-131029285D01*
X62331785Y-130953095D01*
X62369880Y-130915000D01*
X62446071Y-130876904D01*
X63055595Y-131600714D02*
X63093690Y-131638809D01*
X63055595Y-131676904D01*
X63017500Y-131638809D01*
X63055595Y-131600714D01*
X63055595Y-131676904D01*
X63588928Y-130876904D02*
X63665119Y-130876904D01*
X63741309Y-130915000D01*
X63779404Y-130953095D01*
X63817500Y-131029285D01*
X63855595Y-131181666D01*
X63855595Y-131372142D01*
X63817500Y-131524523D01*
X63779404Y-131600714D01*
X63741309Y-131638809D01*
X63665119Y-131676904D01*
X63588928Y-131676904D01*
X63512738Y-131638809D01*
X63474642Y-131600714D01*
X63436547Y-131524523D01*
X63398452Y-131372142D01*
X63398452Y-131181666D01*
X63436547Y-131029285D01*
X63474642Y-130953095D01*
X63512738Y-130915000D01*
X63588928Y-130876904D01*
X44007976Y-133026904D02*
X44007976Y-132226904D01*
X44198452Y-132226904D01*
X44312738Y-132265000D01*
X44388928Y-132341190D01*
X44427023Y-132417380D01*
X44465119Y-132569761D01*
X44465119Y-132684047D01*
X44427023Y-132836428D01*
X44388928Y-132912619D01*
X44312738Y-132988809D01*
X44198452Y-133026904D01*
X44007976Y-133026904D01*
X45112738Y-132988809D02*
X45036547Y-133026904D01*
X44884166Y-133026904D01*
X44807976Y-132988809D01*
X44769880Y-132912619D01*
X44769880Y-132607857D01*
X44807976Y-132531666D01*
X44884166Y-132493571D01*
X45036547Y-132493571D01*
X45112738Y-132531666D01*
X45150833Y-132607857D01*
X45150833Y-132684047D01*
X44769880Y-132760238D01*
X45455595Y-132988809D02*
X45531785Y-133026904D01*
X45684166Y-133026904D01*
X45760357Y-132988809D01*
X45798452Y-132912619D01*
X45798452Y-132874523D01*
X45760357Y-132798333D01*
X45684166Y-132760238D01*
X45569880Y-132760238D01*
X45493690Y-132722142D01*
X45455595Y-132645952D01*
X45455595Y-132607857D01*
X45493690Y-132531666D01*
X45569880Y-132493571D01*
X45684166Y-132493571D01*
X45760357Y-132531666D01*
X46141309Y-133026904D02*
X46141309Y-132493571D01*
X46141309Y-132226904D02*
X46103214Y-132265000D01*
X46141309Y-132303095D01*
X46179404Y-132265000D01*
X46141309Y-132226904D01*
X46141309Y-132303095D01*
X46865119Y-132493571D02*
X46865119Y-133141190D01*
X46827023Y-133217380D01*
X46788928Y-133255476D01*
X46712738Y-133293571D01*
X46598452Y-133293571D01*
X46522261Y-133255476D01*
X46865119Y-132988809D02*
X46788928Y-133026904D01*
X46636547Y-133026904D01*
X46560357Y-132988809D01*
X46522261Y-132950714D01*
X46484166Y-132874523D01*
X46484166Y-132645952D01*
X46522261Y-132569761D01*
X46560357Y-132531666D01*
X46636547Y-132493571D01*
X46788928Y-132493571D01*
X46865119Y-132531666D01*
X47246071Y-132493571D02*
X47246071Y-133026904D01*
X47246071Y-132569761D02*
X47284166Y-132531666D01*
X47360357Y-132493571D01*
X47474642Y-132493571D01*
X47550833Y-132531666D01*
X47588928Y-132607857D01*
X47588928Y-133026904D01*
X47969880Y-132950714D02*
X48007976Y-132988809D01*
X47969880Y-133026904D01*
X47931785Y-132988809D01*
X47969880Y-132950714D01*
X47969880Y-133026904D01*
X47969880Y-132531666D02*
X48007976Y-132569761D01*
X47969880Y-132607857D01*
X47931785Y-132569761D01*
X47969880Y-132531666D01*
X47969880Y-132607857D01*
X48960357Y-133026904D02*
X48960357Y-132226904D01*
X49265119Y-132226904D01*
X49341309Y-132265000D01*
X49379404Y-132303095D01*
X49417500Y-132379285D01*
X49417500Y-132493571D01*
X49379404Y-132569761D01*
X49341309Y-132607857D01*
X49265119Y-132645952D01*
X48960357Y-132645952D01*
X50103214Y-133026904D02*
X50103214Y-132607857D01*
X50065119Y-132531666D01*
X49988928Y-132493571D01*
X49836547Y-132493571D01*
X49760357Y-132531666D01*
X50103214Y-132988809D02*
X50027023Y-133026904D01*
X49836547Y-133026904D01*
X49760357Y-132988809D01*
X49722261Y-132912619D01*
X49722261Y-132836428D01*
X49760357Y-132760238D01*
X49836547Y-132722142D01*
X50027023Y-132722142D01*
X50103214Y-132684047D01*
X50369880Y-132493571D02*
X50674642Y-132493571D01*
X50484166Y-132226904D02*
X50484166Y-132912619D01*
X50522261Y-132988809D01*
X50598452Y-133026904D01*
X50674642Y-133026904D01*
X50941309Y-133026904D02*
X50941309Y-132493571D01*
X50941309Y-132645952D02*
X50979404Y-132569761D01*
X51017500Y-132531666D01*
X51093690Y-132493571D01*
X51169880Y-132493571D01*
X51436547Y-133026904D02*
X51436547Y-132493571D01*
X51436547Y-132226904D02*
X51398452Y-132265000D01*
X51436547Y-132303095D01*
X51474642Y-132265000D01*
X51436547Y-132226904D01*
X51436547Y-132303095D01*
X52160357Y-132988809D02*
X52084166Y-133026904D01*
X51931785Y-133026904D01*
X51855595Y-132988809D01*
X51817500Y-132950714D01*
X51779404Y-132874523D01*
X51779404Y-132645952D01*
X51817500Y-132569761D01*
X51855595Y-132531666D01*
X51931785Y-132493571D01*
X52084166Y-132493571D01*
X52160357Y-132531666D01*
X52503214Y-133026904D02*
X52503214Y-132226904D01*
X52579404Y-132722142D02*
X52807976Y-133026904D01*
X52807976Y-132493571D02*
X52503214Y-132798333D01*
X54027023Y-132607857D02*
X54141309Y-132645952D01*
X54179404Y-132684047D01*
X54217500Y-132760238D01*
X54217500Y-132874523D01*
X54179404Y-132950714D01*
X54141309Y-132988809D01*
X54065119Y-133026904D01*
X53760357Y-133026904D01*
X53760357Y-132226904D01*
X54027023Y-132226904D01*
X54103214Y-132265000D01*
X54141309Y-132303095D01*
X54179404Y-132379285D01*
X54179404Y-132455476D01*
X54141309Y-132531666D01*
X54103214Y-132569761D01*
X54027023Y-132607857D01*
X53760357Y-132607857D01*
X54903214Y-133026904D02*
X54903214Y-132607857D01*
X54865119Y-132531666D01*
X54788928Y-132493571D01*
X54636547Y-132493571D01*
X54560357Y-132531666D01*
X54903214Y-132988809D02*
X54827023Y-133026904D01*
X54636547Y-133026904D01*
X54560357Y-132988809D01*
X54522261Y-132912619D01*
X54522261Y-132836428D01*
X54560357Y-132760238D01*
X54636547Y-132722142D01*
X54827023Y-132722142D01*
X54903214Y-132684047D01*
X55627023Y-132493571D02*
X55627023Y-133026904D01*
X55284166Y-132493571D02*
X55284166Y-132912619D01*
X55322261Y-132988809D01*
X55398452Y-133026904D01*
X55512738Y-133026904D01*
X55588928Y-132988809D01*
X55627023Y-132950714D01*
X55969880Y-132988809D02*
X56046071Y-133026904D01*
X56198452Y-133026904D01*
X56274642Y-132988809D01*
X56312738Y-132912619D01*
X56312738Y-132874523D01*
X56274642Y-132798333D01*
X56198452Y-132760238D01*
X56084166Y-132760238D01*
X56007976Y-132722142D01*
X55969880Y-132645952D01*
X55969880Y-132607857D01*
X56007976Y-132531666D01*
X56084166Y-132493571D01*
X56198452Y-132493571D01*
X56274642Y-132531666D01*
X44007976Y-134376904D02*
X44007976Y-133576904D01*
X44198452Y-133576904D01*
X44312738Y-133615000D01*
X44388928Y-133691190D01*
X44427023Y-133767380D01*
X44465119Y-133919761D01*
X44465119Y-134034047D01*
X44427023Y-134186428D01*
X44388928Y-134262619D01*
X44312738Y-134338809D01*
X44198452Y-134376904D01*
X44007976Y-134376904D01*
X45150833Y-134376904D02*
X45150833Y-133957857D01*
X45112738Y-133881666D01*
X45036547Y-133843571D01*
X44884166Y-133843571D01*
X44807976Y-133881666D01*
X45150833Y-134338809D02*
X45074642Y-134376904D01*
X44884166Y-134376904D01*
X44807976Y-134338809D01*
X44769880Y-134262619D01*
X44769880Y-134186428D01*
X44807976Y-134110238D01*
X44884166Y-134072142D01*
X45074642Y-134072142D01*
X45150833Y-134034047D01*
X45417500Y-133843571D02*
X45722261Y-133843571D01*
X45531785Y-133576904D02*
X45531785Y-134262619D01*
X45569880Y-134338809D01*
X45646071Y-134376904D01*
X45722261Y-134376904D01*
X46293690Y-134338809D02*
X46217500Y-134376904D01*
X46065119Y-134376904D01*
X45988928Y-134338809D01*
X45950833Y-134262619D01*
X45950833Y-133957857D01*
X45988928Y-133881666D01*
X46065119Y-133843571D01*
X46217500Y-133843571D01*
X46293690Y-133881666D01*
X46331785Y-133957857D01*
X46331785Y-134034047D01*
X45950833Y-134110238D01*
X46674642Y-134300714D02*
X46712738Y-134338809D01*
X46674642Y-134376904D01*
X46636547Y-134338809D01*
X46674642Y-134300714D01*
X46674642Y-134376904D01*
X46674642Y-133881666D02*
X46712738Y-133919761D01*
X46674642Y-133957857D01*
X46636547Y-133919761D01*
X46674642Y-133881666D01*
X46674642Y-133957857D01*
X47627023Y-133653095D02*
X47665119Y-133615000D01*
X47741309Y-133576904D01*
X47931785Y-133576904D01*
X48007976Y-133615000D01*
X48046071Y-133653095D01*
X48084166Y-133729285D01*
X48084166Y-133805476D01*
X48046071Y-133919761D01*
X47588928Y-134376904D01*
X48084166Y-134376904D01*
X48579404Y-133576904D02*
X48655595Y-133576904D01*
X48731785Y-133615000D01*
X48769880Y-133653095D01*
X48807976Y-133729285D01*
X48846071Y-133881666D01*
X48846071Y-134072142D01*
X48807976Y-134224523D01*
X48769880Y-134300714D01*
X48731785Y-134338809D01*
X48655595Y-134376904D01*
X48579404Y-134376904D01*
X48503214Y-134338809D01*
X48465119Y-134300714D01*
X48427023Y-134224523D01*
X48388928Y-134072142D01*
X48388928Y-133881666D01*
X48427023Y-133729285D01*
X48465119Y-133653095D01*
X48503214Y-133615000D01*
X48579404Y-133576904D01*
X49150833Y-133653095D02*
X49188928Y-133615000D01*
X49265119Y-133576904D01*
X49455595Y-133576904D01*
X49531785Y-133615000D01*
X49569880Y-133653095D01*
X49607976Y-133729285D01*
X49607976Y-133805476D01*
X49569880Y-133919761D01*
X49112738Y-134376904D01*
X49607976Y-134376904D01*
X50103214Y-133576904D02*
X50179404Y-133576904D01*
X50255595Y-133615000D01*
X50293690Y-133653095D01*
X50331785Y-133729285D01*
X50369880Y-133881666D01*
X50369880Y-134072142D01*
X50331785Y-134224523D01*
X50293690Y-134300714D01*
X50255595Y-134338809D01*
X50179404Y-134376904D01*
X50103214Y-134376904D01*
X50027023Y-134338809D01*
X49988928Y-134300714D01*
X49950833Y-134224523D01*
X49912738Y-134072142D01*
X49912738Y-133881666D01*
X49950833Y-133729285D01*
X49988928Y-133653095D01*
X50027023Y-133615000D01*
X50103214Y-133576904D01*
X50712738Y-134072142D02*
X51322261Y-134072142D01*
X52122261Y-134376904D02*
X51665119Y-134376904D01*
X51893690Y-134376904D02*
X51893690Y-133576904D01*
X51817500Y-133691190D01*
X51741309Y-133767380D01*
X51665119Y-133805476D01*
X52427023Y-133653095D02*
X52465119Y-133615000D01*
X52541309Y-133576904D01*
X52731785Y-133576904D01*
X52807976Y-133615000D01*
X52846071Y-133653095D01*
X52884166Y-133729285D01*
X52884166Y-133805476D01*
X52846071Y-133919761D01*
X52388928Y-134376904D01*
X52884166Y-134376904D01*
X44007976Y-135726904D02*
X44007976Y-134926904D01*
X44350833Y-135726904D02*
X44350833Y-135307857D01*
X44312738Y-135231666D01*
X44236547Y-135193571D01*
X44122261Y-135193571D01*
X44046071Y-135231666D01*
X44007976Y-135269761D01*
X44617500Y-135193571D02*
X44922261Y-135193571D01*
X44731785Y-134926904D02*
X44731785Y-135612619D01*
X44769880Y-135688809D01*
X44846071Y-135726904D01*
X44922261Y-135726904D01*
X45074642Y-135193571D02*
X45379404Y-135193571D01*
X45188928Y-134926904D02*
X45188928Y-135612619D01*
X45227023Y-135688809D01*
X45303214Y-135726904D01*
X45379404Y-135726904D01*
X45646071Y-135193571D02*
X45646071Y-135993571D01*
X45646071Y-135231666D02*
X45722261Y-135193571D01*
X45874642Y-135193571D01*
X45950833Y-135231666D01*
X45988928Y-135269761D01*
X46027023Y-135345952D01*
X46027023Y-135574523D01*
X45988928Y-135650714D01*
X45950833Y-135688809D01*
X45874642Y-135726904D01*
X45722261Y-135726904D01*
X45646071Y-135688809D01*
X46331785Y-135688809D02*
X46407976Y-135726904D01*
X46560357Y-135726904D01*
X46636547Y-135688809D01*
X46674642Y-135612619D01*
X46674642Y-135574523D01*
X46636547Y-135498333D01*
X46560357Y-135460238D01*
X46446071Y-135460238D01*
X46369880Y-135422142D01*
X46331785Y-135345952D01*
X46331785Y-135307857D01*
X46369880Y-135231666D01*
X46446071Y-135193571D01*
X46560357Y-135193571D01*
X46636547Y-135231666D01*
X47017500Y-135650714D02*
X47055595Y-135688809D01*
X47017500Y-135726904D01*
X46979404Y-135688809D01*
X47017500Y-135650714D01*
X47017500Y-135726904D01*
X47017500Y-135231666D02*
X47055595Y-135269761D01*
X47017500Y-135307857D01*
X46979404Y-135269761D01*
X47017500Y-135231666D01*
X47017500Y-135307857D01*
X47969880Y-134888809D02*
X47284166Y-135917380D01*
X48807976Y-134888809D02*
X48122261Y-135917380D01*
X49417500Y-135193571D02*
X49417500Y-135841190D01*
X49379404Y-135917380D01*
X49341309Y-135955476D01*
X49265119Y-135993571D01*
X49150833Y-135993571D01*
X49074642Y-135955476D01*
X49417500Y-135688809D02*
X49341309Y-135726904D01*
X49188928Y-135726904D01*
X49112738Y-135688809D01*
X49074642Y-135650714D01*
X49036547Y-135574523D01*
X49036547Y-135345952D01*
X49074642Y-135269761D01*
X49112738Y-135231666D01*
X49188928Y-135193571D01*
X49341309Y-135193571D01*
X49417500Y-135231666D01*
X49798452Y-135726904D02*
X49798452Y-135193571D01*
X49798452Y-134926904D02*
X49760357Y-134965000D01*
X49798452Y-135003095D01*
X49836547Y-134965000D01*
X49798452Y-134926904D01*
X49798452Y-135003095D01*
X50065119Y-135193571D02*
X50369880Y-135193571D01*
X50179404Y-134926904D02*
X50179404Y-135612619D01*
X50217500Y-135688809D01*
X50293690Y-135726904D01*
X50369880Y-135726904D01*
X50636547Y-135726904D02*
X50636547Y-134926904D01*
X50979404Y-135726904D02*
X50979404Y-135307857D01*
X50941309Y-135231666D01*
X50865119Y-135193571D01*
X50750833Y-135193571D01*
X50674642Y-135231666D01*
X50636547Y-135269761D01*
X51703214Y-135193571D02*
X51703214Y-135726904D01*
X51360357Y-135193571D02*
X51360357Y-135612619D01*
X51398452Y-135688809D01*
X51474642Y-135726904D01*
X51588928Y-135726904D01*
X51665119Y-135688809D01*
X51703214Y-135650714D01*
X52084166Y-135726904D02*
X52084166Y-134926904D01*
X52084166Y-135231666D02*
X52160357Y-135193571D01*
X52312738Y-135193571D01*
X52388928Y-135231666D01*
X52427023Y-135269761D01*
X52465119Y-135345952D01*
X52465119Y-135574523D01*
X52427023Y-135650714D01*
X52388928Y-135688809D01*
X52312738Y-135726904D01*
X52160357Y-135726904D01*
X52084166Y-135688809D01*
X52807976Y-135650714D02*
X52846071Y-135688809D01*
X52807976Y-135726904D01*
X52769880Y-135688809D01*
X52807976Y-135650714D01*
X52807976Y-135726904D01*
X53531785Y-135688809D02*
X53455595Y-135726904D01*
X53303214Y-135726904D01*
X53227023Y-135688809D01*
X53188928Y-135650714D01*
X53150833Y-135574523D01*
X53150833Y-135345952D01*
X53188928Y-135269761D01*
X53227023Y-135231666D01*
X53303214Y-135193571D01*
X53455595Y-135193571D01*
X53531785Y-135231666D01*
X53988928Y-135726904D02*
X53912738Y-135688809D01*
X53874642Y-135650714D01*
X53836547Y-135574523D01*
X53836547Y-135345952D01*
X53874642Y-135269761D01*
X53912738Y-135231666D01*
X53988928Y-135193571D01*
X54103214Y-135193571D01*
X54179404Y-135231666D01*
X54217500Y-135269761D01*
X54255595Y-135345952D01*
X54255595Y-135574523D01*
X54217500Y-135650714D01*
X54179404Y-135688809D01*
X54103214Y-135726904D01*
X53988928Y-135726904D01*
X54598452Y-135726904D02*
X54598452Y-135193571D01*
X54598452Y-135269761D02*
X54636547Y-135231666D01*
X54712738Y-135193571D01*
X54827023Y-135193571D01*
X54903214Y-135231666D01*
X54941309Y-135307857D01*
X54941309Y-135726904D01*
X54941309Y-135307857D02*
X54979404Y-135231666D01*
X55055595Y-135193571D01*
X55169880Y-135193571D01*
X55246071Y-135231666D01*
X55284166Y-135307857D01*
X55284166Y-135726904D01*
X56236547Y-134888809D02*
X55550833Y-135917380D01*
X56388928Y-134926904D02*
X56846071Y-134926904D01*
X56617500Y-135726904D02*
X56617500Y-134926904D01*
X57112738Y-134926904D02*
X57112738Y-135574523D01*
X57150833Y-135650714D01*
X57188928Y-135688809D01*
X57265119Y-135726904D01*
X57417500Y-135726904D01*
X57493690Y-135688809D01*
X57531785Y-135650714D01*
X57569880Y-135574523D01*
X57569880Y-134926904D01*
X57950833Y-135422142D02*
X58560357Y-135422142D01*
X58941309Y-135726904D02*
X58941309Y-134926904D01*
X59131785Y-134926904D01*
X59246071Y-134965000D01*
X59322261Y-135041190D01*
X59360357Y-135117380D01*
X59398452Y-135269761D01*
X59398452Y-135384047D01*
X59360357Y-135536428D01*
X59322261Y-135612619D01*
X59246071Y-135688809D01*
X59131785Y-135726904D01*
X58941309Y-135726904D01*
X60084166Y-135726904D02*
X60084166Y-135307857D01*
X60046071Y-135231666D01*
X59969880Y-135193571D01*
X59817500Y-135193571D01*
X59741309Y-135231666D01*
X60084166Y-135688809D02*
X60007976Y-135726904D01*
X59817500Y-135726904D01*
X59741309Y-135688809D01*
X59703214Y-135612619D01*
X59703214Y-135536428D01*
X59741309Y-135460238D01*
X59817500Y-135422142D01*
X60007976Y-135422142D01*
X60084166Y-135384047D01*
X60465119Y-135726904D02*
X60465119Y-135193571D01*
X60465119Y-135345952D02*
X60503214Y-135269761D01*
X60541309Y-135231666D01*
X60617500Y-135193571D01*
X60693690Y-135193571D01*
X60960357Y-135726904D02*
X60960357Y-135193571D01*
X60960357Y-135269761D02*
X60998452Y-135231666D01*
X61074642Y-135193571D01*
X61188928Y-135193571D01*
X61265119Y-135231666D01*
X61303214Y-135307857D01*
X61303214Y-135726904D01*
X61303214Y-135307857D02*
X61341309Y-135231666D01*
X61417500Y-135193571D01*
X61531785Y-135193571D01*
X61607976Y-135231666D01*
X61646071Y-135307857D01*
X61646071Y-135726904D01*
X61988928Y-135688809D02*
X62065119Y-135726904D01*
X62217500Y-135726904D01*
X62293690Y-135688809D01*
X62331785Y-135612619D01*
X62331785Y-135574523D01*
X62293690Y-135498333D01*
X62217500Y-135460238D01*
X62103214Y-135460238D01*
X62027023Y-135422142D01*
X61988928Y-135345952D01*
X61988928Y-135307857D01*
X62027023Y-135231666D01*
X62103214Y-135193571D01*
X62217500Y-135193571D01*
X62293690Y-135231666D01*
X62560357Y-135193571D02*
X62865119Y-135193571D01*
X62674642Y-134926904D02*
X62674642Y-135612619D01*
X62712738Y-135688809D01*
X62788928Y-135726904D01*
X62865119Y-135726904D01*
X63474642Y-135726904D02*
X63474642Y-135307857D01*
X63436547Y-135231666D01*
X63360357Y-135193571D01*
X63207976Y-135193571D01*
X63131785Y-135231666D01*
X63474642Y-135688809D02*
X63398452Y-135726904D01*
X63207976Y-135726904D01*
X63131785Y-135688809D01*
X63093690Y-135612619D01*
X63093690Y-135536428D01*
X63131785Y-135460238D01*
X63207976Y-135422142D01*
X63398452Y-135422142D01*
X63474642Y-135384047D01*
X64198452Y-135726904D02*
X64198452Y-134926904D01*
X64198452Y-135688809D02*
X64122261Y-135726904D01*
X63969880Y-135726904D01*
X63893690Y-135688809D01*
X63855595Y-135650714D01*
X63817500Y-135574523D01*
X63817500Y-135345952D01*
X63855595Y-135269761D01*
X63893690Y-135231666D01*
X63969880Y-135193571D01*
X64122261Y-135193571D01*
X64198452Y-135231666D01*
X64465119Y-135193571D02*
X64769880Y-135193571D01*
X64579404Y-134926904D02*
X64579404Y-135612619D01*
X64617500Y-135688809D01*
X64693690Y-135726904D01*
X64769880Y-135726904D01*
X65036547Y-135422142D02*
X65646071Y-135422142D01*
X65988928Y-135498333D02*
X66369880Y-135498333D01*
X65912738Y-135726904D02*
X66179404Y-134926904D01*
X66446071Y-135726904D01*
X66712738Y-135726904D02*
X66712738Y-134926904D01*
X67017500Y-134926904D01*
X67093690Y-134965000D01*
X67131785Y-135003095D01*
X67169880Y-135079285D01*
X67169880Y-135193571D01*
X67131785Y-135269761D01*
X67093690Y-135307857D01*
X67017500Y-135345952D01*
X66712738Y-135345952D01*
X68046071Y-135803095D02*
X67969880Y-135765000D01*
X67893690Y-135688809D01*
X67779404Y-135574523D01*
X67703214Y-135536428D01*
X67627023Y-135536428D01*
X67665119Y-135726904D02*
X67588928Y-135688809D01*
X67512738Y-135612619D01*
X67474642Y-135460238D01*
X67474642Y-135193571D01*
X67512738Y-135041190D01*
X67588928Y-134965000D01*
X67665119Y-134926904D01*
X67817500Y-134926904D01*
X67893690Y-134965000D01*
X67969880Y-135041190D01*
X68007976Y-135193571D01*
X68007976Y-135460238D01*
X67969880Y-135612619D01*
X67893690Y-135688809D01*
X67817500Y-135726904D01*
X67665119Y-135726904D01*
D14*
X30990000Y-38245000D02*
X41810000Y-38245000D01*
X41810000Y-38245000D02*
X41810000Y-133465000D01*
X41810000Y-133465000D02*
X30990000Y-133465000D01*
X30990000Y-133465000D02*
X30990000Y-38245000D01*
X30800000Y-46485000D02*
X30120000Y-46185000D01*
X30120000Y-46185000D02*
X30120000Y-46785000D01*
X30120000Y-46785000D02*
X30800000Y-46485000D01*
X32150000Y-43354000D02*
X37650000Y-43354000D01*
X37650000Y-43354000D02*
X37650000Y-44354000D01*
X37650000Y-44354000D02*
X40650000Y-44354000D01*
X40650000Y-44354000D02*
X40650000Y-127355000D01*
X40650000Y-127355000D02*
X37650000Y-127355000D01*
X37650000Y-127355000D02*
X37650000Y-128355000D01*
X37650000Y-128355000D02*
X32150000Y-128355000D01*
X32150000Y-128355000D02*
X32150000Y-43354000D01*
X386590000Y-38245000D02*
X397410000Y-38245000D01*
X397410000Y-38245000D02*
X397410000Y-133465000D01*
X397410000Y-133465000D02*
X386590000Y-133465000D01*
X386590000Y-133465000D02*
X386590000Y-38245000D01*
X386400000Y-46485000D02*
X385720000Y-46185000D01*
X385720000Y-46185000D02*
X385720000Y-46785000D01*
X385720000Y-46785000D02*
X386400000Y-46485000D01*
X387750000Y-43354000D02*
X393250000Y-43354000D01*
X393250000Y-43354000D02*
X393250000Y-44354000D01*
X393250000Y-44354000D02*
X396250000Y-44354000D01*
X396250000Y-44354000D02*
X396250000Y-127355000D01*
X396250000Y-127355000D02*
X393250000Y-127355000D01*
X393250000Y-127355000D02*
X393250000Y-128355000D01*
X393250000Y-128355000D02*
X387750000Y-128355000D01*
X387750000Y-128355000D02*
X387750000Y-43354000D01*
X315470000Y-38245000D02*
X326290000Y-38245000D01*
X326290000Y-38245000D02*
X326290000Y-133465000D01*
X326290000Y-133465000D02*
X315470000Y-133465000D01*
X315470000Y-133465000D02*
X315470000Y-38245000D01*
X315280000Y-46485000D02*
X314600000Y-46185000D01*
X314600000Y-46185000D02*
X314600000Y-46785000D01*
X314600000Y-46785000D02*
X315280000Y-46485000D01*
X316630000Y-43354000D02*
X322130000Y-43354000D01*
X322130000Y-43354000D02*
X322130000Y-44354000D01*
X322130000Y-44354000D02*
X325130000Y-44354000D01*
X325130000Y-44354000D02*
X325130000Y-127355000D01*
X325130000Y-127355000D02*
X322130000Y-127355000D01*
X322130000Y-127355000D02*
X322130000Y-128355000D01*
X322130000Y-128355000D02*
X316630000Y-128355000D01*
X316630000Y-128355000D02*
X316630000Y-43354000D01*
X244350000Y-38245000D02*
X255170000Y-38245000D01*
X255170000Y-38245000D02*
X255170000Y-133465000D01*
X255170000Y-133465000D02*
X244350000Y-133465000D01*
X244350000Y-133465000D02*
X244350000Y-38245000D01*
X244160000Y-46485000D02*
X243480000Y-46185000D01*
X243480000Y-46185000D02*
X243480000Y-46785000D01*
X243480000Y-46785000D02*
X244160000Y-46485000D01*
X245510000Y-43354000D02*
X251010000Y-43354000D01*
X251010000Y-43354000D02*
X251010000Y-44354000D01*
X251010000Y-44354000D02*
X254010000Y-44354000D01*
X254010000Y-44354000D02*
X254010000Y-127355000D01*
X254010000Y-127355000D02*
X251010000Y-127355000D01*
X251010000Y-127355000D02*
X251010000Y-128355000D01*
X251010000Y-128355000D02*
X245510000Y-128355000D01*
X245510000Y-128355000D02*
X245510000Y-43354000D01*
X173230000Y-38245000D02*
X184050000Y-38245000D01*
X184050000Y-38245000D02*
X184050000Y-133465000D01*
X184050000Y-133465000D02*
X173230000Y-133465000D01*
X173230000Y-133465000D02*
X173230000Y-38245000D01*
X173040000Y-46485000D02*
X172360000Y-46185000D01*
X172360000Y-46185000D02*
X172360000Y-46785000D01*
X172360000Y-46785000D02*
X173040000Y-46485000D01*
X174390000Y-43354000D02*
X179890000Y-43354000D01*
X179890000Y-43354000D02*
X179890000Y-44354000D01*
X179890000Y-44354000D02*
X182890000Y-44354000D01*
X182890000Y-44354000D02*
X182890000Y-127355000D01*
X182890000Y-127355000D02*
X179890000Y-127355000D01*
X179890000Y-127355000D02*
X179890000Y-128355000D01*
X179890000Y-128355000D02*
X174390000Y-128355000D01*
X174390000Y-128355000D02*
X174390000Y-43354000D01*
X102110000Y-38245000D02*
X112930000Y-38245000D01*
X112930000Y-38245000D02*
X112930000Y-133465000D01*
X112930000Y-133465000D02*
X102110000Y-133465000D01*
X102110000Y-133465000D02*
X102110000Y-38245000D01*
X101920000Y-46485000D02*
X101240000Y-46185000D01*
X101240000Y-46185000D02*
X101240000Y-46785000D01*
X101240000Y-46785000D02*
X101920000Y-46485000D01*
X103270000Y-43354000D02*
X108770000Y-43354000D01*
X108770000Y-43354000D02*
X108770000Y-44354000D01*
X108770000Y-44354000D02*
X111770000Y-44354000D01*
X111770000Y-44354000D02*
X111770000Y-127355000D01*
X111770000Y-127355000D02*
X108770000Y-127355000D01*
X108770000Y-127355000D02*
X108770000Y-128355000D01*
X108770000Y-128355000D02*
X103270000Y-128355000D01*
X103270000Y-128355000D02*
X103270000Y-43354000D01*
D15*
G36*
X78013360Y-135292468D02*
G01*
X78048592Y-135309874D01*
X78092040Y-135340206D01*
X78123706Y-135373283D01*
X78145394Y-135414817D01*
X78158903Y-135470522D01*
X78166038Y-135546111D01*
X78168600Y-135647296D01*
X78168750Y-135690797D01*
X78168312Y-135786135D01*
X78166496Y-135854271D01*
X78162545Y-135901418D01*
X78155702Y-135933790D01*
X78145211Y-135957600D01*
X78134296Y-135973843D01*
X78064619Y-136042952D01*
X77982566Y-136084521D01*
X77894050Y-136097023D01*
X77804981Y-136078934D01*
X77776763Y-136066142D01*
X77709210Y-136030931D01*
X77709210Y-136582700D01*
X77758512Y-136557205D01*
X77823473Y-136537480D01*
X77903320Y-136532427D01*
X77983052Y-136541756D01*
X78043265Y-136562714D01*
X78093208Y-136602627D01*
X78135881Y-136659741D01*
X78139090Y-136665605D01*
X78152622Y-136693227D01*
X78162505Y-136721068D01*
X78169309Y-136754794D01*
X78173601Y-136800071D01*
X78175951Y-136862562D01*
X78176928Y-136947935D01*
X78177105Y-137044010D01*
X78177105Y-137350526D01*
X77993289Y-137350526D01*
X77993289Y-136785339D01*
X77941875Y-136742077D01*
X77888466Y-136707472D01*
X77837888Y-136701180D01*
X77787030Y-136717372D01*
X77759925Y-136733227D01*
X77739751Y-136755810D01*
X77725403Y-136789940D01*
X77715776Y-136840434D01*
X77709763Y-136912111D01*
X77706260Y-137009788D01*
X77705026Y-137074802D01*
X77700855Y-137342171D01*
X77613125Y-137347222D01*
X77525394Y-137352273D01*
X77525394Y-135693101D01*
X77709210Y-135693101D01*
X77713896Y-135785600D01*
X77729688Y-135849809D01*
X77759183Y-135889759D01*
X77804980Y-135909480D01*
X77851250Y-135913421D01*
X77903628Y-135908892D01*
X77938390Y-135891069D01*
X77960128Y-135867519D01*
X77977240Y-135842189D01*
X77987427Y-135813969D01*
X77991960Y-135774431D01*
X77992109Y-135715142D01*
X77990584Y-135665498D01*
X77987081Y-135590710D01*
X77981867Y-135541611D01*
X77973087Y-135510467D01*
X77958886Y-135489545D01*
X77945484Y-135477452D01*
X77889487Y-135451081D01*
X77823211Y-135446822D01*
X77785156Y-135455906D01*
X77747477Y-135488196D01*
X77722519Y-135551006D01*
X77710422Y-135643894D01*
X77709210Y-135693101D01*
X77525394Y-135693101D01*
X77525394Y-135278421D01*
X77617302Y-135278421D01*
X77672483Y-135280603D01*
X77700952Y-135288351D01*
X77709206Y-135303468D01*
X77709210Y-135303916D01*
X77713040Y-135318720D01*
X77729933Y-135317039D01*
X77763519Y-135300772D01*
X77841778Y-135275887D01*
X77929827Y-135273271D01*
X78013360Y-135292468D01*
G37*
X78013360Y-135292468D02*
X78048592Y-135309874D01*
X78092040Y-135340206D01*
X78123706Y-135373283D01*
X78145394Y-135414817D01*
X78158903Y-135470522D01*
X78166038Y-135546111D01*
X78168600Y-135647296D01*
X78168750Y-135690797D01*
X78168312Y-135786135D01*
X78166496Y-135854271D01*
X78162545Y-135901418D01*
X78155702Y-135933790D01*
X78145211Y-135957600D01*
X78134296Y-135973843D01*
X78064619Y-136042952D01*
X77982566Y-136084521D01*
X77894050Y-136097023D01*
X77804981Y-136078934D01*
X77776763Y-136066142D01*
X77709210Y-136030931D01*
X77709210Y-136582700D01*
X77758512Y-136557205D01*
X77823473Y-136537480D01*
X77903320Y-136532427D01*
X77983052Y-136541756D01*
X78043265Y-136562714D01*
X78093208Y-136602627D01*
X78135881Y-136659741D01*
X78139090Y-136665605D01*
X78152622Y-136693227D01*
X78162505Y-136721068D01*
X78169309Y-136754794D01*
X78173601Y-136800071D01*
X78175951Y-136862562D01*
X78176928Y-136947935D01*
X78177105Y-137044010D01*
X78177105Y-137350526D01*
X77993289Y-137350526D01*
X77993289Y-136785339D01*
X77941875Y-136742077D01*
X77888466Y-136707472D01*
X77837888Y-136701180D01*
X77787030Y-136717372D01*
X77759925Y-136733227D01*
X77739751Y-136755810D01*
X77725403Y-136789940D01*
X77715776Y-136840434D01*
X77709763Y-136912111D01*
X77706260Y-137009788D01*
X77705026Y-137074802D01*
X77700855Y-137342171D01*
X77613125Y-137347222D01*
X77525394Y-137352273D01*
X77525394Y-135693101D01*
X77709210Y-135693101D01*
X77713896Y-135785600D01*
X77729688Y-135849809D01*
X77759183Y-135889759D01*
X77804980Y-135909480D01*
X77851250Y-135913421D01*
X77903628Y-135908892D01*
X77938390Y-135891069D01*
X77960128Y-135867519D01*
X77977240Y-135842189D01*
X77987427Y-135813969D01*
X77991960Y-135774431D01*
X77992109Y-135715142D01*
X77990584Y-135665498D01*
X77987081Y-135590710D01*
X77981867Y-135541611D01*
X77973087Y-135510467D01*
X77958886Y-135489545D01*
X77945484Y-135477452D01*
X77889487Y-135451081D01*
X77823211Y-135446822D01*
X77785156Y-135455906D01*
X77747477Y-135488196D01*
X77722519Y-135551006D01*
X77710422Y-135643894D01*
X77709210Y-135693101D01*
X77525394Y-135693101D01*
X77525394Y-135278421D01*
X77617302Y-135278421D01*
X77672483Y-135280603D01*
X77700952Y-135288351D01*
X77709206Y-135303468D01*
X77709210Y-135303916D01*
X77713040Y-135318720D01*
X77729933Y-135317039D01*
X77763519Y-135300772D01*
X77841778Y-135275887D01*
X77929827Y-135273271D01*
X78013360Y-135292468D01*
G36*
X78710457Y-136538184D02*
G01*
X78789070Y-136559160D01*
X78848916Y-136597180D01*
X78891147Y-136646978D01*
X78904275Y-136668230D01*
X78913968Y-136690492D01*
X78920744Y-136718970D01*
X78925123Y-136758871D01*
X78927624Y-136815401D01*
X78928768Y-136893767D01*
X78929072Y-136999176D01*
X78929078Y-137027142D01*
X78929078Y-137350526D01*
X78848868Y-137350526D01*
X78797706Y-137346943D01*
X78759877Y-137337866D01*
X78750399Y-137332268D01*
X78724488Y-137322606D01*
X78698024Y-137332268D01*
X78654452Y-137344330D01*
X78591160Y-137349185D01*
X78521010Y-137347078D01*
X78456860Y-137338256D01*
X78419407Y-137326937D01*
X78346933Y-137280412D01*
X78301640Y-137215846D01*
X78281278Y-137130000D01*
X78281088Y-137127796D01*
X78282875Y-137089713D01*
X78444473Y-137089713D01*
X78458601Y-137133030D01*
X78481612Y-137157408D01*
X78527804Y-137175845D01*
X78588775Y-137183205D01*
X78650949Y-137179583D01*
X78700751Y-137165074D01*
X78714703Y-137155765D01*
X78739085Y-137112753D01*
X78745263Y-137063857D01*
X78745263Y-136999605D01*
X78652818Y-136999605D01*
X78564995Y-137006366D01*
X78498418Y-137025520D01*
X78457002Y-137055376D01*
X78444473Y-137089713D01*
X78282875Y-137089713D01*
X78285490Y-137034004D01*
X78316424Y-136959847D01*
X78374581Y-136903767D01*
X78382620Y-136898665D01*
X78417163Y-136882055D01*
X78459918Y-136871996D01*
X78519686Y-136867107D01*
X78590690Y-136865983D01*
X78745263Y-136865921D01*
X78745263Y-136801125D01*
X78738706Y-136750850D01*
X78721975Y-136717169D01*
X78720016Y-136715376D01*
X78682783Y-136700642D01*
X78626580Y-136694931D01*
X78564467Y-136697737D01*
X78509510Y-136708556D01*
X78476899Y-136724782D01*
X78459228Y-136737780D01*
X78440569Y-136740262D01*
X78414819Y-136729613D01*
X78375873Y-136703218D01*
X78317630Y-136658465D01*
X78312284Y-136654273D01*
X78315023Y-136638760D01*
X78337876Y-136612960D01*
X78372609Y-136584289D01*
X78410990Y-136560166D01*
X78423048Y-136554470D01*
X78467034Y-136543103D01*
X78531487Y-136534995D01*
X78603497Y-136531743D01*
X78606864Y-136531736D01*
X78710457Y-136538184D01*
G37*
X78710457Y-136538184D02*
X78789070Y-136559160D01*
X78848916Y-136597180D01*
X78891147Y-136646978D01*
X78904275Y-136668230D01*
X78913968Y-136690492D01*
X78920744Y-136718970D01*
X78925123Y-136758871D01*
X78927624Y-136815401D01*
X78928768Y-136893767D01*
X78929072Y-136999176D01*
X78929078Y-137027142D01*
X78929078Y-137350526D01*
X78848868Y-137350526D01*
X78797706Y-137346943D01*
X78759877Y-137337866D01*
X78750399Y-137332268D01*
X78724488Y-137322606D01*
X78698024Y-137332268D01*
X78654452Y-137344330D01*
X78591160Y-137349185D01*
X78521010Y-137347078D01*
X78456860Y-137338256D01*
X78419407Y-137326937D01*
X78346933Y-137280412D01*
X78301640Y-137215846D01*
X78281278Y-137130000D01*
X78281088Y-137127796D01*
X78282875Y-137089713D01*
X78444473Y-137089713D01*
X78458601Y-137133030D01*
X78481612Y-137157408D01*
X78527804Y-137175845D01*
X78588775Y-137183205D01*
X78650949Y-137179583D01*
X78700751Y-137165074D01*
X78714703Y-137155765D01*
X78739085Y-137112753D01*
X78745263Y-137063857D01*
X78745263Y-136999605D01*
X78652818Y-136999605D01*
X78564995Y-137006366D01*
X78498418Y-137025520D01*
X78457002Y-137055376D01*
X78444473Y-137089713D01*
X78282875Y-137089713D01*
X78285490Y-137034004D01*
X78316424Y-136959847D01*
X78374581Y-136903767D01*
X78382620Y-136898665D01*
X78417163Y-136882055D01*
X78459918Y-136871996D01*
X78519686Y-136867107D01*
X78590690Y-136865983D01*
X78745263Y-136865921D01*
X78745263Y-136801125D01*
X78738706Y-136750850D01*
X78721975Y-136717169D01*
X78720016Y-136715376D01*
X78682783Y-136700642D01*
X78626580Y-136694931D01*
X78564467Y-136697737D01*
X78509510Y-136708556D01*
X78476899Y-136724782D01*
X78459228Y-136737780D01*
X78440569Y-136740262D01*
X78414819Y-136729613D01*
X78375873Y-136703218D01*
X78317630Y-136658465D01*
X78312284Y-136654273D01*
X78315023Y-136638760D01*
X78337876Y-136612960D01*
X78372609Y-136584289D01*
X78410990Y-136560166D01*
X78423048Y-136554470D01*
X78467034Y-136543103D01*
X78531487Y-136534995D01*
X78603497Y-136531743D01*
X78606864Y-136531736D01*
X78710457Y-136538184D01*
G36*
X79229881Y-136533486D02*
G01*
X79254888Y-136540982D01*
X79262950Y-136557451D01*
X79263289Y-136564886D01*
X79264736Y-136585594D01*
X79274698Y-136588845D01*
X79301612Y-136574648D01*
X79317598Y-136564948D01*
X79368033Y-136544175D01*
X79428272Y-136533904D01*
X79491434Y-136533114D01*
X79550637Y-136540786D01*
X79599002Y-136555898D01*
X79629646Y-136577432D01*
X79635689Y-136604366D01*
X79632639Y-136611660D01*
X79610406Y-136641937D01*
X79575930Y-136679175D01*
X79569694Y-136685195D01*
X79536833Y-136712875D01*
X79508480Y-136721818D01*
X79468827Y-136715576D01*
X79452942Y-136711429D01*
X79403509Y-136701467D01*
X79368752Y-136705947D01*
X79339400Y-136721746D01*
X79312513Y-136742949D01*
X79292710Y-136769614D01*
X79278948Y-136806827D01*
X79270184Y-136859673D01*
X79265374Y-136933237D01*
X79263474Y-137032605D01*
X79263289Y-137092601D01*
X79263289Y-137350526D01*
X79096184Y-137350526D01*
X79096184Y-136531710D01*
X79179736Y-136531710D01*
X79229881Y-136533486D01*
G37*
X79229881Y-136533486D02*
X79254888Y-136540982D01*
X79262950Y-136557451D01*
X79263289Y-136564886D01*
X79264736Y-136585594D01*
X79274698Y-136588845D01*
X79301612Y-136574648D01*
X79317598Y-136564948D01*
X79368033Y-136544175D01*
X79428272Y-136533904D01*
X79491434Y-136533114D01*
X79550637Y-136540786D01*
X79599002Y-136555898D01*
X79629646Y-136577432D01*
X79635689Y-136604366D01*
X79632639Y-136611660D01*
X79610406Y-136641937D01*
X79575930Y-136679175D01*
X79569694Y-136685195D01*
X79536833Y-136712875D01*
X79508480Y-136721818D01*
X79468827Y-136715576D01*
X79452942Y-136711429D01*
X79403509Y-136701467D01*
X79368752Y-136705947D01*
X79339400Y-136721746D01*
X79312513Y-136742949D01*
X79292710Y-136769614D01*
X79278948Y-136806827D01*
X79270184Y-136859673D01*
X79265374Y-136933237D01*
X79263474Y-137032605D01*
X79263289Y-137092601D01*
X79263289Y-137350526D01*
X79096184Y-137350526D01*
X79096184Y-136531710D01*
X79179736Y-136531710D01*
X79229881Y-136533486D01*
G36*
X80282631Y-137350526D02*
G01*
X80190723Y-137350526D01*
X80137377Y-137348962D01*
X80109593Y-137342485D01*
X80099590Y-137328418D01*
X80098815Y-137318906D01*
X80097128Y-137299832D01*
X80086490Y-137296174D01*
X80058535Y-137307932D01*
X80036795Y-137318906D01*
X79953332Y-137344911D01*
X79862604Y-137346416D01*
X79788842Y-137327021D01*
X79720154Y-137280165D01*
X79667794Y-137211004D01*
X79639122Y-137129427D01*
X79638392Y-137124866D01*
X79634132Y-137075101D01*
X79632014Y-137003659D01*
X79632184Y-136949626D01*
X79814720Y-136949626D01*
X79818949Y-137021441D01*
X79828568Y-137080634D01*
X79841590Y-137114060D01*
X79890856Y-137159740D01*
X79949350Y-137176115D01*
X80009671Y-137162873D01*
X80061217Y-137123373D01*
X80080738Y-137096807D01*
X80092152Y-137065106D01*
X80097498Y-137018832D01*
X80098815Y-136949328D01*
X80096458Y-136880499D01*
X80090233Y-136820026D01*
X80081408Y-136779556D01*
X80079937Y-136775929D01*
X80044347Y-136732802D01*
X79992400Y-136709124D01*
X79934278Y-136705301D01*
X79880160Y-136721738D01*
X79840226Y-136758840D01*
X79836083Y-136766222D01*
X79823116Y-136811239D01*
X79816052Y-136875967D01*
X79814720Y-136949626D01*
X79632184Y-136949626D01*
X79632271Y-136922230D01*
X79633472Y-136878405D01*
X79641645Y-136769988D01*
X79658630Y-136688588D01*
X79686887Y-136628412D01*
X79728872Y-136583666D01*
X79769632Y-136557400D01*
X79826581Y-136538935D01*
X79897411Y-136532602D01*
X79969941Y-136537760D01*
X80031986Y-136553769D01*
X80064768Y-136572920D01*
X80098815Y-136603732D01*
X80098815Y-136214210D01*
X80282631Y-136214210D01*
X80282631Y-137350526D01*
G37*
X80282631Y-137350526D02*
X80190723Y-137350526D01*
X80137377Y-137348962D01*
X80109593Y-137342485D01*
X80099590Y-137328418D01*
X80098815Y-137318906D01*
X80097128Y-137299832D01*
X80086490Y-137296174D01*
X80058535Y-137307932D01*
X80036795Y-137318906D01*
X79953332Y-137344911D01*
X79862604Y-137346416D01*
X79788842Y-137327021D01*
X79720154Y-137280165D01*
X79667794Y-137211004D01*
X79639122Y-137129427D01*
X79638392Y-137124866D01*
X79634132Y-137075101D01*
X79632014Y-137003659D01*
X79632184Y-136949626D01*
X79814720Y-136949626D01*
X79818949Y-137021441D01*
X79828568Y-137080634D01*
X79841590Y-137114060D01*
X79890856Y-137159740D01*
X79949350Y-137176115D01*
X80009671Y-137162873D01*
X80061217Y-137123373D01*
X80080738Y-137096807D01*
X80092152Y-137065106D01*
X80097498Y-137018832D01*
X80098815Y-136949328D01*
X80096458Y-136880499D01*
X80090233Y-136820026D01*
X80081408Y-136779556D01*
X80079937Y-136775929D01*
X80044347Y-136732802D01*
X79992400Y-136709124D01*
X79934278Y-136705301D01*
X79880160Y-136721738D01*
X79840226Y-136758840D01*
X79836083Y-136766222D01*
X79823116Y-136811239D01*
X79816052Y-136875967D01*
X79814720Y-136949626D01*
X79632184Y-136949626D01*
X79632271Y-136922230D01*
X79633472Y-136878405D01*
X79641645Y-136769988D01*
X79658630Y-136688588D01*
X79686887Y-136628412D01*
X79728872Y-136583666D01*
X79769632Y-136557400D01*
X79826581Y-136538935D01*
X79897411Y-136532602D01*
X79969941Y-136537760D01*
X80031986Y-136553769D01*
X80064768Y-136572920D01*
X80098815Y-136603732D01*
X80098815Y-136214210D01*
X80282631Y-136214210D01*
X80282631Y-137350526D01*
G36*
X80924130Y-136535104D02*
G01*
X80990220Y-136540066D01*
X81076626Y-136799079D01*
X81163031Y-137058092D01*
X81190124Y-136966184D01*
X81206428Y-136909384D01*
X81227875Y-136832625D01*
X81251035Y-136748251D01*
X81263280Y-136702993D01*
X81309344Y-136531710D01*
X81499387Y-136531710D01*
X81442582Y-136711349D01*
X81414607Y-136799704D01*
X81380813Y-136906281D01*
X81345520Y-137017454D01*
X81314013Y-137116579D01*
X81242250Y-137342171D01*
X81087286Y-137352253D01*
X81045270Y-137213528D01*
X81019359Y-137127351D01*
X80991083Y-137032347D01*
X80966369Y-136948441D01*
X80965394Y-136945102D01*
X80946935Y-136888248D01*
X80930649Y-136849456D01*
X80919242Y-136834787D01*
X80916898Y-136836483D01*
X80908671Y-136859225D01*
X80893038Y-136907940D01*
X80871904Y-136976502D01*
X80847170Y-137058785D01*
X80833787Y-137104046D01*
X80761311Y-137350526D01*
X80607495Y-137350526D01*
X80484531Y-136962006D01*
X80449988Y-136853022D01*
X80418521Y-136754048D01*
X80391616Y-136669736D01*
X80370759Y-136604734D01*
X80357438Y-136563692D01*
X80353388Y-136551701D01*
X80356594Y-136539423D01*
X80381765Y-136534046D01*
X80434146Y-136534584D01*
X80442345Y-136534990D01*
X80539482Y-136540066D01*
X80603100Y-136774013D01*
X80626484Y-136859333D01*
X80647381Y-136934335D01*
X80663951Y-136992507D01*
X80674354Y-137027337D01*
X80676276Y-137033016D01*
X80684241Y-137026486D01*
X80700304Y-136992654D01*
X80722621Y-136936127D01*
X80749345Y-136861510D01*
X80771937Y-136794107D01*
X80858041Y-136530143D01*
X80924130Y-136535104D01*
G37*
X80924130Y-136535104D02*
X80990220Y-136540066D01*
X81076626Y-136799079D01*
X81163031Y-137058092D01*
X81190124Y-136966184D01*
X81206428Y-136909384D01*
X81227875Y-136832625D01*
X81251035Y-136748251D01*
X81263280Y-136702993D01*
X81309344Y-136531710D01*
X81499387Y-136531710D01*
X81442582Y-136711349D01*
X81414607Y-136799704D01*
X81380813Y-136906281D01*
X81345520Y-137017454D01*
X81314013Y-137116579D01*
X81242250Y-137342171D01*
X81087286Y-137352253D01*
X81045270Y-137213528D01*
X81019359Y-137127351D01*
X80991083Y-137032347D01*
X80966369Y-136948441D01*
X80965394Y-136945102D01*
X80946935Y-136888248D01*
X80930649Y-136849456D01*
X80919242Y-136834787D01*
X80916898Y-136836483D01*
X80908671Y-136859225D01*
X80893038Y-136907940D01*
X80871904Y-136976502D01*
X80847170Y-137058785D01*
X80833787Y-137104046D01*
X80761311Y-137350526D01*
X80607495Y-137350526D01*
X80484531Y-136962006D01*
X80449988Y-136853022D01*
X80418521Y-136754048D01*
X80391616Y-136669736D01*
X80370759Y-136604734D01*
X80357438Y-136563692D01*
X80353388Y-136551701D01*
X80356594Y-136539423D01*
X80381765Y-136534046D01*
X80434146Y-136534584D01*
X80442345Y-136534990D01*
X80539482Y-136540066D01*
X80603100Y-136774013D01*
X80626484Y-136859333D01*
X80647381Y-136934335D01*
X80663951Y-136992507D01*
X80674354Y-137027337D01*
X80676276Y-137033016D01*
X80684241Y-137026486D01*
X80700304Y-136992654D01*
X80722621Y-136936127D01*
X80749345Y-136861510D01*
X80771937Y-136794107D01*
X80858041Y-136530143D01*
X80924130Y-136535104D01*
G36*
X81929992Y-136536673D02*
G01*
X82000427Y-136553780D01*
X82020787Y-136562844D01*
X82060253Y-136586583D01*
X82090541Y-136613321D01*
X82112952Y-136647699D01*
X82128786Y-136694360D01*
X82139343Y-136757946D01*
X82145924Y-136843099D01*
X82149828Y-136954462D01*
X82151310Y-137028849D01*
X82156765Y-137350526D01*
X82063580Y-137350526D01*
X82007047Y-137348156D01*
X81977922Y-137340055D01*
X81970394Y-137326451D01*
X81966420Y-137311741D01*
X81948652Y-137314554D01*
X81924440Y-137326348D01*
X81863828Y-137344427D01*
X81785929Y-137349299D01*
X81703995Y-137341330D01*
X81631281Y-137320889D01*
X81624759Y-137318051D01*
X81558302Y-137271365D01*
X81514491Y-137206464D01*
X81494332Y-137130600D01*
X81495872Y-137103344D01*
X81660345Y-137103344D01*
X81674837Y-137140024D01*
X81717805Y-137166309D01*
X81787129Y-137180417D01*
X81824177Y-137182290D01*
X81885919Y-137177494D01*
X81926960Y-137158858D01*
X81936973Y-137150000D01*
X81964100Y-137101806D01*
X81970394Y-137058092D01*
X81970394Y-136999605D01*
X81888930Y-136999605D01*
X81794234Y-137004432D01*
X81727813Y-137019613D01*
X81685846Y-137046200D01*
X81676449Y-137058052D01*
X81660345Y-137103344D01*
X81495872Y-137103344D01*
X81498829Y-137051026D01*
X81528985Y-136974995D01*
X81570131Y-136923612D01*
X81595052Y-136901397D01*
X81619448Y-136886798D01*
X81651191Y-136877897D01*
X81698152Y-136872775D01*
X81768204Y-136869515D01*
X81795990Y-136868577D01*
X81970394Y-136862879D01*
X81970138Y-136810091D01*
X81963384Y-136754603D01*
X81938964Y-136721052D01*
X81889630Y-136699618D01*
X81888306Y-136699236D01*
X81818360Y-136690808D01*
X81749914Y-136701816D01*
X81699047Y-136728585D01*
X81678637Y-136741803D01*
X81656654Y-136739974D01*
X81622826Y-136720824D01*
X81602961Y-136707308D01*
X81564106Y-136678432D01*
X81540038Y-136656786D01*
X81536176Y-136650589D01*
X81552079Y-136618519D01*
X81599065Y-136580219D01*
X81619473Y-136567297D01*
X81678143Y-136545041D01*
X81757212Y-136532432D01*
X81845041Y-136529600D01*
X81929992Y-136536673D01*
G37*
X81929992Y-136536673D02*
X82000427Y-136553780D01*
X82020787Y-136562844D01*
X82060253Y-136586583D01*
X82090541Y-136613321D01*
X82112952Y-136647699D01*
X82128786Y-136694360D01*
X82139343Y-136757946D01*
X82145924Y-136843099D01*
X82149828Y-136954462D01*
X82151310Y-137028849D01*
X82156765Y-137350526D01*
X82063580Y-137350526D01*
X82007047Y-137348156D01*
X81977922Y-137340055D01*
X81970394Y-137326451D01*
X81966420Y-137311741D01*
X81948652Y-137314554D01*
X81924440Y-137326348D01*
X81863828Y-137344427D01*
X81785929Y-137349299D01*
X81703995Y-137341330D01*
X81631281Y-137320889D01*
X81624759Y-137318051D01*
X81558302Y-137271365D01*
X81514491Y-137206464D01*
X81494332Y-137130600D01*
X81495872Y-137103344D01*
X81660345Y-137103344D01*
X81674837Y-137140024D01*
X81717805Y-137166309D01*
X81787129Y-137180417D01*
X81824177Y-137182290D01*
X81885919Y-137177494D01*
X81926960Y-137158858D01*
X81936973Y-137150000D01*
X81964100Y-137101806D01*
X81970394Y-137058092D01*
X81970394Y-136999605D01*
X81888930Y-136999605D01*
X81794234Y-137004432D01*
X81727813Y-137019613D01*
X81685846Y-137046200D01*
X81676449Y-137058052D01*
X81660345Y-137103344D01*
X81495872Y-137103344D01*
X81498829Y-137051026D01*
X81528985Y-136974995D01*
X81570131Y-136923612D01*
X81595052Y-136901397D01*
X81619448Y-136886798D01*
X81651191Y-136877897D01*
X81698152Y-136872775D01*
X81768204Y-136869515D01*
X81795990Y-136868577D01*
X81970394Y-136862879D01*
X81970138Y-136810091D01*
X81963384Y-136754603D01*
X81938964Y-136721052D01*
X81889630Y-136699618D01*
X81888306Y-136699236D01*
X81818360Y-136690808D01*
X81749914Y-136701816D01*
X81699047Y-136728585D01*
X81678637Y-136741803D01*
X81656654Y-136739974D01*
X81622826Y-136720824D01*
X81602961Y-136707308D01*
X81564106Y-136678432D01*
X81540038Y-136656786D01*
X81536176Y-136650589D01*
X81552079Y-136618519D01*
X81599065Y-136580219D01*
X81619473Y-136567297D01*
X81678143Y-136545041D01*
X81757212Y-136532432D01*
X81845041Y-136529600D01*
X81929992Y-136536673D01*
G36*
X82723167Y-136531447D02*
G01*
X82787408Y-136544112D01*
X82823980Y-136562864D01*
X82862453Y-136594017D01*
X82807717Y-136663127D01*
X82773969Y-136704979D01*
X82751053Y-136725398D01*
X82728279Y-136728517D01*
X82694956Y-136718472D01*
X82679314Y-136712789D01*
X82615542Y-136704404D01*
X82557140Y-136722378D01*
X82514264Y-136762982D01*
X82507299Y-136775929D01*
X82499713Y-136810224D01*
X82493859Y-136873427D01*
X82490011Y-136961060D01*
X82488443Y-137068640D01*
X82488421Y-137083944D01*
X82488421Y-137350526D01*
X82304605Y-137350526D01*
X82304605Y-136531710D01*
X82396513Y-136531710D01*
X82449507Y-136533094D01*
X82477115Y-136539252D01*
X82487324Y-136553194D01*
X82488421Y-136566344D01*
X82488421Y-136600978D01*
X82532450Y-136566344D01*
X82582937Y-136542716D01*
X82650760Y-136531033D01*
X82723167Y-136531447D01*
G37*
X82723167Y-136531447D02*
X82787408Y-136544112D01*
X82823980Y-136562864D01*
X82862453Y-136594017D01*
X82807717Y-136663127D01*
X82773969Y-136704979D01*
X82751053Y-136725398D01*
X82728279Y-136728517D01*
X82694956Y-136718472D01*
X82679314Y-136712789D01*
X82615542Y-136704404D01*
X82557140Y-136722378D01*
X82514264Y-136762982D01*
X82507299Y-136775929D01*
X82499713Y-136810224D01*
X82493859Y-136873427D01*
X82490011Y-136961060D01*
X82488443Y-137068640D01*
X82488421Y-137083944D01*
X82488421Y-137350526D01*
X82304605Y-137350526D01*
X82304605Y-136531710D01*
X82396513Y-136531710D01*
X82449507Y-136533094D01*
X82477115Y-136539252D01*
X82487324Y-136553194D01*
X82488421Y-136566344D01*
X82488421Y-136600978D01*
X82532450Y-136566344D01*
X82582937Y-136542716D01*
X82650760Y-136531033D01*
X82723167Y-136531447D01*
G36*
X83251193Y-136536078D02*
G01*
X83331068Y-136556845D01*
X83397962Y-136599705D01*
X83430351Y-136631723D01*
X83483445Y-136707413D01*
X83513873Y-136795216D01*
X83524327Y-136903150D01*
X83524380Y-136911875D01*
X83524473Y-136999605D01*
X83019534Y-136999605D01*
X83030298Y-137045559D01*
X83049732Y-137087178D01*
X83083745Y-137130544D01*
X83090860Y-137137467D01*
X83152003Y-137174935D01*
X83221729Y-137181289D01*
X83301987Y-137156638D01*
X83315592Y-137150000D01*
X83357319Y-137129819D01*
X83385268Y-137118321D01*
X83390145Y-137117258D01*
X83407168Y-137127583D01*
X83439633Y-137152845D01*
X83456114Y-137166650D01*
X83490264Y-137198361D01*
X83501478Y-137219299D01*
X83493695Y-137238560D01*
X83489535Y-137243827D01*
X83461357Y-137266878D01*
X83414862Y-137294892D01*
X83382434Y-137311246D01*
X83290385Y-137340059D01*
X83188476Y-137349395D01*
X83091963Y-137338332D01*
X83064934Y-137330412D01*
X82981276Y-137285581D01*
X82919266Y-137216598D01*
X82878545Y-137122794D01*
X82858755Y-137003498D01*
X82856582Y-136941118D01*
X82862926Y-136850298D01*
X83023157Y-136850298D01*
X83038655Y-136857012D01*
X83080312Y-136862280D01*
X83140876Y-136865389D01*
X83181907Y-136865921D01*
X83255711Y-136865408D01*
X83302293Y-136863006D01*
X83327848Y-136857422D01*
X83338569Y-136847361D01*
X83340657Y-136832763D01*
X83326331Y-136787796D01*
X83290262Y-136743353D01*
X83242815Y-136709242D01*
X83195349Y-136695288D01*
X83130879Y-136707666D01*
X83075070Y-136743452D01*
X83036374Y-136795033D01*
X83023157Y-136850298D01*
X82862926Y-136850298D01*
X82865821Y-136808866D01*
X82894336Y-136703498D01*
X82942729Y-136624178D01*
X83011604Y-136570071D01*
X83101565Y-136540343D01*
X83150300Y-136534618D01*
X83251193Y-136536078D01*
G37*
X83251193Y-136536078D02*
X83331068Y-136556845D01*
X83397962Y-136599705D01*
X83430351Y-136631723D01*
X83483445Y-136707413D01*
X83513873Y-136795216D01*
X83524327Y-136903150D01*
X83524380Y-136911875D01*
X83524473Y-136999605D01*
X83019534Y-136999605D01*
X83030298Y-137045559D01*
X83049732Y-137087178D01*
X83083745Y-137130544D01*
X83090860Y-137137467D01*
X83152003Y-137174935D01*
X83221729Y-137181289D01*
X83301987Y-137156638D01*
X83315592Y-137150000D01*
X83357319Y-137129819D01*
X83385268Y-137118321D01*
X83390145Y-137117258D01*
X83407168Y-137127583D01*
X83439633Y-137152845D01*
X83456114Y-137166650D01*
X83490264Y-137198361D01*
X83501478Y-137219299D01*
X83493695Y-137238560D01*
X83489535Y-137243827D01*
X83461357Y-137266878D01*
X83414862Y-137294892D01*
X83382434Y-137311246D01*
X83290385Y-137340059D01*
X83188476Y-137349395D01*
X83091963Y-137338332D01*
X83064934Y-137330412D01*
X82981276Y-137285581D01*
X82919266Y-137216598D01*
X82878545Y-137122794D01*
X82858755Y-137003498D01*
X82856582Y-136941118D01*
X82862926Y-136850298D01*
X83023157Y-136850298D01*
X83038655Y-136857012D01*
X83080312Y-136862280D01*
X83140876Y-136865389D01*
X83181907Y-136865921D01*
X83255711Y-136865408D01*
X83302293Y-136863006D01*
X83327848Y-136857422D01*
X83338569Y-136847361D01*
X83340657Y-136832763D01*
X83326331Y-136787796D01*
X83290262Y-136743353D01*
X83242815Y-136709242D01*
X83195349Y-136695288D01*
X83130879Y-136707666D01*
X83075070Y-136743452D01*
X83036374Y-136795033D01*
X83023157Y-136850298D01*
X82862926Y-136850298D01*
X82865821Y-136808866D01*
X82894336Y-136703498D01*
X82942729Y-136624178D01*
X83011604Y-136570071D01*
X83101565Y-136540343D01*
X83150300Y-136534618D01*
X83251193Y-136536078D01*
G36*
X77176784Y-135287104D02*
G01*
X77264205Y-135325754D01*
X77330570Y-135390290D01*
X77375976Y-135480812D01*
X77400518Y-135597418D01*
X77402277Y-135615624D01*
X77403656Y-135743984D01*
X77385784Y-135856496D01*
X77349750Y-135947688D01*
X77330455Y-135977022D01*
X77263245Y-136039106D01*
X77177650Y-136079316D01*
X77081890Y-136096003D01*
X76984187Y-136087517D01*
X76909917Y-136061380D01*
X76846047Y-136017335D01*
X76793846Y-135959587D01*
X76792943Y-135958236D01*
X76771744Y-135922593D01*
X76757967Y-135886752D01*
X76749624Y-135841519D01*
X76744727Y-135777701D01*
X76742569Y-135725368D01*
X76741671Y-135677910D01*
X76908743Y-135677910D01*
X76910376Y-135725154D01*
X76916304Y-135788046D01*
X76926761Y-135828407D01*
X76945619Y-135857122D01*
X76963281Y-135873896D01*
X77025894Y-135909016D01*
X77091408Y-135913710D01*
X77152421Y-135888440D01*
X77182928Y-135860124D01*
X77204911Y-135831589D01*
X77217769Y-135804284D01*
X77223412Y-135768750D01*
X77223751Y-135715524D01*
X77222012Y-135666506D01*
X77218271Y-135596482D01*
X77212341Y-135551064D01*
X77201653Y-135521440D01*
X77183639Y-135498797D01*
X77169363Y-135485855D01*
X77109651Y-135451860D01*
X77045234Y-135450165D01*
X76991219Y-135470301D01*
X76945140Y-135512352D01*
X76917689Y-135581428D01*
X76908743Y-135677910D01*
X76741671Y-135677910D01*
X76740599Y-135621299D01*
X76743964Y-135543468D01*
X76754045Y-135484930D01*
X76772226Y-135438737D01*
X76799890Y-135397942D01*
X76810146Y-135385828D01*
X76874278Y-135325474D01*
X76943066Y-135290220D01*
X77027189Y-135275450D01*
X77068209Y-135274243D01*
X77176784Y-135287104D01*
G37*
X77176784Y-135287104D02*
X77264205Y-135325754D01*
X77330570Y-135390290D01*
X77375976Y-135480812D01*
X77400518Y-135597418D01*
X77402277Y-135615624D01*
X77403656Y-135743984D01*
X77385784Y-135856496D01*
X77349750Y-135947688D01*
X77330455Y-135977022D01*
X77263245Y-136039106D01*
X77177650Y-136079316D01*
X77081890Y-136096003D01*
X76984187Y-136087517D01*
X76909917Y-136061380D01*
X76846047Y-136017335D01*
X76793846Y-135959587D01*
X76792943Y-135958236D01*
X76771744Y-135922593D01*
X76757967Y-135886752D01*
X76749624Y-135841519D01*
X76744727Y-135777701D01*
X76742569Y-135725368D01*
X76741671Y-135677910D01*
X76908743Y-135677910D01*
X76910376Y-135725154D01*
X76916304Y-135788046D01*
X76926761Y-135828407D01*
X76945619Y-135857122D01*
X76963281Y-135873896D01*
X77025894Y-135909016D01*
X77091408Y-135913710D01*
X77152421Y-135888440D01*
X77182928Y-135860124D01*
X77204911Y-135831589D01*
X77217769Y-135804284D01*
X77223412Y-135768750D01*
X77223751Y-135715524D01*
X77222012Y-135666506D01*
X77218271Y-135596482D01*
X77212341Y-135551064D01*
X77201653Y-135521440D01*
X77183639Y-135498797D01*
X77169363Y-135485855D01*
X77109651Y-135451860D01*
X77045234Y-135450165D01*
X76991219Y-135470301D01*
X76945140Y-135512352D01*
X76917689Y-135581428D01*
X76908743Y-135677910D01*
X76741671Y-135677910D01*
X76740599Y-135621299D01*
X76743964Y-135543468D01*
X76754045Y-135484930D01*
X76772226Y-135438737D01*
X76799890Y-135397942D01*
X76810146Y-135385828D01*
X76874278Y-135325474D01*
X76943066Y-135290220D01*
X77027189Y-135275450D01*
X77068209Y-135274243D01*
X77176784Y-135287104D01*
G36*
X78747018Y-135297027D02*
G01*
X78763670Y-135304866D01*
X78821305Y-135347086D01*
X78875805Y-135408700D01*
X78916499Y-135476543D01*
X78928074Y-135507734D01*
X78938634Y-135563449D01*
X78944931Y-135630781D01*
X78945696Y-135658585D01*
X78945789Y-135746316D01*
X78440850Y-135746316D01*
X78451613Y-135792270D01*
X78478033Y-135846620D01*
X78524222Y-135893591D01*
X78579172Y-135923848D01*
X78614189Y-135930131D01*
X78661677Y-135922506D01*
X78718335Y-135903383D01*
X78737582Y-135894584D01*
X78808759Y-135859036D01*
X78869502Y-135905367D01*
X78904552Y-135936703D01*
X78923202Y-135962567D01*
X78924147Y-135970158D01*
X78907485Y-135988556D01*
X78870970Y-136016515D01*
X78837828Y-136038327D01*
X78748393Y-136077537D01*
X78648129Y-136095285D01*
X78548754Y-136090670D01*
X78469539Y-136066551D01*
X78387880Y-136014884D01*
X78329849Y-135946856D01*
X78293546Y-135858843D01*
X78277072Y-135747216D01*
X78275611Y-135696138D01*
X78281457Y-135579091D01*
X78282175Y-135575686D01*
X78449489Y-135575686D01*
X78454097Y-135586662D01*
X78473036Y-135592715D01*
X78512098Y-135595310D01*
X78577077Y-135595910D01*
X78602097Y-135595921D01*
X78678221Y-135595014D01*
X78726496Y-135591720D01*
X78752460Y-135585181D01*
X78761648Y-135574537D01*
X78761973Y-135571119D01*
X78751487Y-135543956D01*
X78725242Y-135505903D01*
X78713959Y-135492579D01*
X78672072Y-135454896D01*
X78628409Y-135440080D01*
X78604885Y-135438842D01*
X78541243Y-135454329D01*
X78487873Y-135495930D01*
X78454019Y-135556353D01*
X78453419Y-135558322D01*
X78449489Y-135575686D01*
X78282175Y-135575686D01*
X78300899Y-135486928D01*
X78335922Y-135413190D01*
X78378756Y-135360848D01*
X78457948Y-135304092D01*
X78551040Y-135273762D01*
X78650055Y-135271021D01*
X78747018Y-135297027D01*
G37*
X78747018Y-135297027D02*
X78763670Y-135304866D01*
X78821305Y-135347086D01*
X78875805Y-135408700D01*
X78916499Y-135476543D01*
X78928074Y-135507734D01*
X78938634Y-135563449D01*
X78944931Y-135630781D01*
X78945696Y-135658585D01*
X78945789Y-135746316D01*
X78440850Y-135746316D01*
X78451613Y-135792270D01*
X78478033Y-135846620D01*
X78524222Y-135893591D01*
X78579172Y-135923848D01*
X78614189Y-135930131D01*
X78661677Y-135922506D01*
X78718335Y-135903383D01*
X78737582Y-135894584D01*
X78808759Y-135859036D01*
X78869502Y-135905367D01*
X78904552Y-135936703D01*
X78923202Y-135962567D01*
X78924147Y-135970158D01*
X78907485Y-135988556D01*
X78870970Y-136016515D01*
X78837828Y-136038327D01*
X78748393Y-136077537D01*
X78648129Y-136095285D01*
X78548754Y-136090670D01*
X78469539Y-136066551D01*
X78387880Y-136014884D01*
X78329849Y-135946856D01*
X78293546Y-135858843D01*
X78277072Y-135747216D01*
X78275611Y-135696138D01*
X78281457Y-135579091D01*
X78282175Y-135575686D01*
X78449489Y-135575686D01*
X78454097Y-135586662D01*
X78473036Y-135592715D01*
X78512098Y-135595310D01*
X78577077Y-135595910D01*
X78602097Y-135595921D01*
X78678221Y-135595014D01*
X78726496Y-135591720D01*
X78752460Y-135585181D01*
X78761648Y-135574537D01*
X78761973Y-135571119D01*
X78751487Y-135543956D01*
X78725242Y-135505903D01*
X78713959Y-135492579D01*
X78672072Y-135454896D01*
X78628409Y-135440080D01*
X78604885Y-135438842D01*
X78541243Y-135454329D01*
X78487873Y-135495930D01*
X78454019Y-135556353D01*
X78453419Y-135558322D01*
X78449489Y-135575686D01*
X78282175Y-135575686D01*
X78300899Y-135486928D01*
X78335922Y-135413190D01*
X78378756Y-135360848D01*
X78457948Y-135304092D01*
X78551040Y-135273762D01*
X78650055Y-135271021D01*
X78747018Y-135297027D01*
G36*
X80568628Y-135275547D02*
G01*
X80631908Y-135287548D01*
X80697557Y-135312648D01*
X80704572Y-135315848D01*
X80754356Y-135342026D01*
X80788834Y-135366353D01*
X80799978Y-135381937D01*
X80789366Y-135407353D01*
X80763588Y-135444853D01*
X80752146Y-135458852D01*
X80704992Y-135513954D01*
X80644201Y-135478086D01*
X80586347Y-135454192D01*
X80519500Y-135441420D01*
X80455394Y-135440613D01*
X80405764Y-135452615D01*
X80393854Y-135460105D01*
X80371172Y-135494450D01*
X80368416Y-135534013D01*
X80385388Y-135564920D01*
X80395427Y-135570913D01*
X80425510Y-135578357D01*
X80478389Y-135587106D01*
X80543575Y-135595467D01*
X80555600Y-135596778D01*
X80660297Y-135614888D01*
X80736232Y-135645651D01*
X80786592Y-135691907D01*
X80814564Y-135756497D01*
X80823278Y-135835387D01*
X80811240Y-135925065D01*
X80772151Y-135995486D01*
X80705855Y-136046777D01*
X80612194Y-136079067D01*
X80508223Y-136091807D01*
X80423438Y-136091654D01*
X80354665Y-136080083D01*
X80307697Y-136064109D01*
X80248350Y-136036275D01*
X80193506Y-136003973D01*
X80174013Y-135989755D01*
X80123881Y-135948835D01*
X80244803Y-135826477D01*
X80313543Y-135871967D01*
X80382488Y-135906133D01*
X80456111Y-135924004D01*
X80526883Y-135925889D01*
X80587274Y-135912101D01*
X80629757Y-135882949D01*
X80643474Y-135858352D01*
X80641417Y-135818904D01*
X80607330Y-135788737D01*
X80541308Y-135767906D01*
X80468974Y-135758279D01*
X80357652Y-135739910D01*
X80274952Y-135705254D01*
X80219765Y-135653297D01*
X80190988Y-135583023D01*
X80187001Y-135499707D01*
X80206693Y-135412681D01*
X80251589Y-135346902D01*
X80322091Y-135302068D01*
X80418601Y-135277879D01*
X80490100Y-135273137D01*
X80568628Y-135275547D01*
G37*
X80568628Y-135275547D02*
X80631908Y-135287548D01*
X80697557Y-135312648D01*
X80704572Y-135315848D01*
X80754356Y-135342026D01*
X80788834Y-135366353D01*
X80799978Y-135381937D01*
X80789366Y-135407353D01*
X80763588Y-135444853D01*
X80752146Y-135458852D01*
X80704992Y-135513954D01*
X80644201Y-135478086D01*
X80586347Y-135454192D01*
X80519500Y-135441420D01*
X80455394Y-135440613D01*
X80405764Y-135452615D01*
X80393854Y-135460105D01*
X80371172Y-135494450D01*
X80368416Y-135534013D01*
X80385388Y-135564920D01*
X80395427Y-135570913D01*
X80425510Y-135578357D01*
X80478389Y-135587106D01*
X80543575Y-135595467D01*
X80555600Y-135596778D01*
X80660297Y-135614888D01*
X80736232Y-135645651D01*
X80786592Y-135691907D01*
X80814564Y-135756497D01*
X80823278Y-135835387D01*
X80811240Y-135925065D01*
X80772151Y-135995486D01*
X80705855Y-136046777D01*
X80612194Y-136079067D01*
X80508223Y-136091807D01*
X80423438Y-136091654D01*
X80354665Y-136080083D01*
X80307697Y-136064109D01*
X80248350Y-136036275D01*
X80193506Y-136003973D01*
X80174013Y-135989755D01*
X80123881Y-135948835D01*
X80244803Y-135826477D01*
X80313543Y-135871967D01*
X80382488Y-135906133D01*
X80456111Y-135924004D01*
X80526883Y-135925889D01*
X80587274Y-135912101D01*
X80629757Y-135882949D01*
X80643474Y-135858352D01*
X80641417Y-135818904D01*
X80607330Y-135788737D01*
X80541308Y-135767906D01*
X80468974Y-135758279D01*
X80357652Y-135739910D01*
X80274952Y-135705254D01*
X80219765Y-135653297D01*
X80190988Y-135583023D01*
X80187001Y-135499707D01*
X80206693Y-135412681D01*
X80251589Y-135346902D01*
X80322091Y-135302068D01*
X80418601Y-135277879D01*
X80490100Y-135273137D01*
X80568628Y-135275547D01*
G36*
X81361669Y-135288310D02*
G01*
X81446192Y-135334340D01*
X81512321Y-135407006D01*
X81543478Y-135466106D01*
X81556855Y-135518305D01*
X81565522Y-135592719D01*
X81569237Y-135678442D01*
X81567754Y-135764569D01*
X81560831Y-135840193D01*
X81552745Y-135880584D01*
X81525465Y-135935840D01*
X81478220Y-135994530D01*
X81421282Y-136045852D01*
X81364924Y-136079005D01*
X81363550Y-136079531D01*
X81293616Y-136094018D01*
X81210737Y-136094377D01*
X81131977Y-136081188D01*
X81101566Y-136070617D01*
X81023239Y-136026201D01*
X80967143Y-135968007D01*
X80930286Y-135890965D01*
X80909680Y-135790001D01*
X80905018Y-135737116D01*
X80905613Y-135670663D01*
X81084736Y-135670663D01*
X81090770Y-135767630D01*
X81108138Y-135841523D01*
X81135740Y-135888736D01*
X81155404Y-135902237D01*
X81205787Y-135911651D01*
X81265673Y-135908864D01*
X81317449Y-135895316D01*
X81331027Y-135887862D01*
X81366849Y-135844451D01*
X81390493Y-135778014D01*
X81400558Y-135697161D01*
X81395642Y-135610502D01*
X81384655Y-135558349D01*
X81353109Y-135497951D01*
X81303311Y-135460197D01*
X81243337Y-135447143D01*
X81181264Y-135460849D01*
X81133582Y-135494372D01*
X81108525Y-135522031D01*
X81093900Y-135549294D01*
X81086929Y-135586190D01*
X81084833Y-135642750D01*
X81084736Y-135670663D01*
X80905613Y-135670663D01*
X80906282Y-135595994D01*
X80929265Y-135480271D01*
X80973972Y-135389941D01*
X81040405Y-135325000D01*
X81128565Y-135285445D01*
X81147495Y-135280858D01*
X81261266Y-135270090D01*
X81361669Y-135288310D01*
G37*
X81361669Y-135288310D02*
X81446192Y-135334340D01*
X81512321Y-135407006D01*
X81543478Y-135466106D01*
X81556855Y-135518305D01*
X81565522Y-135592719D01*
X81569237Y-135678442D01*
X81567754Y-135764569D01*
X81560831Y-135840193D01*
X81552745Y-135880584D01*
X81525465Y-135935840D01*
X81478220Y-135994530D01*
X81421282Y-136045852D01*
X81364924Y-136079005D01*
X81363550Y-136079531D01*
X81293616Y-136094018D01*
X81210737Y-136094377D01*
X81131977Y-136081188D01*
X81101566Y-136070617D01*
X81023239Y-136026201D01*
X80967143Y-135968007D01*
X80930286Y-135890965D01*
X80909680Y-135790001D01*
X80905018Y-135737116D01*
X80905613Y-135670663D01*
X81084736Y-135670663D01*
X81090770Y-135767630D01*
X81108138Y-135841523D01*
X81135740Y-135888736D01*
X81155404Y-135902237D01*
X81205787Y-135911651D01*
X81265673Y-135908864D01*
X81317449Y-135895316D01*
X81331027Y-135887862D01*
X81366849Y-135844451D01*
X81390493Y-135778014D01*
X81400558Y-135697161D01*
X81395642Y-135610502D01*
X81384655Y-135558349D01*
X81353109Y-135497951D01*
X81303311Y-135460197D01*
X81243337Y-135447143D01*
X81181264Y-135460849D01*
X81133582Y-135494372D01*
X81108525Y-135522031D01*
X81093900Y-135549294D01*
X81086929Y-135586190D01*
X81084833Y-135642750D01*
X81084736Y-135670663D01*
X80905613Y-135670663D01*
X80906282Y-135595994D01*
X80929265Y-135480271D01*
X80973972Y-135389941D01*
X81040405Y-135325000D01*
X81128565Y-135285445D01*
X81147495Y-135280858D01*
X81261266Y-135270090D01*
X81361669Y-135288310D01*
G36*
X81870131Y-135538533D02*
G01*
X81871710Y-135661089D01*
X81877481Y-135754179D01*
X81888991Y-135821651D01*
X81907790Y-135867355D01*
X81935426Y-135895139D01*
X81973448Y-135908854D01*
X82020526Y-135912358D01*
X82069832Y-135908432D01*
X82107283Y-135894089D01*
X82134428Y-135865478D01*
X82152815Y-135818751D01*
X82163993Y-135750058D01*
X82169511Y-135655550D01*
X82170921Y-135538533D01*
X82170921Y-135278421D01*
X82354736Y-135278421D01*
X82354736Y-136080526D01*
X82262828Y-136080526D01*
X82207422Y-136078281D01*
X82178891Y-136070396D01*
X82170921Y-136055428D01*
X82166120Y-136042097D01*
X82147014Y-136044917D01*
X82108504Y-136063783D01*
X82020239Y-136092887D01*
X81926623Y-136090825D01*
X81836921Y-136059221D01*
X81794204Y-136034257D01*
X81761621Y-136007226D01*
X81737817Y-135973405D01*
X81721439Y-135928068D01*
X81711131Y-135866489D01*
X81705541Y-135783943D01*
X81703312Y-135675705D01*
X81703026Y-135592004D01*
X81703026Y-135278421D01*
X81870131Y-135278421D01*
X81870131Y-135538533D01*
G37*
X81870131Y-135538533D02*
X81871710Y-135661089D01*
X81877481Y-135754179D01*
X81888991Y-135821651D01*
X81907790Y-135867355D01*
X81935426Y-135895139D01*
X81973448Y-135908854D01*
X82020526Y-135912358D01*
X82069832Y-135908432D01*
X82107283Y-135894089D01*
X82134428Y-135865478D01*
X82152815Y-135818751D01*
X82163993Y-135750058D01*
X82169511Y-135655550D01*
X82170921Y-135538533D01*
X82170921Y-135278421D01*
X82354736Y-135278421D01*
X82354736Y-136080526D01*
X82262828Y-136080526D01*
X82207422Y-136078281D01*
X82178891Y-136070396D01*
X82170921Y-136055428D01*
X82166120Y-136042097D01*
X82147014Y-136044917D01*
X82108504Y-136063783D01*
X82020239Y-136092887D01*
X81926623Y-136090825D01*
X81836921Y-136059221D01*
X81794204Y-136034257D01*
X81761621Y-136007226D01*
X81737817Y-135973405D01*
X81721439Y-135928068D01*
X81711131Y-135866489D01*
X81705541Y-135783943D01*
X81703312Y-135675705D01*
X81703026Y-135592004D01*
X81703026Y-135278421D01*
X81870131Y-135278421D01*
X81870131Y-135538533D01*
G36*
X83496576Y-135285419D02*
G01*
X83593395Y-135326549D01*
X83623890Y-135346571D01*
X83662865Y-135377340D01*
X83687331Y-135401533D01*
X83691578Y-135409413D01*
X83679584Y-135426899D01*
X83648887Y-135456570D01*
X83624312Y-135477279D01*
X83557046Y-135531336D01*
X83503930Y-135486642D01*
X83462884Y-135457789D01*
X83422863Y-135447829D01*
X83377059Y-135450261D01*
X83304324Y-135468345D01*
X83254256Y-135505881D01*
X83223829Y-135566562D01*
X83210017Y-135654081D01*
X83210013Y-135654136D01*
X83211208Y-135751958D01*
X83229772Y-135823730D01*
X83266804Y-135872595D01*
X83292050Y-135889143D01*
X83359097Y-135909749D01*
X83430709Y-135909762D01*
X83493015Y-135889768D01*
X83507763Y-135880000D01*
X83544750Y-135855047D01*
X83573668Y-135850958D01*
X83604856Y-135869530D01*
X83639336Y-135902887D01*
X83693912Y-135959196D01*
X83633318Y-136009142D01*
X83539698Y-136065513D01*
X83434125Y-136093293D01*
X83323798Y-136091282D01*
X83251343Y-136072862D01*
X83166656Y-136027310D01*
X83098927Y-135955650D01*
X83068157Y-135905066D01*
X83043236Y-135832488D01*
X83030766Y-135740569D01*
X83030670Y-135640948D01*
X83042870Y-135545267D01*
X83067290Y-135465169D01*
X83071136Y-135456956D01*
X83128093Y-135376413D01*
X83205209Y-135317771D01*
X83296390Y-135282247D01*
X83395543Y-135271057D01*
X83496576Y-135285419D01*
G37*
X83496576Y-135285419D02*
X83593395Y-135326549D01*
X83623890Y-135346571D01*
X83662865Y-135377340D01*
X83687331Y-135401533D01*
X83691578Y-135409413D01*
X83679584Y-135426899D01*
X83648887Y-135456570D01*
X83624312Y-135477279D01*
X83557046Y-135531336D01*
X83503930Y-135486642D01*
X83462884Y-135457789D01*
X83422863Y-135447829D01*
X83377059Y-135450261D01*
X83304324Y-135468345D01*
X83254256Y-135505881D01*
X83223829Y-135566562D01*
X83210017Y-135654081D01*
X83210013Y-135654136D01*
X83211208Y-135751958D01*
X83229772Y-135823730D01*
X83266804Y-135872595D01*
X83292050Y-135889143D01*
X83359097Y-135909749D01*
X83430709Y-135909762D01*
X83493015Y-135889768D01*
X83507763Y-135880000D01*
X83544750Y-135855047D01*
X83573668Y-135850958D01*
X83604856Y-135869530D01*
X83639336Y-135902887D01*
X83693912Y-135959196D01*
X83633318Y-136009142D01*
X83539698Y-136065513D01*
X83434125Y-136093293D01*
X83323798Y-136091282D01*
X83251343Y-136072862D01*
X83166656Y-136027310D01*
X83098927Y-135955650D01*
X83068157Y-135905066D01*
X83043236Y-135832488D01*
X83030766Y-135740569D01*
X83030670Y-135640948D01*
X83042870Y-135545267D01*
X83067290Y-135465169D01*
X83071136Y-135456956D01*
X83128093Y-135376413D01*
X83205209Y-135317771D01*
X83296390Y-135282247D01*
X83395543Y-135271057D01*
X83496576Y-135285419D01*
G36*
X84108784Y-135275554D02*
G01*
X84151574Y-135285949D01*
X84233609Y-135324013D01*
X84303757Y-135382149D01*
X84352305Y-135451852D01*
X84358975Y-135467502D01*
X84368124Y-135508496D01*
X84374529Y-135569138D01*
X84376710Y-135630430D01*
X84376710Y-135746316D01*
X84134407Y-135746316D01*
X84034471Y-135746693D01*
X83964069Y-135748987D01*
X83919313Y-135754938D01*
X83896315Y-135766285D01*
X83891189Y-135784771D01*
X83900048Y-135812136D01*
X83915917Y-135844155D01*
X83960184Y-135897592D01*
X84021699Y-135924215D01*
X84096885Y-135923347D01*
X84182053Y-135894371D01*
X84255659Y-135858611D01*
X84316734Y-135906904D01*
X84377810Y-135955197D01*
X84320351Y-136008285D01*
X84243641Y-136058445D01*
X84149302Y-136088688D01*
X84047827Y-136097151D01*
X83949711Y-136081974D01*
X83933881Y-136076824D01*
X83847647Y-136031791D01*
X83783501Y-135964652D01*
X83740091Y-135873405D01*
X83716064Y-135756044D01*
X83715784Y-135753529D01*
X83713633Y-135625627D01*
X83722329Y-135579997D01*
X83892105Y-135579997D01*
X83907697Y-135587013D01*
X83950029Y-135592388D01*
X84012434Y-135595457D01*
X84051981Y-135595921D01*
X84125728Y-135595630D01*
X84171840Y-135593783D01*
X84196100Y-135588912D01*
X84204294Y-135579555D01*
X84202206Y-135564245D01*
X84200455Y-135558322D01*
X84170560Y-135502668D01*
X84123542Y-135457815D01*
X84082049Y-135438105D01*
X84026926Y-135439295D01*
X83971068Y-135463875D01*
X83924212Y-135504570D01*
X83896094Y-135554108D01*
X83892105Y-135579997D01*
X83722329Y-135579997D01*
X83735074Y-135513133D01*
X83777611Y-135418727D01*
X83838747Y-135345088D01*
X83915985Y-135294893D01*
X84006830Y-135270822D01*
X84108784Y-135275554D01*
G37*
X84108784Y-135275554D02*
X84151574Y-135285949D01*
X84233609Y-135324013D01*
X84303757Y-135382149D01*
X84352305Y-135451852D01*
X84358975Y-135467502D01*
X84368124Y-135508496D01*
X84374529Y-135569138D01*
X84376710Y-135630430D01*
X84376710Y-135746316D01*
X84134407Y-135746316D01*
X84034471Y-135746693D01*
X83964069Y-135748987D01*
X83919313Y-135754938D01*
X83896315Y-135766285D01*
X83891189Y-135784771D01*
X83900048Y-135812136D01*
X83915917Y-135844155D01*
X83960184Y-135897592D01*
X84021699Y-135924215D01*
X84096885Y-135923347D01*
X84182053Y-135894371D01*
X84255659Y-135858611D01*
X84316734Y-135906904D01*
X84377810Y-135955197D01*
X84320351Y-136008285D01*
X84243641Y-136058445D01*
X84149302Y-136088688D01*
X84047827Y-136097151D01*
X83949711Y-136081974D01*
X83933881Y-136076824D01*
X83847647Y-136031791D01*
X83783501Y-135964652D01*
X83740091Y-135873405D01*
X83716064Y-135756044D01*
X83715784Y-135753529D01*
X83713633Y-135625627D01*
X83722329Y-135579997D01*
X83892105Y-135579997D01*
X83907697Y-135587013D01*
X83950029Y-135592388D01*
X84012434Y-135595457D01*
X84051981Y-135595921D01*
X84125728Y-135595630D01*
X84171840Y-135593783D01*
X84196100Y-135588912D01*
X84204294Y-135579555D01*
X84202206Y-135564245D01*
X84200455Y-135558322D01*
X84170560Y-135502668D01*
X84123542Y-135457815D01*
X84082049Y-135438105D01*
X84026926Y-135439295D01*
X83971068Y-135463875D01*
X83924212Y-135504570D01*
X83896094Y-135554108D01*
X83892105Y-135579997D01*
X83722329Y-135579997D01*
X83735074Y-135513133D01*
X83777611Y-135418727D01*
X83838747Y-135345088D01*
X83915985Y-135294893D01*
X84006830Y-135270822D01*
X84108784Y-135275554D01*
G36*
X79547957Y-135292226D02*
G01*
X79589546Y-135312090D01*
X79629825Y-135340784D01*
X79660510Y-135373809D01*
X79682861Y-135415931D01*
X79698136Y-135471915D01*
X79707592Y-135546528D01*
X79712487Y-135644535D01*
X79714081Y-135770702D01*
X79714106Y-135783914D01*
X79714473Y-136080526D01*
X79530657Y-136080526D01*
X79530657Y-135807081D01*
X79530527Y-135705777D01*
X79529621Y-135632353D01*
X79527173Y-135581271D01*
X79522414Y-135546990D01*
X79514574Y-135523971D01*
X79502885Y-135506673D01*
X79486602Y-135489581D01*
X79429634Y-135452857D01*
X79367445Y-135446042D01*
X79308199Y-135469261D01*
X79287595Y-135486543D01*
X79272470Y-135502791D01*
X79261610Y-135520191D01*
X79254310Y-135544212D01*
X79249863Y-135580322D01*
X79247564Y-135633988D01*
X79246704Y-135710680D01*
X79246578Y-135804043D01*
X79246578Y-136080526D01*
X79062763Y-136080526D01*
X79062763Y-135278421D01*
X79154671Y-135278421D01*
X79209851Y-135280603D01*
X79238320Y-135288351D01*
X79246575Y-135303468D01*
X79246578Y-135303916D01*
X79250408Y-135318720D01*
X79267301Y-135317040D01*
X79300888Y-135300773D01*
X79377063Y-135276840D01*
X79464200Y-135274178D01*
X79547957Y-135292226D01*
G37*
X79547957Y-135292226D02*
X79589546Y-135312090D01*
X79629825Y-135340784D01*
X79660510Y-135373809D01*
X79682861Y-135415931D01*
X79698136Y-135471915D01*
X79707592Y-135546528D01*
X79712487Y-135644535D01*
X79714081Y-135770702D01*
X79714106Y-135783914D01*
X79714473Y-136080526D01*
X79530657Y-136080526D01*
X79530657Y-135807081D01*
X79530527Y-135705777D01*
X79529621Y-135632353D01*
X79527173Y-135581271D01*
X79522414Y-135546990D01*
X79514574Y-135523971D01*
X79502885Y-135506673D01*
X79486602Y-135489581D01*
X79429634Y-135452857D01*
X79367445Y-135446042D01*
X79308199Y-135469261D01*
X79287595Y-135486543D01*
X79272470Y-135502791D01*
X79261610Y-135520191D01*
X79254310Y-135544212D01*
X79249863Y-135580322D01*
X79247564Y-135633988D01*
X79246704Y-135710680D01*
X79246578Y-135804043D01*
X79246578Y-136080526D01*
X79062763Y-136080526D01*
X79062763Y-135278421D01*
X79154671Y-135278421D01*
X79209851Y-135280603D01*
X79238320Y-135288351D01*
X79246575Y-135303468D01*
X79246578Y-135303916D01*
X79250408Y-135318720D01*
X79267301Y-135317040D01*
X79300888Y-135300773D01*
X79377063Y-135276840D01*
X79464200Y-135274178D01*
X79547957Y-135292226D01*
G36*
X82941388Y-135277645D02*
G01*
X82998865Y-135295206D01*
X83035872Y-135317395D01*
X83047927Y-135334942D01*
X83044609Y-135355742D01*
X83023079Y-135388419D01*
X83004874Y-135411562D01*
X82967344Y-135453402D01*
X82939148Y-135471005D01*
X82915111Y-135469856D01*
X82843808Y-135451710D01*
X82791442Y-135452534D01*
X82748918Y-135473098D01*
X82734642Y-135485134D01*
X82688947Y-135527483D01*
X82688947Y-136080526D01*
X82505131Y-136080526D01*
X82505131Y-135278421D01*
X82597039Y-135278421D01*
X82652219Y-135280603D01*
X82680688Y-135288351D01*
X82688943Y-135303468D01*
X82688947Y-135303916D01*
X82692845Y-135319749D01*
X82710474Y-135317684D01*
X82734901Y-135306261D01*
X82785350Y-135285005D01*
X82826316Y-135272216D01*
X82879028Y-135268938D01*
X82941388Y-135277645D01*
G37*
X82941388Y-135277645D02*
X82998865Y-135295206D01*
X83035872Y-135317395D01*
X83047927Y-135334942D01*
X83044609Y-135355742D01*
X83023079Y-135388419D01*
X83004874Y-135411562D01*
X82967344Y-135453402D01*
X82939148Y-135471005D01*
X82915111Y-135469856D01*
X82843808Y-135451710D01*
X82791442Y-135452534D01*
X82748918Y-135473098D01*
X82734642Y-135485134D01*
X82688947Y-135527483D01*
X82688947Y-136080526D01*
X82505131Y-136080526D01*
X82505131Y-135278421D01*
X82597039Y-135278421D01*
X82652219Y-135280603D01*
X82680688Y-135288351D01*
X82688943Y-135303468D01*
X82688947Y-135303916D01*
X82692845Y-135319749D01*
X82710474Y-135317684D01*
X82734901Y-135306261D01*
X82785350Y-135285005D01*
X82826316Y-135272216D01*
X82879028Y-135268938D01*
X82941388Y-135277645D01*
G36*
X81050964Y-129738576D02*
G01*
X81126513Y-130139322D01*
X81684041Y-130369154D01*
X82018465Y-130141748D01*
X82112122Y-130078431D01*
X82196782Y-130021896D01*
X82268495Y-129974727D01*
X82323311Y-129939502D01*
X82357280Y-129918805D01*
X82366530Y-129914342D01*
X82383195Y-129925820D01*
X82418806Y-129957551D01*
X82469371Y-130005483D01*
X82530900Y-130065562D01*
X82599399Y-130133733D01*
X82670879Y-130205945D01*
X82741347Y-130278142D01*
X82806811Y-130346273D01*
X82863280Y-130406283D01*
X82906763Y-130454119D01*
X82933268Y-130485727D01*
X82939605Y-130496305D01*
X82930486Y-130515806D01*
X82904920Y-130558531D01*
X82865597Y-130620298D01*
X82815203Y-130696931D01*
X82756427Y-130784248D01*
X82722368Y-130834052D01*
X82660289Y-130924993D01*
X82605126Y-131007059D01*
X82559554Y-131076163D01*
X82526250Y-131128222D01*
X82507890Y-131159150D01*
X82505131Y-131165650D01*
X82511385Y-131184121D01*
X82528434Y-131227172D01*
X82553703Y-131288749D01*
X82584622Y-131362799D01*
X82618618Y-131443270D01*
X82653118Y-131524107D01*
X82685551Y-131599258D01*
X82713343Y-131662671D01*
X82733923Y-131708293D01*
X82744719Y-131730069D01*
X82745356Y-131730926D01*
X82762307Y-131735084D01*
X82807451Y-131744361D01*
X82876110Y-131757844D01*
X82963602Y-131774621D01*
X83065250Y-131793781D01*
X83124556Y-131804830D01*
X83233172Y-131825510D01*
X83331277Y-131845189D01*
X83413909Y-131862789D01*
X83476104Y-131877233D01*
X83512899Y-131887446D01*
X83520296Y-131890686D01*
X83527540Y-131912617D01*
X83533385Y-131962147D01*
X83537835Y-132033485D01*
X83540893Y-132120839D01*
X83542565Y-132218417D01*
X83542853Y-132320426D01*
X83541761Y-132421075D01*
X83539294Y-132514572D01*
X83535456Y-132595125D01*
X83530250Y-132656942D01*
X83523681Y-132694230D01*
X83519741Y-132701993D01*
X83496188Y-132711298D01*
X83446282Y-132724600D01*
X83376623Y-132740337D01*
X83293813Y-132756946D01*
X83264905Y-132762319D01*
X83125531Y-132787848D01*
X83015436Y-132808408D01*
X82930982Y-132824815D01*
X82868530Y-132837887D01*
X82824444Y-132848441D01*
X82795085Y-132857294D01*
X82776815Y-132865263D01*
X82765998Y-132873165D01*
X82764485Y-132874727D01*
X82749377Y-132899886D01*
X82726329Y-132948850D01*
X82697644Y-133015621D01*
X82665622Y-133094205D01*
X82632565Y-133178607D01*
X82600773Y-133262830D01*
X82572549Y-133340879D01*
X82550193Y-133406759D01*
X82536007Y-133454473D01*
X82532293Y-133478027D01*
X82532602Y-133478852D01*
X82545189Y-133498104D01*
X82573744Y-133540463D01*
X82615267Y-133601521D01*
X82666756Y-133676868D01*
X82725211Y-133762096D01*
X82741858Y-133786315D01*
X82801215Y-133874123D01*
X82853447Y-133954238D01*
X82895708Y-134022062D01*
X82925153Y-134072993D01*
X82938937Y-134102431D01*
X82939605Y-134106048D01*
X82928024Y-134125057D01*
X82896024Y-134162714D01*
X82847718Y-134214973D01*
X82787220Y-134277786D01*
X82718644Y-134347106D01*
X82646104Y-134418885D01*
X82573712Y-134489077D01*
X82505584Y-134553635D01*
X82445832Y-134608510D01*
X82398571Y-134649656D01*
X82367913Y-134673026D01*
X82359432Y-134676842D01*
X82339691Y-134667855D01*
X82299274Y-134643616D01*
X82244763Y-134608209D01*
X82202823Y-134579711D01*
X82126829Y-134527418D01*
X82036834Y-134465845D01*
X81946564Y-134404370D01*
X81898032Y-134371469D01*
X81733762Y-134260359D01*
X81595869Y-134334916D01*
X81533049Y-134367578D01*
X81479629Y-134392966D01*
X81443484Y-134407446D01*
X81434284Y-134409460D01*
X81423221Y-134394584D01*
X81401394Y-134352547D01*
X81370434Y-134287227D01*
X81331970Y-134202500D01*
X81287632Y-134102245D01*
X81239047Y-133990339D01*
X81187846Y-133870659D01*
X81135659Y-133747084D01*
X81084113Y-133623491D01*
X81034840Y-133503757D01*
X80989467Y-133391759D01*
X80949625Y-133291377D01*
X80916942Y-133206486D01*
X80893049Y-133140965D01*
X80879574Y-133098690D01*
X80877406Y-133084172D01*
X80894583Y-133065653D01*
X80932190Y-133035590D01*
X80982366Y-133000232D01*
X80986578Y-132997434D01*
X81116264Y-132893625D01*
X81220834Y-132772515D01*
X81299381Y-132637976D01*
X81350999Y-132493882D01*
X81374782Y-132344105D01*
X81369823Y-132192517D01*
X81335217Y-132042992D01*
X81270057Y-131899400D01*
X81250886Y-131867984D01*
X81151174Y-131741125D01*
X81033377Y-131639255D01*
X80901571Y-131562904D01*
X80759833Y-131512602D01*
X80612242Y-131488879D01*
X80462873Y-131492265D01*
X80315803Y-131523288D01*
X80175111Y-131582480D01*
X80044873Y-131670369D01*
X80004586Y-131706042D01*
X79902055Y-131817706D01*
X79827341Y-131935257D01*
X79776090Y-132067020D01*
X79747546Y-132197507D01*
X79740500Y-132344216D01*
X79763996Y-132491653D01*
X79815649Y-132634834D01*
X79893071Y-132768777D01*
X79993875Y-132888498D01*
X80115676Y-132989014D01*
X80131684Y-132999609D01*
X80182398Y-133034306D01*
X80220950Y-133064370D01*
X80239381Y-133083565D01*
X80239649Y-133084172D01*
X80235692Y-133104936D01*
X80220007Y-133152062D01*
X80194222Y-133221673D01*
X80159969Y-133309893D01*
X80118877Y-133412844D01*
X80072576Y-133526650D01*
X80022696Y-133647435D01*
X79970867Y-133771321D01*
X79918719Y-133894432D01*
X79867882Y-134012891D01*
X79819987Y-134122823D01*
X79776662Y-134220349D01*
X79739538Y-134301593D01*
X79710244Y-134362679D01*
X79690412Y-134399730D01*
X79682426Y-134409460D01*
X79658021Y-134401883D01*
X79612358Y-134381560D01*
X79553310Y-134352125D01*
X79520840Y-134334916D01*
X79382947Y-134260359D01*
X79218677Y-134371469D01*
X79134821Y-134428390D01*
X79043013Y-134491030D01*
X78956980Y-134550011D01*
X78913887Y-134579711D01*
X78853277Y-134620410D01*
X78801955Y-134652663D01*
X78766615Y-134672384D01*
X78755137Y-134676554D01*
X78738430Y-134665307D01*
X78701454Y-134633911D01*
X78647795Y-134585624D01*
X78581038Y-134523708D01*
X78504766Y-134451421D01*
X78456527Y-134405008D01*
X78372133Y-134322087D01*
X78299197Y-134247920D01*
X78240669Y-134185680D01*
X78199497Y-134138541D01*
X78178628Y-134109673D01*
X78176626Y-134103815D01*
X78185917Y-134081532D01*
X78211591Y-134036477D01*
X78250800Y-133973211D01*
X78300697Y-133896295D01*
X78358433Y-133810292D01*
X78374851Y-133786315D01*
X78434677Y-133699170D01*
X78488350Y-133620710D01*
X78532870Y-133555345D01*
X78565235Y-133507484D01*
X78582445Y-133481535D01*
X78584107Y-133478852D01*
X78581621Y-133458172D01*
X78568423Y-133412704D01*
X78546814Y-133348444D01*
X78519096Y-133271387D01*
X78487570Y-133187529D01*
X78454537Y-133102866D01*
X78422299Y-133023392D01*
X78393157Y-132955104D01*
X78369412Y-132903997D01*
X78353365Y-132876067D01*
X78352225Y-132874727D01*
X78342412Y-132866745D01*
X78325839Y-132858851D01*
X78298868Y-132850229D01*
X78257861Y-132840062D01*
X78199180Y-132827531D01*
X78119187Y-132811821D01*
X78014245Y-132792113D01*
X77880715Y-132767592D01*
X77851804Y-132762319D01*
X77766118Y-132745764D01*
X77691418Y-132729569D01*
X77634306Y-132715296D01*
X77601383Y-132704508D01*
X77596969Y-132701993D01*
X77589694Y-132679696D01*
X77583781Y-132629869D01*
X77579234Y-132558304D01*
X77576055Y-132470793D01*
X77574251Y-132373128D01*
X77573823Y-132271101D01*
X77574777Y-132170503D01*
X77577116Y-132077127D01*
X77580844Y-131996765D01*
X77585966Y-131935209D01*
X77592484Y-131898250D01*
X77596414Y-131890686D01*
X77618292Y-131883056D01*
X77668109Y-131870642D01*
X77740903Y-131854522D01*
X77831711Y-131835773D01*
X77935569Y-131815471D01*
X77992154Y-131804830D01*
X78099514Y-131784760D01*
X78195254Y-131766580D01*
X78274694Y-131751199D01*
X78333154Y-131739531D01*
X78365955Y-131732488D01*
X78371354Y-131730926D01*
X78380478Y-131713322D01*
X78399765Y-131670918D01*
X78426645Y-131609772D01*
X78458546Y-131535943D01*
X78492898Y-131455489D01*
X78527129Y-131374468D01*
X78558669Y-131298937D01*
X78584946Y-131234955D01*
X78603389Y-131188580D01*
X78611429Y-131165869D01*
X78611578Y-131164876D01*
X78602465Y-131146961D01*
X78576914Y-131105733D01*
X78537612Y-131045291D01*
X78487243Y-130969731D01*
X78428494Y-130883152D01*
X78394342Y-130833421D01*
X78332110Y-130742236D01*
X78276836Y-130659449D01*
X78231218Y-130589249D01*
X78197952Y-130535824D01*
X78179736Y-130503361D01*
X78177105Y-130496083D01*
X78188414Y-130479145D01*
X78219681Y-130442978D01*
X78266910Y-130391635D01*
X78326108Y-130329167D01*
X78393281Y-130259626D01*
X78464434Y-130187065D01*
X78535574Y-130115535D01*
X78602707Y-130049087D01*
X78661839Y-129991774D01*
X78708975Y-129947647D01*
X78740123Y-129920759D01*
X78750543Y-129914342D01*
X78767509Y-129923365D01*
X78808089Y-129948715D01*
X78868337Y-129987810D01*
X78944307Y-130038071D01*
X79032054Y-130096917D01*
X79098244Y-130141748D01*
X79432668Y-130369154D01*
X79711433Y-130254238D01*
X79990197Y-130139322D01*
X80065746Y-129738576D01*
X80141294Y-129337829D01*
X80975415Y-129337829D01*
X81050964Y-129738576D01*
G37*
X81050964Y-129738576D02*
X81126513Y-130139322D01*
X81684041Y-130369154D01*
X82018465Y-130141748D01*
X82112122Y-130078431D01*
X82196782Y-130021896D01*
X82268495Y-129974727D01*
X82323311Y-129939502D01*
X82357280Y-129918805D01*
X82366530Y-129914342D01*
X82383195Y-129925820D01*
X82418806Y-129957551D01*
X82469371Y-130005483D01*
X82530900Y-130065562D01*
X82599399Y-130133733D01*
X82670879Y-130205945D01*
X82741347Y-130278142D01*
X82806811Y-130346273D01*
X82863280Y-130406283D01*
X82906763Y-130454119D01*
X82933268Y-130485727D01*
X82939605Y-130496305D01*
X82930486Y-130515806D01*
X82904920Y-130558531D01*
X82865597Y-130620298D01*
X82815203Y-130696931D01*
X82756427Y-130784248D01*
X82722368Y-130834052D01*
X82660289Y-130924993D01*
X82605126Y-131007059D01*
X82559554Y-131076163D01*
X82526250Y-131128222D01*
X82507890Y-131159150D01*
X82505131Y-131165650D01*
X82511385Y-131184121D01*
X82528434Y-131227172D01*
X82553703Y-131288749D01*
X82584622Y-131362799D01*
X82618618Y-131443270D01*
X82653118Y-131524107D01*
X82685551Y-131599258D01*
X82713343Y-131662671D01*
X82733923Y-131708293D01*
X82744719Y-131730069D01*
X82745356Y-131730926D01*
X82762307Y-131735084D01*
X82807451Y-131744361D01*
X82876110Y-131757844D01*
X82963602Y-131774621D01*
X83065250Y-131793781D01*
X83124556Y-131804830D01*
X83233172Y-131825510D01*
X83331277Y-131845189D01*
X83413909Y-131862789D01*
X83476104Y-131877233D01*
X83512899Y-131887446D01*
X83520296Y-131890686D01*
X83527540Y-131912617D01*
X83533385Y-131962147D01*
X83537835Y-132033485D01*
X83540893Y-132120839D01*
X83542565Y-132218417D01*
X83542853Y-132320426D01*
X83541761Y-132421075D01*
X83539294Y-132514572D01*
X83535456Y-132595125D01*
X83530250Y-132656942D01*
X83523681Y-132694230D01*
X83519741Y-132701993D01*
X83496188Y-132711298D01*
X83446282Y-132724600D01*
X83376623Y-132740337D01*
X83293813Y-132756946D01*
X83264905Y-132762319D01*
X83125531Y-132787848D01*
X83015436Y-132808408D01*
X82930982Y-132824815D01*
X82868530Y-132837887D01*
X82824444Y-132848441D01*
X82795085Y-132857294D01*
X82776815Y-132865263D01*
X82765998Y-132873165D01*
X82764485Y-132874727D01*
X82749377Y-132899886D01*
X82726329Y-132948850D01*
X82697644Y-133015621D01*
X82665622Y-133094205D01*
X82632565Y-133178607D01*
X82600773Y-133262830D01*
X82572549Y-133340879D01*
X82550193Y-133406759D01*
X82536007Y-133454473D01*
X82532293Y-133478027D01*
X82532602Y-133478852D01*
X82545189Y-133498104D01*
X82573744Y-133540463D01*
X82615267Y-133601521D01*
X82666756Y-133676868D01*
X82725211Y-133762096D01*
X82741858Y-133786315D01*
X82801215Y-133874123D01*
X82853447Y-133954238D01*
X82895708Y-134022062D01*
X82925153Y-134072993D01*
X82938937Y-134102431D01*
X82939605Y-134106048D01*
X82928024Y-134125057D01*
X82896024Y-134162714D01*
X82847718Y-134214973D01*
X82787220Y-134277786D01*
X82718644Y-134347106D01*
X82646104Y-134418885D01*
X82573712Y-134489077D01*
X82505584Y-134553635D01*
X82445832Y-134608510D01*
X82398571Y-134649656D01*
X82367913Y-134673026D01*
X82359432Y-134676842D01*
X82339691Y-134667855D01*
X82299274Y-134643616D01*
X82244763Y-134608209D01*
X82202823Y-134579711D01*
X82126829Y-134527418D01*
X82036834Y-134465845D01*
X81946564Y-134404370D01*
X81898032Y-134371469D01*
X81733762Y-134260359D01*
X81595869Y-134334916D01*
X81533049Y-134367578D01*
X81479629Y-134392966D01*
X81443484Y-134407446D01*
X81434284Y-134409460D01*
X81423221Y-134394584D01*
X81401394Y-134352547D01*
X81370434Y-134287227D01*
X81331970Y-134202500D01*
X81287632Y-134102245D01*
X81239047Y-133990339D01*
X81187846Y-133870659D01*
X81135659Y-133747084D01*
X81084113Y-133623491D01*
X81034840Y-133503757D01*
X80989467Y-133391759D01*
X80949625Y-133291377D01*
X80916942Y-133206486D01*
X80893049Y-133140965D01*
X80879574Y-133098690D01*
X80877406Y-133084172D01*
X80894583Y-133065653D01*
X80932190Y-133035590D01*
X80982366Y-133000232D01*
X80986578Y-132997434D01*
X81116264Y-132893625D01*
X81220834Y-132772515D01*
X81299381Y-132637976D01*
X81350999Y-132493882D01*
X81374782Y-132344105D01*
X81369823Y-132192517D01*
X81335217Y-132042992D01*
X81270057Y-131899400D01*
X81250886Y-131867984D01*
X81151174Y-131741125D01*
X81033377Y-131639255D01*
X80901571Y-131562904D01*
X80759833Y-131512602D01*
X80612242Y-131488879D01*
X80462873Y-131492265D01*
X80315803Y-131523288D01*
X80175111Y-131582480D01*
X80044873Y-131670369D01*
X80004586Y-131706042D01*
X79902055Y-131817706D01*
X79827341Y-131935257D01*
X79776090Y-132067020D01*
X79747546Y-132197507D01*
X79740500Y-132344216D01*
X79763996Y-132491653D01*
X79815649Y-132634834D01*
X79893071Y-132768777D01*
X79993875Y-132888498D01*
X80115676Y-132989014D01*
X80131684Y-132999609D01*
X80182398Y-133034306D01*
X80220950Y-133064370D01*
X80239381Y-133083565D01*
X80239649Y-133084172D01*
X80235692Y-133104936D01*
X80220007Y-133152062D01*
X80194222Y-133221673D01*
X80159969Y-133309893D01*
X80118877Y-133412844D01*
X80072576Y-133526650D01*
X80022696Y-133647435D01*
X79970867Y-133771321D01*
X79918719Y-133894432D01*
X79867882Y-134012891D01*
X79819987Y-134122823D01*
X79776662Y-134220349D01*
X79739538Y-134301593D01*
X79710244Y-134362679D01*
X79690412Y-134399730D01*
X79682426Y-134409460D01*
X79658021Y-134401883D01*
X79612358Y-134381560D01*
X79553310Y-134352125D01*
X79520840Y-134334916D01*
X79382947Y-134260359D01*
X79218677Y-134371469D01*
X79134821Y-134428390D01*
X79043013Y-134491030D01*
X78956980Y-134550011D01*
X78913887Y-134579711D01*
X78853277Y-134620410D01*
X78801955Y-134652663D01*
X78766615Y-134672384D01*
X78755137Y-134676554D01*
X78738430Y-134665307D01*
X78701454Y-134633911D01*
X78647795Y-134585624D01*
X78581038Y-134523708D01*
X78504766Y-134451421D01*
X78456527Y-134405008D01*
X78372133Y-134322087D01*
X78299197Y-134247920D01*
X78240669Y-134185680D01*
X78199497Y-134138541D01*
X78178628Y-134109673D01*
X78176626Y-134103815D01*
X78185917Y-134081532D01*
X78211591Y-134036477D01*
X78250800Y-133973211D01*
X78300697Y-133896295D01*
X78358433Y-133810292D01*
X78374851Y-133786315D01*
X78434677Y-133699170D01*
X78488350Y-133620710D01*
X78532870Y-133555345D01*
X78565235Y-133507484D01*
X78582445Y-133481535D01*
X78584107Y-133478852D01*
X78581621Y-133458172D01*
X78568423Y-133412704D01*
X78546814Y-133348444D01*
X78519096Y-133271387D01*
X78487570Y-133187529D01*
X78454537Y-133102866D01*
X78422299Y-133023392D01*
X78393157Y-132955104D01*
X78369412Y-132903997D01*
X78353365Y-132876067D01*
X78352225Y-132874727D01*
X78342412Y-132866745D01*
X78325839Y-132858851D01*
X78298868Y-132850229D01*
X78257861Y-132840062D01*
X78199180Y-132827531D01*
X78119187Y-132811821D01*
X78014245Y-132792113D01*
X77880715Y-132767592D01*
X77851804Y-132762319D01*
X77766118Y-132745764D01*
X77691418Y-132729569D01*
X77634306Y-132715296D01*
X77601383Y-132704508D01*
X77596969Y-132701993D01*
X77589694Y-132679696D01*
X77583781Y-132629869D01*
X77579234Y-132558304D01*
X77576055Y-132470793D01*
X77574251Y-132373128D01*
X77573823Y-132271101D01*
X77574777Y-132170503D01*
X77577116Y-132077127D01*
X77580844Y-131996765D01*
X77585966Y-131935209D01*
X77592484Y-131898250D01*
X77596414Y-131890686D01*
X77618292Y-131883056D01*
X77668109Y-131870642D01*
X77740903Y-131854522D01*
X77831711Y-131835773D01*
X77935569Y-131815471D01*
X77992154Y-131804830D01*
X78099514Y-131784760D01*
X78195254Y-131766580D01*
X78274694Y-131751199D01*
X78333154Y-131739531D01*
X78365955Y-131732488D01*
X78371354Y-131730926D01*
X78380478Y-131713322D01*
X78399765Y-131670918D01*
X78426645Y-131609772D01*
X78458546Y-131535943D01*
X78492898Y-131455489D01*
X78527129Y-131374468D01*
X78558669Y-131298937D01*
X78584946Y-131234955D01*
X78603389Y-131188580D01*
X78611429Y-131165869D01*
X78611578Y-131164876D01*
X78602465Y-131146961D01*
X78576914Y-131105733D01*
X78537612Y-131045291D01*
X78487243Y-130969731D01*
X78428494Y-130883152D01*
X78394342Y-130833421D01*
X78332110Y-130742236D01*
X78276836Y-130659449D01*
X78231218Y-130589249D01*
X78197952Y-130535824D01*
X78179736Y-130503361D01*
X78177105Y-130496083D01*
X78188414Y-130479145D01*
X78219681Y-130442978D01*
X78266910Y-130391635D01*
X78326108Y-130329167D01*
X78393281Y-130259626D01*
X78464434Y-130187065D01*
X78535574Y-130115535D01*
X78602707Y-130049087D01*
X78661839Y-129991774D01*
X78708975Y-129947647D01*
X78740123Y-129920759D01*
X78750543Y-129914342D01*
X78767509Y-129923365D01*
X78808089Y-129948715D01*
X78868337Y-129987810D01*
X78944307Y-130038071D01*
X79032054Y-130096917D01*
X79098244Y-130141748D01*
X79432668Y-130369154D01*
X79711433Y-130254238D01*
X79990197Y-130139322D01*
X80065746Y-129738576D01*
X80141294Y-129337829D01*
X80975415Y-129337829D01*
X81050964Y-129738576D01*
D16*
X75595000Y-126450000D02*
G75*
G03*
X75595000Y-126450000I-125000J0D01*
G01*
X76595000Y-126450000D02*
G75*
G03*
X76595000Y-126450000I-125000J0D01*
G01*
X77595000Y-126450000D02*
G75*
G03*
X77595000Y-126450000I-125000J0D01*
G01*
X77595000Y-125450000D02*
G75*
G03*
X77595000Y-125450000I-125000J0D01*
G01*
X76595000Y-125450000D02*
G75*
G03*
X76595000Y-125450000I-125000J0D01*
G01*
X75595000Y-125450000D02*
G75*
G03*
X75595000Y-125450000I-125000J0D01*
G01*
X76595000Y-124450000D02*
G75*
G03*
X76595000Y-124450000I-125000J0D01*
G01*
X75595000Y-124450000D02*
G75*
G03*
X75595000Y-124450000I-125000J0D01*
G01*
X77595000Y-124450000D02*
G75*
G03*
X77595000Y-124450000I-125000J0D01*
G01*
D14*
X376430000Y-38245000D02*
X387250000Y-38245000D01*
X387250000Y-38245000D02*
X387250000Y-133465000D01*
X387250000Y-133465000D02*
X376430000Y-133465000D01*
X376430000Y-133465000D02*
X376430000Y-38245000D01*
X376240000Y-46485000D02*
X375560000Y-46185000D01*
X375560000Y-46185000D02*
X375560000Y-46785000D01*
X375560000Y-46785000D02*
X376240000Y-46485000D01*
X377590000Y-43354000D02*
X383090000Y-43354000D01*
X383090000Y-43354000D02*
X383090000Y-44354000D01*
X383090000Y-44354000D02*
X386090000Y-44354000D01*
X386090000Y-44354000D02*
X386090000Y-127355000D01*
X386090000Y-127355000D02*
X383090000Y-127355000D01*
X383090000Y-127355000D02*
X383090000Y-128355000D01*
X383090000Y-128355000D02*
X377590000Y-128355000D01*
X377590000Y-128355000D02*
X377590000Y-43354000D01*
X305310000Y-38245000D02*
X316130000Y-38245000D01*
X316130000Y-38245000D02*
X316130000Y-133465000D01*
X316130000Y-133465000D02*
X305310000Y-133465000D01*
X305310000Y-133465000D02*
X305310000Y-38245000D01*
X305120000Y-46485000D02*
X304440000Y-46185000D01*
X304440000Y-46185000D02*
X304440000Y-46785000D01*
X304440000Y-46785000D02*
X305120000Y-46485000D01*
X306470000Y-43354000D02*
X311970000Y-43354000D01*
X311970000Y-43354000D02*
X311970000Y-44354000D01*
X311970000Y-44354000D02*
X314970000Y-44354000D01*
X314970000Y-44354000D02*
X314970000Y-127355000D01*
X314970000Y-127355000D02*
X311970000Y-127355000D01*
X311970000Y-127355000D02*
X311970000Y-128355000D01*
X311970000Y-128355000D02*
X306470000Y-128355000D01*
X306470000Y-128355000D02*
X306470000Y-43354000D01*
X234190000Y-38245000D02*
X245010000Y-38245000D01*
X245010000Y-38245000D02*
X245010000Y-133465000D01*
X245010000Y-133465000D02*
X234190000Y-133465000D01*
X234190000Y-133465000D02*
X234190000Y-38245000D01*
X234000000Y-46485000D02*
X233320000Y-46185000D01*
X233320000Y-46185000D02*
X233320000Y-46785000D01*
X233320000Y-46785000D02*
X234000000Y-46485000D01*
X235350000Y-43354000D02*
X240850000Y-43354000D01*
X240850000Y-43354000D02*
X240850000Y-44354000D01*
X240850000Y-44354000D02*
X243850000Y-44354000D01*
X243850000Y-44354000D02*
X243850000Y-127355000D01*
X243850000Y-127355000D02*
X240850000Y-127355000D01*
X240850000Y-127355000D02*
X240850000Y-128355000D01*
X240850000Y-128355000D02*
X235350000Y-128355000D01*
X235350000Y-128355000D02*
X235350000Y-43354000D01*
X163070000Y-38245000D02*
X173890000Y-38245000D01*
X173890000Y-38245000D02*
X173890000Y-133465000D01*
X173890000Y-133465000D02*
X163070000Y-133465000D01*
X163070000Y-133465000D02*
X163070000Y-38245000D01*
X162880000Y-46485000D02*
X162200000Y-46185000D01*
X162200000Y-46185000D02*
X162200000Y-46785000D01*
X162200000Y-46785000D02*
X162880000Y-46485000D01*
X164230000Y-43354000D02*
X169730000Y-43354000D01*
X169730000Y-43354000D02*
X169730000Y-44354000D01*
X169730000Y-44354000D02*
X172730000Y-44354000D01*
X172730000Y-44354000D02*
X172730000Y-127355000D01*
X172730000Y-127355000D02*
X169730000Y-127355000D01*
X169730000Y-127355000D02*
X169730000Y-128355000D01*
X169730000Y-128355000D02*
X164230000Y-128355000D01*
X164230000Y-128355000D02*
X164230000Y-43354000D01*
X93110000Y-128355000D02*
X93110000Y-43354000D01*
X98610000Y-128355000D02*
X93110000Y-128355000D01*
X98610000Y-127355000D02*
X98610000Y-128355000D01*
X101610000Y-127355000D02*
X98610000Y-127355000D01*
X101610000Y-44354000D02*
X101610000Y-127355000D01*
X98610000Y-44354000D02*
X101610000Y-44354000D01*
X98610000Y-43354000D02*
X98610000Y-44354000D01*
X93110000Y-43354000D02*
X98610000Y-43354000D01*
X91080000Y-46785000D02*
X91760000Y-46485000D01*
X91080000Y-46185000D02*
X91080000Y-46785000D01*
X91760000Y-46485000D02*
X91080000Y-46185000D01*
X91950000Y-133465000D02*
X91950000Y-38245000D01*
X102770000Y-133465000D02*
X91950000Y-133465000D01*
X102770000Y-38245000D02*
X102770000Y-133465000D01*
X91950000Y-38245000D02*
X102770000Y-38245000D01*
X21990000Y-128355000D02*
X21990000Y-43354000D01*
X27490000Y-128355000D02*
X21990000Y-128355000D01*
X27490000Y-127355000D02*
X27490000Y-128355000D01*
X30490000Y-127355000D02*
X27490000Y-127355000D01*
X30490000Y-44354000D02*
X30490000Y-127355000D01*
X27490000Y-44354000D02*
X30490000Y-44354000D01*
X27490000Y-43354000D02*
X27490000Y-44354000D01*
X21990000Y-43354000D02*
X27490000Y-43354000D01*
X19960000Y-46785000D02*
X20640000Y-46485000D01*
X19960000Y-46185000D02*
X19960000Y-46785000D01*
X20640000Y-46485000D02*
X19960000Y-46185000D01*
X20830000Y-133465000D02*
X20830000Y-38245000D01*
X31650000Y-133465000D02*
X20830000Y-133465000D01*
X31650000Y-38245000D02*
X31650000Y-133465000D01*
X20830000Y-38245000D02*
X31650000Y-38245000D01*
D12*
X36066666Y-36807380D02*
X36066666Y-37521666D01*
X36019047Y-37664523D01*
X35923809Y-37759761D01*
X35780952Y-37807380D01*
X35685714Y-37807380D01*
X36447619Y-36807380D02*
X37114285Y-36807380D01*
X36685714Y-37807380D01*
X391190476Y-36807380D02*
X391190476Y-37521666D01*
X391142857Y-37664523D01*
X391047619Y-37759761D01*
X390904761Y-37807380D01*
X390809523Y-37807380D01*
X392190476Y-37807380D02*
X391619047Y-37807380D01*
X391904761Y-37807380D02*
X391904761Y-36807380D01*
X391809523Y-36950238D01*
X391714285Y-37045476D01*
X391619047Y-37093095D01*
X392571428Y-36902619D02*
X392619047Y-36855000D01*
X392714285Y-36807380D01*
X392952380Y-36807380D01*
X393047619Y-36855000D01*
X393095238Y-36902619D01*
X393142857Y-36997857D01*
X393142857Y-37093095D01*
X393095238Y-37235952D01*
X392523809Y-37807380D01*
X393142857Y-37807380D01*
X320070476Y-36807380D02*
X320070476Y-37521666D01*
X320022857Y-37664523D01*
X319927619Y-37759761D01*
X319784761Y-37807380D01*
X319689523Y-37807380D01*
X321070476Y-37807380D02*
X320499047Y-37807380D01*
X320784761Y-37807380D02*
X320784761Y-36807380D01*
X320689523Y-36950238D01*
X320594285Y-37045476D01*
X320499047Y-37093095D01*
X322022857Y-37807380D02*
X321451428Y-37807380D01*
X321737142Y-37807380D02*
X321737142Y-36807380D01*
X321641904Y-36950238D01*
X321546666Y-37045476D01*
X321451428Y-37093095D01*
X248950476Y-36807380D02*
X248950476Y-37521666D01*
X248902857Y-37664523D01*
X248807619Y-37759761D01*
X248664761Y-37807380D01*
X248569523Y-37807380D01*
X249950476Y-37807380D02*
X249379047Y-37807380D01*
X249664761Y-37807380D02*
X249664761Y-36807380D01*
X249569523Y-36950238D01*
X249474285Y-37045476D01*
X249379047Y-37093095D01*
X250569523Y-36807380D02*
X250664761Y-36807380D01*
X250760000Y-36855000D01*
X250807619Y-36902619D01*
X250855238Y-36997857D01*
X250902857Y-37188333D01*
X250902857Y-37426428D01*
X250855238Y-37616904D01*
X250807619Y-37712142D01*
X250760000Y-37759761D01*
X250664761Y-37807380D01*
X250569523Y-37807380D01*
X250474285Y-37759761D01*
X250426666Y-37712142D01*
X250379047Y-37616904D01*
X250331428Y-37426428D01*
X250331428Y-37188333D01*
X250379047Y-36997857D01*
X250426666Y-36902619D01*
X250474285Y-36855000D01*
X250569523Y-36807380D01*
X178306666Y-36807380D02*
X178306666Y-37521666D01*
X178259047Y-37664523D01*
X178163809Y-37759761D01*
X178020952Y-37807380D01*
X177925714Y-37807380D01*
X178830476Y-37807380D02*
X179020952Y-37807380D01*
X179116190Y-37759761D01*
X179163809Y-37712142D01*
X179259047Y-37569285D01*
X179306666Y-37378809D01*
X179306666Y-36997857D01*
X179259047Y-36902619D01*
X179211428Y-36855000D01*
X179116190Y-36807380D01*
X178925714Y-36807380D01*
X178830476Y-36855000D01*
X178782857Y-36902619D01*
X178735238Y-36997857D01*
X178735238Y-37235952D01*
X178782857Y-37331190D01*
X178830476Y-37378809D01*
X178925714Y-37426428D01*
X179116190Y-37426428D01*
X179211428Y-37378809D01*
X179259047Y-37331190D01*
X179306666Y-37235952D01*
X107186666Y-36807380D02*
X107186666Y-37521666D01*
X107139047Y-37664523D01*
X107043809Y-37759761D01*
X106900952Y-37807380D01*
X106805714Y-37807380D01*
X107805714Y-37235952D02*
X107710476Y-37188333D01*
X107662857Y-37140714D01*
X107615238Y-37045476D01*
X107615238Y-36997857D01*
X107662857Y-36902619D01*
X107710476Y-36855000D01*
X107805714Y-36807380D01*
X107996190Y-36807380D01*
X108091428Y-36855000D01*
X108139047Y-36902619D01*
X108186666Y-36997857D01*
X108186666Y-37045476D01*
X108139047Y-37140714D01*
X108091428Y-37188333D01*
X107996190Y-37235952D01*
X107805714Y-37235952D01*
X107710476Y-37283571D01*
X107662857Y-37331190D01*
X107615238Y-37426428D01*
X107615238Y-37616904D01*
X107662857Y-37712142D01*
X107710476Y-37759761D01*
X107805714Y-37807380D01*
X107996190Y-37807380D01*
X108091428Y-37759761D01*
X108139047Y-37712142D01*
X108186666Y-37616904D01*
X108186666Y-37426428D01*
X108139047Y-37331190D01*
X108091428Y-37283571D01*
X107996190Y-37235952D01*
D10*
X78443809Y-125816666D02*
X79491428Y-125816666D01*
X78234285Y-126445238D02*
X78967619Y-124245238D01*
X79700952Y-126445238D01*
X80434285Y-126445238D02*
X80434285Y-124245238D01*
X81272380Y-124245238D01*
X81481904Y-124350000D01*
X81586666Y-124454761D01*
X81691428Y-124664285D01*
X81691428Y-124978571D01*
X81586666Y-125188095D01*
X81481904Y-125292857D01*
X81272380Y-125397619D01*
X80434285Y-125397619D01*
X84100952Y-126654761D02*
X83891428Y-126550000D01*
X83681904Y-126340476D01*
X83367619Y-126026190D01*
X83158095Y-125921428D01*
X82948571Y-125921428D01*
X83053333Y-126445238D02*
X82843809Y-126340476D01*
X82634285Y-126130952D01*
X82529523Y-125711904D01*
X82529523Y-124978571D01*
X82634285Y-124559523D01*
X82843809Y-124350000D01*
X83053333Y-124245238D01*
X83472380Y-124245238D01*
X83681904Y-124350000D01*
X83891428Y-124559523D01*
X83996190Y-124978571D01*
X83996190Y-125711904D01*
X83891428Y-126130952D01*
X83681904Y-126340476D01*
X83472380Y-126445238D01*
X83053333Y-126445238D01*
D12*
X381506666Y-36807380D02*
X381506666Y-37521666D01*
X381459047Y-37664523D01*
X381363809Y-37759761D01*
X381220952Y-37807380D01*
X381125714Y-37807380D01*
X382411428Y-36807380D02*
X382220952Y-36807380D01*
X382125714Y-36855000D01*
X382078095Y-36902619D01*
X381982857Y-37045476D01*
X381935238Y-37235952D01*
X381935238Y-37616904D01*
X381982857Y-37712142D01*
X382030476Y-37759761D01*
X382125714Y-37807380D01*
X382316190Y-37807380D01*
X382411428Y-37759761D01*
X382459047Y-37712142D01*
X382506666Y-37616904D01*
X382506666Y-37378809D01*
X382459047Y-37283571D01*
X382411428Y-37235952D01*
X382316190Y-37188333D01*
X382125714Y-37188333D01*
X382030476Y-37235952D01*
X381982857Y-37283571D01*
X381935238Y-37378809D01*
X310386666Y-36807380D02*
X310386666Y-37521666D01*
X310339047Y-37664523D01*
X310243809Y-37759761D01*
X310100952Y-37807380D01*
X310005714Y-37807380D01*
X311339047Y-36807380D02*
X310862857Y-36807380D01*
X310815238Y-37283571D01*
X310862857Y-37235952D01*
X310958095Y-37188333D01*
X311196190Y-37188333D01*
X311291428Y-37235952D01*
X311339047Y-37283571D01*
X311386666Y-37378809D01*
X311386666Y-37616904D01*
X311339047Y-37712142D01*
X311291428Y-37759761D01*
X311196190Y-37807380D01*
X310958095Y-37807380D01*
X310862857Y-37759761D01*
X310815238Y-37712142D01*
X239266666Y-36807380D02*
X239266666Y-37521666D01*
X239219047Y-37664523D01*
X239123809Y-37759761D01*
X238980952Y-37807380D01*
X238885714Y-37807380D01*
X240171428Y-37140714D02*
X240171428Y-37807380D01*
X239933333Y-36759761D02*
X239695238Y-37474047D01*
X240314285Y-37474047D01*
X168146666Y-36807380D02*
X168146666Y-37521666D01*
X168099047Y-37664523D01*
X168003809Y-37759761D01*
X167860952Y-37807380D01*
X167765714Y-37807380D01*
X168527619Y-36807380D02*
X169146666Y-36807380D01*
X168813333Y-37188333D01*
X168956190Y-37188333D01*
X169051428Y-37235952D01*
X169099047Y-37283571D01*
X169146666Y-37378809D01*
X169146666Y-37616904D01*
X169099047Y-37712142D01*
X169051428Y-37759761D01*
X168956190Y-37807380D01*
X168670476Y-37807380D01*
X168575238Y-37759761D01*
X168527619Y-37712142D01*
X97026666Y-36807380D02*
X97026666Y-37521666D01*
X96979047Y-37664523D01*
X96883809Y-37759761D01*
X96740952Y-37807380D01*
X96645714Y-37807380D01*
X97455238Y-36902619D02*
X97502857Y-36855000D01*
X97598095Y-36807380D01*
X97836190Y-36807380D01*
X97931428Y-36855000D01*
X97979047Y-36902619D01*
X98026666Y-36997857D01*
X98026666Y-37093095D01*
X97979047Y-37235952D01*
X97407619Y-37807380D01*
X98026666Y-37807380D01*
X25906666Y-36807380D02*
X25906666Y-37521666D01*
X25859047Y-37664523D01*
X25763809Y-37759761D01*
X25620952Y-37807380D01*
X25525714Y-37807380D01*
X26906666Y-37807380D02*
X26335238Y-37807380D01*
X26620952Y-37807380D02*
X26620952Y-36807380D01*
X26525714Y-36950238D01*
X26430476Y-37045476D01*
X26335238Y-37093095D01*
M02*
